<svg version="1.1" viewBox="0.0 0.0 960.0 540.0" fill="none" stroke="none" stroke-linecap="square" stroke-miterlimit="10" xmlns:xlink="http://www.w3.org/1999/xlink" xmlns="http://www.w3.org/2000/svg"><clipPath id="gd14e585c8b_0_79.0"><path d="m0 0l960.0 0l0 540.0l-960.0 0l0 -540.0z" clip-rule="nonzero"/></clipPath><g clip-path="url(#gd14e585c8b_0_79.0)"><path fill="#ffffff" d="m0 0l960.0 0l0 540.0l-960.0 0z" fill-rule="evenodd"/><path fill="#9fc5e8" d="m17.335958 114.94226l0 0c0 -26.509674 21.490332 -48.0 48.0 -48.0l0 0c12.730392 0 24.939377 5.0571213 33.941124 14.058868c9.001747 9.001747 14.058876 21.21074 14.058876 33.94113l0 0c0 26.509659 -21.490334 48.0 -48.0 48.0l0 0c-26.50967 0 -48.0 -21.490341 -48.0 -48.0z" fill-rule="evenodd"/><path stroke="#595959" stroke-width="1.0" stroke-linejoin="round" stroke-linecap="butt" d="m17.335958 114.94226l0 0c0 -26.509674 21.490332 -48.0 48.0 -48.0l0 0c12.730392 0 24.939377 5.0571213 33.941124 14.058868c9.001747 9.001747 14.058876 21.21074 14.058876 33.94113l0 0c0 26.509659 -21.490334 48.0 -48.0 48.0l0 0c-26.50967 0 -48.0 -21.490341 -48.0 -48.0z" fill-rule="evenodd"/><path fill="#000000" d="m43.825245 110.86226l0 -13.359375l2.6875 0l0 13.359375l-2.6875 0zm14.042679 0l-2.5625 0l0 -4.9375q0 -1.5625 -0.171875 -2.015625q-0.15625 -0.46875 -0.53125 -0.71875q-0.359375 -0.265625 -0.875 -0.265625q-0.671875 0 -1.203125 0.375q-0.53125 0.359375 -0.734375 0.96875q-0.1875 0.59375 -0.1875 2.21875l0 4.375l-2.546875 0l0 -9.671875l2.375 0l0 1.421875q1.265625 -1.640625 3.1875 -1.640625q0.84375 0 1.546875 0.3125q0.703125 0.296875 1.0625 0.78125q0.359375 0.46875 0.5 1.078125q0.140625 0.59375 0.140625 1.703125l0 6.015625zm2.5209808 -9.671875l2.390625 0l0 1.421875q0.46875 -0.734375 1.2499962 -1.1875q0.796875 -0.453125 1.765625 -0.453125q1.6875 0 2.859375 1.328125q1.171875 1.3125 1.171875 3.671875q0 2.421875 -1.1875 3.765625q-1.1875 1.34375 -2.859375 1.34375q-0.8125 0 -1.46875 -0.3125q-0.6406212 -0.328125 -1.3593712 -1.09375l0 4.8749924l-2.5625 0l0 -13.359367zm2.53125 4.671875q0 1.625 0.640625 2.40625q0.6562462 0.78125 1.5781212 0.78125q0.90625 0 1.484375 -0.71875q0.59375 -0.71875 0.59375 -2.34375q0 -1.515625 -0.609375 -2.25q-0.609375 -0.75 -1.515625 -0.75q-0.9375 0 -1.5624962 0.734375q-0.609375 0.71875 -0.609375 2.140625zm15.302227 5.0l0 -1.453125q-0.53125 0.78125 -1.390625 1.234375q-0.859375 0.4375 -1.8125 0.4375q-0.96875 0 -1.75 -0.421875q-0.765625 -0.4375 -1.125 -1.203125q-0.34375 -0.78125 -0.34375 -2.140625l0 -6.125l2.5625 0l0 4.4375q0 2.046875 0.140625 2.515625q0.140625 0.453125 0.515625 0.71875q0.375 0.265625 0.953125 0.265625q0.65625 0 1.171875 -0.359375q0.515625 -0.359375 0.703125 -0.890625q0.203125 -0.53125 0.203125 -2.609375l0 -4.078125l2.546875 0l0 9.671875l-2.375 0zm9.474106 -9.671875l0 2.03125l-1.75 0l0 3.90625q0 1.1875 0.046875 1.390625q0.046875 0.1875 0.21875 0.3125q0.1875 0.125 0.4375 0.125q0.359375 0 1.03125 -0.25l0.21875 2.0q-0.890625 0.375 -2.015625 0.375q-0.703125 0 -1.265625 -0.234375q-0.546875 -0.234375 -0.8125 -0.59375q-0.25 -0.375 -0.34375 -1.0q-0.09375 -0.453125 -0.09375 -1.8125l0 -4.21875l-1.171875 0l0 -2.03125l1.171875 0l0 -1.921875l2.578125 -1.5l0 3.421875l1.75 0z" fill-rule="nonzero"/><path fill="#000000" d="m56.36649 129.53413l-1.25 0l0 -2.0000076l1.640625 0l0.546875 -2.6875l-2.1875 0l0 -2.015625l2.609375 0l0.71875 -3.546875l2.03125 0l-0.71875 3.546875l2.015625 0l0.703125 -3.546875l2.1093712 0l-0.7187462 3.546875l1.2499962 0l0 2.015625l-1.6718712 0l-0.546875 2.6875l2.2187462 0l0 2.0000076l-2.6249962 0l-0.71875 3.5625l-2.03125 0l0.703125 -3.5625l-2.015625 0l-0.734375 3.5625l-2.046875 0l0.71875 -3.5625zm3.0 -4.6875076l-0.546875 2.6875l2.03125 0l0.515625 -2.6875l-2.0 0zm13.313213 8.015633l-2.5625 0l0 -9.640633q-1.40625 1.3125 -3.3125 1.9375l0 -2.328125q1.015625 -0.328125 2.1875 -1.234375q1.171875 -0.921875 1.609375 -2.140625l2.078125 0l0 13.406258z" fill-rule="nonzero"/><path fill="#9fc5e8" d="m17.335958 259.29922l0 0c0 -26.509674 21.490332 -48.000015 48.0 -48.000015l0 0c12.730392 0 24.939377 5.057129 33.941124 14.058884c9.001747 9.0017395 14.058876 21.210724 14.058876 33.94113l0 0c0 26.509644 -21.490334 48.0 -48.0 48.0l0 0c-26.50967 0 -48.0 -21.490356 -48.0 -48.0z" fill-rule="evenodd"/><path stroke="#595959" stroke-width="1.0" stroke-linejoin="round" stroke-linecap="butt" d="m17.335958 259.29922l0 0c0 -26.509674 21.490332 -48.000015 48.0 -48.000015l0 0c12.730392 0 24.939377 5.057129 33.941124 14.058884c9.001747 9.0017395 14.058876 21.210724 14.058876 33.94113l0 0c0 26.509644 -21.490334 48.0 -48.0 48.0l0 0c-26.50967 0 -48.0 -21.490356 -48.0 -48.0z" fill-rule="evenodd"/><path fill="#000000" d="m43.825245 255.21921l0 -13.359375l2.6875 0l0 13.359375l-2.6875 0zm14.042679 0l-2.5625 0l0 -4.9375q0 -1.5625 -0.171875 -2.015625q-0.15625 -0.46875 -0.53125 -0.71875q-0.359375 -0.265625 -0.875 -0.265625q-0.671875 0 -1.203125 0.375q-0.53125 0.359375 -0.734375 0.96875q-0.1875 0.59375 -0.1875 2.21875l0 4.375l-2.546875 0l0 -9.671875l2.375 0l0 1.421875q1.265625 -1.640625 3.1875 -1.640625q0.84375 0 1.546875 0.3125q0.703125 0.296875 1.0625 0.78125q0.359375 0.46875 0.5 1.078125q0.140625 0.59375 0.140625 1.703125l0 6.015625zm2.5209808 -9.671875l2.390625 0l0 1.421875q0.46875 -0.734375 1.2499962 -1.1875q0.796875 -0.453125 1.765625 -0.453125q1.6875 0 2.859375 1.328125q1.171875 1.3125 1.171875 3.671875q0 2.421875 -1.1875 3.765625q-1.1875 1.34375 -2.859375 1.34375q-0.8125 0 -1.46875 -0.3125q-0.6406212 -0.328125 -1.3593712 -1.09375l0 4.875l-2.5625 0l0 -13.359375zm2.53125 4.671875q0 1.625 0.640625 2.40625q0.6562462 0.78125 1.5781212 0.78125q0.90625 0 1.484375 -0.71875q0.59375 -0.71875 0.59375 -2.34375q0 -1.515625 -0.609375 -2.25q-0.609375 -0.75 -1.515625 -0.75q-0.9375 0 -1.5624962 0.734375q-0.609375 0.71875 -0.609375 2.140625zm15.302227 5.0l0 -1.453125q-0.53125 0.78125 -1.390625 1.234375q-0.859375 0.4375 -1.8125 0.4375q-0.96875 0 -1.75 -0.421875q-0.765625 -0.4375 -1.125 -1.203125q-0.34375 -0.78125 -0.34375 -2.140625l0 -6.125l2.5625 0l0 4.4375q0 2.046875 0.140625 2.515625q0.140625 0.453125 0.515625 0.71875q0.375 0.265625 0.953125 0.265625q0.65625 0 1.171875 -0.359375q0.515625 -0.359375 0.703125 -0.890625q0.203125 -0.53125 0.203125 -2.609375l0 -4.078125l2.546875 0l0 9.671875l-2.375 0zm9.474106 -9.671875l0 2.03125l-1.75 0l0 3.90625q0 1.1875 0.046875 1.390625q0.046875 0.1875 0.21875 0.3125q0.1875 0.125 0.4375 0.125q0.359375 0 1.03125 -0.25l0.21875 2.0q-0.890625 0.375 -2.015625 0.375q-0.703125 0 -1.265625 -0.234375q-0.546875 -0.234375 -0.8125 -0.59375q-0.25 -0.375 -0.34375 -1.0q-0.09375 -0.453125 -0.09375 -1.8125l0 -4.21875l-1.171875 0l0 -2.03125l1.171875 0l0 -1.921875l2.578125 -1.5l0 3.421875l1.75 0z" fill-rule="nonzero"/><path fill="#000000" d="m56.36649 273.89108l-1.25 0l0 -2.0l1.640625 0l0.546875 -2.6875l-2.1875 0l0 -2.015625l2.609375 0l0.71875 -3.546875l2.03125 0l-0.71875 3.546875l2.015625 0l0.703125 -3.546875l2.1093712 0l-0.7187462 3.546875l1.2499962 0l0 2.015625l-1.6718712 0l-0.546875 2.6875l2.2187462 0l0 2.0l-2.6249962 0l-0.71875 3.5625l-2.03125 0l0.703125 -3.5625l-2.015625 0l-0.734375 3.5625l-2.046875 0l0.71875 -3.5625zm3.0 -4.6875l-0.546875 2.6875l2.03125 0l0.515625 -2.6875l-2.0 0zm15.406963 5.640625l0 2.375l-8.96875 0q0.140625 -1.34375 0.859375 -2.546875q0.734375 -1.21875 2.890625 -3.203125q1.734375 -1.625 2.125 -2.1875q0.53125 -0.796875 0.53125 -1.578125q0 -0.84375 -0.46875 -1.296875q-0.453125 -0.46875 -1.265625 -0.46875q-0.796875 0 -1.28125 0.484375q-0.46875 0.46875 -0.546875 1.59375l-2.546875 -0.25q0.234375 -2.109375 1.421875 -3.03125q1.203125 -0.921875 3.015625 -0.921875q1.96875 0 3.09375 1.0625q1.140625 1.0625 1.140625 2.65625q0 0.890625 -0.328125 1.71875q-0.3125 0.8125 -1.015625 1.703125q-0.46875 0.59375 -1.6875 1.703125q-1.203125 1.109375 -1.53125 1.484375q-0.3125 0.359375 -0.515625 0.703125l5.078125 0z" fill-rule="nonzero"/><path fill="#9fc5e8" d="m17.335958 403.65616l0 0c0 -26.509644 21.490332 -48.0 48.0 -48.0l0 0c12.730392 0 24.939377 5.057129 33.941124 14.058899c9.001747 9.0017395 14.058876 21.210724 14.058876 33.9411l0 0c0 26.509674 -21.490334 48.0 -48.0 48.0l0 0c-26.50967 0 -48.0 -21.490326 -48.0 -48.0z" fill-rule="evenodd"/><path stroke="#595959" stroke-width="1.0" stroke-linejoin="round" stroke-linecap="butt" d="m17.335958 403.65616l0 0c0 -26.509644 21.490332 -48.0 48.0 -48.0l0 0c12.730392 0 24.939377 5.057129 33.941124 14.058899c9.001747 9.0017395 14.058876 21.210724 14.058876 33.9411l0 0c0 26.509674 -21.490334 48.0 -48.0 48.0l0 0c-26.50967 0 -48.0 -21.490326 -48.0 -48.0z" fill-rule="evenodd"/><path fill="#000000" d="m67.491844 410.57617l-2.5625 0l0 -9.640625q-1.4062462 1.3125 -3.3124962 1.9375l0 -2.328125q1.015625 -0.328125 2.1875 -1.234375q1.1718712 -0.921875 1.6093712 -2.140625l2.078125 0l0 13.40625z" fill-rule="nonzero"/><path fill="#000000" fill-opacity="0.0" d="m113.33596 114.94226l39.55906 34.582672" fill-rule="evenodd"/><path stroke="#e06666" stroke-width="3.0" stroke-linejoin="round" stroke-linecap="butt" d="m113.33596 114.94226l26.007332 22.735703" fill-rule="evenodd"/><path fill="#e06666" stroke="#e06666" stroke-width="3.0" stroke-linecap="butt" d="m136.08195 141.4086l13.511169 5.2298126l-6.988495 -12.691086z" fill-rule="evenodd"/><path fill="#000000" fill-opacity="0.0" d="m113.33596 259.29922l39.55906 0" fill-rule="evenodd"/><path stroke="#e06666" stroke-width="3.0" stroke-linejoin="round" stroke-linecap="butt" d="m113.33596 259.29922l21.55906 0" fill-rule="evenodd"/><path fill="#e06666" stroke="#e06666" stroke-width="3.0" stroke-linecap="butt" d="m134.89502 264.25443l13.614288 -4.9552l-13.614288 -4.9552155z" fill-rule="evenodd"/><path fill="#000000" fill-opacity="0.0" d="m113.33596 403.65616l39.55906 -34.582672" fill-rule="evenodd"/><path stroke="#e06666" stroke-width="3.0" stroke-linejoin="round" stroke-linecap="butt" d="m113.33596 403.65616l26.007332 -22.735687" fill-rule="evenodd"/><path fill="#e06666" stroke="#e06666" stroke-width="3.0" stroke-linecap="butt" d="m142.60463 384.6511l6.988495 -12.691071l-13.511169 5.2297974z" fill-rule="evenodd"/><path fill="#000000" fill-opacity="0.0" d="m52.658794 168.94751l6.9291306 0l0 30.708664l-6.9291306 0z" fill-rule="evenodd"/><path fill="#000000" d="m52.275425 182.4275l0 -1.875l1.875 0l0 1.875l-1.875 0zm5.183304 0l0 -1.875l1.875 0l0 1.875l-1.875 0z" fill-rule="nonzero"/><path fill="#3d85c6" d="m738.95276 259.29922l0 0c0 -50.36664 40.8302 -91.19687 91.19684 -91.19687l0 0c24.18689 0 47.38318 9.608215 64.4859 26.710953c17.102722 17.102722 26.710938 40.298996 26.710938 64.485916l0 0c0 50.366608 -40.8302 91.19684 -91.19684 91.19684l0 0c-50.36664 0 -91.19684 -40.83023 -91.19684 -91.19684z" fill-rule="evenodd"/><path stroke="#595959" stroke-width="1.0" stroke-linejoin="round" stroke-linecap="butt" d="m738.95276 259.29922l0 0c0 -50.36664 40.8302 -91.19687 91.19684 -91.19687l0 0c24.18689 0 47.38318 9.608215 64.4859 26.710953c17.102722 17.102722 26.710938 40.298996 26.710938 64.485916l0 0c0 50.366608 -40.8302 91.19684 -91.19684 91.19684l0 0c-50.36664 0 -91.19684 -40.83023 -91.19684 -91.19684z" fill-rule="evenodd"/><path fill="#000000" d="m803.0008 266.2192l0 -13.35936l5.6875 0q2.140625 0 3.109375 0.359375q0.96875 0.359375 1.546875 1.28125q0.578125 0.921875 0.578125 2.1093597q0 1.5 -0.890625 2.484375q-0.875 0.96875 -2.625 1.234375q0.875 0.5 1.4375 1.125q0.578125 0.609375 1.53125 2.15625l1.640625 2.609375l-3.234375 0l-1.9375 -2.90625q-1.046875 -1.5625 -1.4375 -1.96875q-0.375 -0.40625 -0.8125 -0.546875q-0.421875 -0.15625 -1.34375 -0.15625l-0.546875 0l0 5.578125l-2.703125 0zm2.703125 -7.703125l2.0 0q1.9375 0 2.421875 -0.15625q0.484375 -0.171875 0.75 -0.578125q0.28125 -0.40625 0.28125 -1.0q0 -0.671875 -0.359375 -1.0781097q-0.359375 -0.421875 -1.015625 -0.53125q-0.328125 -0.046875 -1.96875 -0.046875l-2.109375 0l0 3.3906097zm16.347961 4.625l2.546875 0.421875q-0.484375 1.40625 -1.546875 2.140625q-1.0625 0.734375 -2.65625 0.734375q-2.515625 0 -3.734375 -1.65625q-0.953125 -1.3125 -0.953125 -3.328125q0 -2.40625 1.25 -3.765625q1.265625 -1.359375 3.1875 -1.359375q2.15625 0 3.40625 1.421875q1.25 1.421875 1.1875 4.375l-6.40625 0q0.03125 1.140625 0.609375 1.78125q0.59375 0.625 1.484375 0.625q0.59375 0 1.0 -0.328125q0.421875 -0.328125 0.625 -1.0625zm0.15625 -2.59375q-0.03125 -1.109375 -0.578125 -1.6875q-0.546875 -0.578125 -1.328125 -0.578125q-0.84375 0 -1.390625 0.609375q-0.546875 0.609375 -0.53125 1.65625l3.828125 0zm3.7194824 2.90625l2.5625 -0.390625q0.171875 0.75 0.671875 1.140625q0.5 0.390625 1.40625 0.390625q0.984375 0 1.484375 -0.375q0.34375 -0.25 0.34375 -0.671875q0 -0.296875 -0.1875 -0.484375q-0.1875 -0.1875 -0.859375 -0.34375q-3.09375 -0.6875 -3.921875 -1.25q-1.140625 -0.78125 -1.140625 -2.171875q0 -1.265625 0.984375 -2.109375q1.0 -0.859375 3.078125 -0.859375q1.984375 0 2.953125 0.65625q0.96875 0.640625 1.328125 1.90625l-2.40625 0.4375q-0.15625 -0.5625 -0.59375 -0.859375q-0.421875 -0.296875 -1.234375 -0.296875q-1.0 0 -1.4375 0.28125q-0.296875 0.203125 -0.296875 0.515625q0 0.265625 0.25 0.46875q0.34375 0.25 2.390625 0.71875q2.046875 0.453125 2.859375 1.140625q0.796875 0.671875 0.796875 1.890625q0 1.34375 -1.109375 2.296875q-1.109375 0.953125 -3.28125 0.953125q-1.984375 0 -3.140625 -0.796875q-1.140625 -0.8125 -1.5 -2.1875zm17.641296 2.765625l0 -1.453125q-0.53125 0.78125 -1.390625 1.234375q-0.859375 0.4375 -1.8125 0.4375q-0.96875 0 -1.75 -0.421875q-0.765625 -0.4375 -1.125 -1.203125q-0.34375 -0.78125 -0.34375 -2.140625l0 -6.125l2.5625 0l0 4.4375q0 2.046875 0.140625 2.515625q0.140625 0.453125 0.515625 0.71875q0.375 0.265625 0.953125 0.265625q0.65625 0 1.171875 -0.359375q0.515625 -0.359375 0.703125 -0.890625q0.203125 -0.53125 0.203125 -2.609375l0 -4.078125l2.546875 0l0 9.671875l-2.375 0zm5.036621 0l0 -13.35936l2.5625 0l0 13.35936l-2.5625 0zm9.620789 -9.671875l0 2.03125l-1.75 0l0 3.90625q0 1.1875 0.046875 1.390625q0.046875 0.1875 0.21875 0.3125q0.1875 0.125 0.4375 0.125q0.359375 0 1.03125 -0.25l0.21875 2.0q-0.890625 0.375 -2.015625 0.375q-0.703125 0 -1.265625 -0.234375q-0.546875 -0.234375 -0.8125 -0.59375q-0.25 -0.375 -0.34375 -1.0q-0.09375 -0.453125 -0.09375 -1.8125l0 -4.21875l-1.171875 0l0 -2.03125l1.171875 0l0 -1.9218597l2.578125 -1.5l0 3.4218597l1.75 0z" fill-rule="nonzero"/><path fill="#000000" fill-opacity="0.0" d="m617.02216 260.84262l121.921265 -1.5433044" fill-rule="evenodd"/><path stroke="#e06666" stroke-width="3.0" stroke-linejoin="round" stroke-linecap="butt" d="m617.02216 260.84265l103.92273 -1.3154907" fill-rule="evenodd"/><path fill="#e06666" stroke="#e06666" stroke-width="3.0" stroke-linecap="butt" d="m721.00757 264.48196l13.550476 -5.1271057l-13.675903 -4.782486z" fill-rule="evenodd"/><path fill="#9fc5e8" d="m152.89502 149.52493l0 0c0 -26.509666 21.490326 -48.0 48.0 -48.0l0 0c12.730392 0 24.939377 5.057129 33.941116 14.058876c9.001755 9.001747 14.058884 21.210732 14.058884 33.941124l0 0c0 26.509674 -21.490341 48.0 -48.0 48.0l0 0c-26.509674 0 -48.0 -21.490326 -48.0 -48.0z" fill-rule="evenodd"/><path stroke="#595959" stroke-width="1.0" stroke-linejoin="round" stroke-linecap="butt" d="m152.89502 149.52493l0 0c0 -26.509666 21.490326 -48.0 48.0 -48.0l0 0c12.730392 0 24.939377 5.057129 33.941116 14.058876c9.001755 9.001747 14.058884 21.210732 14.058884 33.941124l0 0c0 26.509674 -21.490341 48.0 -48.0 48.0l0 0c-26.509674 0 -48.0 -21.490326 -48.0 -48.0z" fill-rule="evenodd"/><path fill="#000000" d="m203.0509 156.44493l-2.5625 0l0 -9.640625q-1.40625 1.3125 -3.3125 1.9375l0 -2.328125q1.015625 -0.328125 2.1875 -1.234375q1.171875 -0.921875 1.609375 -2.140625l2.078125 0l0 13.40625z" fill-rule="nonzero"/><path fill="#9fc5e8" d="m152.89502 259.29922l0 0c0 -26.509674 21.490326 -48.000015 48.0 -48.000015l0 0c12.730392 0 24.939377 5.057129 33.941116 14.058884c9.001755 9.0017395 14.058884 21.210724 14.058884 33.94113l0 0c0 26.509644 -21.490341 48.0 -48.0 48.0l0 0c-26.509674 0 -48.0 -21.490356 -48.0 -48.0z" fill-rule="evenodd"/><path stroke="#595959" stroke-width="1.0" stroke-linejoin="round" stroke-linecap="butt" d="m152.89502 259.29922l0 0c0 -26.509674 21.490326 -48.000015 48.0 -48.000015l0 0c12.730392 0 24.939377 5.057129 33.941116 14.058884c9.001755 9.0017395 14.058884 21.210724 14.058884 33.94113l0 0c0 26.509644 -21.490341 48.0 -48.0 48.0l0 0c-26.509674 0 -48.0 -21.490356 -48.0 -48.0z" fill-rule="evenodd"/><path fill="#000000" d="m193.64769 262.6567l0 -2.5625l5.03125 0l0 2.5625l-5.03125 0zm14.603302 1.1875l0 2.375l-8.96875 0q0.140625 -1.34375 0.859375 -2.546875q0.734375 -1.21875 2.890625 -3.203125q1.734375 -1.625 2.125 -2.1875q0.53125 -0.796875 0.53125 -1.578125q0 -0.84375 -0.46875 -1.296875q-0.453125 -0.46875 -1.265625 -0.46875q-0.796875 0 -1.28125 0.484375q-0.46875 0.46875 -0.546875 1.59375l-2.546875 -0.25q0.234375 -2.109375 1.421875 -3.03125q1.203125 -0.921875 3.015625 -0.921875q1.96875 0 3.09375 1.0625q1.140625 1.0625 1.140625 2.65625q0 0.890625 -0.328125 1.71875q-0.3125 0.8125 -1.015625 1.703125q-0.46875 0.59375 -1.6875 1.703125q-1.203125 1.109375 -1.53125 1.484375q-0.3125 0.359375 -0.515625 0.703125l5.078125 0z" fill-rule="nonzero"/><path fill="#9fc5e8" d="m152.89502 369.0735l0 0c0 -26.509674 21.490326 -48.0 48.0 -48.0l0 0c12.730392 0 24.939377 5.057129 33.941116 14.058868c9.001755 9.00177 14.058884 21.210754 14.058884 33.94113l0 0c0 26.509674 -21.490341 48.0 -48.0 48.0l0 0c-26.509674 0 -48.0 -21.490326 -48.0 -48.0z" fill-rule="evenodd"/><path stroke="#595959" stroke-width="1.0" stroke-linejoin="round" stroke-linecap="butt" d="m152.89502 369.0735l0 0c0 -26.509674 21.490326 -48.0 48.0 -48.0l0 0c12.730392 0 24.939377 5.057129 33.941116 14.058868c9.001755 9.00177 14.058884 21.210754 14.058884 33.94113l0 0c0 26.509674 -21.490341 48.0 -48.0 48.0l0 0c-26.509674 0 -48.0 -21.490326 -48.0 -48.0z" fill-rule="evenodd"/><path fill="#000000" d="m200.83215 362.58725q1.9375 0 3.03125 1.375q1.296875 1.640625 1.296875 5.4375q0 3.796875 -1.3125 5.453125q-1.078125 1.375 -3.015625 1.375q-1.953125 0 -3.15625 -1.5q-1.1875 -1.5 -1.1875 -5.34375q0 -3.78125 1.3125 -5.4375q1.078125 -1.359375 3.03125 -1.359375zm0 2.125q-0.46875 0 -0.84375 0.296875q-0.359375 0.296875 -0.5625 1.0625q-0.25 0.984375 -0.25 3.328125q0 2.359375 0.234375 3.234375q0.234375 0.875 0.59375 1.171875q0.359375 0.296875 0.828125 0.296875q0.453125 0 0.8125 -0.296875q0.375 -0.296875 0.578125 -1.0625q0.265625 -0.984375 0.265625 -3.34375q0 -2.34375 -0.25 -3.21875q-0.234375 -0.875 -0.59375 -1.171875q-0.359375 -0.296875 -0.8125 -0.296875z" fill-rule="nonzero"/><path fill="#000000" fill-opacity="0.0" d="m234.83614 335.13235l150.11024 -75.8425" fill-rule="evenodd"/><path stroke="#e06666" stroke-width="3.0" stroke-linejoin="round" stroke-linecap="butt" d="m234.83614 335.13235l134.04439 -67.72531" fill-rule="evenodd"/><path fill="#e06666" stroke="#e06666" stroke-width="3.0" stroke-linecap="butt" d="m371.11508 271.82977l9.91684 -10.562164l-14.385986 1.7166748z" fill-rule="evenodd"/><path fill="#000000" fill-opacity="0.0" d="m248.89502 259.29922l136.06299 0" fill-rule="evenodd"/><path stroke="#e06666" stroke-width="3.0" stroke-linejoin="round" stroke-linecap="butt" d="m248.89502 259.29922l118.06299 0" fill-rule="evenodd"/><path fill="#e06666" stroke="#e06666" stroke-width="3.0" stroke-linecap="butt" d="m366.958 264.25443l13.614288 -4.9552l-13.614288 -4.9552155z" fill-rule="evenodd"/><path fill="#6fa8dc" d="m617.02216 260.84262l-230.51971 230.51971l-3.086609 -464.126z" fill-rule="evenodd"/><path stroke="#595959" stroke-width="1.0" stroke-linejoin="round" stroke-linecap="butt" d="m617.02216 260.84262l-230.51971 230.51971l-3.086609 -464.126z" fill-rule="evenodd"/><path fill="#000000" fill-opacity="0.0" d="m411.9685 239.06299l136.06299 0l0 42.015747l-136.06299 0z" fill-rule="evenodd"/><path fill="#000000" d="m430.49582 265.983l0 -13.35939l2.6875 0l0 13.35939l-2.6875 0zm14.042664 0l-2.5625 0l0 -4.9375q0 -1.5625 -0.171875 -2.015625q-0.15625 -0.46875 -0.53125 -0.71875q-0.359375 -0.265625 -0.875 -0.265625q-0.671875 0 -1.203125 0.375q-0.53125 0.359375 -0.734375 0.96875q-0.1875 0.59375 -0.1875 2.21875l0 4.375l-2.546875 0l0 -9.671875l2.375 0l0 1.421875q1.265625 -1.640625 3.1875 -1.640625q0.84375 0 1.546875 0.3125q0.703125 0.296875 1.0625 0.78125q0.359375 0.46875 0.5 1.078125q0.140625 0.59375 0.140625 1.703125l0 6.015625zm5.255371 0l-3.90625 -9.671875l2.6875 0l1.828125 4.9375l0.53125 1.640625q0.203125 -0.625 0.265625 -0.828125q0.125 -0.40625 0.265625 -0.8125l1.84375 -4.9375l2.625 0l-3.84375 9.671875l-2.296875 0zm13.313202 -3.078125l2.546875 0.421875q-0.484375 1.40625 -1.546875 2.140625q-1.0625 0.734375 -2.65625 0.734375q-2.515625 0 -3.734375 -1.65625q-0.953125 -1.3125 -0.953125 -3.328125q0 -2.40625 1.25 -3.765625q1.265625 -1.359375 3.1875 -1.359375q2.15625 0 3.40625 1.421875q1.25 1.421875 1.1875 4.375l-6.40625 0q0.03125 1.140625 0.609375 1.78125q0.59375 0.625 1.484375 0.625q0.59375 0 1.0 -0.328125q0.421875 -0.328125 0.625 -1.0625zm0.15625 -2.59375q-0.03125 -1.109375 -0.578125 -1.6875q-0.546875 -0.578125 -1.328125 -0.578125q-0.84375 0 -1.390625 0.609375q-0.546875 0.609375 -0.53125 1.65625l3.828125 0zm7.0788574 5.671875l-2.5625 0l0 -9.671875l2.375 0l0 1.375q0.609375 -0.984375 1.09375 -1.28125q0.484375 -0.3125 1.109375 -0.3125q0.875 0 1.6875 0.484375l-0.796875 2.234375q-0.640625 -0.421875 -1.203125 -0.421875q-0.53125 0 -0.90625 0.296875q-0.375 0.296875 -0.59375 1.078125q-0.203125 0.765625 -0.203125 3.234375l0 2.984375zm9.244629 -9.671875l0 2.03125l-1.75 0l0 3.90625q0 1.1875 0.046875 1.390625q0.046875 0.1875 0.21875 0.3125q0.1875 0.125 0.4375 0.125q0.359375 0 1.03125 -0.25l0.21875 2.0q-0.890625 0.375 -2.015625 0.375q-0.703125 0 -1.265625 -0.234375q-0.546875 -0.234375 -0.8125 -0.59375q-0.25 -0.375 -0.34375 -1.0q-0.09375 -0.453125 -0.09375 -1.8125l0 -4.21875l-1.171875 0l0 -2.03125l1.171875 0l0 -1.9218903l2.578125 -1.5l0 3.4218903l1.75 0zm6.8959656 9.671875l0 -13.35939l2.6875 0l0 13.35939l-2.6875 0zm14.042694 0l-2.5625 0l0 -4.9375q0 -1.5625 -0.171875 -2.015625q-0.15625 -0.46875 -0.53125 -0.71875q-0.359375 -0.265625 -0.875 -0.265625q-0.671875 0 -1.203125 0.375q-0.53125 0.359375 -0.734375 0.96875q-0.1875 0.59375 -0.1875 2.21875l0 4.375l-2.546875 0l0 -9.671875l2.375 0l0 1.421875q1.265625 -1.640625 3.1875 -1.640625q0.84375 0 1.546875 0.3125q0.703125 0.296875 1.0625 0.78125q0.359375 0.46875 0.5 1.078125q0.140625 0.59375 0.140625 1.703125l0 6.015625zm2.5209656 -9.671875l2.390625 0l0 1.421875q0.46875 -0.734375 1.25 -1.1875q0.796875 -0.453125 1.765625 -0.453125q1.6875 0 2.859375 1.328125q1.1719055 1.3125 1.1719055 3.671875q0 2.421875 -1.1875305 3.765625q-1.1875 1.34375 -2.859375 1.34375q-0.8125 0 -1.46875 -0.3125q-0.640625 -0.328125 -1.359375 -1.09375l0 4.875l-2.5625 0l0 -13.359375zm2.53125 4.671875q0 1.625 0.640625 2.40625q0.65625 0.78125 1.578125 0.78125q0.90625 0 1.484375 -0.71875q0.59375 -0.71875 0.59375 -2.34375q0 -1.515625 -0.609375 -2.25q-0.609375 -0.75 -1.515625 -0.75q-0.9375 0 -1.5625 0.734375q-0.609375 0.71875 -0.609375 2.140625zm15.302216 5.0l0 -1.453125q-0.53125 0.78125 -1.390625 1.234375q-0.859375 0.4375 -1.8125 0.4375q-0.96875 0 -1.75 -0.421875q-0.765625 -0.4375 -1.125 -1.203125q-0.34375 -0.78125 -0.34375 -2.140625l0 -6.125l2.5625 0l0 4.4375q0 2.046875 0.140625 2.515625q0.140625 0.453125 0.515625 0.71875q0.375 0.265625 0.953125 0.265625q0.65625 0 1.171875 -0.359375q0.515625 -0.359375 0.703125 -0.890625q0.203125 -0.53125 0.203125 -2.609375l0 -4.078125l2.546875 0l0 9.671875l-2.375 0zm9.474121 -9.671875l0 2.03125l-1.75 0l0 3.90625q0 1.1875 0.046875 1.390625q0.046875 0.1875 0.21875 0.3125q0.1875 0.125 0.4375 0.125q0.359375 0 1.03125 -0.25l0.21875 2.0q-0.890625 0.375 -2.015625 0.375q-0.703125 0 -1.265625 -0.234375q-0.546875 -0.234375 -0.8125 -0.59375q-0.25 -0.375 -0.34375 -1.0q-0.09375 -0.453125 -0.09375 -1.8125l0 -4.21875l-1.171875 0l0 -2.03125l1.171875 0l0 -1.9218903l2.578125 -1.5l0 3.4218903l1.75 0z" fill-rule="nonzero"/></g></svg>