<svg version="1.1" viewBox="0.0 0.0 960.0 540.0" fill="none" stroke="none" stroke-linecap="square" stroke-miterlimit="10" xmlns:xlink="http://www.w3.org/1999/xlink" xmlns="http://www.w3.org/2000/svg"><clipPath id="ge33596442c_0_0.0"><path d="m0 0l960.0 0l0 540.0l-960.0 0l0 -540.0z" clip-rule="nonzero"/></clipPath><g clip-path="url(#ge33596442c_0_0.0)"><path fill="#ffffff" d="m0 0l960.0 0l0 540.0l-960.0 0z" fill-rule="evenodd"/><path fill="#a4c2f4" d="m30.367455 147.0189l0 0c0 -10.895157 8.832272 -19.727432 19.727428 -19.727432l162.40341 0c5.2320404 0 10.249786 2.078415 13.949402 5.7780304c3.6996155 3.6996155 5.7780304 8.717361 5.7780304 13.949402l0 78.90735c0 10.895157 -8.832275 19.727432 -19.727432 19.727432l-162.40341 0c-10.895157 0 -19.727428 -8.832275 -19.727428 -19.727432z" fill-rule="evenodd"/><path stroke="#595959" stroke-width="1.0" stroke-linejoin="round" stroke-linecap="butt" d="m30.367455 147.0189l0 0c0 -10.895157 8.832272 -19.727432 19.727428 -19.727432l162.40341 0c5.2320404 0 10.249786 2.078415 13.949402 5.7780304c3.6996155 3.6996155 5.7780304 8.717361 5.7780304 13.949402l0 78.90735c0 10.895157 -8.832275 19.727432 -19.727432 19.727432l-162.40341 0c-10.895157 0 -19.727428 -8.832275 -19.727428 -19.727432z" fill-rule="evenodd"/><path fill="#000000" d="m52.27315 179.19258l0 -22.71875l4.625 0l0 18.859375l11.500004 0l0 3.859375l-16.125004 0zm18.375004 -8.53125q0 -2.1875 1.078125 -4.234375q1.078125 -2.046875 3.046875 -3.125q1.984375 -1.078125 4.421875 -1.078125q3.765625 0 6.171875 2.453125q2.40625 2.4375 2.40625 6.171875q0 3.765625 -2.4375 6.25q-2.421875 2.46875 -6.109375 2.46875q-2.28125 0 -4.359375 -1.03125q-2.0625 -1.03125 -3.140625 -3.015625q-1.078125 -2.0 -1.078125 -4.859375zm4.5 0.234375q0 2.46875 1.171875 3.78125q1.171875 1.3125 2.890625 1.3125q1.71875 0 2.875 -1.3125q1.171875 -1.3125 1.171875 -3.8125q0 -2.4375 -1.171875 -3.75q-1.15625 -1.3125 -2.875 -1.3125q-1.71875 0 -2.890625 1.3125q-1.171875 1.3125 -1.171875 3.78125zm31.15625 8.296875l-4.390625 0l0 -8.46875q0 -2.6875 -0.28125 -3.46875q-0.28125 -0.796875 -0.921875 -1.234375q-0.625 -0.4375 -1.515625 -0.4375q-1.140625 0 -2.046875 0.625q-0.90625 0.625 -1.25 1.65625q-0.328125 1.03125 -0.328125 3.8125l0 7.515625l-4.390625 0l0 -16.59375l4.078125 0l0 2.4375q2.171875 -2.8125 5.46875 -2.8125q1.453125 0 2.65625 0.53125q1.203125 0.515625 1.8125 1.328125q0.625 0.8125 0.859375 1.84375q0.25 1.03125 0.25 2.953125l0 10.3125zm4.046875 1.09375l5.015625 0.609375q0.125 0.875 0.578125 1.203125q0.625 0.46875 1.96875 0.46875q1.71875 0 2.578125 -0.515625q0.578125 -0.34375 0.875 -1.109375q0.203125 -0.546875 0.203125 -2.015625l0 -2.421875q-1.96875 2.6875 -4.96875 2.6875q-3.34375 0 -5.296875 -2.828125q-1.53125 -2.234375 -1.53125 -5.5625q0 -4.171875 2.0 -6.375q2.015625 -2.203125 5.0 -2.203125q3.078125 0 5.078125 2.703125l0 -2.328125l4.109375 0l0 14.890625q0 2.9375 -0.484375 4.390625q-0.484375 1.453125 -1.359375 2.28125q-0.875 0.828125 -2.34375 1.296875q-1.453125 0.46875 -3.6875 0.46875q-4.21875 0 -5.984375 -1.453125q-1.765625 -1.4375 -1.765625 -3.65625q0 -0.21875 0.015625 -0.53125zm3.921875 -9.734375q0 2.640625 1.015625 3.875q1.03125 1.21875 2.53125 1.21875q1.609375 0 2.71875 -1.25q1.109375 -1.265625 1.109375 -3.734375q0 -2.578125 -1.0625 -3.828125q-1.0625 -1.25 -2.6875 -1.25q-1.578125 0 -2.609375 1.234375q-1.015625 1.21875 -1.015625 3.734375zm30.109367 8.640625l0 -19.03125l-6.796875 0l0 -3.875l18.203125 0l0 3.875l-6.78125 0l0 19.03125l-4.625 0zm21.59375 -5.28125l4.375 0.734375q-0.84375 2.40625 -2.671875 3.671875q-1.8125 1.25 -4.546875 1.25q-4.328125 0 -6.40625 -2.828125q-1.640625 -2.265625 -1.640625 -5.71875q0 -4.125 2.15625 -6.453125q2.15625 -2.34375 5.453125 -2.34375q3.703125 0 5.84375 2.453125q2.140625 2.4375 2.046875 7.484375l-11.0 0q0.046875 1.953125 1.0625 3.046875q1.015625 1.078125 2.53125 1.078125q1.03125 0 1.734375 -0.5625q0.703125 -0.5625 1.0625 -1.8125zm0.25 -4.4375q-0.046875 -1.90625 -0.984375 -2.890625q-0.9375 -1.0 -2.28125 -1.0q-1.4375 0 -2.375 1.046875q-0.9375 1.046875 -0.921875 2.84375l6.5625 0zm12.140625 9.71875l-4.390625 0l0 -16.59375l4.078125 0l0 2.359375q1.046875 -1.671875 1.875 -2.203125q0.84375 -0.53125 1.90625 -0.53125q1.5 0 2.890625 0.828125l-1.359375 3.828125q-1.109375 -0.71875 -2.0625 -0.71875q-0.921875 0 -1.5625 0.515625q-0.640625 0.5 -1.015625 1.828125q-0.359375 1.328125 -0.359375 5.5625l0 5.125zm7.921875 -16.59375l4.046875 0l0 2.265625q2.171875 -2.640625 5.171875 -2.640625q1.59375 0 2.765625 0.65625q1.171875 0.65625 1.921875 1.984375q1.09375 -1.328125 2.359375 -1.984375q1.265625 -0.65625 2.703125 -0.65625q1.828125 0 3.09375 0.75q1.265625 0.734375 1.890625 2.171875q0.453125 1.0625 0.453125 3.4375l0 10.609375l-4.390625 0l0 -9.484375q0 -2.46875 -0.453125 -3.1875q-0.609375 -0.9375 -1.875 -0.9375q-0.921875 0 -1.734375 0.5625q-0.8125 0.5625 -1.171875 1.65625q-0.359375 1.078125 -0.359375 3.421875l0 7.96875l-4.390625 0l0 -9.09375q0 -2.421875 -0.234375 -3.125q-0.234375 -0.703125 -0.734375 -1.046875q-0.484375 -0.34375 -1.328125 -0.34375q-1.015625 0 -1.828125 0.546875q-0.8125 0.546875 -1.171875 1.578125q-0.34375 1.03125 -0.34375 3.421875l0 8.0625l-4.390625 0l0 -16.59375z" fill-rule="nonzero"/><path fill="#000000" d="m72.210655 217.19258l0 -22.90625l6.921875 0l4.15625 15.625l4.109375 -15.625l6.9375 0l0 22.90625l-4.296875 0l0 -18.03125l-4.546875 18.03125l-4.453125 0l-4.53125 -18.03125l0 18.03125l-4.296875 0zm36.296875 -5.28125l4.375 0.734375q-0.84375 2.40625 -2.671875 3.671875q-1.8125 1.25 -4.546875 1.25q-4.328125 0 -6.40625 -2.828125q-1.640625 -2.265625 -1.640625 -5.71875q0 -4.125 2.15625 -6.453125q2.15625 -2.34375 5.453125 -2.34375q3.703125 0 5.84375 2.453125q2.140625 2.4375 2.046875 7.484375l-11.0 0q0.046875 1.953125 1.0625 3.046875q1.015625 1.078125 2.53125 1.078125q1.03125 0 1.734375 -0.5625q0.703125 -0.5625 1.0625 -1.8125zm0.25 -4.4375q-0.046875 -1.90625 -0.984375 -2.890625q-0.9375 -1.0 -2.28125 -1.0q-1.4375 0 -2.375 1.046875q-0.9375 1.046875 -0.921875 2.84375l6.5625 0zm7.609375 -6.875l4.046875 0l0 2.265625q2.171875 -2.640625 5.171875 -2.640625q1.59375 0 2.7656174 0.65625q1.171875 0.65625 1.921875 1.984375q1.09375 -1.328125 2.359375 -1.984375q1.265625 -0.65625 2.703125 -0.65625q1.828125 0 3.09375 0.75q1.265625 0.734375 1.890625 2.171875q0.453125 1.0625 0.453125 3.4375l0 10.609375l-4.390625 0l0 -9.484375q0 -2.46875 -0.453125 -3.1875q-0.609375 -0.9375 -1.875 -0.9375q-0.921875 0 -1.734375 0.5625q-0.8125 0.5625 -1.171875 1.65625q-0.359375 1.078125 -0.359375 3.421875l0 7.96875l-4.3906174 0l0 -9.09375q0 -2.421875 -0.234375 -3.125q-0.234375 -0.703125 -0.734375 -1.046875q-0.484375 -0.34375 -1.328125 -0.34375q-1.015625 0 -1.828125 0.546875q-0.8125 0.546875 -1.171875 1.578125q-0.34375 1.03125 -0.34375 3.421875l0 8.0625l-4.390625 0l0 -16.59375zm27.765617 8.0625q0 -2.1875 1.078125 -4.234375q1.078125 -2.046875 3.046875 -3.125q1.984375 -1.078125 4.421875 -1.078125q3.765625 0 6.171875 2.453125q2.40625 2.4375 2.40625 6.171875q0 3.765625 -2.4375 6.25q-2.421875 2.46875 -6.109375 2.46875q-2.28125 0 -4.359375 -1.03125q-2.0625 -1.03125 -3.140625 -3.015625q-1.078125 -2.0 -1.078125 -4.859375zm4.5 0.234375q0 2.46875 1.171875 3.78125q1.171875 1.3125 2.890625 1.3125q1.71875 0 2.875 -1.3125q1.171875 -1.3125 1.171875 -3.8125q0 -2.4375 -1.171875 -3.75q-1.15625 -1.3125 -2.875 -1.3125q-1.71875 0 -2.890625 1.3125q-1.171875 1.3125 -1.171875 3.78125zm20.265625 8.296875l-4.390625 0l0 -16.59375l4.078125 0l0 2.359375q1.046875 -1.671875 1.875 -2.203125q0.84375 -0.53125 1.90625 -0.53125q1.5 0 2.890625 0.828125l-1.359375 3.828125q-1.109375 -0.71875 -2.0625 -0.71875q-0.921875 0 -1.5625 0.515625q-0.640625 0.5 -1.015625 1.828125q-0.359375 1.328125 -0.359375 5.5625l0 5.125zm6.171875 -16.59375l4.671875 0l3.96875 11.78125l3.875 -11.78125l4.546875 0l-5.859375 15.96875l-1.046875 2.890625q-0.578125 1.453125 -1.109375 2.21875q-0.515625 0.765625 -1.203125 1.234375q-0.671875 0.484375 -1.671875 0.75q-0.984375 0.265625 -2.234375 0.265625q-1.265625 0 -2.484375 -0.265625l-0.390625 -3.4375q1.03125 0.203125 1.859375 0.203125q1.53125 0 2.265625 -0.90625q0.734375 -0.890625 1.125 -2.28125l-6.3125 -16.640625z" fill-rule="nonzero"/><path fill="#a4c2f4" d="m30.349081 314.07666l0 0c0 -10.895172 8.83227 -19.727448 19.72743 -19.727448l162.40341 0c5.2320404 0 10.249786 2.0784302 13.949402 5.7780457c3.6996155 3.6996155 5.7780304 8.717346 5.7780304 13.949402l0 78.90735c0 10.895142 -8.832275 19.727417 -19.727432 19.727417l-162.40341 0c-10.895161 0 -19.72743 -8.832275 -19.72743 -19.727417z" fill-rule="evenodd"/><path stroke="#595959" stroke-width="1.0" stroke-linejoin="round" stroke-linecap="butt" d="m30.349081 314.07666l0 0c0 -10.895172 8.83227 -19.727448 19.72743 -19.727448l162.40341 0c5.2320404 0 10.249786 2.0784302 13.949402 5.7780457c3.6996155 3.6996155 5.7780304 8.717346 5.7780304 13.949402l0 78.90735c0 10.895142 -8.832275 19.727417 -19.727432 19.727417l-162.40341 0c-10.895161 0 -19.72743 -8.832275 -19.72743 -19.727417z" fill-rule="evenodd"/><path fill="#000000" d="m48.278217 338.79718l4.5 -0.4375q0.40625 2.265625 1.640625 3.328125q1.25 1.0625 3.359375 1.0625q2.234375 0 3.359375 -0.9375q1.140625 -0.953125 1.140625 -2.21875q0 -0.8125 -0.484375 -1.375q-0.46875 -0.578125 -1.65625 -1.0q-0.8125 -0.28125 -3.703125 -1.0q-3.71875 -0.921875 -5.21875 -2.265625q-2.109375 -1.890625 -2.109375 -4.609375q0 -1.75 0.984375 -3.265625q1.0 -1.53125 2.859375 -2.328125q1.875 -0.796875 4.515625 -0.796875q4.3125 0 6.484375 1.890625q2.1874962 1.890625 2.2968712 5.046875l-4.624996 0.203125q-0.296875 -1.765625 -1.28125 -2.53125q-0.96875 -0.78125 -2.921875 -0.78125q-2.015625 0 -3.15625 0.828125q-0.734375 0.53125 -0.734375 1.421875q0 0.8125 0.6875 1.390625q0.875 0.734375 4.25 1.53125q3.375 0.796875 4.984375 1.65625q1.6249962 0.84375 2.5312462 2.328125q0.921875 1.46875 0.921875 3.640625q0 1.96875 -1.09375 3.6875q-1.09375 1.71875 -3.0937462 2.5625q-2.0 0.828125 -4.984375 0.828125q-4.34375 0 -6.671875 -2.0q-2.328125 -2.015625 -2.78125 -5.859375zm26.859371 -15.453125l0 8.421875q2.125 -2.484375 5.078125 -2.484375q1.515625 0 2.734375 0.5625q1.21875 0.5625 1.828125 1.4375q0.625 0.875 0.84375 1.9375q0.234375 1.0625 0.234375 3.296875l0 9.734375l-4.390625 0l0 -8.765625q0 -2.609375 -0.25 -3.3125q-0.25 -0.703125 -0.890625 -1.109375q-0.625 -0.421875 -1.578125 -0.421875q-1.09375 0 -1.953125 0.53125q-0.859375 0.53125 -1.265625 1.609375q-0.390625 1.0625 -0.390625 3.15625l0 8.3125l-4.390625 0l0 -22.90625l4.390625 0zm14.15625 14.375q0 -2.1875 1.078125 -4.234375q1.078125 -2.046875 3.046875 -3.125q1.984375 -1.078125 4.421875 -1.078125q3.765625 0 6.171875 2.453125q2.40625 2.4375 2.40625 6.171875q0 3.765625 -2.4375 6.25q-2.421875 2.46875 -6.109375 2.46875q-2.28125 0 -4.359375 -1.03125q-2.0625 -1.03125 -3.140625 -3.015625q-1.078125 -2.0 -1.078125 -4.859375zm4.5 0.234375q0 2.46875 1.171875 3.78125q1.171875 1.3125 2.890625 1.3125q1.71875 0 2.875 -1.3125q1.171875 -1.3125 1.171875 -3.8125q0 -2.4375 -1.171875 -3.75q-1.15625 -1.3125 -2.875 -1.3125q-1.71875 0 -2.890625 1.3125q-1.171875 1.3125 -1.171875 3.78125zm20.265625 8.296875l-4.390625 0l0 -16.59375l4.078125 0l0 2.359375q1.046875 -1.671875 1.875 -2.203125q0.84375 -0.53125 1.90625 -0.53125q1.5 0 2.890625 0.828125l-1.359375 3.828125q-1.109375 -0.71875 -2.0625 -0.71875q-0.921875 0 -1.5625 0.515625q-0.640625 0.5 -1.015625 1.828125q-0.359375 1.328125 -0.359375 5.5625l0 5.125zm15.859375 -16.59375l0 3.5l-3.0 0l0 6.6875q0 2.03125 0.078125 2.375q0.09375 0.328125 0.390625 0.546875q0.3125 0.21875 0.75 0.21875q0.609375 0 1.765625 -0.421875l0.375 3.40625q-1.53125 0.65625 -3.46875 0.65625q-1.1875 0 -2.140625 -0.390625q-0.953125 -0.40625 -1.40625 -1.03125q-0.4375 -0.640625 -0.609375 -1.71875q-0.140625 -0.765625 -0.140625 -3.09375l0 -7.234375l-2.015625 0l0 -3.5l2.015625 0l0 -3.296875l4.40625 -2.5625l0 5.859375l3.0 0zm17.125 16.59375l0 -19.03125l-6.796875 0l0 -3.875l18.203125 0l0 3.875l-6.78125 0l0 19.03125l-4.625 0zm21.59375 -5.28125l4.375 0.734375q-0.84375 2.40625 -2.671875 3.671875q-1.8125 1.25 -4.546875 1.25q-4.328125 0 -6.40625 -2.828125q-1.640625 -2.265625 -1.640625 -5.71875q0 -4.125 2.15625 -6.453125q2.15625 -2.34375 5.453125 -2.34375q3.703125 0 5.84375 2.453125q2.140625 2.4375 2.046875 7.484375l-11.0 0q0.046875 1.953125 1.0625 3.046875q1.015625 1.078125 2.53125 1.078125q1.03125 0 1.734375 -0.5625q0.703125 -0.5625 1.0625 -1.8125zm0.25 -4.4375q-0.046875 -1.90625 -0.984375 -2.890625q-0.9375 -1.0 -2.28125 -1.0q-1.4375 0 -2.375 1.046875q-0.9375 1.046875 -0.921875 2.84375l6.5625 0zm12.140625 9.71875l-4.390625 0l0 -16.59375l4.078125 0l0 2.359375q1.046875 -1.671875 1.875 -2.203125q0.84375 -0.53125 1.90625 -0.53125q1.5 0 2.890625 0.828125l-1.359375 3.828125q-1.109375 -0.71875 -2.0625 -0.71875q-0.921875 0 -1.5625 0.515625q-0.640625 0.5 -1.015625 1.828125q-0.359375 1.328125 -0.359375 5.5625l0 5.125zm7.921875 -16.59375l4.046875 0l0 2.265625q2.171875 -2.640625 5.171875 -2.640625q1.59375 0 2.765625 0.65625q1.171875 0.65625 1.921875 1.984375q1.09375 -1.328125 2.359375 -1.984375q1.265625 -0.65625 2.703125 -0.65625q1.828125 0 3.09375 0.75q1.265625 0.734375 1.890625 2.171875q0.453125 1.0625 0.453125 3.4375l0 10.609375l-4.390625 0l0 -9.484375q0 -2.46875 -0.453125 -3.1875q-0.609375 -0.9375 -1.875 -0.9375q-0.921875 0 -1.734375 0.5625q-0.8125 0.5625 -1.171875 1.65625q-0.359375 1.078125 -0.359375 3.421875l0 7.96875l-4.390625 0l0 -9.09375q0 -2.421875 -0.234375 -3.125q-0.234375 -0.703125 -0.734375 -1.046875q-0.484375 -0.34375 -1.328125 -0.34375q-1.015625 0 -1.828125 0.546875q-0.8125 0.546875 -1.171875 1.578125q-0.34375 1.03125 -0.34375 3.421875l0 8.0625l-4.390625 0l0 -16.59375z" fill-rule="nonzero"/><path fill="#000000" d="m72.192276 384.25034l0 -22.90625l6.921875 0l4.15625 15.625l4.109375 -15.625l6.9375 0l0 22.90625l-4.296875 0l0 -18.03125l-4.546875 18.03125l-4.453125 0l-4.53125 -18.03125l0 18.03125l-4.296875 0zm36.296875 -5.28125l4.375 0.734375q-0.84375 2.40625 -2.671875 3.671875q-1.8125 1.25 -4.546875 1.25q-4.328125 0 -6.40625 -2.828125q-1.640625 -2.265625 -1.640625 -5.71875q0 -4.125 2.15625 -6.453125q2.15625 -2.34375 5.453125 -2.34375q3.703125 0 5.84375 2.453125q2.140625 2.4375 2.046875 7.484375l-11.0 0q0.046875 1.953125 1.0625 3.046875q1.015625 1.078125 2.53125 1.078125q1.03125 0 1.734375 -0.5625q0.703125 -0.5625 1.0625 -1.8125zm0.25 -4.4375q-0.046875 -1.90625 -0.984375 -2.890625q-0.9375 -1.0 -2.28125 -1.0q-1.4375 0 -2.375 1.046875q-0.9375 1.046875 -0.921875 2.84375l6.5625 0zm7.609375 -6.875l4.046875 0l0 2.265625q2.171875 -2.640625 5.171875 -2.640625q1.59375 0 2.765625 0.65625q1.171875 0.65625 1.921875 1.984375q1.09375 -1.328125 2.359375 -1.984375q1.265625 -0.65625 2.703125 -0.65625q1.828125 0 3.09375 0.75q1.265625 0.734375 1.890625 2.171875q0.453125 1.0625 0.453125 3.4375l0 10.609375l-4.390625 0l0 -9.484375q0 -2.46875 -0.453125 -3.1875q-0.609375 -0.9375 -1.875 -0.9375q-0.921875 0 -1.734375 0.5625q-0.8125 0.5625 -1.171875 1.65625q-0.359375 1.078125 -0.359375 3.421875l0 7.96875l-4.390625 0l0 -9.09375q0 -2.421875 -0.234375 -3.125q-0.234375 -0.703125 -0.734375 -1.046875q-0.484375 -0.34375 -1.328125 -0.34375q-1.015625 0 -1.828125 0.546875q-0.8125 0.546875 -1.171875 1.578125q-0.34375 1.03125 -0.34375 3.421875l0 8.0625l-4.390625 0l0 -16.59375zm27.765625 8.0625q0 -2.1875 1.078125 -4.234375q1.078125 -2.046875 3.046875 -3.125q1.984375 -1.078125 4.421875 -1.078125q3.765625 0 6.171875 2.453125q2.40625 2.4375 2.40625 6.171875q0 3.765625 -2.4375 6.25q-2.421875 2.46875 -6.109375 2.46875q-2.28125 0 -4.359375 -1.03125q-2.0625 -1.03125 -3.140625 -3.015625q-1.078125 -2.0 -1.078125 -4.859375zm4.5 0.234375q0 2.46875 1.171875 3.78125q1.171875 1.3125 2.890625 1.3125q1.71875 0 2.875 -1.3125q1.171875 -1.3125 1.171875 -3.8125q0 -2.4375 -1.171875 -3.75q-1.15625 -1.3125 -2.875 -1.3125q-1.71875 0 -2.890625 1.3125q-1.171875 1.3125 -1.171875 3.78125zm20.265625 8.296875l-4.390625 0l0 -16.59375l4.078125 0l0 2.359375q1.046875 -1.671875 1.875 -2.203125q0.84375 -0.53125 1.90625 -0.53125q1.5 0 2.890625 0.828125l-1.359375 3.828125q-1.109375 -0.71875 -2.0625 -0.71875q-0.921875 0 -1.5625 0.515625q-0.640625 0.5 -1.015625 1.828125q-0.359375 1.328125 -0.359375 5.5625l0 5.125zm6.171875 -16.59375l4.671875 0l3.96875 11.78125l3.875 -11.78125l4.546875 0l-5.859375 15.96875l-1.046875 2.890625q-0.578125 1.453125 -1.109375 2.21875q-0.515625 0.765625 -1.203125 1.234375q-0.671875 0.484375 -1.671875 0.75q-0.984375 0.265625 -2.234375 0.265625q-1.265625 0 -2.484375 -0.265625l-0.390625 -3.4375q1.03125 0.203125 1.859375 0.203125q1.53125 0 2.265625 -0.90625q0.734375 -0.890625 1.125 -2.28125l-6.3125 -16.640625z" fill-rule="nonzero"/><path fill="#000000" fill-opacity="0.0" d="m266.09448 174.86185l0 0c0 -26.27246 21.298035 -47.57051 47.570526 -47.57051l334.4338 0c12.616455 0 24.716187 5.0118866 33.63739 13.933075c8.921204 8.921204 13.933105 21.02095 13.933105 33.637436l0 190.2763c0 26.27246 -21.298035 47.570496 -47.570496 47.570496l-334.4338 0c-26.272491 0 -47.570526 -21.298035 -47.570526 -47.570496z" fill-rule="evenodd"/><path stroke="#595959" stroke-width="1.0" stroke-linejoin="round" stroke-linecap="butt" d="m266.09448 174.86185l0 0c0 -26.27246 21.298035 -47.57051 47.570526 -47.57051l334.4338 0c12.616455 0 24.716187 5.0118866 33.63739 13.933075c8.921204 8.921204 13.933105 21.02095 13.933105 33.637436l0 190.2763c0 26.27246 -21.298035 47.570496 -47.570496 47.570496l-334.4338 0c-26.272491 0 -47.570526 -21.298035 -47.570526 -47.570496z" fill-rule="evenodd"/><path fill="#6d9eeb" d="m727.79266 147.01614l0 0c0 -10.895157 8.832275 -19.727432 19.727417 -19.727432l162.40338 0c5.2320557 0 10.249817 2.078415 13.949402 5.7780304c3.699646 3.6996155 5.778076 8.717361 5.778076 13.949402l0 78.90735c0 10.895157 -8.832275 19.727432 -19.727478 19.727432l-162.40338 0c-10.895142 0 -19.727417 -8.832275 -19.727417 -19.727432z" fill-rule="evenodd"/><path stroke="#595959" stroke-width="1.0" stroke-linejoin="round" stroke-linecap="butt" d="m727.79266 147.01614l0 0c0 -10.895157 8.832275 -19.727432 19.727417 -19.727432l162.40338 0c5.2320557 0 10.249817 2.078415 13.949402 5.7780304c3.699646 3.6996155 5.778076 8.717361 5.778076 13.949402l0 78.90735c0 10.895157 -8.832275 19.727432 -19.727478 19.727432l-162.40338 0c-10.895142 0 -19.727417 -8.832275 -19.727417 -19.727432z" fill-rule="evenodd"/><path fill="#000000" d="m767.0187 137.28357l4.625 0l0 12.40625q0 2.953125 0.171875 3.828125q0.296875 1.40625 1.40625 2.265625q1.125 0.84375 3.0625 0.84375q1.96875 0 2.96875 -0.796875q1.0 -0.8125 1.203125 -1.984375q0.203125 -1.171875 0.203125 -3.890625l0 -12.671875l4.625 0l0 12.03125q0 4.125 -0.375 5.828125q-0.375 1.703125 -1.390625 2.875q-1.0 1.171875 -2.6875 1.875q-1.6875 0.6875 -4.40625 0.6875q-3.28125 0 -4.984375 -0.75q-1.6875 -0.765625 -2.671875 -1.96875q-0.984375 -1.21875 -1.296875 -2.546875q-0.453125 -1.96875 -0.453125 -5.8125l0 -12.21875zm22.984375 6.3125l4.09375 0l0 2.4375q0.796875 -1.25 2.15625 -2.03125q1.359375 -0.78125 3.015625 -0.78125q2.890625 0 4.90625 2.265625q2.015625 2.265625 2.015625 6.3125q0 4.15625 -2.03125 6.46875q-2.03125 2.296875 -4.921875 2.296875q-1.375 0 -2.5 -0.546875q-1.109375 -0.546875 -2.34375 -1.875l0 8.359375l-4.390625 0l0 -22.90625zm4.34375 8.015625q0 2.796875 1.109375 4.140625q1.109375 1.328125 2.703125 1.328125q1.53125 0 2.546875 -1.21875q1.015625 -1.234375 1.015625 -4.03125q0 -2.609375 -1.046875 -3.875q-1.046875 -1.265625 -2.59375 -1.265625q-1.609375 0 -2.671875 1.25q-1.0625 1.234375 -1.0625 3.671875zm30.546875 8.578125l-4.078125 0l0 -2.4375q-1.015625 1.421875 -2.40625 2.125q-1.375 0.6875 -2.78125 0.6875q-2.859375 0 -4.90625 -2.296875q-2.03125 -2.3125 -2.03125 -6.4375q0 -4.21875 1.984375 -6.40625q1.984375 -2.203125 5.015625 -2.203125q2.78125 0 4.8125 2.3125l0 -8.25l4.390625 0l0 22.90625zm-11.71875 -8.65625q0 2.65625 0.734375 3.84375q1.0625 1.71875 2.96875 1.71875q1.515625 0 2.578125 -1.28125q1.0625 -1.296875 1.0625 -3.859375q0 -2.859375 -1.03125 -4.109375q-1.03125 -1.265625 -2.640625 -1.265625q-1.5625 0 -2.625 1.25q-1.046875 1.234375 -1.046875 3.703125zm19.328125 -2.875l-3.984375 -0.71875q0.671875 -2.40625 2.3125 -3.5625q1.640625 -1.15625 4.875 -1.15625q2.9375 0 4.375 0.703125q1.4375 0.6875 2.015625 1.765625q0.59375 1.0625 0.59375 3.921875l-0.046875 5.125q0 2.1875 0.203125 3.234375q0.21875 1.03125 0.796875 2.21875l-4.34375 0q-0.171875 -0.4375 -0.421875 -1.296875q-0.109375 -0.390625 -0.15625 -0.515625q-1.125 1.09375 -2.40625 1.640625q-1.28125 0.546875 -2.734375 0.546875q-2.5625 0 -4.046875 -1.390625q-1.46875 -1.390625 -1.46875 -3.515625q0 -1.40625 0.671875 -2.5q0.671875 -1.109375 1.875 -1.6875q1.21875 -0.59375 3.5 -1.03125q3.078125 -0.578125 4.265625 -1.078125l0 -0.4375q0 -1.265625 -0.625 -1.796875q-0.625 -0.546875 -2.359375 -0.546875q-1.171875 0 -1.828125 0.46875q-0.65625 0.453125 -1.0625 1.609375zm5.875 3.5625q-0.84375 0.28125 -2.671875 0.671875q-1.828125 0.390625 -2.390625 0.765625q-0.859375 0.609375 -0.859375 1.546875q0 0.921875 0.6875 1.59375q0.6875 0.671875 1.75 0.671875q1.1875 0 2.265625 -0.78125q0.796875 -0.59375 1.046875 -1.453125q0.171875 -0.5625 0.171875 -2.140625l0 -0.875zm16.25 -8.625l0 3.5l-3.0 0l0 6.6875q0 2.03125 0.078125 2.375q0.09375 0.328125 0.390625 0.546875q0.3125 0.21875 0.75 0.21875q0.609375 0 1.765625 -0.421875l0.375 3.40625q-1.53125 0.65625 -3.46875 0.65625q-1.1875 0 -2.140625 -0.390625q-0.953125 -0.40625 -1.40625 -1.03125q-0.4375 -0.640625 -0.609375 -1.71875q-0.140625 -0.765625 -0.140625 -3.09375l0 -7.234375l-2.015625 0l0 -3.5l2.015625 0l0 -3.296875l4.40625 -2.5625l0 5.859375l3.0 0zm12.65625 11.3125l4.375 0.734375q-0.84375 2.40625 -2.671875 3.671875q-1.8125 1.25 -4.546875 1.25q-4.328125 0 -6.40625 -2.828125q-1.640625 -2.265625 -1.640625 -5.71875q0 -4.125 2.15625 -6.453125q2.15625 -2.34375 5.453125 -2.34375q3.703125 0 5.84375 2.453125q2.140625 2.4375 2.046875 7.484375l-11.0 0q0.046875 1.953125 1.0625 3.046875q1.015625 1.078125 2.53125 1.078125q1.03125 0 1.734375 -0.5625q0.703125 -0.5625 1.0625 -1.8125zm0.25 -4.4375q-0.046875 -1.90625 -0.984375 -2.890625q-0.9375 -1.0 -2.28125 -1.0q-1.4375 0 -2.375 1.046875q-0.9375 1.046875 -0.921875 2.84375l6.5625 0zm23.15625 9.71875l-4.078125 0l0 -2.4375q-1.015625 1.421875 -2.40625 2.125q-1.375 0.6875 -2.78125 0.6875q-2.859375 0 -4.90625 -2.296875q-2.03125 -2.3125 -2.03125 -6.4375q0 -4.21875 1.984375 -6.40625q1.984375 -2.203125 5.015625 -2.203125q2.78125 0 4.8125 2.3125l0 -8.25l4.390625 0l0 22.90625zm-11.71875 -8.65625q0 2.65625 0.734375 3.84375q1.0625 1.71875 2.96875 1.71875q1.515625 0 2.578125 -1.28125q1.0625 -1.296875 1.0625 -3.859375q0 -2.859375 -1.03125 -4.109375q-1.03125 -1.265625 -2.640625 -1.265625q-1.5625 0 -2.625 1.25q-1.046875 1.234375 -1.046875 3.703125z" fill-rule="nonzero"/><path fill="#000000" d="m749.69836 198.18982l0 -22.71875l4.625 0l0 18.859375l11.5 0l0 3.859375l-16.125 0zm18.375 -8.53125q0 -2.1875 1.078125 -4.234375q1.078125 -2.046875 3.046875 -3.125q1.984375 -1.078125 4.421875 -1.078125q3.765625 0 6.171875 2.453125q2.40625 2.4375 2.40625 6.171875q0 3.765625 -2.4375 6.25q-2.421875 2.46875 -6.109375 2.46875q-2.28125 0 -4.359375 -1.03125q-2.0625 -1.03125 -3.140625 -3.015625q-1.078125 -2.0 -1.078125 -4.859375zm4.5 0.234375q0 2.46875 1.171875 3.78125q1.171875 1.3125 2.890625 1.3125q1.71875 0 2.875 -1.3125q1.171875 -1.3125 1.171875 -3.8125q0 -2.4375 -1.171875 -3.75q-1.15625 -1.3125 -2.875 -1.3125q-1.71875 0 -2.890625 1.3125q-1.171875 1.3125 -1.171875 3.78125zm31.15625 8.296875l-4.390625 0l0 -8.46875q0 -2.6875 -0.28125 -3.46875q-0.28125 -0.796875 -0.921875 -1.234375q-0.625 -0.4375 -1.515625 -0.4375q-1.140625 0 -2.046875 0.625q-0.90625 0.625 -1.25 1.65625q-0.328125 1.03125 -0.328125 3.8125l0 7.515625l-4.390625 0l0 -16.59375l4.078125 0l0 2.4375q2.171875 -2.8125 5.46875 -2.8125q1.453125 0 2.65625 0.53125q1.203125 0.515625 1.8125 1.328125q0.625 0.8125 0.859375 1.84375q0.25 1.03125 0.25 2.953125l0 10.3125zm4.046875 1.09375l5.015625 0.609375q0.125 0.875 0.578125 1.203125q0.625 0.46875 1.96875 0.46875q1.71875 0 2.578125 -0.515625q0.578125 -0.34375 0.875 -1.109375q0.203125 -0.546875 0.203125 -2.015625l0 -2.421875q-1.96875 2.6875 -4.96875 2.6875q-3.34375 0 -5.296875 -2.828125q-1.53125 -2.234375 -1.53125 -5.5625q0 -4.171875 2.0 -6.375q2.015625 -2.203125 5.0 -2.203125q3.078125 0 5.078125 2.703125l0 -2.328125l4.109375 0l0 14.890625q0 2.9375 -0.484375 4.390625q-0.484375 1.453125 -1.359375 2.28125q-0.875 0.828125 -2.34375 1.296875q-1.453125 0.46875 -3.6875 0.46875q-4.21875 0 -5.984375 -1.453125q-1.765625 -1.4375 -1.765625 -3.65625q0 -0.21875 0.015625 -0.53125zm3.921875 -9.734375q0 2.640625 1.015625 3.875q1.03125 1.21875 2.53125 1.21875q1.609375 0 2.71875 -1.25q1.109375 -1.265625 1.109375 -3.734375q0 -2.578125 -1.0625 -3.828125q-1.0625 -1.25 -2.6875 -1.25q-1.578125 0 -2.609375 1.234375q-1.015625 1.21875 -1.015625 3.734375zm30.109375 8.640625l0 -19.03125l-6.796875 0l0 -3.875l18.203125 0l0 3.875l-6.78125 0l0 19.03125l-4.625 0zm21.59375 -5.28125l4.375 0.734375q-0.84375 2.40625 -2.671875 3.671875q-1.8125 1.25 -4.546875 1.25q-4.328125 0 -6.40625 -2.828125q-1.640625 -2.265625 -1.640625 -5.71875q0 -4.125 2.15625 -6.453125q2.15625 -2.34375 5.453125 -2.34375q3.703125 0 5.84375 2.453125q2.140625 2.4375 2.046875 7.484375l-11.0 0q0.046875 1.953125 1.0625 3.046875q1.015625 1.078125 2.53125 1.078125q1.03125 0 1.734375 -0.5625q0.703125 -0.5625 1.0625 -1.8125zm0.25 -4.4375q-0.046875 -1.90625 -0.984375 -2.890625q-0.9375 -1.0 -2.28125 -1.0q-1.4375 0 -2.375 1.046875q-0.9375 1.046875 -0.921875 2.84375l6.5625 0zm12.140625 9.71875l-4.390625 0l0 -16.59375l4.078125 0l0 2.359375q1.046875 -1.671875 1.875 -2.203125q0.84375 -0.53125 1.90625 -0.53125q1.5 0 2.890625 0.828125l-1.359375 3.828125q-1.109375 -0.71875 -2.0625 -0.71875q-0.921875 0 -1.5625 0.515625q-0.640625 0.5 -1.015625 1.828125q-0.359375 1.328125 -0.359375 5.5625l0 5.125zm7.921875 -16.59375l4.046875 0l0 2.265625q2.171875 -2.640625 5.171875 -2.640625q1.59375 0 2.765625 0.65625q1.171875 0.65625 1.921875 1.984375q1.09375 -1.328125 2.359375 -1.984375q1.265625 -0.65625 2.703125 -0.65625q1.828125 0 3.09375 0.75q1.265625 0.734375 1.890625 2.171875q0.453125 1.0625 0.453125 3.4375l0 10.609375l-4.390625 0l0 -9.484375q0 -2.46875 -0.453125 -3.1875q-0.609375 -0.9375 -1.875 -0.9375q-0.921875 0 -1.734375 0.5625q-0.8125 0.5625 -1.171875 1.65625q-0.359375 1.078125 -0.359375 3.421875l0 7.96875l-4.390625 0l0 -9.09375q0 -2.421875 -0.234375 -3.125q-0.234375 -0.703125 -0.734375 -1.046875q-0.484375 -0.34375 -1.328125 -0.34375q-1.015625 0 -1.828125 0.546875q-0.8125 0.546875 -1.171875 1.578125q-0.34375 1.03125 -0.34375 3.421875l0 8.0625l-4.390625 0l0 -16.59375z" fill-rule="nonzero"/><path fill="#000000" d="m769.63586 236.18982l0 -22.90625l6.921875 0l4.15625 15.625l4.109375 -15.625l6.9375 0l0 22.90625l-4.296875 0l0 -18.03125l-4.546875 18.03125l-4.453125 0l-4.53125 -18.03125l0 18.03125l-4.296875 0zm36.296875 -5.28125l4.375 0.734375q-0.84375 2.40625 -2.671875 3.671875q-1.8125 1.25 -4.546875 1.25q-4.328125 0 -6.40625 -2.828125q-1.640625 -2.265625 -1.640625 -5.71875q0 -4.125 2.15625 -6.453125q2.15625 -2.34375 5.453125 -2.34375q3.703125 0 5.84375 2.453125q2.140625 2.4375 2.046875 7.484375l-11.0 0q0.046875 1.953125 1.0625 3.046875q1.015625 1.078125 2.53125 1.078125q1.03125 0 1.734375 -0.5625q0.703125 -0.5625 1.0625 -1.8125zm0.25 -4.4375q-0.046875 -1.90625 -0.984375 -2.890625q-0.9375 -1.0 -2.28125 -1.0q-1.4375 0 -2.375 1.046875q-0.9375 1.046875 -0.921875 2.84375l6.5625 0zm7.609375 -6.875l4.046875 0l0 2.265625q2.171875 -2.640625 5.171875 -2.640625q1.59375 0 2.765625 0.65625q1.171875 0.65625 1.921875 1.984375q1.09375 -1.328125 2.359375 -1.984375q1.265625 -0.65625 2.703125 -0.65625q1.828125 0 3.09375 0.75q1.265625 0.734375 1.890625 2.171875q0.453125 1.0625 0.453125 3.4375l0 10.609375l-4.390625 0l0 -9.484375q0 -2.46875 -0.453125 -3.1875q-0.609375 -0.9375 -1.875 -0.9375q-0.921875 0 -1.734375 0.5625q-0.8125 0.5625 -1.171875 1.65625q-0.359375 1.078125 -0.359375 3.421875l0 7.96875l-4.390625 0l0 -9.09375q0 -2.421875 -0.234375 -3.125q-0.234375 -0.703125 -0.734375 -1.046875q-0.484375 -0.34375 -1.328125 -0.34375q-1.015625 0 -1.828125 0.546875q-0.8125 0.546875 -1.171875 1.578125q-0.34375 1.03125 -0.34375 3.421875l0 8.0625l-4.390625 0l0 -16.59375zm27.765625 8.0625q0 -2.1875 1.078125 -4.234375q1.078125 -2.046875 3.046875 -3.125q1.984375 -1.078125 4.421875 -1.078125q3.765625 0 6.171875 2.453125q2.40625 2.4375 2.40625 6.171875q0 3.765625 -2.4375 6.25q-2.421875 2.46875 -6.109375 2.46875q-2.28125 0 -4.359375 -1.03125q-2.0625 -1.03125 -3.140625 -3.015625q-1.078125 -2.0 -1.078125 -4.859375zm4.5 0.234375q0 2.46875 1.171875 3.78125q1.171875 1.3125 2.890625 1.3125q1.71875 0 2.875 -1.3125q1.171875 -1.3125 1.171875 -3.8125q0 -2.4375 -1.171875 -3.75q-1.15625 -1.3125 -2.875 -1.3125q-1.71875 0 -2.890625 1.3125q-1.171875 1.3125 -1.171875 3.78125zm20.265625 8.296875l-4.390625 0l0 -16.59375l4.078125 0l0 2.359375q1.046875 -1.671875 1.875 -2.203125q0.84375 -0.53125 1.90625 -0.53125q1.5 0 2.890625 0.828125l-1.359375 3.828125q-1.109375 -0.71875 -2.0625 -0.71875q-0.921875 0 -1.5625 0.515625q-0.640625 0.5 -1.015625 1.828125q-0.359375 1.328125 -0.359375 5.5625l0 5.125zm6.171875 -16.59375l4.671875 0l3.96875 11.78125l3.875 -11.78125l4.546875 0l-5.859375 15.96875l-1.046875 2.890625q-0.578125 1.453125 -1.109375 2.21875q-0.515625 0.765625 -1.203125 1.234375q-0.671875 0.484375 -1.671875 0.75q-0.984375 0.265625 -2.234375 0.265625q-1.265625 0 -2.484375 -0.265625l-0.390625 -3.4375q1.03125 0.203125 1.859375 0.203125q1.53125 0 2.265625 -0.90625q0.734375 -0.890625 1.125 -2.28125l-6.3125 -16.640625z" fill-rule="nonzero"/><path fill="#6d9eeb" d="m727.7743 314.07913l0 0c0 -10.895142 8.832275 -19.727417 19.727417 -19.727417l162.40338 0c5.2320557 0 10.249817 2.0783997 13.949402 5.778015c3.699646 3.6996155 5.778076 8.717377 5.778076 13.949402l0 78.90735c0 10.895172 -8.832275 19.727417 -19.727478 19.727417l-162.40338 0c-10.895142 0 -19.727417 -8.832245 -19.727417 -19.727417z" fill-rule="evenodd"/><path stroke="#595959" stroke-width="1.0" stroke-linejoin="round" stroke-linecap="butt" d="m727.7743 314.07913l0 0c0 -10.895142 8.832275 -19.727417 19.727417 -19.727417l162.40338 0c5.2320557 0 10.249817 2.0783997 13.949402 5.778015c3.699646 3.6996155 5.778076 8.717377 5.778076 13.949402l0 78.90735c0 10.895172 -8.832275 19.727417 -19.727478 19.727417l-162.40338 0c-10.895142 0 -19.727417 -8.832245 -19.727417 -19.727417z" fill-rule="evenodd"/><path fill="#000000" d="m767.0003 304.34656l4.625 0l0 12.40625q0 2.953125 0.171875 3.828125q0.296875 1.40625 1.40625 2.265625q1.125 0.84375 3.0625 0.84375q1.96875 0 2.96875 -0.796875q1.0 -0.8125 1.203125 -1.984375q0.203125 -1.171875 0.203125 -3.890625l0 -12.671875l4.625 0l0 12.03125q0 4.125 -0.375 5.828125q-0.375 1.703125 -1.390625 2.875q-1.0 1.171875 -2.6875 1.875q-1.6875 0.6875 -4.40625 0.6875q-3.28125 0 -4.984375 -0.75q-1.6875 -0.765625 -2.671875 -1.96875q-0.984375 -1.21875 -1.296875 -2.546875q-0.453125 -1.96875 -0.453125 -5.8125l0 -12.21875zm22.984375 6.3125l4.09375 0l0 2.4375q0.796875 -1.25 2.15625 -2.03125q1.359375 -0.78125 3.015625 -0.78125q2.890625 0 4.90625 2.265625q2.015625 2.265625 2.015625 6.3125q0 4.15625 -2.03125 6.46875q-2.03125 2.296875 -4.921875 2.296875q-1.375 0 -2.5 -0.546875q-1.109375 -0.546875 -2.34375 -1.875l0 8.359375l-4.390625 0l0 -22.90625zm4.34375 8.015625q0 2.796875 1.109375 4.140625q1.109375 1.328125 2.703125 1.328125q1.53125 0 2.546875 -1.21875q1.015625 -1.234375 1.015625 -4.03125q0 -2.609375 -1.046875 -3.875q-1.046875 -1.265625 -2.59375 -1.265625q-1.609375 0 -2.671875 1.25q-1.0625 1.234375 -1.0625 3.671875zm30.546875 8.578125l-4.078125 0l0 -2.4375q-1.015625 1.421875 -2.40625 2.125q-1.375 0.6875 -2.78125 0.6875q-2.859375 0 -4.90625 -2.296875q-2.03125 -2.3125 -2.03125 -6.4375q0 -4.21875 1.984375 -6.40625q1.984375 -2.203125 5.015625 -2.203125q2.78125 0 4.8125 2.3125l0 -8.25l4.390625 0l0 22.90625zm-11.71875 -8.65625q0 2.65625 0.734375 3.84375q1.0625 1.71875 2.96875 1.71875q1.515625 0 2.578125 -1.28125q1.0625 -1.296875 1.0625 -3.859375q0 -2.859375 -1.03125 -4.109375q-1.03125 -1.265625 -2.640625 -1.265625q-1.5625 0 -2.625 1.25q-1.046875 1.234375 -1.046875 3.703125zm19.328125 -2.875l-3.984375 -0.71875q0.671875 -2.40625 2.3125 -3.5625q1.640625 -1.15625 4.875 -1.15625q2.9375 0 4.375 0.703125q1.4375 0.6875 2.015625 1.765625q0.59375 1.0625 0.59375 3.921875l-0.046875 5.125q0 2.1875 0.203125 3.234375q0.21875 1.03125 0.796875 2.21875l-4.34375 0q-0.171875 -0.4375 -0.421875 -1.296875q-0.109375 -0.390625 -0.15625 -0.515625q-1.125 1.09375 -2.40625 1.640625q-1.28125 0.546875 -2.734375 0.546875q-2.5625 0 -4.046875 -1.390625q-1.46875 -1.390625 -1.46875 -3.515625q0 -1.40625 0.671875 -2.5q0.671875 -1.109375 1.875 -1.6875q1.21875 -0.59375 3.5 -1.03125q3.078125 -0.578125 4.265625 -1.078125l0 -0.4375q0 -1.265625 -0.625 -1.796875q-0.625 -0.546875 -2.359375 -0.546875q-1.171875 0 -1.828125 0.46875q-0.65625 0.453125 -1.0625 1.609375zm5.875 3.5625q-0.84375 0.28125 -2.671875 0.671875q-1.828125 0.390625 -2.390625 0.765625q-0.859375 0.609375 -0.859375 1.546875q0 0.921875 0.6875 1.59375q0.6875 0.671875 1.75 0.671875q1.1875 0 2.265625 -0.78125q0.796875 -0.59375 1.046875 -1.453125q0.171875 -0.5625 0.171875 -2.140625l0 -0.875zm16.25 -8.625l0 3.5l-3.0 0l0 6.6875q0 2.03125 0.078125 2.375q0.09375 0.328125 0.390625 0.546875q0.3125 0.21875 0.75 0.21875q0.609375 0 1.765625 -0.421875l0.375 3.40625q-1.53125 0.65625 -3.46875 0.65625q-1.1875 0 -2.140625 -0.390625q-0.953125 -0.40625 -1.40625 -1.03125q-0.4375 -0.640625 -0.609375 -1.71875q-0.140625 -0.765625 -0.140625 -3.09375l0 -7.234375l-2.015625 0l0 -3.5l2.015625 0l0 -3.296875l4.40625 -2.5625l0 5.859375l3.0 0zm12.65625 11.3125l4.375 0.734375q-0.84375 2.40625 -2.671875 3.671875q-1.8125 1.25 -4.546875 1.25q-4.328125 0 -6.40625 -2.828125q-1.640625 -2.265625 -1.640625 -5.71875q0 -4.125 2.15625 -6.453125q2.15625 -2.34375 5.453125 -2.34375q3.703125 0 5.84375 2.453125q2.140625 2.4375 2.046875 7.484375l-11.0 0q0.046875 1.953125 1.0625 3.046875q1.015625 1.078125 2.53125 1.078125q1.03125 0 1.734375 -0.5625q0.703125 -0.5625 1.0625 -1.8125zm0.25 -4.4375q-0.046875 -1.90625 -0.984375 -2.890625q-0.9375 -1.0 -2.28125 -1.0q-1.4375 0 -2.375 1.046875q-0.9375 1.046875 -0.921875 2.84375l6.5625 0zm23.15625 9.71875l-4.078125 0l0 -2.4375q-1.015625 1.421875 -2.40625 2.125q-1.375 0.6875 -2.78125 0.6875q-2.859375 0 -4.90625 -2.296875q-2.03125 -2.3125 -2.03125 -6.4375q0 -4.21875 1.984375 -6.40625q1.984375 -2.203125 5.015625 -2.203125q2.78125 0 4.8125 2.3125l0 -8.25l4.390625 0l0 22.90625zm-11.71875 -8.65625q0 2.65625 0.734375 3.84375q1.0625 1.71875 2.96875 1.71875q1.515625 0 2.578125 -1.28125q1.0625 -1.296875 1.0625 -3.859375q0 -2.859375 -1.03125 -4.109375q-1.03125 -1.265625 -2.640625 -1.265625q-1.5625 0 -2.625 1.25q-1.046875 1.234375 -1.046875 3.703125z" fill-rule="nonzero"/><path fill="#000000" d="m745.7034 357.79968l4.5 -0.4375q0.40625 2.265625 1.640625 3.328125q1.25 1.0625 3.359375 1.0625q2.234375 0 3.359375 -0.9375q1.140625 -0.953125 1.140625 -2.21875q0 -0.8125 -0.484375 -1.375q-0.46875 -0.578125 -1.65625 -1.0q-0.8125 -0.28125 -3.703125 -1.0q-3.71875 -0.921875 -5.21875 -2.265625q-2.109375 -1.890625 -2.109375 -4.609375q0 -1.75 0.984375 -3.265625q1.0 -1.53125 2.859375 -2.328125q1.875 -0.796875 4.515625 -0.796875q4.3125 0 6.484375 1.890625q2.1875 1.890625 2.296875 5.046875l-4.625 0.203125q-0.296875 -1.765625 -1.28125 -2.53125q-0.96875 -0.78125 -2.921875 -0.78125q-2.015625 0 -3.15625 0.828125q-0.734375 0.53125 -0.734375 1.421875q0 0.8125 0.6875 1.390625q0.875 0.734375 4.25 1.53125q3.375 0.796875 4.984375 1.65625q1.625 0.84375 2.53125 2.328125q0.921875 1.46875 0.921875 3.640625q0 1.96875 -1.09375 3.6875q-1.09375 1.71875 -3.09375 2.5625q-2.0 0.828125 -4.984375 0.828125q-4.34375 0 -6.671875 -2.0q-2.328125 -2.015625 -2.78125 -5.859375zm26.859375 -15.453125l0 8.421875q2.125 -2.484375 5.078125 -2.484375q1.515625 0 2.734375 0.5625q1.21875 0.5625 1.828125 1.4375q0.625 0.875 0.84375 1.9375q0.234375 1.0625 0.234375 3.296875l0 9.734375l-4.390625 0l0 -8.765625q0 -2.609375 -0.25 -3.3125q-0.25 -0.703125 -0.890625 -1.109375q-0.625 -0.421875 -1.578125 -0.421875q-1.09375 0 -1.953125 0.53125q-0.859375 0.53125 -1.265625 1.609375q-0.390625 1.0625 -0.390625 3.15625l0 8.3125l-4.390625 0l0 -22.90625l4.390625 0zm14.15625 14.375q0 -2.1875 1.078125 -4.234375q1.078125 -2.046875 3.046875 -3.125q1.984375 -1.078125 4.421875 -1.078125q3.765625 0 6.171875 2.453125q2.40625 2.4375 2.40625 6.171875q0 3.765625 -2.4375 6.25q-2.421875 2.46875 -6.109375 2.46875q-2.28125 0 -4.359375 -1.03125q-2.0625 -1.03125 -3.140625 -3.015625q-1.078125 -2.0 -1.078125 -4.859375zm4.5 0.234375q0 2.46875 1.171875 3.78125q1.171875 1.3125 2.890625 1.3125q1.71875 0 2.875 -1.3125q1.171875 -1.3125 1.171875 -3.8125q0 -2.4375 -1.171875 -3.75q-1.15625 -1.3125 -2.875 -1.3125q-1.71875 0 -2.890625 1.3125q-1.171875 1.3125 -1.171875 3.78125zm20.265625 8.296875l-4.390625 0l0 -16.59375l4.078125 0l0 2.359375q1.046875 -1.671875 1.875 -2.203125q0.84375 -0.53125 1.90625 -0.53125q1.5 0 2.890625 0.828125l-1.359375 3.828125q-1.109375 -0.71875 -2.0625 -0.71875q-0.921875 0 -1.5625 0.515625q-0.640625 0.5 -1.015625 1.828125q-0.359375 1.328125 -0.359375 5.5625l0 5.125zm15.859375 -16.59375l0 3.5l-3.0 0l0 6.6875q0 2.03125 0.078125 2.375q0.09375 0.328125 0.390625 0.546875q0.3125 0.21875 0.75 0.21875q0.609375 0 1.765625 -0.421875l0.375 3.40625q-1.53125 0.65625 -3.46875 0.65625q-1.1875 0 -2.140625 -0.390625q-0.953125 -0.40625 -1.40625 -1.03125q-0.4375 -0.640625 -0.609375 -1.71875q-0.140625 -0.765625 -0.140625 -3.09375l0 -7.234375l-2.015625 0l0 -3.5l2.015625 0l0 -3.296875l4.40625 -2.5625l0 5.859375l3.0 0zm17.125 16.59375l0 -19.03125l-6.796875 0l0 -3.875l18.203125 0l0 3.875l-6.78125 0l0 19.03125l-4.625 0zm21.59375 -5.28125l4.375 0.734375q-0.84375 2.40625 -2.671875 3.671875q-1.8125 1.25 -4.546875 1.25q-4.328125 0 -6.40625 -2.828125q-1.640625 -2.265625 -1.640625 -5.71875q0 -4.125 2.15625 -6.453125q2.15625 -2.34375 5.453125 -2.34375q3.703125 0 5.84375 2.453125q2.140625 2.4375 2.046875 7.484375l-11.0 0q0.046875 1.953125 1.0625 3.046875q1.015625 1.078125 2.53125 1.078125q1.03125 0 1.734375 -0.5625q0.703125 -0.5625 1.0625 -1.8125zm0.25 -4.4375q-0.046875 -1.90625 -0.984375 -2.890625q-0.9375 -1.0 -2.28125 -1.0q-1.4375 0 -2.375 1.046875q-0.9375 1.046875 -0.921875 2.84375l6.5625 0zm12.140625 9.71875l-4.390625 0l0 -16.59375l4.078125 0l0 2.359375q1.046875 -1.671875 1.875 -2.203125q0.84375 -0.53125 1.90625 -0.53125q1.5 0 2.890625 0.828125l-1.359375 3.828125q-1.109375 -0.71875 -2.0625 -0.71875q-0.921875 0 -1.5625 0.515625q-0.640625 0.5 -1.015625 1.828125q-0.359375 1.328125 -0.359375 5.5625l0 5.125zm7.921875 -16.59375l4.046875 0l0 2.265625q2.171875 -2.640625 5.171875 -2.640625q1.59375 0 2.765625 0.65625q1.171875 0.65625 1.921875 1.984375q1.09375 -1.328125 2.359375 -1.984375q1.265625 -0.65625 2.703125 -0.65625q1.828125 0 3.09375 0.75q1.265625 0.734375 1.890625 2.171875q0.453125 1.0625 0.453125 3.4375l0 10.609375l-4.390625 0l0 -9.484375q0 -2.46875 -0.453125 -3.1875q-0.609375 -0.9375 -1.875 -0.9375q-0.921875 0 -1.734375 0.5625q-0.8125 0.5625 -1.171875 1.65625q-0.359375 1.078125 -0.359375 3.421875l0 7.96875l-4.390625 0l0 -9.09375q0 -2.421875 -0.234375 -3.125q-0.234375 -0.703125 -0.734375 -1.046875q-0.484375 -0.34375 -1.328125 -0.34375q-1.015625 0 -1.828125 0.546875q-0.8125 0.546875 -1.171875 1.578125q-0.34375 1.03125 -0.34375 3.421875l0 8.0625l-4.390625 0l0 -16.59375z" fill-rule="nonzero"/><path fill="#000000" d="m769.6175 403.2528l0 -22.90625l6.921875 0l4.15625 15.625l4.109375 -15.625l6.9375 0l0 22.90625l-4.296875 0l0 -18.03125l-4.546875 18.03125l-4.453125 0l-4.53125 -18.03125l0 18.03125l-4.296875 0zm36.296875 -5.28125l4.375 0.734375q-0.84375 2.40625 -2.671875 3.671875q-1.8125 1.25 -4.546875 1.25q-4.328125 0 -6.40625 -2.828125q-1.640625 -2.265625 -1.640625 -5.71875q0 -4.125 2.15625 -6.453125q2.15625 -2.34375 5.453125 -2.34375q3.703125 0 5.84375 2.453125q2.140625 2.4375 2.046875 7.484375l-11.0 0q0.046875 1.953125 1.0625 3.046875q1.015625 1.078125 2.53125 1.078125q1.03125 0 1.734375 -0.5625q0.703125 -0.5625 1.0625 -1.8125zm0.25 -4.4375q-0.046875 -1.90625 -0.984375 -2.890625q-0.9375 -1.0 -2.28125 -1.0q-1.4375 0 -2.375 1.046875q-0.9375 1.046875 -0.921875 2.84375l6.5625 0zm7.609375 -6.875l4.046875 0l0 2.265625q2.171875 -2.640625 5.171875 -2.640625q1.59375 0 2.765625 0.65625q1.171875 0.65625 1.921875 1.984375q1.09375 -1.328125 2.359375 -1.984375q1.265625 -0.65625 2.703125 -0.65625q1.828125 0 3.09375 0.75q1.265625 0.734375 1.890625 2.171875q0.453125 1.0625 0.453125 3.4375l0 10.609375l-4.390625 0l0 -9.484375q0 -2.46875 -0.453125 -3.1875q-0.609375 -0.9375 -1.875 -0.9375q-0.921875 0 -1.734375 0.5625q-0.8125 0.5625 -1.171875 1.65625q-0.359375 1.078125 -0.359375 3.421875l0 7.96875l-4.390625 0l0 -9.09375q0 -2.421875 -0.234375 -3.125q-0.234375 -0.703125 -0.734375 -1.046875q-0.484375 -0.34375 -1.328125 -0.34375q-1.015625 0 -1.828125 0.546875q-0.8125 0.546875 -1.171875 1.578125q-0.34375 1.03125 -0.34375 3.421875l0 8.0625l-4.390625 0l0 -16.59375zm27.765625 8.0625q0 -2.1875 1.078125 -4.234375q1.078125 -2.046875 3.046875 -3.125q1.984375 -1.078125 4.421875 -1.078125q3.765625 0 6.171875 2.453125q2.40625 2.4375 2.40625 6.171875q0 3.765625 -2.4375 6.25q-2.421875 2.46875 -6.109375 2.46875q-2.28125 0 -4.359375 -1.03125q-2.0625 -1.03125 -3.140625 -3.015625q-1.078125 -2.0 -1.078125 -4.859375zm4.5 0.234375q0 2.46875 1.171875 3.78125q1.171875 1.3125 2.890625 1.3125q1.71875 0 2.875 -1.3125q1.171875 -1.3125 1.171875 -3.8125q0 -2.4375 -1.171875 -3.75q-1.15625 -1.3125 -2.875 -1.3125q-1.71875 0 -2.890625 1.3125q-1.171875 1.3125 -1.171875 3.78125zm20.265625 8.296875l-4.390625 0l0 -16.59375l4.078125 0l0 2.359375q1.046875 -1.671875 1.875 -2.203125q0.84375 -0.53125 1.90625 -0.53125q1.5 0 2.890625 0.828125l-1.359375 3.828125q-1.109375 -0.71875 -2.0625 -0.71875q-0.921875 0 -1.5625 0.515625q-0.640625 0.5 -1.015625 1.828125q-0.359375 1.328125 -0.359375 5.5625l0 5.125zm6.171875 -16.59375l4.671875 0l3.96875 11.78125l3.875 -11.78125l4.546875 0l-5.859375 15.96875l-1.046875 2.890625q-0.578125 1.453125 -1.109375 2.21875q-0.515625 0.765625 -1.203125 1.234375q-0.671875 0.484375 -1.671875 0.75q-0.984375 0.265625 -2.234375 0.265625q-1.265625 0 -2.484375 -0.265625l-0.390625 -3.4375q1.03125 0.203125 1.859375 0.203125q1.53125 0 2.265625 -0.90625q0.734375 -0.890625 1.125 -2.28125l-6.3125 -16.640625z" fill-rule="nonzero"/><path fill="#c27ba0" d="m284.28668 159.39148l0 0c0 -11.045914 8.954498 -20.000397 20.000427 -20.000397l136.40863 0c5.3044434 0 10.391632 2.1071777 14.142426 5.857971c3.7507935 3.7508087 5.857971 8.837982 5.857971 14.142426l0 79.99919c0 11.045914 -8.954468 20.000412 -20.000397 20.000412l-136.40863 0c-11.045929 0 -20.000427 -8.954498 -20.000427 -20.000412z" fill-rule="evenodd"/><path stroke="#595959" stroke-width="1.0" stroke-linejoin="round" stroke-linecap="butt" d="m284.28668 159.39148l0 0c0 -11.045914 8.954498 -20.000397 20.000427 -20.000397l136.40863 0c5.3044434 0 10.391632 2.1071777 14.142426 5.857971c3.7507935 3.7508087 5.857971 8.837982 5.857971 14.142426l0 79.99919c0 11.045914 -8.954468 20.000412 -20.000397 20.000412l-136.40863 0c-11.045929 0 -20.000427 -8.954498 -20.000427 -20.000412z" fill-rule="evenodd"/><path fill="#000000" d="m331.00217 192.27107l0 -20.046875l13.75 0l0 3.390625l-9.703125 0l0 4.75l8.375 0l0 3.390625l-8.375 0l0 8.515625l-4.046875 0zm16.166016 -7.46875q0 -1.90625 0.9375 -3.703125q0.953125 -1.796875 2.671875 -2.734375q1.734375 -0.9375 3.859375 -0.9375q3.296875 0 5.40625 2.140625q2.109375 2.140625 2.109375 5.40625q0 3.296875 -2.125 5.46875q-2.125 2.15625 -5.359375 2.15625q-2.0 0 -3.8125 -0.90625q-1.796875 -0.90625 -2.75 -2.640625q-0.9375 -1.75 -0.9375 -4.25zm3.9375 0.203125q0 2.171875 1.015625 3.328125q1.03125 1.140625 2.53125 1.140625q1.515625 0 2.53125 -1.140625q1.015625 -1.15625 1.015625 -3.34375q0 -2.140625 -1.015625 -3.28125q-1.015625 -1.15625 -2.53125 -1.15625q-1.5 0 -2.53125 1.15625q-1.015625 1.140625 -1.015625 3.296875zm17.728516 7.265625l-3.84375 0l0 -14.515625l3.578125 0l0 2.0625q0.90625 -1.46875 1.640625 -1.921875q0.734375 -0.46875 1.65625 -0.46875q1.3125 0 2.53125 0.71875l-1.1875 3.34375q-0.96875 -0.625 -1.796875 -0.625q-0.8125 0 -1.375 0.453125q-0.5625 0.4375 -0.890625 1.609375q-0.3125 1.15625 -0.3125 4.859375l0 4.484375zm6.8652344 0.953125l4.390625 0.53125q0.109375 0.765625 0.5 1.0625q0.546875 0.40625 1.71875 0.40625q1.515625 0 2.265625 -0.453125q0.5 -0.296875 0.765625 -0.96875q0.171875 -0.484375 0.171875 -1.765625l0 -2.125q-1.71875 2.359375 -4.34375 2.359375q-2.921875 0 -4.640625 -2.46875q-1.328125 -1.96875 -1.328125 -4.875q0 -3.65625 1.75 -5.578125q1.75 -1.921875 4.375 -1.921875q2.6875 0 4.4375 2.359375l0 -2.03125l3.59375 0l0 13.03125q0 2.5625 -0.421875 3.828125q-0.421875 1.28125 -1.1875 2.0q-0.765625 0.734375 -2.046875 1.140625q-1.28125 0.40625 -3.234375 0.40625q-3.6875 0 -5.234375 -1.265625q-1.546875 -1.265625 -1.546875 -3.203125q0 -0.1875 0.015625 -0.46875zm3.4375 -8.515625q0 2.3125 0.890625 3.390625q0.890625 1.0625 2.203125 1.0625q1.40625 0 2.375 -1.09375q0.984375 -1.109375 0.984375 -3.265625q0 -2.25 -0.9375 -3.34375q-0.921875 -1.09375 -2.34375 -1.09375q-1.390625 0 -2.28125 1.078125q-0.890625 1.0625 -0.890625 3.265625zm22.43164 2.9375l3.828125 0.640625q-0.734375 2.109375 -2.328125 3.21875q-1.59375 1.09375 -3.984375 1.09375q-3.796875 0 -5.609375 -2.46875q-1.4375 -1.984375 -1.4375 -5.015625q0 -3.609375 1.875 -5.640625q1.890625 -2.046875 4.78125 -2.046875q3.234375 0 5.109375 2.140625q1.875 2.140625 1.796875 6.546875l-9.625 0q0.046875 1.71875 0.921875 2.671875q0.890625 0.9375 2.21875 0.9375q0.90625 0 1.515625 -0.484375q0.625 -0.5 0.9375 -1.59375zm0.21875 -3.875q-0.046875 -1.671875 -0.875 -2.53125q-0.8125 -0.875 -1.984375 -0.875q-1.265625 0 -2.078125 0.90625q-0.828125 0.921875 -0.8125 2.5l5.75 0zm13.603516 -6.015625l0 3.0625l-2.625 0l0 5.84375q0 1.78125 0.0625 2.078125q0.078125 0.296875 0.34375 0.484375q0.28125 0.1875 0.65625 0.1875q0.53125 0 1.546875 -0.375l0.328125 2.984375q-1.34375 0.578125 -3.03125 0.578125q-1.046875 0 -1.890625 -0.34375q-0.828125 -0.359375 -1.21875 -0.90625q-0.375 -0.5625 -0.53125 -1.5q-0.125 -0.671875 -0.125 -2.703125l0 -6.328125l-1.765625 0l0 -3.0625l1.765625 0l0 -2.890625l3.859375 -2.234375l0 5.125l2.625 0z" fill-rule="nonzero"/><path fill="#000000" d="m352.72678 218.89607l0 -3.375l8.71875 0l0 7.984375q-1.265625 1.234375 -3.6875 2.171875q-2.40625 0.9375 -4.875 0.9375q-3.140625 0 -5.484375 -1.3125q-2.34375 -1.328125 -3.515625 -3.78125q-1.171875 -2.453125 -1.171875 -5.34375q0 -3.125 1.3125 -5.5625q1.3125 -2.4375 3.84375 -3.734375q1.921875 -1.0 4.796875 -1.0q3.734375 0 5.828125 1.578125q2.09375 1.5625 2.703125 4.3125l-4.015625 0.765625q-0.4375 -1.484375 -1.609375 -2.328125q-1.15625 -0.859375 -2.90625 -0.859375q-2.65625 0 -4.21875 1.6875q-1.5625 1.671875 -1.5625 4.984375q0 3.5625 1.578125 5.34375q1.59375 1.78125 4.15625 1.78125q1.28125 0 2.546875 -0.484375q1.28125 -0.5 2.203125 -1.21875l0 -2.546875l-4.640625 0zm15.294922 -2.71875l-3.484375 -0.625q0.59375 -2.109375 2.03125 -3.109375q1.4375 -1.015625 4.265625 -1.015625q2.5625 0 3.8125 0.609375q1.265625 0.609375 1.78125 1.546875q0.515625 0.921875 0.515625 3.4375l-0.046875 4.484375q0 1.90625 0.1875 2.8125q0.1875 0.90625 0.6875 1.953125l-3.796875 0q-0.15625 -0.390625 -0.375 -1.140625q-0.09375 -0.34375 -0.125 -0.453125q-0.984375 0.96875 -2.109375 1.453125q-1.125 0.46875 -2.390625 0.46875q-2.25 0 -3.546875 -1.21875q-1.28125 -1.21875 -1.28125 -3.078125q0 -1.234375 0.578125 -2.1875q0.59375 -0.96875 1.65625 -1.484375q1.0625 -0.515625 3.0625 -0.890625q2.6875 -0.5 3.71875 -0.9375l0 -0.390625q0 -1.109375 -0.546875 -1.578125q-0.546875 -0.46875 -2.0625 -0.46875q-1.015625 0 -1.59375 0.40625q-0.578125 0.390625 -0.9375 1.40625zm5.140625 3.125q-0.734375 0.234375 -2.34375 0.578125q-1.59375 0.34375 -2.078125 0.671875q-0.75 0.53125 -0.75 1.359375q0 0.796875 0.59375 1.390625q0.609375 0.59375 1.53125 0.59375q1.046875 0 1.984375 -0.6875q0.703125 -0.515625 0.921875 -1.265625q0.140625 -0.5 0.140625 -1.875l0 -0.765625zm14.228516 -7.546875l0 3.0625l-2.625 0l0 5.84375q0 1.78125 0.0625 2.078125q0.078125 0.296875 0.34375 0.484375q0.28125 0.1875 0.65625 0.1875q0.53125 0 1.546875 -0.375l0.328125 2.984375q-1.34375 0.578125 -3.03125 0.578125q-1.046875 0 -1.890625 -0.34375q-0.828125 -0.359375 -1.21875 -0.90625q-0.375 -0.5625 -0.53125 -1.5q-0.125 -0.671875 -0.125 -2.703125l0 -6.328125l-1.765625 0l0 -3.0625l1.765625 0l0 -2.890625l3.859375 -2.234375l0 5.125l2.625 0zm11.074219 9.890625l3.828125 0.640625q-0.734375 2.109375 -2.328125 3.21875q-1.59375 1.09375 -3.984375 1.09375q-3.796875 0 -5.609375 -2.46875q-1.4375 -1.984375 -1.4375 -5.015625q0 -3.609375 1.875 -5.640625q1.890625 -2.046875 4.78125 -2.046875q3.234375 0 5.109375 2.140625q1.875 2.140625 1.796875 6.546875l-9.625 0q0.046875 1.71875 0.921875 2.671875q0.890625 0.9375 2.21875 0.9375q0.90625 0 1.515625 -0.484375q0.625 -0.5 0.9375 -1.59375zm0.21875 -3.875q-0.046875 -1.671875 -0.875 -2.53125q-0.8125 -0.875 -1.984375 -0.875q-1.265625 0 -2.078125 0.90625q-0.828125 0.921875 -0.8125 2.5l5.75 0z" fill-rule="nonzero"/><path fill="#e69138" d="m499.30447 159.39148l0 0c0 -11.045914 8.954468 -20.000397 20.000397 -20.000397l136.40863 0c5.3044434 0 10.391602 2.1071777 14.142456 5.857971c3.7507935 3.7508087 5.857971 8.837982 5.857971 14.142426l0 79.99919c0 11.045914 -8.954529 20.000412 -20.000427 20.000412l-136.40863 0c-11.045929 0 -20.000397 -8.954498 -20.000397 -20.000412z" fill-rule="evenodd"/><path stroke="#595959" stroke-width="1.0" stroke-linejoin="round" stroke-linecap="butt" d="m499.30447 159.39148l0 0c0 -11.045914 8.954468 -20.000397 20.000397 -20.000397l136.40863 0c5.3044434 0 10.391602 2.1071777 14.142456 5.857971c3.7507935 3.7508087 5.857971 8.837982 5.857971 14.142426l0 79.99919c0 11.045914 -8.954529 20.000412 -20.000427 20.000412l-136.40863 0c-11.045929 0 -20.000397 -8.954498 -20.000397 -20.000412z" fill-rule="evenodd"/><path fill="#000000" d="m517.19086 192.27107l0 -20.046875l8.515625 0q3.21875 0 4.671875 0.546875q1.453125 0.53125 2.328125 1.921875q0.875 1.375 0.875 3.15625q0 2.25 -1.328125 3.71875q-1.3125 1.46875 -3.953125 1.859375q1.3125 0.765625 2.15625 1.6875q0.859375 0.90625 2.3125 3.25l2.453125 3.90625l-4.84375 0l-2.921875 -4.359375q-1.5625 -2.34375 -2.140625 -2.953125q-0.578125 -0.609375 -1.21875 -0.828125q-0.640625 -0.234375 -2.03125 -0.234375l-0.828125 0l0 8.375l-4.046875 0zm4.046875 -11.5625l3.0 0q2.90625 0 3.625 -0.25q0.734375 -0.25 1.140625 -0.84375q0.421875 -0.609375 0.421875 -1.515625q0 -1.0 -0.546875 -1.625q-0.546875 -0.625 -1.53125 -0.78125q-0.484375 -0.078125 -2.953125 -0.078125l-3.15625 0l0 5.09375zm24.548828 6.9375l3.828125 0.640625q-0.734375 2.109375 -2.328125 3.21875q-1.59375 1.09375 -3.984375 1.09375q-3.796875 0 -5.609375 -2.46875q-1.4375 -1.984375 -1.4375 -5.015625q0 -3.609375 1.875 -5.640625q1.890625 -2.046875 4.78125 -2.046875q3.234375 0 5.109375 2.140625q1.875 2.140625 1.796875 6.546875l-9.625 0q0.046875 1.71875 0.921875 2.671875q0.890625 0.9375 2.21875 0.9375q0.90625 0 1.515625 -0.484375q0.625 -0.5 0.9375 -1.59375zm0.21875 -3.875q-0.046875 -1.671875 -0.875 -2.53125q-0.8125 -0.875 -1.984375 -0.875q-1.265625 0 -2.078125 0.90625q-0.828125 0.921875 -0.8125 2.5l5.75 0zm6.6503906 -6.015625l3.546875 0l0 1.984375q1.90625 -2.3125 4.53125 -2.3125q1.390625 0 2.40625 0.578125q1.03125 0.5625 1.6875 1.734375q0.953125 -1.171875 2.0625 -1.734375q1.109375 -0.578125 2.375 -0.578125q1.59375 0 2.703125 0.65625q1.109375 0.640625 1.65625 1.890625q0.390625 0.9375 0.390625 3.015625l0 9.28125l-3.84375 0l0 -8.296875q0 -2.15625 -0.390625 -2.796875q-0.53125 -0.8125 -1.640625 -0.8125q-0.8125 0 -1.53125 0.5q-0.703125 0.484375 -1.015625 1.4375q-0.3125 0.9375 -0.3125 3.0l0 6.96875l-3.84375 0l0 -7.953125q0 -2.125 -0.203125 -2.734375q-0.203125 -0.625 -0.640625 -0.921875q-0.421875 -0.296875 -1.171875 -0.296875q-0.875 0 -1.59375 0.484375q-0.703125 0.46875 -1.015625 1.375q-0.3125 0.90625 -0.3125 2.984375l0 7.0625l-3.84375 0l0 -14.515625zm33.59961 9.890625l3.828125 0.640625q-0.734375 2.109375 -2.328125 3.21875q-1.59375 1.09375 -3.984375 1.09375q-3.796875 0 -5.609375 -2.46875q-1.4375 -1.984375 -1.4375 -5.015625q0 -3.609375 1.875 -5.640625q1.890625 -2.046875 4.78125 -2.046875q3.234375 0 5.109375 2.140625q1.875 2.140625 1.796875 6.546875l-9.625 0q0.046875 1.71875 0.921875 2.671875q0.890625 0.9375 2.21875 0.9375q0.90625 0 1.515625 -0.484375q0.625 -0.5 0.9375 -1.59375zm0.21875 -3.875q-0.046875 -1.671875 -0.875 -2.53125q-0.8125 -0.875 -1.984375 -0.875q-1.265625 0 -2.078125 0.90625q-0.828125 0.921875 -0.8125 2.5l5.75 0zm6.6503906 -6.015625l3.546875 0l0 1.984375q1.90625 -2.3125 4.53125 -2.3125q1.390625 0 2.40625 0.578125q1.03125 0.5625 1.6875 1.734375q0.953125 -1.171875 2.0625 -1.734375q1.109375 -0.578125 2.375 -0.578125q1.59375 0 2.703125 0.65625q1.109375 0.640625 1.65625 1.890625q0.390625 0.9375 0.390625 3.015625l0 9.28125l-3.84375 0l0 -8.296875q0 -2.15625 -0.390625 -2.796875q-0.53125 -0.8125 -1.640625 -0.8125q-0.8125 0 -1.53125 0.5q-0.703125 0.484375 -1.015625 1.4375q-0.3125 0.9375 -0.3125 3.0l0 6.96875l-3.84375 0l0 -7.953125q0 -2.125 -0.203125 -2.734375q-0.203125 -0.625 -0.640625 -0.921875q-0.421875 -0.296875 -1.171875 -0.296875q-0.875 0 -1.59375 0.484375q-0.703125 0.46875 -1.015625 1.375q-0.3125 0.90625 -0.3125 2.984375l0 7.0625l-3.84375 0l0 -14.515625zm25.021484 14.515625l0 -20.046875l3.84375 0l0 7.21875q1.78125 -2.015625 4.21875 -2.015625q2.640625 0 4.375 1.921875q1.75 1.921875 1.75 5.515625q0 3.71875 -1.78125 5.734375q-1.765625 2.0 -4.296875 2.0q-1.25 0 -2.453125 -0.625q-1.203125 -0.625 -2.078125 -1.84375l0 2.140625l-3.578125 0zm3.8125 -7.578125q0 2.265625 0.71875 3.34375q1.0 1.53125 2.65625 1.53125q1.265625 0 2.15625 -1.078125q0.90625 -1.09375 0.90625 -3.4375q0 -2.484375 -0.90625 -3.578125q-0.90625 -1.109375 -2.3125 -1.109375q-1.375 0 -2.296875 1.078125q-0.921875 1.0625 -0.921875 3.25zm21.86908 2.953125l3.828125 0.640625q-0.734375 2.109375 -2.328125 3.21875q-1.59375 1.09375 -3.984375 1.09375q-3.796875 0 -5.609375 -2.46875q-1.4375 -1.984375 -1.4375 -5.015625q0 -3.609375 1.875 -5.640625q1.890625 -2.046875 4.78125 -2.046875q3.234375 0 5.109375 2.140625q1.875 2.140625 1.796875 6.546875l-9.625 0q0.046875 1.71875 0.921875 2.671875q0.890625 0.9375 2.21875 0.9375q0.90625 0 1.515625 -0.484375q0.625 -0.5 0.9375 -1.59375zm0.21875 -3.875q-0.046875 -1.671875 -0.875 -2.53125q-0.8125 -0.875 -1.984375 -0.875q-1.265625 0 -2.078125 0.90625q-0.828125 0.921875 -0.8125 2.5l5.75 0zm10.619141 8.5l-3.84375 0l0 -14.515625l3.578125 0l0 2.0625q0.90625 -1.46875 1.640625 -1.921875q0.734375 -0.46875 1.65625 -0.46875q1.3125 0 2.53125 0.71875l-1.1875 3.34375q-0.96875 -0.625 -1.796875 -0.625q-0.8125 0 -1.375 0.453125q-0.5625 0.4375 -0.890625 1.609375q-0.3125 1.15625 -0.3125 4.859375l0 4.484375z" fill-rule="nonzero"/><path fill="#000000" d="m567.74457 218.89607l0 -3.375l8.71875 0l0 7.984375q-1.265625 1.234375 -3.6875 2.171875q-2.40625 0.9375 -4.875 0.9375q-3.140625 0 -5.484375 -1.3125q-2.34375 -1.328125 -3.515625 -3.78125q-1.171875 -2.453125 -1.171875 -5.34375q0 -3.125 1.3125 -5.5625q1.3125 -2.4375 3.84375 -3.734375q1.921875 -1.0 4.796875 -1.0q3.734375 0 5.828125 1.578125q2.09375 1.5625 2.703125 4.3125l-4.015625 0.765625q-0.4375 -1.484375 -1.609375 -2.328125q-1.15625 -0.859375 -2.90625 -0.859375q-2.65625 0 -4.21875 1.6875q-1.5625 1.671875 -1.5625 4.984375q0 3.5625 1.578125 5.34375q1.59375 1.78125 4.15625 1.78125q1.28125 0 2.546875 -0.484375q1.28125 -0.5 2.203125 -1.21875l0 -2.546875l-4.640625 0zm15.294922 -2.71875l-3.484375 -0.625q0.59375 -2.109375 2.03125 -3.109375q1.4375 -1.015625 4.265625 -1.015625q2.5625 0 3.8125 0.609375q1.265625 0.609375 1.78125 1.546875q0.515625 0.921875 0.515625 3.4375l-0.046875 4.484375q0 1.90625 0.1875 2.8125q0.1875 0.90625 0.6875 1.953125l-3.796875 0q-0.15625 -0.390625 -0.375 -1.140625q-0.09375 -0.34375 -0.125 -0.453125q-0.984375 0.96875 -2.109375 1.453125q-1.125 0.46875 -2.390625 0.46875q-2.25 0 -3.546875 -1.21875q-1.28125 -1.21875 -1.28125 -3.078125q0 -1.234375 0.578125 -2.1875q0.59375 -0.96875 1.65625 -1.484375q1.0625 -0.515625 3.0625 -0.890625q2.6875 -0.5 3.71875 -0.9375l0 -0.390625q0 -1.109375 -0.546875 -1.578125q-0.546875 -0.46875 -2.0625 -0.46875q-1.015625 0 -1.59375 0.40625q-0.578125 0.390625 -0.9375 1.40625zm5.140625 3.125q-0.734375 0.234375 -2.34375 0.578125q-1.59375 0.34375 -2.078125 0.671875q-0.75 0.53125 -0.75 1.359375q0 0.796875 0.59375 1.390625q0.609375 0.59375 1.53125 0.59375q1.046875 0 1.984375 -0.6875q0.703125 -0.515625 0.921875 -1.265625q0.140625 -0.5 0.140625 -1.875l0 -0.765625zm14.228516 -7.546875l0 3.0625l-2.625 0l0 5.84375q0 1.78125 0.0625 2.078125q0.078125 0.296875 0.34375 0.484375q0.28125 0.1875 0.65625 0.1875q0.53125 0 1.546875 -0.375l0.328125 2.984375q-1.34375 0.578125 -3.03125 0.578125q-1.046875 0 -1.890625 -0.34375q-0.828125 -0.359375 -1.21875 -0.90625q-0.375 -0.5625 -0.53125 -1.5q-0.125 -0.671875 -0.125 -2.703125l0 -6.328125l-1.765625 0l0 -3.0625l1.765625 0l0 -2.890625l3.859375 -2.234375l0 5.125l2.625 0zm11.074219 9.890625l3.828125 0.640625q-0.734375 2.109375 -2.328125 3.21875q-1.59375 1.09375 -3.984375 1.09375q-3.796875 0 -5.609375 -2.46875q-1.4375 -1.984375 -1.4375 -5.015625q0 -3.609375 1.875 -5.640625q1.890625 -2.046875 4.78125 -2.046875q3.234375 0 5.109375 2.140625q1.875 2.140625 1.796875 6.546875l-9.625 0q0.046875 1.71875 0.921875 2.671875q0.890625 0.9375 2.21875 0.9375q0.90625 0 1.515625 -0.484375q0.625 -0.5 0.9375 -1.59375zm0.21875 -3.875q-0.046875 -1.671875 -0.875 -2.53125q-0.8125 -0.875 -1.984375 -0.875q-1.265625 0 -2.078125 0.90625q-0.828125 0.921875 -0.8125 2.5l5.75 0z" fill-rule="nonzero"/><path fill="#6aa84f" d="m284.26834 300.6093l0 0c0 -11.045898 8.954468 -20.000397 20.000397 -20.000397l136.40863 0c5.3044434 0 10.391632 2.1071777 14.142426 5.8580017c3.7507935 3.7507935 5.8580017 8.837982 5.8580017 14.142395l0 79.99921c0 11.045929 -8.954498 20.000397 -20.000427 20.000397l-136.40863 0c-11.045929 0 -20.000397 -8.954468 -20.000397 -20.000397z" fill-rule="evenodd"/><path stroke="#595959" stroke-width="1.0" stroke-linejoin="round" stroke-linecap="butt" d="m284.26834 300.6093l0 0c0 -11.045898 8.954468 -20.000397 20.000397 -20.000397l136.40863 0c5.3044434 0 10.391632 2.1071777 14.142426 5.8580017c3.7507935 3.7507935 5.8580017 8.837982 5.8580017 14.142395l0 79.99921c0 11.045929 -8.954498 20.000397 -20.000427 20.000397l-136.40863 0c-11.045929 0 -20.000397 -8.954468 -20.000397 -20.000397z" fill-rule="evenodd"/><path fill="#000000" d="m301.47598 350.48892l0 -19.875l4.046875 0l0 16.5l10.0625 0l0 3.375l-14.109375 0zm25.384766 -4.625l3.828125 0.640625q-0.734375 2.109375 -2.328125 3.21875q-1.59375 1.09375 -3.984375 1.09375q-3.796875 0 -5.609375 -2.46875q-1.4375 -1.984375 -1.4375 -5.015625q0 -3.609375 1.875 -5.640625q1.890625 -2.046875 4.78125 -2.046875q3.234375 0 5.109375 2.140625q1.875 2.140625 1.796875 6.546875l-9.625 0q0.046875 1.71875 0.921875 2.671875q0.890625 0.9375 2.21875 0.9375q0.90625 0 1.515625 -0.484375q0.625 -0.5 0.9375 -1.59375zm0.21875 -3.875q-0.046875 -1.671875 -0.875 -2.53125q-0.8125 -0.875 -1.984375 -0.875q-1.265625 0 -2.078125 0.90625q-0.828125 0.921875 -0.8125 2.5l5.75 0zm9.806641 -1.59375l-3.484375 -0.625q0.59375 -2.109375 2.03125 -3.109375q1.4375 -1.015625 4.265625 -1.015625q2.5625 0 3.8125 0.609375q1.265625 0.609375 1.78125 1.546875q0.515625 0.921875 0.515625 3.4375l-0.046875 4.484375q0 1.90625 0.1875 2.8125q0.1875 0.90625 0.6875 1.953125l-3.796875 0q-0.15625 -0.390625 -0.375 -1.140625q-0.09375 -0.34375 -0.125 -0.453125q-0.984375 0.96875 -2.109375 1.453125q-1.125 0.46875 -2.390625 0.46875q-2.25 0 -3.546875 -1.21875q-1.28125 -1.21875 -1.28125 -3.078125q0 -1.234375 0.578125 -2.1875q0.59375 -0.96875 1.65625 -1.484375q1.0625 -0.515625 3.0625 -0.890625q2.6875 -0.5 3.71875 -0.9375l0 -0.390625q0 -1.109375 -0.546875 -1.578125q-0.546875 -0.46875 -2.0625 -0.46875q-1.015625 0 -1.59375 0.40625q-0.578125 0.390625 -0.9375 1.40625zm5.140625 3.125q-0.734375 0.234375 -2.34375 0.578125q-1.59375 0.34375 -2.078125 0.671875q-0.75 0.53125 -0.75 1.359375q0 0.796875 0.59375 1.390625q0.609375 0.59375 1.53125 0.59375q1.046875 0 1.984375 -0.6875q0.703125 -0.515625 0.921875 -1.265625q0.140625 -0.5 0.140625 -1.875l0 -0.765625zm11.244141 6.96875l-3.84375 0l0 -14.515625l3.578125 0l0 2.0625q0.90625 -1.46875 1.640625 -1.921875q0.734375 -0.46875 1.65625 -0.46875q1.3125 0 2.53125 0.71875l-1.1875 3.34375q-0.96875 -0.625 -1.796875 -0.625q-0.8125 0 -1.375 0.453125q-0.5625 0.4375 -0.890625 1.609375q-0.3125 1.15625 -0.3125 4.859375l0 4.484375zm20.427734 0l-3.84375 0l0 -7.40625q0 -2.359375 -0.25 -3.046875q-0.234375 -0.6875 -0.796875 -1.0625q-0.546875 -0.390625 -1.328125 -0.390625q-1.0 0 -1.796875 0.546875q-0.796875 0.546875 -1.09375 1.453125q-0.28125 0.890625 -0.28125 3.328125l0 6.578125l-3.84375 0l0 -14.515625l3.5625 0l0 2.125q1.90625 -2.453125 4.796875 -2.453125q1.265625 0 2.3125 0.453125q1.0625 0.453125 1.59375 1.171875q0.546875 0.703125 0.75 1.609375q0.21875 0.90625 0.21875 2.578125l0 9.03125zm21.023438 -7.375l0 -3.375l8.71875 0l0 7.984375q-1.265625 1.234375 -3.6875 2.171875q-2.40625 0.9375 -4.875 0.9375q-3.140625 0 -5.484375 -1.3125q-2.34375 -1.328125 -3.515625 -3.78125q-1.171875 -2.453125 -1.171875 -5.34375q0 -3.125 1.3125 -5.5625q1.3125 -2.4375 3.84375 -3.734375q1.921875 -1.0 4.796875 -1.0q3.734375 0 5.828125 1.578125q2.09375 1.5625 2.703125 4.3125l-4.015625 0.765625q-0.4375 -1.484375 -1.609375 -2.328125q-1.15625 -0.859375 -2.90625 -0.859375q-2.65625 0 -4.21875 1.6875q-1.5625 1.671875 -1.5625 4.984375q0 3.5625 1.578125 5.34375q1.59375 1.78125 4.15625 1.78125q1.28125 0 2.546875 -0.484375q1.28125 -0.5 2.203125 -1.21875l0 -2.546875l-4.640625 0zm15.294922 -2.71875l-3.484375 -0.625q0.59375 -2.109375 2.03125 -3.109375q1.4375 -1.015625 4.265625 -1.015625q2.5625 0 3.8125 0.609375q1.265625 0.609375 1.78125 1.546875q0.515625 0.921875 0.515625 3.4375l-0.046875 4.484375q0 1.90625 0.1875 2.8125q0.1875 0.90625 0.6875 1.953125l-3.796875 0q-0.15625 -0.390625 -0.375 -1.140625q-0.09375 -0.34375 -0.125 -0.453125q-0.984375 0.96875 -2.109375 1.453125q-1.125 0.46875 -2.390625 0.46875q-2.25 0 -3.546875 -1.21875q-1.28125 -1.21875 -1.28125 -3.078125q0 -1.234375 0.578125 -2.1875q0.59375 -0.96875 1.65625 -1.484375q1.0625 -0.515625 3.0625 -0.890625q2.6875 -0.5 3.71875 -0.9375l0 -0.390625q0 -1.109375 -0.546875 -1.578125q-0.546875 -0.46875 -2.0625 -0.46875q-1.015625 0 -1.59375 0.40625q-0.578125 0.390625 -0.9375 1.40625zm5.140625 3.125q-0.734375 0.234375 -2.34375 0.578125q-1.59375 0.34375 -2.078125 0.671875q-0.75 0.53125 -0.75 1.359375q0 0.796875 0.59375 1.390625q0.609375 0.59375 1.53125 0.59375q1.046875 0 1.984375 -0.6875q0.703125 -0.515625 0.921875 -1.265625q0.140625 -0.5 0.140625 -1.875l0 -0.765625zm14.228516 -7.546875l0 3.0625l-2.625 0l0 5.84375q0 1.78125 0.0625 2.078125q0.078125 0.296875 0.34375 0.484375q0.28125 0.1875 0.65625 0.1875q0.53125 0 1.546875 -0.375l0.328125 2.984375q-1.34375 0.578125 -3.03125 0.578125q-1.046875 0 -1.890625 -0.34375q-0.828125 -0.359375 -1.21875 -0.90625q-0.375 -0.5625 -0.53125 -1.5q-0.125 -0.671875 -0.125 -2.703125l0 -6.328125l-1.765625 0l0 -3.0625l1.765625 0l0 -2.890625l3.859375 -2.234375l0 5.125l2.625 0zm11.074219 9.890625l3.828125 0.640625q-0.734375 2.109375 -2.328125 3.21875q-1.59375 1.09375 -3.984375 1.09375q-3.796875 0 -5.609375 -2.46875q-1.4375 -1.984375 -1.4375 -5.015625q0 -3.609375 1.875 -5.640625q1.890625 -2.046875 4.78125 -2.046875q3.234375 0 5.109375 2.140625q1.875 2.140625 1.796875 6.546875l-9.625 0q0.046875 1.71875 0.921875 2.671875q0.890625 0.9375 2.21875 0.9375q0.90625 0 1.515625 -0.484375q0.625 -0.5 0.9375 -1.59375zm0.21875 -3.875q-0.046875 -1.671875 -0.875 -2.53125q-0.8125 -0.875 -1.984375 -0.875q-1.265625 0 -2.078125 0.90625q-0.828125 0.921875 -0.8125 2.5l5.75 0z" fill-rule="nonzero"/><path fill="#76a5af" d="m499.28607 300.6093l0 0c0 -11.045898 8.954498 -20.000397 20.000427 -20.000397l136.40863 0c5.3044434 0 10.391602 2.1071777 14.142395 5.8580017c3.7507935 3.7507935 5.857971 8.837982 5.857971 14.142395l0 79.99921c0 11.045929 -8.954468 20.000397 -20.000366 20.000397l-136.40863 0c-11.045929 0 -20.000427 -8.954468 -20.000427 -20.000397z" fill-rule="evenodd"/><path stroke="#595959" stroke-width="1.0" stroke-linejoin="round" stroke-linecap="butt" d="m499.28607 300.6093l0 0c0 -11.045898 8.954498 -20.000397 20.000427 -20.000397l136.40863 0c5.3044434 0 10.391602 2.1071777 14.142395 5.8580017c3.7507935 3.7507935 5.857971 8.837982 5.857971 14.142395l0 79.99921c0 11.045929 -8.954468 20.000397 -20.000366 20.000397l-136.40863 0c-11.045929 0 -20.000427 -8.954468 -20.000427 -20.000397z" fill-rule="evenodd"/><path fill="#000000" d="m528.8101 330.44205l4.046875 0l0 10.859375q0 2.578125 0.140625 3.34375q0.265625 1.234375 1.234375 1.984375q0.984375 0.734375 2.6875 0.734375q1.71875 0 2.59375 -0.703125q0.875 -0.703125 1.046875 -1.71875q0.1875 -1.03125 0.1875 -3.40625l0 -11.09375l4.046875 0l0 10.53125q0 3.609375 -0.328125 5.109375q-0.328125 1.484375 -1.21875 2.515625q-0.875 1.015625 -2.359375 1.625q-1.46875 0.609375 -3.859375 0.609375q-2.859375 0 -4.34375 -0.65625q-1.484375 -0.671875 -2.34375 -1.734375q-0.859375 -1.0625 -1.140625 -2.21875q-0.390625 -1.71875 -0.390625 -5.09375l0 -10.6875zm18.861328 15.90625l3.859375 -0.59375q0.25 1.125 1.0 1.703125q0.75 0.578125 2.09375 0.578125q1.5 0 2.25 -0.546875q0.5 -0.375 0.5 -1.015625q0 -0.4375 -0.265625 -0.734375q-0.296875 -0.265625 -1.28125 -0.5q-4.65625 -1.03125 -5.90625 -1.875q-1.71875 -1.171875 -1.71875 -3.265625q0 -1.890625 1.484375 -3.171875q1.5 -1.28125 4.625 -1.28125q2.984375 0 4.4375 0.96875q1.453125 0.96875 2.0 2.875l-3.625 0.65625q-0.234375 -0.84375 -0.890625 -1.296875q-0.640625 -0.453125 -1.84375 -0.453125q-1.515625 0 -2.171875 0.4375q-0.4375 0.296875 -0.4375 0.765625q0 0.421875 0.375 0.703125q0.515625 0.390625 3.578125 1.09375q3.078125 0.6875 4.296875 1.703125q1.203125 1.015625 1.203125 2.84375q0 2.0 -1.671875 3.4375q-1.65625 1.4375 -4.9375 1.4375q-2.953125 0 -4.6875 -1.203125q-1.734375 -1.203125 -2.265625 -3.265625zm25.33789 -0.484375l3.828125 0.640625q-0.734375 2.109375 -2.328125 3.21875q-1.59375 1.09375 -3.984375 1.09375q-3.796875 0 -5.609375 -2.46875q-1.4375 -1.984375 -1.4375 -5.015625q0 -3.609375 1.875 -5.640625q1.890625 -2.046875 4.78125 -2.046875q3.234375 0 5.109375 2.140625q1.875 2.140625 1.796875 6.546875l-9.625 0q0.046875 1.71875 0.921875 2.671875q0.890625 0.9375 2.21875 0.9375q0.90625 0 1.515625 -0.484375q0.625 -0.5 0.9375 -1.59375zm0.21875 -3.875q-0.046875 -1.671875 -0.875 -2.53125q-0.8125 -0.875 -1.984375 -0.875q-1.265625 0 -2.078125 0.90625q-0.828125 0.921875 -0.8125 2.5l5.75 0zm24.070312 1.125l0 -3.375l8.71875 0l0 7.984375q-1.265625 1.234375 -3.6875 2.171875q-2.40625 0.9375 -4.875 0.9375q-3.140625 0 -5.484375 -1.3125q-2.34375 -1.328125 -3.515625 -3.78125q-1.171875 -2.453125 -1.171875 -5.34375q0 -3.125 1.3125 -5.5625q1.3125 -2.4375 3.84375 -3.734375q1.921875 -1.0 4.796875 -1.0q3.734375 0 5.828125 1.578125q2.09375 1.5625 2.703125 4.3125l-4.015625 0.765625q-0.4375 -1.484375 -1.609375 -2.328125q-1.15625 -0.859375 -2.90625 -0.859375q-2.65625 0 -4.21875 1.6875q-1.5625 1.671875 -1.5625 4.984375q0 3.5625 1.578125 5.34375q1.59375 1.78125 4.15625 1.78125q1.28125 0 2.546875 -0.484375q1.28125 -0.5 2.203125 -1.21875l0 -2.546875l-4.640625 0zm15.294922 -2.71875l-3.484375 -0.625q0.59375 -2.109375 2.03125 -3.109375q1.4375 -1.015625 4.265625 -1.015625q2.5625 0 3.8125 0.609375q1.265625 0.609375 1.78125 1.546875q0.515625 0.921875 0.515625 3.4375l-0.046875 4.484375q0 1.90625 0.1875 2.8125q0.1875 0.90625 0.6875 1.953125l-3.796875 0q-0.15625 -0.390625 -0.375 -1.140625q-0.09375 -0.34375 -0.125 -0.453125q-0.984375 0.96875 -2.109375 1.453125q-1.125 0.46875 -2.390625 0.46875q-2.25 0 -3.546875 -1.21875q-1.28125 -1.21875 -1.28125 -3.078125q0 -1.234375 0.578125 -2.1875q0.59375 -0.96875 1.65625 -1.484375q1.0625 -0.515625 3.0625 -0.890625q2.6875 -0.5 3.71875 -0.9375l0 -0.390625q0 -1.109375 -0.546875 -1.578125q-0.546875 -0.46875 -2.0625 -0.46875q-1.015625 0 -1.59375 0.40625q-0.578125 0.390625 -0.9375 1.40625zm5.140625 3.125q-0.734375 0.234375 -2.34375 0.578125q-1.59375 0.34375 -2.078125 0.671875q-0.75 0.53125 -0.75 1.359375q0 0.796875 0.59375 1.390625q0.609375 0.59375 1.53125 0.59375q1.046875 0 1.984375 -0.6875q0.703125 -0.515625 0.921875 -1.265625q0.140625 -0.5 0.140625 -1.875l0 -0.765625zm14.228516 -7.546875l0 3.0625l-2.625 0l0 5.84375q0 1.78125 0.0625 2.078125q0.078125 0.296875 0.34375 0.484375q0.28125 0.1875 0.65625 0.1875q0.53125 0 1.546875 -0.375l0.328125 2.984375q-1.34375 0.578125 -3.03125 0.578125q-1.046875 0 -1.890625 -0.34375q-0.828125 -0.359375 -1.21875 -0.90625q-0.375 -0.5625 -0.53125 -1.5q-0.125 -0.671875 -0.125 -2.703125l0 -6.328125l-1.765625 0l0 -3.0625l1.765625 0l0 -2.890625l3.859375 -2.234375l0 5.125l2.625 0zm11.074219 9.890625l3.828125 0.640625q-0.734375 2.109375 -2.328125 3.21875q-1.59375 1.09375 -3.984375 1.09375q-3.796875 0 -5.609375 -2.46875q-1.4375 -1.984375 -1.4375 -5.015625q0 -3.609375 1.875 -5.640625q1.890625 -2.046875 4.78125 -2.046875q3.234375 0 5.109375 2.140625q1.875 2.140625 1.796875 6.546875l-9.625 0q0.046875 1.71875 0.921875 2.671875q0.890625 0.9375 2.21875 0.9375q0.90625 0 1.515625 -0.484375q0.625 -0.5 0.9375 -1.59375zm0.21875 -3.875q-0.046875 -1.671875 -0.875 -2.53125q-0.8125 -0.875 -1.984375 -0.875q-1.265625 0 -2.078125 0.90625q-0.828125 0.921875 -0.8125 2.5l5.75 0z" fill-rule="nonzero"/><path fill="#a4c2f4" d="m406.33072 471.39395l0 0c0 -6.772522 5.490204 -12.262726 12.262695 -12.262726l122.81314 0c3.2523193 0 6.371338 1.2919617 8.671082 3.5916748c2.2996826 2.2997131 3.5916748 5.418762 3.5916748 8.671051l0 49.049347c0 6.772522 -5.4902344 12.262756 -12.262756 12.262756l-122.81314 0c-6.7724915 0 -12.262695 -5.4902344 -12.262695 -12.262756z" fill-rule="evenodd"/><path stroke="#595959" stroke-width="1.0" stroke-linejoin="round" stroke-linecap="butt" d="m406.33072 471.39395l0 0c0 -6.772522 5.490204 -12.262726 12.262695 -12.262726l122.81314 0c3.2523193 0 6.371338 1.2919617 8.671082 3.5916748c2.2996826 2.2997131 3.5916748 5.418762 3.5916748 8.671051l0 49.049347c0 6.772522 -5.4902344 12.262756 -12.262756 12.262756l-122.81314 0c-6.7724915 0 -12.262695 -5.4902344 -12.262695 -12.262756z" fill-rule="evenodd"/><path fill="#000000" d="m443.90723 505.79865l0 -20.046875l14.875 0l0 3.390625l-10.828125 0l0 4.453125l10.0625 0l0 3.375l-10.0625 0l0 5.453125l11.203125 0l0 3.375l-15.25 0zm22.644531 0l-5.84375 -14.515625l4.03125 0l2.734375 7.40625l0.796875 2.46875q0.3125 -0.9375 0.390625 -1.234375q0.1875 -0.625 0.40625 -1.234375l2.765625 -7.40625l3.953125 0l-5.765625 14.515625l-3.46875 0zm19.99414 -4.625l3.828125 0.640625q-0.734375 2.109375 -2.328125 3.21875q-1.59375 1.09375 -3.984375 1.09375q-3.796875 0 -5.609375 -2.46875q-1.4375 -1.984375 -1.4375 -5.015625q0 -3.609375 1.875 -5.640625q1.890625 -2.046875 4.78125 -2.046875q3.234375 0 5.109375 2.140625q1.875 2.140625 1.796875 6.546875l-9.625 0q0.046875 1.71875 0.921875 2.671875q0.890625 0.9375 2.21875 0.9375q0.90625 0 1.515625 -0.484375q0.625 -0.5 0.9375 -1.59375zm0.21875 -3.875q-0.046875 -1.671875 -0.875 -2.53125q-0.8125 -0.875 -1.984375 -0.875q-1.265625 0 -2.078125 0.90625q-0.828125 0.921875 -0.8125 2.5l5.75 0zm20.15039 8.5l-3.84375 0l0 -7.40625q0 -2.359375 -0.25 -3.046875q-0.234375 -0.6875 -0.796875 -1.0625q-0.546875 -0.390625 -1.328125 -0.390625q-1.0 0 -1.796875 0.546875q-0.796875 0.546875 -1.09375 1.453125q-0.28125 0.890625 -0.28125 3.328125l0 6.578125l-3.84375 0l0 -14.515625l3.5625 0l0 2.125q1.90625 -2.453125 4.796875 -2.453125q1.265625 0 2.3125 0.453125q1.0625 0.453125 1.59375 1.171875q0.546875 0.703125 0.75 1.609375q0.21875 0.90625 0.21875 2.578125l0 9.03125zm10.556641 -14.515625l0 3.0625l-2.625 0l0 5.84375q0 1.78125 0.0625 2.078125q0.078125 0.296875 0.34375 0.484375q0.28125 0.1875 0.65625 0.1875q0.53125 0 1.546875 -0.375l0.328125 2.984375q-1.34375 0.578125 -3.03125 0.578125q-1.046875 0 -1.890625 -0.34375q-0.828125 -0.359375 -1.21875 -0.90625q-0.375 -0.5625 -0.53125 -1.5q-0.125 -0.671875 -0.125 -2.703125l0 -6.328125l-1.765625 0l0 -3.0625l1.765625 0l0 -2.890625l3.859375 -2.234375l0 5.125l2.625 0z" fill-rule="nonzero"/><path fill="#6d9eeb" d="m406.33072 19.556675l0 0c0 -6.7725086 5.490204 -12.262712 12.262695 -12.262712l122.81314 0c3.2523193 0 6.371338 1.2919607 8.671082 3.5916653c2.2996826 2.2997046 3.5916748 5.4187727 3.5916748 8.671046l0 49.04938c0 6.7725067 -5.4902344 12.262711 -12.262756 12.262711l-122.81314 0c-6.7724915 0 -12.262695 -5.490204 -12.262695 -12.262711z" fill-rule="evenodd"/><path stroke="#595959" stroke-width="1.0" stroke-linejoin="round" stroke-linecap="butt" d="m406.33072 19.556675l0 0c0 -6.7725086 5.490204 -12.262712 12.262695 -12.262712l122.81314 0c3.2523193 0 6.371338 1.2919607 8.671082 3.5916653c2.2996826 2.2997046 3.5916748 5.4187727 3.5916748 8.671046l0 49.04938c0 6.7725067 -5.4902344 12.262711 -12.262756 12.262711l-122.81314 0c-6.7724915 0 -12.262695 -5.490204 -12.262695 -12.262711z" fill-rule="evenodd"/><path fill="#000000" d="m423.07422 52.621365l0 -17.1875l5.5625 0q3.171875 0 4.125 0.265625q1.484375 0.390625 2.46875 1.6875q1.0 1.28125 1.0 3.34375q0 1.578125 -0.578125 2.65625q-0.5625 1.078125 -1.453125 1.703125q-0.890625 0.609375 -1.796875 0.796875q-1.25 0.25 -3.59375 0.25l-2.265625 0l0 6.484375l-3.46875 0zm3.46875 -14.28125l0 4.875l1.890625 0q2.0625 0 2.75 -0.265625q0.6875 -0.265625 1.078125 -0.84375q0.390625 -0.578125 0.390625 -1.328125q0 -0.9375 -0.546875 -1.546875q-0.546875 -0.609375 -1.390625 -0.765625q-0.625 -0.125 -2.5 -0.125l-1.671875 0zm15.6640625 14.28125l-3.296875 0l0 -12.453125l3.0625 0l0 1.78125q0.78125 -1.265625 1.40625 -1.65625q0.640625 -0.40625 1.4375 -0.40625q1.125 0 2.15625 0.625l-1.015625 2.875q-0.828125 -0.546875 -1.546875 -0.546875q-0.6875 0 -1.171875 0.390625q-0.484375 0.375 -0.765625 1.375q-0.265625 1.0 -0.265625 4.171875l0 3.84375zm13.402344 -3.96875l3.28125 0.5625q-0.640625 1.796875 -2.015625 2.75q-1.359375 0.9375 -3.40625 0.9375q-3.25 0 -4.796875 -2.125q-1.234375 -1.703125 -1.234375 -4.28125q0 -3.09375 1.609375 -4.84375q1.625 -1.765625 4.09375 -1.765625q2.78125 0 4.375 1.84375q1.609375 1.828125 1.546875 5.609375l-8.25 0q0.03125 1.46875 0.796875 2.28125q0.765625 0.8125 1.890625 0.8125q0.78125 0 1.296875 -0.421875q0.53125 -0.421875 0.8125 -1.359375zm0.1875 -3.328125q-0.046875 -1.421875 -0.75 -2.15625q-0.703125 -0.75 -1.703125 -0.75q-1.078125 0 -1.78125 0.78125q-0.703125 0.78125 -0.6875 2.125l4.921875 0zm17.363281 7.296875l-3.0625 0l0 -1.828125q-0.765625 1.0625 -1.796875 1.59375q-1.03125 0.515625 -2.09375 0.515625q-2.140625 0 -3.671875 -1.71875q-1.53125 -1.734375 -1.53125 -4.828125q0 -3.171875 1.484375 -4.8125q1.5 -1.65625 3.765625 -1.65625q2.09375 0 3.609375 1.734375l0 -6.1875l3.296875 0l0 17.1875zm-8.796875 -6.5q0 2.0 0.5625 2.890625q0.796875 1.28125 2.21875 1.28125q1.140625 0 1.9375 -0.953125q0.796875 -0.96875 0.796875 -2.890625q0 -2.15625 -0.78125 -3.09375q-0.765625 -0.9375 -1.96875 -0.9375q-1.171875 0 -1.96875 0.9375q-0.796875 0.921875 -0.796875 2.765625zm12.035156 -7.640625l0 -3.046875l3.296875 0l0 3.046875l-3.296875 0zm0 14.140625l0 -12.453125l3.296875 0l0 12.453125l-3.296875 0zm17.527344 -8.765625l-3.25 0.578125q-0.15625 -0.96875 -0.75 -1.453125q-0.578125 -0.5 -1.5 -0.5q-1.234375 0 -1.96875 0.859375q-0.71875 0.84375 -0.71875 2.828125q0 2.21875 0.734375 3.140625q0.75 0.90625 2.0 0.90625q0.9375 0 1.53125 -0.53125q0.609375 -0.53125 0.84375 -1.828125l3.234375 0.546875q-0.5 2.21875 -1.9375 3.359375q-1.421875 1.140625 -3.828125 1.140625q-2.71875 0 -4.34375 -1.71875q-1.625 -1.734375 -1.625 -4.78125q0 -3.078125 1.625 -4.796875q1.625 -1.71875 4.40625 -1.71875q2.28125 0 3.609375 0.984375q1.34375 0.984375 1.9375 2.984375zm8.207031 -3.6875l0 2.625l-2.25 0l0 5.015625q0 1.53125 0.0625 1.78125q0.0625 0.25 0.28125 0.421875q0.234375 0.15625 0.5625 0.15625q0.453125 0 1.328125 -0.3125l0.28125 2.546875q-1.15625 0.5 -2.609375 0.5q-0.890625 0 -1.609375 -0.296875q-0.703125 -0.296875 -1.046875 -0.765625q-0.328125 -0.484375 -0.453125 -1.296875q-0.109375 -0.578125 -0.109375 -2.3125l0 -5.4375l-1.515625 0l0 -2.625l1.515625 0l0 -2.46875l3.3125 -1.921875l0 4.390625l2.25 0zm2.2734375 -1.6875l0 -3.046875l3.296875 0l0 3.046875l-3.296875 0zm0 14.140625l0 -12.453125l3.296875 0l0 12.453125l-3.296875 0zm5.9179688 -6.40625q0 -1.640625 0.796875 -3.171875q0.8125 -1.53125 2.296875 -2.34375q1.484375 -0.8125 3.3125 -0.8125q2.828125 0 4.625 1.84375q1.8125 1.828125 1.8125 4.625q0 2.828125 -1.828125 4.6875q-1.828125 1.859375 -4.59375 1.859375q-1.703125 0 -3.265625 -0.765625q-1.546875 -0.78125 -2.359375 -2.265625q-0.796875 -1.5 -0.796875 -3.65625zm3.375 0.1875q0 1.84375 0.875 2.828125q0.875 0.984375 2.171875 0.984375q1.28125 0 2.15625 -0.984375q0.875 -0.984375 0.875 -2.859375q0 -1.828125 -0.875 -2.8125q-0.875 -0.984375 -2.15625 -0.984375q-1.296875 0 -2.171875 0.984375q-0.875 0.984375 -0.875 2.84375zm23.363281 6.21875l-3.296875 0l0 -6.359375q0 -2.015625 -0.21875 -2.59375q-0.203125 -0.59375 -0.6875 -0.921875q-0.46875 -0.328125 -1.125 -0.328125q-0.859375 0 -1.546875 0.46875q-0.671875 0.46875 -0.921875 1.25q-0.25 0.765625 -0.25 2.84375l0 5.640625l-3.296875 0l0 -12.453125l3.0625 0l0 1.828125q1.625 -2.109375 4.09375 -2.109375q1.09375 0 1.984375 0.40625q0.90625 0.390625 1.375 1.0q0.46875 0.609375 0.640625 1.390625q0.1875 0.765625 0.1875 2.203125l0 7.734375z" fill-rule="nonzero"/><path fill="#000000" fill-opacity="0.0" d="m232.22572 186.47258l34.740158 0.47244263" fill-rule="evenodd"/><path stroke="#cc0000" stroke-width="3.0" stroke-linejoin="round" stroke-linecap="butt" d="m232.22572 186.47258l16.741821 0.22767639" fill-rule="evenodd"/><path fill="#cc0000" stroke="#cc0000" stroke-width="3.0" stroke-linecap="butt" d="m248.90016 191.655l13.680405 -4.7696075l-13.545639 -5.139862z" fill-rule="evenodd"/><path fill="#000000" fill-opacity="0.0" d="m232.22572 353.29672l34.740158 0.47244263" fill-rule="evenodd"/><path stroke="#cc0000" stroke-width="3.0" stroke-linejoin="round" stroke-linecap="butt" d="m232.22572 353.29672l16.741821 0.22769165" fill-rule="evenodd"/><path fill="#cc0000" stroke="#cc0000" stroke-width="3.0" stroke-linecap="butt" d="m248.90016 358.47913l13.680405 -4.769623l-13.545639 -5.139862z" fill-rule="evenodd"/><path fill="#000000" fill-opacity="0.0" d="m695.6693 186.47258l34.740112 0.47244263" fill-rule="evenodd"/><path stroke="#cc0000" stroke-width="3.0" stroke-linejoin="round" stroke-linecap="butt" d="m695.6693 186.47258l16.74176 0.22767639" fill-rule="evenodd"/><path fill="#cc0000" stroke="#cc0000" stroke-width="3.0" stroke-linecap="butt" d="m712.34375 191.655l13.68042 -4.7696075l-13.545654 -5.139862z" fill-rule="evenodd"/><path fill="#000000" fill-opacity="0.0" d="m695.6693 353.2941l34.740112 0.47244263" fill-rule="evenodd"/><path stroke="#cc0000" stroke-width="3.0" stroke-linejoin="round" stroke-linecap="butt" d="m695.6693 353.2941l16.74176 0.22769165" fill-rule="evenodd"/><path fill="#cc0000" stroke="#cc0000" stroke-width="3.0" stroke-linecap="butt" d="m712.34375 358.4765l13.68042 -4.769623l-13.545654 -5.139862z" fill-rule="evenodd"/><path fill="#000000" fill-opacity="0.0" d="m479.74802 459.13385l1.1338806 -46.4252" fill-rule="evenodd"/><path stroke="#cc0000" stroke-width="3.0" stroke-linejoin="round" stroke-linecap="butt" d="m479.74802 459.13385l0.694397 -28.430573" fill-rule="evenodd"/><path fill="#cc0000" stroke="#cc0000" stroke-width="3.0" stroke-linecap="butt" d="m485.39612 430.82428l-4.6213074 -13.731232l-5.286133 13.489258z" fill-rule="evenodd"/><path fill="#000000" fill-opacity="0.0" d="m479.43307 127.29396l1.1338501 -46.425194" fill-rule="evenodd"/><path stroke="#cc0000" stroke-width="3.0" stroke-linejoin="round" stroke-linecap="butt" d="m479.43307 127.29396l0.694397 -28.430557" fill-rule="evenodd"/><path fill="#cc0000" stroke="#cc0000" stroke-width="3.0" stroke-linecap="butt" d="m485.08115 98.98438l-4.6213074 -13.731216l-5.286133 13.48925z" fill-rule="evenodd"/><path fill="#000000" fill-opacity="0.0" d="m462.6299 199.155l34.740173 0.47244263" fill-rule="evenodd"/><path stroke="#000000" stroke-width="3.0" stroke-linejoin="round" stroke-linecap="butt" d="m462.6299 199.155l16.741852 0.22767639" fill-rule="evenodd"/><path fill="#000000" stroke="#000000" stroke-width="3.0" stroke-linecap="butt" d="m479.30435 204.33742l13.68042 -4.7696075l-13.545654 -5.1398773z" fill-rule="evenodd"/><path fill="#000000" fill-opacity="0.0" d="m462.61154 340.37283l34.740173 0.47244263" fill-rule="evenodd"/><path stroke="#000000" stroke-width="3.0" stroke-linejoin="round" stroke-linecap="butt" d="m462.61154 340.37283l16.741852 0.22769165" fill-rule="evenodd"/><path fill="#000000" stroke="#000000" stroke-width="3.0" stroke-linecap="butt" d="m479.28598 345.55527l13.68042 -4.769623l-13.545654 -5.139862z" fill-rule="evenodd"/><path fill="#000000" fill-opacity="0.0" d="m460.6778 340.60892l38.614166 -141.22833" fill-rule="evenodd"/><path stroke="#000000" stroke-width="3.0" stroke-linejoin="round" stroke-linecap="butt" d="m460.6778 340.60892l33.866913 -123.86565" fill-rule="evenodd"/><path fill="#000000" stroke="#000000" stroke-width="3.0" stroke-linecap="butt" d="m499.32446 218.05016l-1.1891785 -14.439148l-8.370331 11.825409z" fill-rule="evenodd"/><path fill="#000000" fill-opacity="0.0" d="m460.69614 199.39108l38.582672 141.22833" fill-rule="evenodd"/><path stroke="#000000" stroke-width="3.0" stroke-linejoin="round" stroke-linecap="butt" d="m460.69617 199.39108l33.83902 123.864655" fill-rule="evenodd"/><path fill="#000000" stroke="#000000" stroke-width="3.0" stroke-linecap="butt" d="m489.75516 324.5616l8.367889 11.827148l1.1921692 -14.438904z" fill-rule="evenodd"/></g></svg>