<svg version="1.1" viewBox="0.0 0.0 960.0 540.0" fill="none" stroke="none" stroke-linecap="square" stroke-miterlimit="10" xmlns:xlink="http://www.w3.org/1999/xlink" xmlns="http://www.w3.org/2000/svg"><clipPath id="g7b43b767d3_0_93.0"><path d="m0 0l960.0 0l0 540.0l-960.0 0l0 -540.0z" clip-rule="nonzero"/></clipPath><g clip-path="url(#g7b43b767d3_0_93.0)"><path fill="#ffffff" d="m0 0l960.0 0l0 540.0l-960.0 0z" fill-rule="evenodd"/><path fill="#000000" fill-opacity="0.0" d="m614.78217 19.763779l342.36218 0l0 321.10236l-342.36218 0z" fill-rule="evenodd"/><path stroke="#595959" stroke-width="1.0" stroke-linejoin="round" stroke-linecap="butt" stroke-dasharray="4.0,3.0" d="m614.78217 19.763779l342.36218 0l0 321.10236l-342.36218 0z" fill-rule="evenodd"/><path fill="#000000" fill-opacity="0.0" d="m249.86089 19.763779l236.18898 0l0 515.874l-236.18898 0z" fill-rule="evenodd"/><path stroke="#595959" stroke-width="1.0" stroke-linejoin="round" stroke-linecap="butt" stroke-dasharray="4.0,3.0" d="m249.86089 19.763779l236.18898 0l0 515.874l-236.18898 0z" fill-rule="evenodd"/><path fill="#9fc5e8" d="m17.335958 82.94226l0 0c0 -26.50967 21.490332 -48.000004 48.0 -48.000004l0 0c12.730392 0 24.939377 5.057129 33.941124 14.058876c9.001747 9.001743 14.058876 21.210735 14.058876 33.941128l0 0c0 26.509666 -21.490334 48.0 -48.0 48.0l0 0c-26.50967 0 -48.0 -21.490334 -48.0 -48.0z" fill-rule="evenodd"/><path stroke="#595959" stroke-width="1.0" stroke-linejoin="round" stroke-linecap="butt" d="m17.335958 82.94226l0 0c0 -26.50967 21.490332 -48.000004 48.0 -48.000004l0 0c12.730392 0 24.939377 5.057129 33.941124 14.058876c9.001747 9.001743 14.058876 21.210735 14.058876 33.941128l0 0c0 26.509666 -21.490334 48.0 -48.0 48.0l0 0c-26.50967 0 -48.0 -21.490334 -48.0 -48.0z" fill-rule="evenodd"/><path fill="#000000" d="m51.53127 97.342255l0 -5.484375l5.484375 0l0 5.484375l-5.484375 0zm23.988277 0l-5.5 0l0 -20.6875q-3.0 2.8125 -7.078121 4.15625l0 -4.96875q2.1406212 -0.703125 4.656246 -2.671875q2.53125 -1.96875 3.46875 -4.578125l4.453125 0l0 28.75z" fill-rule="nonzero"/><path fill="#9fc5e8" d="m17.335958 283.29922l0 0c0 -26.509674 21.490332 -48.000015 48.0 -48.000015l0 0c12.730392 0 24.939377 5.057129 33.941124 14.058884c9.001747 9.0017395 14.058876 21.210724 14.058876 33.94113l0 0c0 26.509644 -21.490334 48.0 -48.0 48.0l0 0c-26.50967 0 -48.0 -21.490356 -48.0 -48.0z" fill-rule="evenodd"/><path stroke="#595959" stroke-width="1.0" stroke-linejoin="round" stroke-linecap="butt" d="m17.335958 283.29922l0 0c0 -26.509674 21.490332 -48.000015 48.0 -48.000015l0 0c12.730392 0 24.939377 5.057129 33.941124 14.058884c9.001747 9.0017395 14.058876 21.210724 14.058876 33.94113l0 0c0 26.509644 -21.490334 48.0 -48.0 48.0l0 0c-26.50967 0 -48.0 -21.490356 -48.0 -48.0z" fill-rule="evenodd"/><path fill="#000000" d="m51.53127 297.69922l0 -5.484375l5.484375 0l0 5.484375l-5.484375 0zm28.472652 -5.09375l0 5.09375l-19.234371 0q0.3125 -2.890625 1.875 -5.46875q1.5624962 -2.59375 6.171871 -6.875q3.703125 -3.453125 4.546875 -4.6875q1.140625 -1.703125 1.140625 -3.359375q0 -1.84375 -1.0 -2.828125q-0.984375 -0.984375 -2.71875 -0.984375q-1.71875 0 -2.734375 1.046875q-1.015625 1.03125 -1.171875 3.421875l-5.468746 -0.546875q0.484375 -4.53125 3.0624962 -6.5q2.578125 -1.96875 6.453125 -1.96875q4.234375 0 6.65625 2.28125q2.421875 2.28125 2.421875 5.6875q0 1.9375 -0.703125 3.6875q-0.6875 1.734375 -2.1875 3.65625q-1.0 1.265625 -3.59375 3.65625q-2.59375 2.375 -3.296875 3.15625q-0.6875 0.78125 -1.109375 1.53125l10.890625 0z" fill-rule="nonzero"/><path fill="#9fc5e8" d="m17.335958 483.65616l0 0c0 -26.509644 21.490332 -48.0 48.0 -48.0l0 0c12.730392 0 24.939377 5.057129 33.941124 14.058899c9.001747 9.0017395 14.058876 21.210724 14.058876 33.9411l0 0c0 26.509674 -21.490334 48.00003 -48.0 48.00003l0 0c-26.50967 0 -48.0 -21.490356 -48.0 -48.00003z" fill-rule="evenodd"/><path stroke="#595959" stroke-width="1.0" stroke-linejoin="round" stroke-linecap="butt" d="m17.335958 483.65616l0 0c0 -26.509644 21.490332 -48.0 48.0 -48.0l0 0c12.730392 0 24.939377 5.057129 33.941124 14.058899c9.001747 9.0017395 14.058876 21.210724 14.058876 33.9411l0 0c0 26.509674 -21.490334 48.00003 -48.0 48.00003l0 0c-26.50967 0 -48.0 -21.490356 -48.0 -48.00003z" fill-rule="evenodd"/><path fill="#000000" d="m67.491844 490.57617l-2.5625 0l0 -9.640625q-1.4062462 1.3125 -3.3124962 1.9375l0 -2.328125q1.015625 -0.328125 2.1875 -1.234375q1.1718712 -0.921875 1.6093712 -2.140625l2.078125 0l0 13.40625z" fill-rule="nonzero"/><path fill="#000000" fill-opacity="0.0" d="m113.33596 82.94226l142.67715 0" fill-rule="evenodd"/><path stroke="#e06666" stroke-width="3.0" stroke-linejoin="round" stroke-linecap="butt" d="m113.33596 82.94226l124.67716 0" fill-rule="evenodd"/><path fill="#e06666" stroke="#e06666" stroke-width="3.0" stroke-linecap="butt" d="m238.01312 87.89745l13.614288 -4.9551926l-13.614288 -4.9552z" fill-rule="evenodd"/><path fill="#000000" fill-opacity="0.0" d="m113.33596 283.29922l142.67715 0" fill-rule="evenodd"/><path stroke="#e06666" stroke-width="3.0" stroke-linejoin="round" stroke-linecap="butt" d="m113.33596 283.29922l124.67716 0" fill-rule="evenodd"/><path fill="#e06666" stroke="#e06666" stroke-width="3.0" stroke-linecap="butt" d="m238.01312 288.25443l13.614288 -4.9552l-13.614288 -4.9552z" fill-rule="evenodd"/><path fill="#000000" fill-opacity="0.0" d="m113.33596 483.65616l142.67715 -200.34644" fill-rule="evenodd"/><path stroke="#e06666" stroke-width="3.0" stroke-linejoin="round" stroke-linecap="butt" d="m113.33596 483.65616l132.2356 -185.68445" fill-rule="evenodd"/><path fill="#e06666" stroke="#e06666" stroke-width="3.0" stroke-linecap="butt" d="m249.60783 300.84613l3.861206 -13.96402l-11.933762 8.215149z" fill-rule="evenodd"/><path fill="#6fa8dc" d="m256.0 82.94226l0 0c0 -26.50967 21.490326 -48.000004 48.0 -48.000004l0 0c12.730377 0 24.939392 5.057129 33.94113 14.058876c9.0017395 9.001743 14.058868 21.210735 14.058868 33.941128l0 0c0 26.509666 -21.490326 48.0 -48.0 48.0l0 0c-26.509674 0 -48.0 -21.490334 -48.0 -48.0z" fill-rule="evenodd"/><path stroke="#595959" stroke-width="1.0" stroke-linejoin="round" stroke-linecap="butt" d="m256.0 82.94226l0 0c0 -26.50967 21.490326 -48.000004 48.0 -48.000004l0 0c12.730377 0 24.939392 5.057129 33.94113 14.058876c9.0017395 9.001743 14.058868 21.210735 14.058868 33.941128l0 0c0 26.509666 -21.490326 48.0 -48.0 48.0l0 0c-26.509674 0 -48.0 -21.490334 -48.0 -48.0z" fill-rule="evenodd"/><path fill="#000000" d="m281.938 82.57475l-4.8125 5.640625l9.484375 0l0 4.046875l-15.5 0l0 -3.4375l5.21875 -6.25l-4.40625 -5.109375l0 -3.359375l14.203125 0l0 4.046875l-8.03125 0l3.84375 4.421875z" fill-rule="nonzero"/><path fill="#000000" d="m287.9362 82.1685l0 -3.1875l12.6875 0l0 3.1875l-12.6875 0zm0 5.5l0 -3.203125l12.6875 0l0 3.203125l-12.6875 0zm15.556854 4.59375l0 -3.46875l3.484375 0l0 3.46875l-3.484375 0zm13.115112 0l0 -3.640625l-7.421875 0l0 -3.046875l7.859375 -11.515625l2.921875 0l0 11.5l2.25 0l0 3.0625l-2.25 0l0 3.640625l-3.359375 0zm0 -6.703125l0 -6.203125l-4.171875 6.203125l4.171875 0zm7.3519287 2.515625l3.359375 -0.375q0.125 1.03125 0.640625 1.53125q0.515625 0.484375 1.375 0.484375q1.078125 0 1.828125 -0.984375q0.75 -1.0 0.96875 -4.109375q-1.3125 1.515625 -3.28125 1.515625q-2.140625 0 -3.703125 -1.640625q-1.546875 -1.65625 -1.546875 -4.3125q0 -2.75 1.640625 -4.4375q1.640625 -1.6875 4.171875 -1.6875q2.765625 0 4.53125 2.140625q1.765625 2.125 1.765625 7.015625q0 4.96875 -1.84375 7.171875q-1.84375 2.203125 -4.796875 2.203125q-2.125 0 -3.4375 -1.125q-1.3125 -1.140625 -1.671875 -3.390625zm7.859375 -7.59375q0 -1.6875 -0.78125 -2.609375q-0.765625 -0.9375 -1.78125 -0.9375q-0.96875 0 -1.609375 0.765625q-0.625 0.765625 -0.625 2.484375q0 1.765625 0.6875 2.59375q0.703125 0.8125 1.734375 0.8125q1.0 0 1.6875 -0.78125q0.6875 -0.796875 0.6875 -2.328125z" fill-rule="nonzero"/><path fill="#6fa8dc" d="m256.0 283.29922l0 0c0 -26.509674 21.490326 -48.000015 48.0 -48.000015l0 0c12.730377 0 24.939392 5.057129 33.94113 14.058884c9.0017395 9.0017395 14.058868 21.210724 14.058868 33.94113l0 0c0 26.509644 -21.490326 48.0 -48.0 48.0l0 0c-26.509674 0 -48.0 -21.490356 -48.0 -48.0z" fill-rule="evenodd"/><path stroke="#595959" stroke-width="1.0" stroke-linejoin="round" stroke-linecap="butt" d="m256.0 283.29922l0 0c0 -26.509674 21.490326 -48.000015 48.0 -48.000015l0 0c12.730377 0 24.939392 5.057129 33.94113 14.058884c9.0017395 9.0017395 14.058868 21.210724 14.058868 33.94113l0 0c0 26.509644 -21.490326 48.0 -48.0 48.0l0 0c-26.509674 0 -48.0 -21.490356 -48.0 -48.0z" fill-rule="evenodd"/><path fill="#000000" d="m281.938 282.9317l-4.8125 5.640625l9.484375 0l0 4.046875l-15.5 0l0 -3.4375l5.21875 -6.25l-4.40625 -5.109375l0 -3.359375l14.203125 0l0 4.046875l-8.03125 0l3.84375 4.421875z" fill-rule="nonzero"/><path fill="#000000" d="m287.9362 282.52545l0 -3.1875l12.6875 0l0 3.1875l-12.6875 0zm0 5.5l0 -3.203125l12.6875 0l0 3.203125l-12.6875 0zm15.556854 4.59375l0 -3.46875l3.484375 0l0 3.46875l-3.484375 0zm6.3494873 -4.65625l3.46875 -0.359375q0.140625 1.171875 0.875 1.859375q0.734375 0.6875 1.671875 0.6875q1.09375 0 1.84375 -0.875q0.765625 -0.890625 0.765625 -2.671875q0 -1.671875 -0.75 -2.5q-0.75 -0.84375 -1.953125 -0.84375q-1.5 0 -2.6875 1.328125l-2.8125 -0.421875l1.78125 -9.4375l9.1875 0l0 3.265625l-6.546875 0l-0.546875 3.078125q1.15625 -0.578125 2.375 -0.578125q2.3125 0 3.90625 1.6875q1.609375 1.671875 1.609375 4.359375q0 2.234375 -1.296875 3.984375q-1.765625 2.40625 -4.90625 2.40625q-2.515625 0 -4.09375 -1.34375q-1.578125 -1.359375 -1.890625 -3.625zm17.023804 -5.125q-1.359375 -0.5625 -1.96875 -1.5625q-0.609375 -1.0 -0.609375 -2.1875q0 -2.03125 1.40625 -3.34375q1.421875 -1.328125 4.03125 -1.328125q2.59375 0 4.015625 1.328125q1.4375 1.3125 1.4375 3.34375q0 1.265625 -0.65625 2.25q-0.65625 0.984375 -1.84375 1.5q1.5 0.609375 2.28125 1.78125q0.796875 1.15625 0.796875 2.671875q0 2.515625 -1.609375 4.09375q-1.59375 1.5625 -4.25 1.5625q-2.484375 0 -4.125 -1.3125q-1.9375 -1.53125 -1.9375 -4.203125q0 -1.46875 0.71875 -2.6875q0.734375 -1.234375 2.3125 -1.90625zm0.71875 -3.5q0 1.03125 0.578125 1.625q0.59375 0.578125 1.5625 0.578125q1.0 0 1.59375 -0.578125q0.59375 -0.59375 0.59375 -1.640625q0 -0.96875 -0.59375 -1.5625q-0.59375 -0.59375 -1.546875 -0.59375q-1.0 0 -1.59375 0.59375q-0.59375 0.59375 -0.59375 1.578125zm-0.328125 7.765625q0 1.4375 0.734375 2.25q0.734375 0.796875 1.84375 0.796875q1.0625 0 1.765625 -0.765625q0.71875 -0.78125 0.71875 -2.25q0 -1.265625 -0.71875 -2.03125q-0.71875 -0.78125 -1.828125 -0.78125q-1.265625 0 -1.890625 0.875q-0.625 0.875 -0.625 1.90625z" fill-rule="nonzero"/><path fill="#6fa8dc" d="m861.1496 84.6168l0 0c0 -26.50967 21.490356 -48.0 48.0 -48.0l0 0c12.730408 0 24.939392 5.057129 33.941162 14.058872c9.001709 9.001747 14.058838 21.210735 14.058838 33.941128l0 0c0 26.509666 -21.490295 47.999992 -48.0 47.999992l0 0c-26.509644 0 -48.0 -21.490326 -48.0 -47.999992z" fill-rule="evenodd"/><path stroke="#595959" stroke-width="1.0" stroke-linejoin="round" stroke-linecap="butt" d="m861.1496 84.6168l0 0c0 -26.50967 21.490356 -48.0 48.0 -48.0l0 0c12.730408 0 24.939392 5.057129 33.941162 14.058872c9.001709 9.001747 14.058838 21.210735 14.058838 33.941128l0 0c0 26.509666 -21.490295 47.999992 -48.0 47.999992l0 0c-26.509644 0 -48.0 -21.490326 -48.0 -47.999992z" fill-rule="evenodd"/><path fill="#000000" d="m878.61584 57.350548l4.578125 0q1.546875 0 2.359375 0.234375q1.09375 0.328125 1.875 1.15625q0.78125 0.8125 1.1875 2.0q0.40625 1.1875 0.40625 2.9375q0 1.53125 -0.390625 2.640625q-0.453125 1.34375 -1.328125 2.1875q-0.640625 0.625 -1.75 0.984375q-0.828125 0.265625 -2.21875 0.265625l-4.71875 0l0 -12.40625zm2.5 2.09375l0 8.21875l1.875 0q1.046875 0 1.515625 -0.109375q0.609375 -0.15625 1.0 -0.515625q0.40625 -0.375 0.65625 -1.203125q0.265625 -0.828125 0.265625 -2.265625q0 -1.4375 -0.265625 -2.203125q-0.25 -0.78125 -0.703125 -1.203125q-0.453125 -0.4375 -1.15625 -0.59375q-0.53125 -0.125 -2.0625 -0.125l-1.125 0zm15.216919 7.453125l2.359375 0.390625q-0.453125 1.3125 -1.4375 2.0q-0.984375 0.671875 -2.46875 0.671875q-2.34375 0 -3.46875 -1.53125q-0.890625 -1.234375 -0.890625 -3.09375q0 -2.234375 1.171875 -3.5q1.171875 -1.265625 2.953125 -1.265625q2.0 0 3.15625 1.328125q1.171875 1.3125 1.109375 4.046875l-5.953125 0q0.03125 1.0625 0.578125 1.65625q0.546875 0.578125 1.375 0.578125q0.546875 0 0.921875 -0.296875q0.390625 -0.3125 0.59375 -0.984375zm0.125 -2.40625q-0.015625 -1.03125 -0.53125 -1.5625q-0.5 -0.546875 -1.234375 -0.546875q-0.78125 0 -1.28125 0.578125q-0.515625 0.5625 -0.5 1.53125l3.546875 0zm3.46521 2.703125l2.390625 -0.359375q0.140625 0.6875 0.609375 1.046875q0.46875 0.359375 1.3125 0.359375q0.921875 0 1.375 -0.34375q0.3125 -0.234375 0.3125 -0.625q0 -0.28125 -0.15625 -0.453125q-0.1875 -0.171875 -0.796875 -0.3125q-2.875 -0.640625 -3.65625 -1.15625q-1.0625 -0.734375 -1.0625 -2.03125q0 -1.15625 0.921875 -1.953125q0.921875 -0.796875 2.859375 -0.796875q1.84375 0 2.734375 0.609375q0.90625 0.59375 1.25 1.765625l-2.25 0.421875q-0.140625 -0.53125 -0.546875 -0.8125q-0.390625 -0.28125 -1.140625 -0.28125q-0.9375 0 -1.34375 0.265625q-0.28125 0.1875 -0.28125 0.484375q0 0.25 0.25 0.4375q0.3125 0.234375 2.203125 0.671875q1.90625 0.421875 2.671875 1.046875q0.734375 0.640625 0.734375 1.765625q0 1.234375 -1.03125 2.125q-1.03125 0.890625 -3.046875 0.890625q-1.84375 0 -2.921875 -0.734375q-1.0625 -0.75 -1.390625 -2.03125zm10.480835 -7.640625l0 -2.203125l2.375 0l0 2.203125l-2.375 0zm0 10.203125l0 -8.984375l2.375 0l0 8.984375l-2.375 0zm7.079956 0l-2.375 0l0 -8.984375l2.203125 0l0 1.28125q0.578125 -0.90625 1.03125 -1.1875q0.453125 -0.296875 1.015625 -0.296875q0.8125 0 1.578125 0.453125l-0.734375 2.0625q-0.609375 -0.390625 -1.125 -0.390625q-0.5 0 -0.84375 0.28125q-0.34375 0.28125 -0.546875 1.0q-0.203125 0.71875 -0.203125 3.0l0 2.78125zm9.680908 -2.859375l2.359375 0.390625q-0.453125 1.3125 -1.4375 2.0q-0.984375 0.671875 -2.46875 0.671875q-2.34375 0 -3.46875 -1.53125q-0.890625 -1.234375 -0.890625 -3.09375q0 -2.234375 1.171875 -3.5q1.171875 -1.265625 2.953125 -1.265625q2.0 0 3.15625 1.328125q1.171875 1.3125 1.109375 4.046875l-5.953125 0q0.03125 1.0625 0.578125 1.65625q0.546875 0.578125 1.375 0.578125q0.546875 0 0.921875 -0.296875q0.390625 -0.3125 0.59375 -0.984375zm0.125 -2.40625q-0.015625 -1.03125 -0.53125 -1.5625q-0.5 -0.546875 -1.234375 -0.546875q-0.78125 0 -1.28125 0.578125q-0.515625 0.5625 -0.5 1.53125l3.546875 0zm12.543335 5.265625l-2.203125 0l0 -1.3125q-0.5625 0.765625 -1.3125 1.140625q-0.734375 0.375 -1.5 0.375q-1.546875 0 -2.65625 -1.25q-1.109375 -1.25 -1.109375 -3.484375q0 -2.28125 1.078125 -3.46875q1.078125 -1.1875 2.71875 -1.1875q1.5 0 2.609375 1.25l0 -4.46875l2.375 0l0 12.40625zm-6.34375 -4.6875q0 1.4375 0.390625 2.078125q0.578125 0.9375 1.609375 0.9375q0.828125 0 1.390625 -0.703125q0.578125 -0.703125 0.578125 -2.078125q0 -1.546875 -0.5625 -2.234375q-0.546875 -0.6875 -1.421875 -0.6875q-0.84375 0 -1.421875 0.671875q-0.5625 0.671875 -0.5625 2.015625z" fill-rule="nonzero"/><path fill="#000000" d="m878.62775 84.6318q0 -1.890625 0.5625 -3.1875q0.4375 -0.9375 1.15625 -1.6875q0.734375 -0.765625 1.609375 -1.125q1.15625 -0.484375 2.671875 -0.484375q2.75 0 4.390625 1.703125q1.640625 1.6875 1.640625 4.71875q0 3.0 -1.640625 4.703125q-1.625 1.703125 -4.359375 1.703125q-2.765625 0 -4.40625 -1.6875q-1.625 -1.703125 -1.625 -4.65625zm2.578125 -0.078125q0 2.09375 0.96875 3.1875q0.984375 1.09375 2.484375 1.09375q1.5 0 2.453125 -1.078125q0.96875 -1.09375 0.96875 -3.25q0 -2.125 -0.9375 -3.171875q-0.9375 -1.046875 -2.484375 -1.046875q-1.546875 0 -2.5 1.0625q-0.953125 1.0625 -0.953125 3.203125zm17.306519 6.203125l0 -1.34375q-0.484375 0.71875 -1.296875 1.140625q-0.796875 0.40625 -1.671875 0.40625q-0.90625 0 -1.625 -0.390625q-0.71875 -0.40625 -1.046875 -1.125q-0.328125 -0.71875 -0.328125 -1.984375l0 -5.6875l2.390625 0l0 4.125q0 1.890625 0.125 2.328125q0.125 0.421875 0.46875 0.671875q0.359375 0.25 0.890625 0.25q0.609375 0 1.09375 -0.328125q0.484375 -0.34375 0.65625 -0.828125q0.171875 -0.5 0.171875 -2.421875l0 -3.796875l2.375 0l0 8.984375l-2.203125 0zm8.787842 -8.984375l0 1.890625l-1.625 0l0 3.625q0 1.09375 0.046875 1.28125q0.046875 0.1875 0.203125 0.3125q0.171875 0.109375 0.421875 0.109375q0.328125 0 0.953125 -0.234375l0.203125 1.84375q-0.828125 0.359375 -1.875 0.359375q-0.65625 0 -1.171875 -0.21875q-0.515625 -0.21875 -0.765625 -0.546875q-0.234375 -0.34375 -0.3125 -0.9375q-0.078125 -0.40625 -0.078125 -1.671875l0 -3.921875l-1.09375 0l0 -1.890625l1.09375 0l0 -1.78125l2.375 -1.390625l0 3.171875l1.625 0zm1.5828857 0l2.21875 0l0 1.3125q0.4375 -0.671875 1.171875 -1.09375q0.734375 -0.421875 1.625 -0.421875q1.578125 0 2.65625 1.234375q1.09375 1.21875 1.09375 3.40625q0 2.25 -1.109375 3.5q-1.09375 1.25 -2.65625 1.25q-0.734375 0 -1.34375 -0.296875q-0.609375 -0.296875 -1.28125 -1.015625l0 4.53125l-2.375 0l0 -12.40625zm2.359375 4.34375q0 1.515625 0.59375 2.234375q0.609375 0.71875 1.46875 0.71875q0.828125 0 1.375 -0.65625q0.546875 -0.671875 0.546875 -2.1875q0 -1.40625 -0.5625 -2.09375q-0.5625 -0.6875 -1.40625 -0.6875q-0.875 0 -1.453125 0.671875q-0.5625 0.671875 -0.5625 2.0zm14.209717 4.640625l0 -1.34375q-0.484375 0.71875 -1.296875 1.140625q-0.796875 0.40625 -1.671875 0.40625q-0.90625 0 -1.625 -0.390625q-0.71875 -0.40625 -1.046875 -1.125q-0.328125 -0.71875 -0.328125 -1.984375l0 -5.6875l2.390625 0l0 4.125q0 1.890625 0.125 2.328125q0.125 0.421875 0.46875 0.671875q0.359375 0.25 0.890625 0.25q0.609375 0 1.09375 -0.328125q0.484375 -0.34375 0.65625 -0.828125q0.171875 -0.5 0.171875 -2.421875l0 -3.796875l2.375 0l0 8.984375l-2.203125 0zm8.787842 -8.984375l0 1.890625l-1.625 0l0 3.625q0 1.09375 0.046875 1.28125q0.046875 0.1875 0.203125 0.3125q0.171875 0.109375 0.421875 0.109375q0.328125 0 0.953125 -0.234375l0.203125 1.84375q-0.828125 0.359375 -1.875 0.359375q-0.65625 0 -1.171875 -0.21875q-0.515625 -0.21875 -0.765625 -0.546875q-0.234375 -0.34375 -0.3125 -0.9375q-0.078125 -0.40625 -0.078125 -1.671875l0 -3.921875l-1.09375 0l0 -1.890625l1.09375 0l0 -1.78125l2.375 -1.390625l0 3.171875l1.625 0zm2.1141357 2.375l0 -2.375l2.375 0l0 2.375l-2.375 0zm0 6.609375l0 -2.375l2.375 0l0 2.375l-2.375 0z" fill-rule="nonzero"/><path fill="#000000" d="m898.35535 111.7568l0 -2.375l2.375 0l0 2.375l-2.375 0zm8.314331 -12.453125q1.8125 0 2.828125 1.28125q1.203125 1.53125 1.203125 5.046875q0 3.53125 -1.21875 5.0625q-1.0 1.28125 -2.8125 1.28125q-1.8125 0 -2.921875 -1.390625q-1.09375 -1.40625 -1.09375 -4.96875q0 -3.5 1.21875 -5.046875q1.0 -1.265625 2.796875 -1.265625zm0 1.96875q-0.421875 0 -0.765625 0.28125q-0.34375 0.265625 -0.53125 0.984375q-0.234375 0.921875 -0.234375 3.09375q0 2.1875 0.21875 3.015625q0.21875 0.8125 0.546875 1.078125q0.34375 0.265625 0.765625 0.265625q0.4375 0 0.765625 -0.265625q0.34375 -0.28125 0.53125 -0.984375q0.25 -0.921875 0.25 -3.109375q0 -2.171875 -0.21875 -2.984375q-0.21875 -0.828125 -0.5625 -1.09375q-0.328125 -0.28125 -0.765625 -0.28125zm11.699585 10.484375l-2.375 0l0 -8.953125q-1.296875 1.21875 -3.0625 1.796875l0 -2.15625q0.921875 -0.3125 2.015625 -1.15625q1.09375 -0.859375 1.5 -1.984375l1.921875 0l0 12.453125z" fill-rule="nonzero"/><path fill="#6fa8dc" d="m861.1496 284.97375l0 0c0 -26.509674 21.490356 -48.0 48.0 -48.0l0 0c12.730408 0 24.939392 5.057129 33.941162 14.058868c9.001709 9.0017395 14.058838 21.210724 14.058838 33.94113l0 0c0 26.509674 -21.490295 48.0 -48.0 48.0l0 0c-26.509644 0 -48.0 -21.490326 -48.0 -48.0z" fill-rule="evenodd"/><path stroke="#595959" stroke-width="1.0" stroke-linejoin="round" stroke-linecap="butt" d="m861.1496 284.97375l0 0c0 -26.509674 21.490356 -48.0 48.0 -48.0l0 0c12.730408 0 24.939392 5.057129 33.941162 14.058868c9.001709 9.0017395 14.058838 21.210724 14.058838 33.94113l0 0c0 26.509674 -21.490295 48.0 -48.0 48.0l0 0c-26.509644 0 -48.0 -21.490326 -48.0 -48.0z" fill-rule="evenodd"/><path fill="#000000" d="m878.61584 257.7075l4.578125 0q1.546875 0 2.359375 0.234375q1.09375 0.328125 1.875 1.15625q0.78125 0.8125 1.1875 2.0q0.40625 1.1875 0.40625 2.9375q0 1.53125 -0.390625 2.640625q-0.453125 1.34375 -1.328125 2.1875q-0.640625 0.625 -1.75 0.984375q-0.828125 0.265625 -2.21875 0.265625l-4.71875 0l0 -12.40625zm2.5 2.09375l0 8.21875l1.875 0q1.046875 0 1.515625 -0.109375q0.609375 -0.15625 1.0 -0.515625q0.40625 -0.375 0.65625 -1.203125q0.265625 -0.828125 0.265625 -2.265625q0 -1.4375 -0.265625 -2.203125q-0.25 -0.78125 -0.703125 -1.203125q-0.453125 -0.4375 -1.15625 -0.59375q-0.53125 -0.125 -2.0625 -0.125l-1.125 0zm15.216919 7.453125l2.359375 0.390625q-0.453125 1.3125 -1.4375 2.0q-0.984375 0.671875 -2.46875 0.671875q-2.34375 0 -3.46875 -1.53125q-0.890625 -1.234375 -0.890625 -3.09375q0 -2.234375 1.171875 -3.5q1.171875 -1.265625 2.953125 -1.265625q2.0 0 3.15625 1.328125q1.171875 1.3125 1.109375 4.046875l-5.953125 0q0.03125 1.0625 0.578125 1.65625q0.546875 0.578125 1.375 0.578125q0.546875 0 0.921875 -0.296875q0.390625 -0.3125 0.59375 -0.984375zm0.125 -2.40625q-0.015625 -1.03125 -0.53125 -1.5625q-0.5 -0.546875 -1.234375 -0.546875q-0.78125 0 -1.28125 0.578125q-0.515625 0.5625 -0.5 1.53125l3.546875 0zm3.46521 2.703125l2.390625 -0.359375q0.140625 0.6875 0.609375 1.046875q0.46875 0.359375 1.3125 0.359375q0.921875 0 1.375 -0.34375q0.3125 -0.234375 0.3125 -0.625q0 -0.28125 -0.15625 -0.453125q-0.1875 -0.171875 -0.796875 -0.3125q-2.875 -0.640625 -3.65625 -1.15625q-1.0625 -0.734375 -1.0625 -2.03125q0 -1.15625 0.921875 -1.953125q0.921875 -0.796875 2.859375 -0.796875q1.84375 0 2.734375 0.609375q0.90625 0.59375 1.25 1.765625l-2.25 0.421875q-0.140625 -0.53125 -0.546875 -0.8125q-0.390625 -0.28125 -1.140625 -0.28125q-0.9375 0 -1.34375 0.265625q-0.28125 0.1875 -0.28125 0.484375q0 0.25 0.25 0.4375q0.3125 0.234375 2.203125 0.671875q1.90625 0.421875 2.671875 1.046875q0.734375 0.640625 0.734375 1.765625q0 1.234375 -1.03125 2.125q-1.03125 0.890625 -3.046875 0.890625q-1.84375 0 -2.921875 -0.734375q-1.0625 -0.75 -1.390625 -2.03125zm10.480835 -7.640625l0 -2.203125l2.375 0l0 2.203125l-2.375 0zm0 10.203125l0 -8.984375l2.375 0l0 8.984375l-2.375 0zm7.079956 0l-2.375 0l0 -8.984375l2.203125 0l0 1.28125q0.578125 -0.90625 1.03125 -1.1875q0.453125 -0.296875 1.015625 -0.296875q0.8125 0 1.578125 0.453125l-0.734375 2.0625q-0.609375 -0.390625 -1.125 -0.390625q-0.5 0 -0.84375 0.28125q-0.34375 0.28125 -0.546875 1.0q-0.203125 0.71875 -0.203125 3.0l0 2.78125zm9.680908 -2.859375l2.359375 0.390625q-0.453125 1.3125 -1.4375 2.0q-0.984375 0.671875 -2.46875 0.671875q-2.34375 0 -3.46875 -1.53125q-0.890625 -1.234375 -0.890625 -3.09375q0 -2.234375 1.171875 -3.5q1.171875 -1.265625 2.953125 -1.265625q2.0 0 3.15625 1.328125q1.171875 1.3125 1.109375 4.046875l-5.953125 0q0.03125 1.0625 0.578125 1.65625q0.546875 0.578125 1.375 0.578125q0.546875 0 0.921875 -0.296875q0.390625 -0.3125 0.59375 -0.984375zm0.125 -2.40625q-0.015625 -1.03125 -0.53125 -1.5625q-0.5 -0.546875 -1.234375 -0.546875q-0.78125 0 -1.28125 0.578125q-0.515625 0.5625 -0.5 1.53125l3.546875 0zm12.543335 5.265625l-2.203125 0l0 -1.3125q-0.5625 0.765625 -1.3125 1.140625q-0.734375 0.375 -1.5 0.375q-1.546875 0 -2.65625 -1.25q-1.109375 -1.25 -1.109375 -3.484375q0 -2.28125 1.078125 -3.46875q1.078125 -1.1875 2.71875 -1.1875q1.5 0 2.609375 1.25l0 -4.46875l2.375 0l0 12.40625zm-6.34375 -4.6875q0 1.4375 0.390625 2.078125q0.578125 0.9375 1.609375 0.9375q0.828125 0 1.390625 -0.703125q0.578125 -0.703125 0.578125 -2.078125q0 -1.546875 -0.5625 -2.234375q-0.546875 -0.6875 -1.421875 -0.6875q-0.84375 0 -1.421875 0.671875q-0.5625 0.671875 -0.5625 2.015625z" fill-rule="nonzero"/><path fill="#000000" d="m878.62775 284.98874q0 -1.890625 0.5625 -3.1875q0.4375 -0.9375 1.15625 -1.6875q0.734375 -0.765625 1.609375 -1.125q1.15625 -0.484375 2.671875 -0.484375q2.75 0 4.390625 1.703125q1.640625 1.6875 1.640625 4.71875q0 3.0 -1.640625 4.703125q-1.625 1.703125 -4.359375 1.703125q-2.765625 0 -4.40625 -1.6875q-1.625 -1.703125 -1.625 -4.65625zm2.578125 -0.078125q0 2.09375 0.96875 3.1875q0.984375 1.09375 2.484375 1.09375q1.5 0 2.453125 -1.078125q0.96875 -1.09375 0.96875 -3.25q0 -2.125 -0.9375 -3.171875q-0.9375 -1.046875 -2.484375 -1.046875q-1.546875 0 -2.5 1.0625q-0.953125 1.0625 -0.953125 3.203125zm17.306519 6.203125l0 -1.34375q-0.484375 0.71875 -1.296875 1.140625q-0.796875 0.40625 -1.671875 0.40625q-0.90625 0 -1.625 -0.390625q-0.71875 -0.40625 -1.046875 -1.125q-0.328125 -0.71875 -0.328125 -1.984375l0 -5.6875l2.390625 0l0 4.125q0 1.890625 0.125 2.328125q0.125 0.421875 0.46875 0.671875q0.359375 0.25 0.890625 0.25q0.609375 0 1.09375 -0.328125q0.484375 -0.34375 0.65625 -0.828125q0.171875 -0.5 0.171875 -2.421875l0 -3.796875l2.375 0l0 8.984375l-2.203125 0zm8.787842 -8.984375l0 1.890625l-1.625 0l0 3.625q0 1.09375 0.046875 1.28125q0.046875 0.1875 0.203125 0.3125q0.171875 0.109375 0.421875 0.109375q0.328125 0 0.953125 -0.234375l0.203125 1.84375q-0.828125 0.359375 -1.875 0.359375q-0.65625 0 -1.171875 -0.21875q-0.515625 -0.21875 -0.765625 -0.546875q-0.234375 -0.34375 -0.3125 -0.9375q-0.078125 -0.40625 -0.078125 -1.671875l0 -3.921875l-1.09375 0l0 -1.890625l1.09375 0l0 -1.78125l2.375 -1.390625l0 3.171875l1.625 0zm1.5828857 0l2.21875 0l0 1.3125q0.4375 -0.671875 1.171875 -1.09375q0.734375 -0.421875 1.625 -0.421875q1.578125 0 2.65625 1.234375q1.09375 1.21875 1.09375 3.40625q0 2.25 -1.109375 3.5q-1.09375 1.25 -2.65625 1.25q-0.734375 0 -1.34375 -0.296875q-0.609375 -0.296875 -1.28125 -1.015625l0 4.53125l-2.375 0l0 -12.40625zm2.359375 4.34375q0 1.515625 0.59375 2.234375q0.609375 0.71875 1.46875 0.71875q0.828125 0 1.375 -0.65625q0.546875 -0.671875 0.546875 -2.1875q0 -1.40625 -0.5625 -2.09375q-0.5625 -0.6875 -1.40625 -0.6875q-0.875 0 -1.453125 0.671875q-0.5625 0.671875 -0.5625 2.0zm14.209717 4.640625l0 -1.34375q-0.484375 0.71875 -1.296875 1.140625q-0.796875 0.40625 -1.671875 0.40625q-0.90625 0 -1.625 -0.390625q-0.71875 -0.40625 -1.046875 -1.125q-0.328125 -0.71875 -0.328125 -1.984375l0 -5.6875l2.390625 0l0 4.125q0 1.890625 0.125 2.328125q0.125 0.421875 0.46875 0.671875q0.359375 0.25 0.890625 0.25q0.609375 0 1.09375 -0.328125q0.484375 -0.34375 0.65625 -0.828125q0.171875 -0.5 0.171875 -2.421875l0 -3.796875l2.375 0l0 8.984375l-2.203125 0zm8.787842 -8.984375l0 1.890625l-1.625 0l0 3.625q0 1.09375 0.046875 1.28125q0.046875 0.1875 0.203125 0.3125q0.171875 0.109375 0.421875 0.109375q0.328125 0 0.953125 -0.234375l0.203125 1.84375q-0.828125 0.359375 -1.875 0.359375q-0.65625 0 -1.171875 -0.21875q-0.515625 -0.21875 -0.765625 -0.546875q-0.234375 -0.34375 -0.3125 -0.9375q-0.078125 -0.40625 -0.078125 -1.671875l0 -3.921875l-1.09375 0l0 -1.890625l1.09375 0l0 -1.78125l2.375 -1.390625l0 3.171875l1.625 0zm2.1141357 2.375l0 -2.375l2.375 0l0 2.375l-2.375 0zm0 6.609375l0 -2.375l2.375 0l0 2.375l-2.375 0z" fill-rule="nonzero"/><path fill="#000000" d="m898.35535 312.11374l0 -2.375l2.375 0l0 2.375l-2.375 0zm4.345581 -2.875l2.3125 -0.25q0.078125 0.703125 0.4375 1.046875q0.359375 0.328125 0.9375 0.328125q0.734375 0 1.25 -0.671875q0.515625 -0.671875 0.65625 -2.8125q-0.890625 1.046875 -2.234375 1.046875q-1.46875 0 -2.53125 -1.125q-1.0625 -1.140625 -1.0625 -2.953125q0 -1.875 1.125 -3.03125q1.125 -1.15625 2.859375 -1.15625q1.875 0 3.078125 1.46875q1.21875 1.453125 1.21875 4.796875q0 3.390625 -1.265625 4.90625q-1.25 1.5 -3.265625 1.5q-1.46875 0 -2.359375 -0.765625q-0.890625 -0.78125 -1.15625 -2.328125zm5.390625 -5.1875q0 -1.15625 -0.53125 -1.78125q-0.53125 -0.640625 -1.21875 -0.640625q-0.671875 0 -1.109375 0.53125q-0.421875 0.515625 -0.421875 1.6875q0 1.203125 0.46875 1.765625q0.46875 0.5625 1.1875 0.5625q0.6875 0 1.15625 -0.53125q0.46875 -0.546875 0.46875 -1.59375zm4.24646 5.1875l2.3125 -0.25q0.078125 0.703125 0.4375 1.046875q0.359375 0.328125 0.9375 0.328125q0.734375 0 1.25 -0.671875q0.515625 -0.671875 0.65625 -2.8125q-0.890625 1.046875 -2.234375 1.046875q-1.46875 0 -2.53125 -1.125q-1.0625 -1.140625 -1.0625 -2.953125q0 -1.875 1.125 -3.03125q1.125 -1.15625 2.859375 -1.15625q1.875 0 3.078125 1.46875q1.21875 1.453125 1.21875 4.796875q0 3.390625 -1.265625 4.90625q-1.25 1.5 -3.265625 1.5q-1.46875 0 -2.359375 -0.765625q-0.890625 -0.78125 -1.15625 -2.328125zm5.390625 -5.1875q0 -1.15625 -0.53125 -1.78125q-0.53125 -0.640625 -1.21875 -0.640625q-0.671875 0 -1.109375 0.53125q-0.421875 0.515625 -0.421875 1.6875q0 1.203125 0.46875 1.765625q0.46875 0.5625 1.1875 0.5625q0.6875 0 1.15625 -0.53125q0.46875 -0.546875 0.46875 -1.59375z" fill-rule="nonzero"/><path fill="#000000" fill-opacity="0.0" d="m113.33596 283.29922l142.67715 -200.34647" fill-rule="evenodd"/><path stroke="#e06666" stroke-width="3.0" stroke-linejoin="round" stroke-linecap="butt" d="m113.33596 283.29922l132.2356 -185.68448" fill-rule="evenodd"/><path fill="#e06666" stroke="#e06666" stroke-width="3.0" stroke-linecap="butt" d="m249.60783 100.48918l3.861206 -13.964027l-11.933762 8.215141z" fill-rule="evenodd"/><path fill="#000000" fill-opacity="0.0" d="m113.33596 483.65616l142.67715 -400.7244" fill-rule="evenodd"/><path stroke="#e06666" stroke-width="3.0" stroke-linejoin="round" stroke-linecap="butt" d="m113.33596 483.65616l136.63959 -383.76718" fill-rule="evenodd"/><path fill="#e06666" stroke="#e06666" stroke-width="3.0" stroke-linecap="butt" d="m254.64366 101.55106l-0.10159302 -14.487671l-9.234665 11.163513z" fill-rule="evenodd"/><path fill="#000000" fill-opacity="0.0" d="m113.33596 82.94226l142.67715 200.34647" fill-rule="evenodd"/><path stroke="#e06666" stroke-width="3.0" stroke-linejoin="round" stroke-linecap="butt" d="m113.33596 82.94226l132.2356 185.68445" fill-rule="evenodd"/><path fill="#e06666" stroke="#e06666" stroke-width="3.0" stroke-linecap="butt" d="m241.53528 271.5012l11.933762 8.215118l-3.861206 -13.96402z" fill-rule="evenodd"/><path fill="#000000" fill-opacity="0.0" d="m117.3832 51.598427l51.937004 0l0 42.015747l-51.937004 0z" fill-rule="evenodd"/><path fill="#000000" d="m128.07071 78.518425l0 -1.875l1.875 0l0 1.875l-1.875 0zm10.448929 0l-1.640625 0l0 -10.453125q-0.59375 0.5625 -1.5625 1.140625q-0.953125 0.5625 -1.71875 0.84375l0 -1.59375q1.375 -0.640625 2.40625 -1.5625q1.03125 -0.921875 1.453125 -1.78125l1.0625 0l0 13.40625zm4.203842 -6.59375q0 -2.359375 0.484375 -3.796875q0.484375 -1.453125 1.4375 -2.234375q0.96875 -0.78125 2.421875 -0.78125q1.078125 0 1.890625 0.4375q0.8125 0.421875 1.328125 1.25q0.53125 0.8125 0.828125 1.984375q0.3125 1.15625 0.3125 3.140625q0 2.359375 -0.484375 3.8125q-0.484375 1.4375 -1.453125 2.234375q-0.953125 0.78125 -2.421875 0.78125q-1.921875 0 -3.03125 -1.390625q-1.3125 -1.671875 -1.3125 -5.4375zm1.671875 0q0 3.296875 0.765625 4.390625q0.78125 1.078125 1.90625 1.078125q1.140625 0 1.90625 -1.09375q0.765625 -1.09375 0.765625 -4.375q0 -3.296875 -0.765625 -4.375q-0.765625 -1.078125 -1.921875 -1.078125q-1.125 0 -1.796875 0.953125q-0.859375 1.21875 -0.859375 4.5z" fill-rule="nonzero"/><path fill="#000000" fill-opacity="0.0" d="m117.3832 130.94095l51.937004 0l0 42.015747l-51.937004 0z" fill-rule="evenodd"/><path fill="#000000" d="m128.07071 157.86095l0 -1.875l1.875 0l0 1.875l-1.875 0zm12.886429 -1.578125l0 1.578125l-8.828125 0q-0.015625 -0.59375 0.1875 -1.140625q0.34375 -0.90625 1.078125 -1.78125q0.75 -0.875 2.15625 -2.015625q2.171875 -1.78125 2.9375 -2.828125q0.765625 -1.046875 0.765625 -1.96875q0 -0.984375 -0.703125 -1.640625q-0.6875 -0.671875 -1.8125 -0.671875q-1.1875 0 -1.90625 0.71875q-0.703125 0.703125 -0.703125 1.953125l-1.6875 -0.171875q0.171875 -1.890625 1.296875 -2.875q1.140625 -0.984375 3.03125 -0.984375q1.921875 0 3.046875 1.0625q1.125 1.0625 1.125 2.640625q0 0.796875 -0.328125 1.578125q-0.328125 0.78125 -1.09375 1.640625q-0.75 0.84375 -2.53125 2.34375q-1.46875 1.234375 -1.890625 1.6875q-0.421875 0.4375 -0.6875 0.875l6.546875 0zm1.7663422 -1.921875l1.71875 -0.140625q0.1875 1.25 0.875 1.890625q0.703125 0.625 1.6875 0.625q1.1875 0 2.0 -0.890625q0.828125 -0.890625 0.828125 -2.359375q0 -1.40625 -0.796875 -2.21875q-0.78125 -0.8125 -2.0625 -0.8125q-0.78125 0 -1.421875 0.359375q-0.640625 0.359375 -1.0 0.9375l-1.546875 -0.203125l1.296875 -6.859375l6.640625 0l0 1.5625l-5.328125 0l-0.71875 3.59375q1.203125 -0.84375 2.515625 -0.84375q1.75 0 2.953125 1.21875q1.203125 1.203125 1.203125 3.109375q0 1.8125 -1.046875 3.140625q-1.296875 1.625 -3.515625 1.625q-1.8125 0 -2.96875 -1.015625q-1.15625 -1.03125 -1.3125 -2.71875z" fill-rule="nonzero"/><path fill="#000000" fill-opacity="0.0" d="m117.3832 196.85564l51.937004 0l0 42.015747l-51.937004 0z" fill-rule="evenodd"/><path fill="#000000" d="m128.07071 223.77563l0 -1.875l1.875 0l0 1.875l-1.875 0zm12.886429 -1.578125l0 1.578125l-8.828125 0q-0.015625 -0.59375 0.1875 -1.140625q0.34375 -0.90625 1.078125 -1.78125q0.75 -0.875 2.15625 -2.015625q2.171875 -1.78125 2.9375 -2.828125q0.765625 -1.046875 0.765625 -1.96875q0 -0.984375 -0.703125 -1.640625q-0.6875 -0.671875 -1.8125 -0.671875q-1.1875 0 -1.90625 0.71875q-0.703125 0.703125 -0.703125 1.953125l-1.6875 -0.171875q0.171875 -1.890625 1.296875 -2.875q1.140625 -0.984375 3.03125 -0.984375q1.921875 0 3.046875 1.0625q1.125 1.0625 1.125 2.640625q0 0.796875 -0.328125 1.578125q-0.328125 0.78125 -1.09375 1.640625q-0.75 0.84375 -2.53125 2.34375q-1.46875 1.234375 -1.890625 1.6875q-0.421875 0.4375 -0.6875 0.875l6.546875 0zm1.7663422 -1.921875l1.71875 -0.140625q0.1875 1.25 0.875 1.890625q0.703125 0.625 1.6875 0.625q1.1875 0 2.0 -0.890625q0.828125 -0.890625 0.828125 -2.359375q0 -1.40625 -0.796875 -2.21875q-0.78125 -0.8125 -2.0625 -0.8125q-0.78125 0 -1.421875 0.359375q-0.640625 0.359375 -1.0 0.9375l-1.546875 -0.203125l1.296875 -6.859375l6.640625 0l0 1.5625l-5.328125 0l-0.71875 3.59375q1.203125 -0.84375 2.515625 -0.84375q1.75 0 2.953125 1.21875q1.203125 1.203125 1.203125 3.109375q0 1.8125 -1.046875 3.140625q-1.296875 1.625 -3.515625 1.625q-1.8125 0 -2.96875 -1.015625q-1.15625 -1.03125 -1.3125 -2.71875z" fill-rule="nonzero"/><path fill="#000000" fill-opacity="0.0" d="m117.3832 272.96063l51.937004 0l0 42.015747l-51.937004 0z" fill-rule="evenodd"/><path fill="#000000" d="m128.07071 299.8806l0 -1.875l1.875 0l0 1.875l-1.875 0zm9.527054 0l0 -3.203125l-5.796875 0l0 -1.5l6.09375 -8.65625l1.34375 0l0 8.65625l1.796875 0l0 1.5l-1.796875 0l0 3.203125l-1.640625 0zm0 -4.703125l0 -6.015625l-4.1875 6.015625l4.1875 0zm5.125717 -1.890625q0 -2.359375 0.484375 -3.796875q0.484375 -1.453125 1.4375 -2.234375q0.96875 -0.78125 2.421875 -0.78125q1.078125 0 1.890625 0.4375q0.8125 0.421875 1.328125 1.25q0.53125 0.8125 0.828125 1.984375q0.3125 1.15625 0.3125 3.140625q0 2.359375 -0.484375 3.8125q-0.484375 1.4375 -1.453125 2.234375q-0.953125 0.78125 -2.421875 0.78125q-1.921875 0 -3.03125 -1.390625q-1.3125 -1.671875 -1.3125 -5.4375zm1.671875 0q0 3.296875 0.765625 4.390625q0.78125 1.078125 1.90625 1.078125q1.140625 0 1.90625 -1.09375q0.765625 -1.09375 0.765625 -4.375q0 -3.296875 -0.765625 -4.375q-0.765625 -1.078125 -1.921875 -1.078125q-1.125 0 -1.796875 0.953125q-0.859375 1.21875 -0.859375 4.5z" fill-rule="nonzero"/><path fill="#000000" fill-opacity="0.0" d="m113.33596 356.99213l51.937004 0l0 42.015747l-51.937004 0z" fill-rule="evenodd"/><path fill="#000000" d="m124.02346 383.9121l0 -1.875l1.875 0l0 1.875l-1.875 0zm9.527046 0l0 -3.203125l-5.7968674 0l0 -1.5l6.0937424 -8.65625l1.34375 0l0 8.65625l1.796875 0l0 1.5l-1.796875 0l0 3.203125l-1.640625 0zm0 -4.703125l0 -6.015625l-4.1875 6.015625l4.1875 0zm5.125717 1.203125l1.71875 -0.140625q0.1875 1.25 0.875 1.890625q0.703125 0.625 1.6875 0.625q1.1875 0 2.0 -0.890625q0.828125 -0.890625 0.828125 -2.359375q0 -1.40625 -0.796875 -2.21875q-0.78125 -0.8125 -2.0625 -0.8125q-0.78125 0 -1.421875 0.359375q-0.640625 0.359375 -1.0 0.9375l-1.546875 -0.203125l1.296875 -6.859375l6.640625 0l0 1.5625l-5.328125 0l-0.71875 3.59375q1.203125 -0.84375 2.515625 -0.84375q1.75 0 2.953125 1.21875q1.203125 1.203125 1.203125 3.109375q0 1.8125 -1.046875 3.140625q-1.296875 1.625 -3.515625 1.625q-1.8125 0 -2.96875 -1.015625q-1.15625 -1.03125 -1.3125 -2.71875z" fill-rule="nonzero"/><path fill="#000000" fill-opacity="0.0" d="m158.70604 386.97638l51.93701 0l0 42.015747l-51.93701 0z" fill-rule="evenodd"/><path fill="#000000" d="m169.39354 413.89636l0 -1.875l1.875 0l0 1.875l-1.875 0zm9.527054 0l0 -3.203125l-5.796875 0l0 -1.5l6.09375 -8.65625l1.34375 0l0 8.65625l1.796875 0l0 1.5l-1.796875 0l0 3.203125l-1.640625 0zm0 -4.703125l0 -6.015625l-4.1875 6.015625l4.1875 0zm5.125717 1.203125l1.71875 -0.140625q0.1875 1.25 0.875 1.890625q0.703125 0.625 1.6875 0.625q1.1875 0 2.0 -0.890625q0.828125 -0.890625 0.828125 -2.359375q0 -1.40625 -0.796875 -2.21875q-0.78125 -0.8125 -2.0625 -0.8125q-0.78125 0 -1.421875 0.359375q-0.640625 0.359375 -1.0 0.9375l-1.546875 -0.203125l1.296875 -6.859375l6.640625 0l0 1.5625l-5.328125 0l-0.71875 3.59375q1.203125 -0.84375 2.515625 -0.84375q1.75 0 2.953125 1.21875q1.203125 1.203125 1.203125 3.109375q0 1.8125 -1.046875 3.140625q-1.296875 1.625 -3.515625 1.625q-1.8125 0 -2.96875 -1.015625q-1.15625 -1.03125 -1.3125 -2.71875z" fill-rule="nonzero"/><path fill="#000000" fill-opacity="0.0" d="m480.0 82.94226l142.5827 1.6692886" fill-rule="evenodd"/><path stroke="#e06666" stroke-width="3.0" stroke-linejoin="round" stroke-linecap="butt" d="m480.0 82.94226l124.58392 1.4585648" fill-rule="evenodd"/><path fill="#e06666" stroke="#e06666" stroke-width="3.0" stroke-linecap="butt" d="m604.5259 89.35568l13.671387 -4.795479l-13.555359 -5.114235z" fill-rule="evenodd"/><path fill="#000000" fill-opacity="0.0" d="m480.0 283.29922l142.5827 1.669281" fill-rule="evenodd"/><path stroke="#e06666" stroke-width="3.0" stroke-linejoin="round" stroke-linecap="butt" d="m480.0 283.29922l124.58392 1.4585571" fill-rule="evenodd"/><path fill="#e06666" stroke="#e06666" stroke-width="3.0" stroke-linecap="butt" d="m604.5259 289.71265l13.671387 -4.795471l-13.555359 -5.114258z" fill-rule="evenodd"/><path fill="#000000" fill-opacity="0.0" d="m480.0 483.65616l142.5827 -198.67715" fill-rule="evenodd"/><path stroke="#e06666" stroke-width="3.0" stroke-linejoin="round" stroke-linecap="butt" d="m480.0 483.65616l132.0877 -184.05331" fill-rule="evenodd"/><path fill="#e06666" stroke="#e06666" stroke-width="3.0" stroke-linecap="butt" d="m616.1135 302.49197l3.9120483 -13.94986l-11.963623 8.17157z" fill-rule="evenodd"/><path fill="#000000" fill-opacity="0.0" d="m480.0 283.29922l142.5827 -198.67719" fill-rule="evenodd"/><path stroke="#e06666" stroke-width="3.0" stroke-linejoin="round" stroke-linecap="butt" d="m480.0 283.29922l132.0877 -184.05336" fill-rule="evenodd"/><path fill="#e06666" stroke="#e06666" stroke-width="3.0" stroke-linecap="butt" d="m616.1135 102.13501l3.9120483 -13.94986l-11.963623 8.171585z" fill-rule="evenodd"/><path fill="#000000" fill-opacity="0.0" d="m480.0 483.65616l142.5827 -399.02362" fill-rule="evenodd"/><path stroke="#e06666" stroke-width="3.0" stroke-linejoin="round" stroke-linecap="butt" d="m480.0 483.65616l136.52582 -382.07324" fill-rule="evenodd"/><path fill="#e06666" stroke="#e06666" stroke-width="3.0" stroke-linecap="butt" d="m621.1921 103.25028l-0.08514404 -14.487778l-9.2473755 11.153015z" fill-rule="evenodd"/><path fill="#000000" fill-opacity="0.0" d="m480.0 82.94226l142.5827 202.04724" fill-rule="evenodd"/><path stroke="#e06666" stroke-width="3.0" stroke-linejoin="round" stroke-linecap="butt" d="m480.0 82.94226l132.20428 187.34048" fill-rule="evenodd"/><path fill="#e06666" stroke="#e06666" stroke-width="3.0" stroke-linecap="butt" d="m608.15564 273.1398l11.898315 8.266388l-3.8010864 -13.980499z" fill-rule="evenodd"/><path fill="#6fa8dc" d="m384.0 82.94226l0 0c0 -26.50967 21.490326 -48.000004 48.0 -48.000004l0 0c12.730377 0 24.939392 5.057129 33.94113 14.058876c9.0017395 9.001743 14.058868 21.210735 14.058868 33.941128l0 0c0 26.509666 -21.490326 48.0 -48.0 48.0l0 0c-26.509674 0 -48.0 -21.490334 -48.0 -48.0z" fill-rule="evenodd"/><path stroke="#595959" stroke-width="1.0" stroke-linejoin="round" stroke-linecap="butt" d="m384.0 82.94226l0 0c0 -26.50967 21.490326 -48.000004 48.0 -48.000004l0 0c12.730377 0 24.939392 5.057129 33.94113 14.058876c9.0017395 9.001743 14.058868 21.210735 14.058868 33.941128l0 0c0 26.509666 -21.490326 48.0 -48.0 48.0l0 0c-26.509674 0 -48.0 -21.490334 -48.0 -48.0z" fill-rule="evenodd"/><path fill="#000000" d="m412.66476 85.09038q0 0.890625 -0.3125 1.890625q-0.296875 0.984375 -0.921875 1.984375q-0.625 0.984375 -1.5 1.796875q-0.875 0.8125 -2.125 1.328125q-1.234375 0.5 -2.625 0.5q-2.203125 0 -3.609375 -1.359375q-1.390625 -1.375 -1.390625 -3.59375q0 -3.109375 2.40625 -5.609375q2.40625 -2.5 5.796875 -2.5q0.625 0 1.765625 0.125q1.140625 0.109375 1.75 0.109375q0.15625 0 0.421875 0.015625q0.28125 0 0.40625 0q0.484375 0 0.71875 -0.09375q0.234375 -0.109375 0.453125 -0.765625l1.75 0q-0.375 1.265625 -0.5 1.609375q-0.125 0.328125 -0.484375 0.921875q-0.34375 0.578125 -0.9375 0.90625q-0.59375 0.3125 -1.34375 0.3125q-1.015625 0 -2.34375 -0.6875q-1.328125 -0.6875 -1.96875 -0.6875q-0.75 0 -1.46875 0.765625q-0.71875 0.75 -1.1875 1.984375q-0.46875 1.234375 -0.734375 2.578125q-0.265625 1.34375 -0.265625 2.46875q0 0.859375 0.28125 1.28125q0.296875 0.421875 0.75 0.421875q1.203125 0 2.1875 -2.03125q0.984375 -2.03125 0.984375 -4.1875q0 -0.640625 -0.203125 -0.953125q-0.1875 -0.328125 -0.5 -0.328125q-0.484375 0 -1.359375 1.296875l-1.234375 -1.5625q1.4375 -1.875 3.4375 -1.875q1.515625 0 2.703125 1.140625q1.203125 1.125 1.203125 2.796875z" fill-rule="nonzero"/><path fill="#000000" d="m414.8344 82.1685l0 -3.1875l12.6875 0l0 3.1875l-12.6875 0zm0 5.5l0 -3.203125l12.6875 0l0 3.203125l-12.6875 0zm15.556854 4.59375l0 -3.46875l3.484375 0l0 3.46875l-3.484375 0zm18.068237 -13.6875l-3.359375 0.375q-0.125 -1.046875 -0.640625 -1.53125q-0.515625 -0.5 -1.34375 -0.5q-1.109375 0 -1.875 0.984375q-0.75 0.984375 -0.953125 4.125q1.296875 -1.546875 3.234375 -1.546875q2.171875 0 3.71875 1.671875q1.5625 1.65625 1.5625 4.265625q0 2.78125 -1.640625 4.46875q-1.625 1.6875 -4.1875 1.6875q-2.75 0 -4.515625 -2.125q-1.765625 -2.140625 -1.765625 -7.0q0 -4.984375 1.84375 -7.1875q1.84375 -2.203125 4.78125 -2.203125q2.0625 0 3.421875 1.15625q1.359375 1.15625 1.71875 3.359375zm-7.875 7.578125q0 1.6875 0.78125 2.609375q0.78125 0.921875 1.78125 0.921875q0.96875 0 1.609375 -0.75q0.640625 -0.75 0.640625 -2.46875q0 -1.765625 -0.703125 -2.59375q-0.6875 -0.828125 -1.71875 -0.828125q-1.0 0 -1.703125 0.796875q-0.6875 0.78125 -0.6875 2.3125zm21.930054 2.875l0 3.234375l-12.1875 0q0.203125 -1.828125 1.1875 -3.46875q1.0 -1.640625 3.90625 -4.34375q2.359375 -2.1875 2.890625 -2.96875q0.71875 -1.078125 0.71875 -2.125q0 -1.171875 -0.625 -1.796875q-0.625 -0.625 -1.734375 -0.625q-1.078125 0 -1.734375 0.65625q-0.640625 0.65625 -0.734375 2.1875l-3.46875 -0.359375q0.3125 -2.859375 1.9375 -4.109375q1.640625 -1.25 4.09375 -1.25q2.6875 0 4.21875 1.453125q1.53125 1.4375 1.53125 3.59375q0 1.21875 -0.4375 2.328125q-0.4375 1.109375 -1.390625 2.3125q-0.640625 0.8125 -2.28125 2.328125q-1.640625 1.5 -2.078125 2.0q-0.4375 0.484375 -0.71875 0.953125l6.90625 0z" fill-rule="nonzero"/><path fill="#6fa8dc" d="m384.0 283.29922l0 0c0 -26.509674 21.490326 -48.000015 48.0 -48.000015l0 0c12.730377 0 24.939392 5.057129 33.94113 14.058884c9.0017395 9.0017395 14.058868 21.210724 14.058868 33.94113l0 0c0 26.509644 -21.490326 48.0 -48.0 48.0l0 0c-26.509674 0 -48.0 -21.490356 -48.0 -48.0z" fill-rule="evenodd"/><path stroke="#595959" stroke-width="1.0" stroke-linejoin="round" stroke-linecap="butt" d="m384.0 283.29922l0 0c0 -26.509674 21.490326 -48.000015 48.0 -48.000015l0 0c12.730377 0 24.939392 5.057129 33.94113 14.058884c9.0017395 9.0017395 14.058868 21.210724 14.058868 33.94113l0 0c0 26.509644 -21.490326 48.0 -48.0 48.0l0 0c-26.509674 0 -48.0 -21.490356 -48.0 -48.0z" fill-rule="evenodd"/><path fill="#000000" d="m412.66476 285.44733q0 0.890625 -0.3125 1.890625q-0.296875 0.984375 -0.921875 1.984375q-0.625 0.984375 -1.5 1.796875q-0.875 0.8125 -2.125 1.328125q-1.234375 0.5 -2.625 0.5q-2.203125 0 -3.609375 -1.359375q-1.390625 -1.375 -1.390625 -3.59375q0 -3.109375 2.40625 -5.609375q2.40625 -2.5 5.796875 -2.5q0.625 0 1.765625 0.125q1.140625 0.109375 1.75 0.109375q0.15625 0 0.421875 0.015625q0.28125 0 0.40625 0q0.484375 0 0.71875 -0.09375q0.234375 -0.109375 0.453125 -0.765625l1.75 0q-0.375 1.265625 -0.5 1.609375q-0.125 0.328125 -0.484375 0.921875q-0.34375 0.578125 -0.9375 0.90625q-0.59375 0.3125 -1.34375 0.3125q-1.015625 0 -2.34375 -0.6875q-1.328125 -0.6875 -1.96875 -0.6875q-0.75 0 -1.46875 0.765625q-0.71875 0.75 -1.1875 1.984375q-0.46875 1.234375 -0.734375 2.578125q-0.265625 1.34375 -0.265625 2.46875q0 0.859375 0.28125 1.28125q0.296875 0.421875 0.75 0.421875q1.203125 0 2.1875 -2.03125q0.984375 -2.03125 0.984375 -4.1875q0 -0.640625 -0.203125 -0.953125q-0.1875 -0.328125 -0.5 -0.328125q-0.484375 0 -1.359375 1.296875l-1.234375 -1.5625q1.4375 -1.875 3.4375 -1.875q1.515625 0 2.703125 1.140625q1.203125 1.125 1.203125 2.796875z" fill-rule="nonzero"/><path fill="#000000" d="m414.8344 282.52545l0 -3.1875l12.6875 0l0 3.1875l-12.6875 0zm0 5.5l0 -3.203125l12.6875 0l0 3.203125l-12.6875 0zm15.556854 4.59375l0 -3.46875l3.484375 0l0 3.46875l-3.484375 0zm18.068237 -13.6875l-3.359375 0.375q-0.125 -1.046875 -0.640625 -1.53125q-0.515625 -0.5 -1.34375 -0.5q-1.109375 0 -1.875 0.984375q-0.75 0.984375 -0.953125 4.125q1.296875 -1.546875 3.234375 -1.546875q2.171875 0 3.71875 1.671875q1.5625 1.65625 1.5625 4.265625q0 2.78125 -1.640625 4.46875q-1.625 1.6875 -4.1875 1.6875q-2.75 0 -4.515625 -2.125q-1.765625 -2.140625 -1.765625 -7.0q0 -4.984375 1.84375 -7.1875q1.84375 -2.203125 4.78125 -2.203125q2.0625 0 3.421875 1.15625q1.359375 1.15625 1.71875 3.359375zm-7.875 7.578125q0 1.6875 0.78125 2.609375q0.78125 0.921875 1.78125 0.921875q0.96875 0 1.609375 -0.75q0.640625 -0.75 0.640625 -2.46875q0 -1.765625 -0.703125 -2.59375q-0.6875 -0.828125 -1.71875 -0.828125q-1.0 0 -1.703125 0.796875q-0.6875 0.78125 -0.6875 2.3125zm17.008179 6.109375l0 -3.640625l-7.421875 0l0 -3.046875l7.859375 -11.515625l2.921875 0l0 11.5l2.25 0l0 3.0625l-2.25 0l0 3.640625l-3.359375 0zm0 -6.703125l0 -6.203125l-4.171875 6.203125l4.171875 0z" fill-rule="nonzero"/><path fill="#6fa8dc" d="m384.0 483.65616l0 0c0 -26.509644 21.490326 -48.0 48.0 -48.0l0 0c12.730377 0 24.939392 5.057129 33.94113 14.058899c9.0017395 9.0017395 14.058868 21.210724 14.058868 33.9411l0 0c0 26.509674 -21.490326 48.00003 -48.0 48.00003l0 0c-26.509674 0 -48.0 -21.490356 -48.0 -48.00003z" fill-rule="evenodd"/><path stroke="#595959" stroke-width="1.0" stroke-linejoin="round" stroke-linecap="butt" d="m384.0 483.65616l0 0c0 -26.509644 21.490326 -48.0 48.0 -48.0l0 0c12.730377 0 24.939392 5.057129 33.94113 14.058899c9.0017395 9.0017395 14.058868 21.210724 14.058868 33.9411l0 0c0 26.509674 -21.490326 48.00003 -48.0 48.00003l0 0c-26.509674 0 -48.0 -21.490356 -48.0 -48.00003z" fill-rule="evenodd"/><path fill="#000000" d="m434.15588 490.57617l-2.5625 0l0 -9.640625q-1.40625 1.3125 -3.3125 1.9375l0 -2.328125q1.015625 -0.328125 2.1875 -1.234375q1.171875 -0.921875 1.609375 -2.140625l2.078125 0l0 13.40625z" fill-rule="nonzero"/><path fill="#000000" fill-opacity="0.0" d="m352.0 82.94226l32.0 0" fill-rule="evenodd"/><path stroke="#e06666" stroke-width="3.0" stroke-linejoin="round" stroke-linecap="butt" d="m352.0 82.94226l14.0 0" fill-rule="evenodd"/><path fill="#e06666" stroke="#e06666" stroke-width="3.0" stroke-linecap="butt" d="m366.0 87.89745l13.614288 -4.9551926l-13.614288 -4.9552z" fill-rule="evenodd"/><path fill="#000000" fill-opacity="0.0" d="m352.0 283.29922l32.0 0" fill-rule="evenodd"/><path stroke="#e06666" stroke-width="3.0" stroke-linejoin="round" stroke-linecap="butt" d="m352.0 283.29922l14.0 0" fill-rule="evenodd"/><path fill="#e06666" stroke="#e06666" stroke-width="3.0" stroke-linecap="butt" d="m366.0 288.25443l13.614288 -4.9552l-13.614288 -4.9552z" fill-rule="evenodd"/><path fill="#000000" fill-opacity="0.0" d="m29.335958 0l72.0 0l0 42.015747l-72.0 0z" fill-rule="evenodd"/><path fill="#000000" d="m40.07033 26.919998l0 -13.359375l1.765625 0l0 13.359375l-1.765625 0zm4.683304 0l0 -9.671875l1.46875 0l0 1.375q1.0625 -1.59375 3.078125 -1.59375q0.875 0 1.609375 0.3125q0.734375 0.3125 1.09375 0.828125q0.375 0.5 0.515625 1.203125q0.09375 0.453125 0.09375 1.59375l0 5.953125l-1.640625 0l0 -5.890625q0 -1.0 -0.203125 -1.484375q-0.1875 -0.5 -0.671875 -0.796875q-0.484375 -0.296875 -1.140625 -0.296875q-1.046875 0 -1.8125 0.671875q-0.75 0.65625 -0.75 2.515625l0 5.28125l-1.640625 0zm10.375717 3.703125l0 -13.375l1.484375 0l0 1.25q0.53125 -0.734375 1.1875 -1.09375q0.671875 -0.375 1.625 -0.375q1.234375 0 2.171875 0.640625q0.953125 0.625 1.4375 1.796875q0.484375 1.15625 0.484375 2.546875q0 1.484375 -0.53125 2.671875q-0.53125 1.1875 -1.546875 1.828125q-1.015625 0.625 -2.140625 0.625q-0.8125 0 -1.46875 -0.34375q-0.65625 -0.34375 -1.0625 -0.875l0 4.703125l-1.640625 0zm1.484375 -8.484375q0 1.859375 0.75 2.765625q0.765625 0.890625 1.828125 0.890625q1.09375 0 1.875 -0.921875q0.78125 -0.9375 0.78125 -2.875q0 -1.84375 -0.765625 -2.765625q-0.75 -0.921875 -1.8125 -0.921875q-1.046875 0 -1.859375 0.984375q-0.796875 0.96875 -0.796875 2.84375zm15.219471 4.78125l0 -1.421875q-1.125 1.640625 -3.0625 1.640625q-0.859375 0 -1.609375 -0.328125q-0.734375 -0.328125 -1.09375 -0.828125q-0.359375 -0.5 -0.5 -1.21875q-0.109375 -0.46875 -0.109375 -1.53125l0 -5.984375l1.640625 0l0 5.359375q0 1.28125 0.109375 1.734375q0.15625 0.640625 0.65625 1.015625q0.5 0.375 1.234375 0.375q0.734375 0 1.375 -0.375q0.65625 -0.390625 0.921875 -1.03125q0.265625 -0.65625 0.265625 -1.890625l0 -5.1875l1.640625 0l0 9.671875l-1.46875 0zm7.625717 -1.46875l0.234375 1.453125q-0.6875 0.140625 -1.234375 0.140625q-0.890625 0 -1.390625 -0.28125q-0.484375 -0.28125 -0.6875 -0.734375q-0.203125 -0.46875 -0.203125 -1.9375l0 -5.578125l-1.203125 0l0 -1.265625l1.203125 0l0 -2.390625l1.625 -0.984375l0 3.375l1.65625 0l0 1.265625l-1.65625 0l0 5.671875q0 0.6875 0.078125 0.890625q0.09375 0.203125 0.28125 0.328125q0.203125 0.109375 0.578125 0.109375q0.265625 0 0.71875 -0.0625zm0.94892883 -1.421875l1.625 -0.25q0.125 0.96875 0.75 1.5q0.625 0.515625 1.75 0.515625q1.125 0 1.671875 -0.453125q0.546875 -0.46875 0.546875 -1.09375q0 -0.546875 -0.484375 -0.875q-0.328125 -0.21875 -1.671875 -0.546875q-1.8125 -0.46875 -2.515625 -0.796875q-0.6875 -0.328125 -1.046875 -0.90625q-0.359375 -0.59375 -0.359375 -1.3125q0 -0.640625 0.296875 -1.1875q0.296875 -0.5625 0.8125 -0.921875q0.375 -0.28125 1.03125 -0.46875q0.671875 -0.203125 1.421875 -0.203125q1.140625 0 2.0 0.328125q0.859375 0.328125 1.265625 0.890625q0.421875 0.5625 0.578125 1.5l-1.609375 0.21875q-0.109375 -0.75 -0.640625 -1.171875q-0.515625 -0.421875 -1.46875 -0.421875q-1.140625 0 -1.625 0.375q-0.46875 0.375 -0.46875 0.875q0 0.3125 0.1875 0.578125q0.203125 0.265625 0.640625 0.4375q0.234375 0.09375 1.4375 0.421875q1.75 0.453125 2.4375 0.75q0.6875 0.296875 1.078125 0.859375q0.390625 0.5625 0.390625 1.40625q0 0.828125 -0.484375 1.546875q-0.46875 0.71875 -1.375 1.125q-0.90625 0.390625 -2.046875 0.390625q-1.875 0 -2.875 -0.78125q-0.984375 -0.78125 -1.25 -2.328125z" fill-rule="nonzero"/><path fill="#ffffff" d="m301.62204 8.0l132.75592 0l0 22.614174l-132.75592 0z" fill-rule="evenodd"/><path fill="#000000" d="m314.01404 25.919998l0 -13.359375l1.765625 0l0 5.484375l6.9375 0l0 -5.484375l1.765625 0l0 13.359375l-1.765625 0l0 -6.296875l-6.9375 0l0 6.296875l-1.765625 0zm13.207336 -11.46875l0 -1.890625l1.640625 0l0 1.890625l-1.640625 0zm0 11.46875l0 -9.671875l1.640625 0l0 9.671875l-1.640625 0zm10.410431 0l0 -1.21875q-0.90625 1.4375 -2.703125 1.4375q-1.15625 0 -2.125 -0.640625q-0.96875 -0.640625 -1.5 -1.78125q-0.53125 -1.140625 -0.53125 -2.625q0 -1.453125 0.484375 -2.625q0.484375 -1.1875 1.4375 -1.8125q0.96875 -0.625 2.171875 -0.625q0.875 0 1.546875 0.375q0.6875 0.359375 1.109375 0.953125l0 -4.796875l1.640625 0l0 13.359375l-1.53125 0zm-5.171875 -4.828125q0 1.859375 0.78125 2.78125q0.78125 0.921875 1.84375 0.921875q1.078125 0 1.828125 -0.875q0.75 -0.890625 0.75 -2.6875q0 -1.984375 -0.765625 -2.90625q-0.765625 -0.9375 -1.890625 -0.9375q-1.078125 0 -1.8125 0.890625q-0.734375 0.890625 -0.734375 2.8125zm15.547607 4.828125l0 -1.21875q-0.90625 1.4375 -2.703125 1.4375q-1.15625 0 -2.125 -0.640625q-0.96875 -0.640625 -1.5 -1.78125q-0.53125 -1.140625 -0.53125 -2.625q0 -1.453125 0.484375 -2.625q0.484375 -1.1875 1.4375 -1.8125q0.96875 -0.625 2.171875 -0.625q0.875 0 1.546875 0.375q0.6875 0.359375 1.109375 0.953125l0 -4.796875l1.640625 0l0 13.359375l-1.53125 0zm-5.171875 -4.828125q0 1.859375 0.78125 2.78125q0.78125 0.921875 1.84375 0.921875q1.078125 0 1.828125 -0.875q0.75 -0.890625 0.75 -2.6875q0 -1.984375 -0.765625 -2.90625q-0.765625 -0.9375 -1.890625 -0.9375q-1.078125 0 -1.8125 0.890625q-0.734375 0.890625 -0.734375 2.8125zm15.906952 1.71875l1.6875 0.203125q-0.40625 1.484375 -1.484375 2.3125q-1.078125 0.8125 -2.765625 0.8125q-2.125 0 -3.375 -1.296875q-1.234375 -1.3125 -1.234375 -3.671875q0 -2.453125 1.25 -3.796875q1.265625 -1.34375 3.265625 -1.34375q1.9375 0 3.15625 1.328125q1.234375 1.3125 1.234375 3.703125q0 0.15625 0 0.4375l-7.21875 0q0.09375 1.59375 0.90625 2.453125q0.8125 0.84375 2.015625 0.84375q0.90625 0 1.546875 -0.46875q0.640625 -0.484375 1.015625 -1.515625zm-5.390625 -2.65625l5.40625 0q-0.109375 -1.21875 -0.625 -1.828125q-0.78125 -0.953125 -2.03125 -0.953125q-1.125 0 -1.90625 0.765625q-0.765625 0.75 -0.84375 2.015625zm9.141357 5.765625l0 -9.671875l1.46875 0l0 1.375q1.0625 -1.59375 3.078125 -1.59375q0.875 0 1.609375 0.3125q0.734375 0.3125 1.09375 0.828125q0.375 0.5 0.515625 1.203125q0.09375 0.453125 0.09375 1.59375l0 5.953125l-1.640625 0l0 -5.890625q0 -1.0 -0.203125 -1.484375q-0.1875 -0.5 -0.671875 -0.796875q-0.484375 -0.296875 -1.140625 -0.296875q-1.046875 0 -1.8125 0.671875q-0.75 0.65625 -0.75 2.515625l0 5.28125l-1.640625 0zm15.684021 0l0 -13.359375l1.78125 0l0 11.78125l6.5625 0l0 1.578125l-8.34375 0zm16.563202 -1.1875q-0.921875 0.765625 -1.765625 1.09375q-0.828125 0.3125 -1.796875 0.3125q-1.59375 0 -2.453125 -0.78125q-0.859375 -0.78125 -0.859375 -1.984375q0 -0.71875 0.328125 -1.296875q0.328125 -0.59375 0.84375 -0.9375q0.53125 -0.359375 1.1875 -0.546875q0.46875 -0.125 1.453125 -0.25q1.984375 -0.234375 2.921875 -0.5625q0.015625 -0.34375 0.015625 -0.421875q0 -1.0 -0.46875 -1.421875q-0.625 -0.546875 -1.875 -0.546875q-1.15625 0 -1.703125 0.40625q-0.546875 0.40625 -0.8125 1.421875l-1.609375 -0.21875q0.21875 -1.015625 0.71875 -1.640625q0.5 -0.640625 1.453125 -0.984375q0.953125 -0.34375 2.1875 -0.34375q1.25 0 2.015625 0.296875q0.78125 0.28125 1.140625 0.734375q0.375 0.4375 0.515625 1.109375q0.078125 0.421875 0.078125 1.515625l0 2.1875q0 2.28125 0.109375 2.890625q0.109375 0.59375 0.40625 1.15625l-1.703125 0q-0.265625 -0.515625 -0.328125 -1.1875zm-0.140625 -3.671875q-0.890625 0.375 -2.671875 0.625q-1.015625 0.140625 -1.4375 0.328125q-0.421875 0.1875 -0.65625 0.53125q-0.21875 0.34375 -0.21875 0.78125q0 0.65625 0.5 1.09375q0.5 0.4375 1.453125 0.4375q0.9375 0 1.671875 -0.40625q0.75 -0.421875 1.09375 -1.140625q0.265625 -0.5625 0.265625 -1.640625l0 -0.609375zm4.1257324 8.578125l-0.1875 -1.53125q0.546875 0.140625 0.9375 0.140625q0.546875 0 0.875 -0.1875q0.328125 -0.171875 0.546875 -0.5q0.15625 -0.25 0.5 -1.21875q0.046875 -0.140625 0.140625 -0.40625l-3.671875 -9.6875l1.765625 0l2.015625 5.59375q0.390625 1.078125 0.703125 2.25q0.28125 -1.125 0.671875 -2.203125l2.078125 -5.640625l1.640625 0l-3.6875 9.828125q-0.59375 1.609375 -0.921875 2.203125q-0.4375 0.8125 -1.0 1.1875q-0.5625 0.375 -1.34375 0.375q-0.484375 0 -1.0625 -0.203125zm16.03125 -6.828125l1.6875 0.203125q-0.40625 1.484375 -1.484375 2.3125q-1.078125 0.8125 -2.765625 0.8125q-2.125 0 -3.375 -1.296875q-1.234375 -1.3125 -1.234375 -3.671875q0 -2.453125 1.25 -3.796875q1.265625 -1.34375 3.265625 -1.34375q1.9375 0 3.15625 1.328125q1.234375 1.3125 1.234375 3.703125q0 0.15625 0 0.4375l-7.21875 0q0.09375 1.59375 0.90625 2.453125q0.8125 0.84375 2.015625 0.84375q0.90625 0 1.546875 -0.46875q0.640625 -0.484375 1.015625 -1.515625zm-5.390625 -2.65625l5.40625 0q-0.109375 -1.21875 -0.625 -1.828125q-0.78125 -0.953125 -2.03125 -0.953125q-1.125 0 -1.90625 0.765625q-0.765625 0.75 -0.84375 2.015625zm9.125702 5.765625l0 -9.671875l1.46875 0l0 1.46875q0.5625 -1.03125 1.03125 -1.359375q0.484375 -0.328125 1.0625 -0.328125q0.828125 0 1.6875 0.53125l-0.5625 1.515625q-0.609375 -0.359375 -1.203125 -0.359375q-0.546875 0 -0.96875 0.328125q-0.421875 0.328125 -0.609375 0.890625q-0.28125 0.875 -0.28125 1.921875l0 5.0625l-1.625 0z" fill-rule="nonzero"/><path fill="#000000" fill-opacity="0.0" d="m675.958 51.598427l51.93701 0l0 42.015747l-51.93701 0z" fill-rule="evenodd"/><path fill="#000000" d="m686.6455 78.518425l0 -1.875l1.875 0l0 1.875l-1.875 0zm4.2770386 -3.53125l1.640625 -0.21875q0.28125 1.40625 0.953125 2.015625q0.6875 0.609375 1.65625 0.609375q1.15625 0 1.953125 -0.796875q0.796875 -0.796875 0.796875 -1.984375q0 -1.125 -0.734375 -1.859375q-0.734375 -0.734375 -1.875 -0.734375q-0.46875 0 -1.15625 0.171875l0.1875 -1.4375q0.15625 0.015625 0.265625 0.015625q1.046875 0 1.875 -0.546875q0.84375 -0.546875 0.84375 -1.671875q0 -0.90625 -0.609375 -1.5q-0.609375 -0.59375 -1.578125 -0.59375q-0.953125 0 -1.59375 0.609375q-0.640625 0.59375 -0.8125 1.796875l-1.640625 -0.296875q0.296875 -1.640625 1.359375 -2.546875q1.0625 -0.90625 2.65625 -0.90625q1.09375 0 2.0 0.46875q0.921875 0.46875 1.40625 1.28125q0.5 0.8125 0.5 1.71875q0 0.859375 -0.46875 1.578125q-0.46875 0.703125 -1.375 1.125q1.1875 0.28125 1.84375 1.140625q0.65625 0.859375 0.65625 2.15625q0 1.734375 -1.28125 2.953125q-1.265625 1.21875 -3.21875 1.21875q-1.765625 0 -2.921875 -1.046875q-1.15625 -1.046875 -1.328125 -2.71875zm10.375732 -3.0625q0 -2.359375 0.484375 -3.796875q0.484375 -1.453125 1.4375 -2.234375q0.96875 -0.78125 2.421875 -0.78125q1.078125 0 1.890625 0.4375q0.8125 0.421875 1.328125 1.25q0.53125 0.8125 0.828125 1.984375q0.3125 1.15625 0.3125 3.140625q0 2.359375 -0.484375 3.8125q-0.484375 1.4375 -1.453125 2.234375q-0.953125 0.78125 -2.421875 0.78125q-1.921875 0 -3.03125 -1.390625q-1.3125 -1.671875 -1.3125 -5.4375zm1.671875 0q0 3.296875 0.765625 4.390625q0.78125 1.078125 1.90625 1.078125q1.140625 0 1.90625 -1.09375q0.765625 -1.09375 0.765625 -4.375q0 -3.296875 -0.765625 -4.375q-0.765625 -1.078125 -1.921875 -1.078125q-1.125 0 -1.796875 0.953125q-0.859375 1.21875 -0.859375 4.5z" fill-rule="nonzero"/><path fill="#000000" fill-opacity="0.0" d="m675.958 81.125984l51.93701 0l0 42.015747l-51.93701 0z" fill-rule="evenodd"/><path fill="#000000" d="m686.6455 108.04598l0 -1.875l1.875 0l0 1.875l-1.875 0zm4.2770386 -3.53125l1.640625 -0.21875q0.28125 1.40625 0.953125 2.015625q0.6875 0.609375 1.65625 0.609375q1.15625 0 1.953125 -0.796875q0.796875 -0.796875 0.796875 -1.984375q0 -1.125 -0.734375 -1.859375q-0.734375 -0.734375 -1.875 -0.734375q-0.46875 0 -1.15625 0.171875l0.1875 -1.4375q0.15625 0.015625 0.265625 0.015625q1.046875 0 1.875 -0.546875q0.84375 -0.546875 0.84375 -1.671875q0 -0.90625 -0.609375 -1.5q-0.609375 -0.59375 -1.578125 -0.59375q-0.953125 0 -1.59375 0.609375q-0.640625 0.59375 -0.8125 1.796875l-1.640625 -0.296875q0.296875 -1.640625 1.359375 -2.546875q1.0625 -0.90625 2.65625 -0.90625q1.09375 0 2.0 0.46875q0.921875 0.46875 1.40625 1.28125q0.5 0.8125 0.5 1.71875q0 0.859375 -0.46875 1.578125q-0.46875 0.703125 -1.375 1.125q1.1875 0.28125 1.84375 1.140625q0.65625 0.859375 0.65625 2.15625q0 1.734375 -1.28125 2.953125q-1.265625 1.21875 -3.21875 1.21875q-1.765625 0 -2.921875 -1.046875q-1.15625 -1.046875 -1.328125 -2.71875zm10.375732 0.03125l1.71875 -0.140625q0.1875 1.25 0.875 1.890625q0.703125 0.625 1.6875 0.625q1.1875 0 2.0 -0.890625q0.828125 -0.890625 0.828125 -2.359375q0 -1.40625 -0.796875 -2.21875q-0.78125 -0.8125 -2.0625 -0.8125q-0.78125 0 -1.421875 0.359375q-0.640625 0.359375 -1.0 0.9375l-1.546875 -0.203125l1.296875 -6.859375l6.640625 0l0 1.5625l-5.328125 0l-0.71875 3.59375q1.203125 -0.84375 2.515625 -0.84375q1.75 0 2.953125 1.21875q1.203125 1.203125 1.203125 3.109375q0 1.8125 -1.046875 3.140625q-1.296875 1.625 -3.515625 1.625q-1.8125 0 -2.96875 -1.015625q-1.15625 -1.03125 -1.3125 -2.71875z" fill-rule="nonzero"/><path fill="#000000" fill-opacity="0.0" d="m675.958 247.81102l51.93701 0l0 42.015762l-51.93701 0z" fill-rule="evenodd"/><path fill="#000000" d="m686.6455 274.73102l0 -1.875l1.875 0l0 1.875l-1.875 0zm4.2770386 -3.5l1.71875 -0.140625q0.1875 1.25 0.875 1.890625q0.703125 0.625 1.6875 0.625q1.1875 0 2.0 -0.890625q0.828125 -0.890625 0.828125 -2.359375q0 -1.40625 -0.796875 -2.21875q-0.78125 -0.8125 -2.0625 -0.8125q-0.78125 0 -1.421875 0.359375q-0.640625 0.359375 -1.0 0.9375l-1.546875 -0.203125l1.296875 -6.859375l6.640625 0l0 1.5625l-5.328125 0l-0.71875 3.59375q1.203125 -0.84375 2.515625 -0.84375q1.75 0 2.953125 1.21875q1.203125 1.203125 1.203125 3.109375q0 1.8125 -1.046875 3.140625q-1.296875 1.625 -3.515625 1.625q-1.8125 0 -2.96875 -1.015625q-1.15625 -1.03125 -1.3125 -2.71875zm10.375732 0l1.71875 -0.140625q0.1875 1.25 0.875 1.890625q0.703125 0.625 1.6875 0.625q1.1875 0 2.0 -0.890625q0.828125 -0.890625 0.828125 -2.359375q0 -1.40625 -0.796875 -2.21875q-0.78125 -0.8125 -2.0625 -0.8125q-0.78125 0 -1.421875 0.359375q-0.640625 0.359375 -1.0 0.9375l-1.546875 -0.203125l1.296875 -6.859375l6.640625 0l0 1.5625l-5.328125 0l-0.71875 3.59375q1.203125 -0.84375 2.515625 -0.84375q1.75 0 2.953125 1.21875q1.203125 1.203125 1.203125 3.109375q0 1.8125 -1.046875 3.140625q-1.296875 1.625 -3.515625 1.625q-1.8125 0 -2.96875 -1.015625q-1.15625 -1.03125 -1.3125 -2.71875z" fill-rule="nonzero"/><path fill="#6fa8dc" d="m622.5748 84.6168l0 0c0 -26.50967 21.490295 -48.0 48.0 -48.0l0 0c12.730347 0 24.939331 5.057129 33.9411 14.058872c9.00177 9.001747 14.058899 21.210735 14.058899 33.941128l0 0c0 26.509666 -21.490356 47.999992 -48.0 47.999992l0 0c-26.509705 0 -48.0 -21.490326 -48.0 -47.999992z" fill-rule="evenodd"/><path stroke="#595959" stroke-width="1.0" stroke-linejoin="round" stroke-linecap="butt" d="m622.5748 84.6168l0 0c0 -26.50967 21.490295 -48.0 48.0 -48.0l0 0c12.730347 0 24.939331 5.057129 33.9411 14.058872c9.00177 9.001747 14.058899 21.210735 14.058899 33.941128l0 0c0 26.509666 -21.490356 47.999992 -48.0 47.999992l0 0c-26.509705 0 -48.0 -21.490326 -48.0 -47.999992z" fill-rule="evenodd"/><path fill="#000000" d="m648.5128 84.2493l-4.8125 5.640625l9.484375 0l0 4.046875l-15.5 0l0 -3.4375l5.21875 -6.25l-4.40625 -5.109375l0 -3.359375l14.203125 0l0 4.046875l-8.03125 0l3.84375 4.421875z" fill-rule="nonzero"/><path fill="#000000" d="m654.511 83.84305l0 -3.1875l12.6875 0l0 3.1875l-12.6875 0zm0 5.5l0 -3.203125l12.6875 0l0 3.203125l-12.6875 0zm15.556885 4.59375l0 -3.46875l3.484375 0l0 3.46875l-3.484375 0zm6.3025513 -14.65625l0 -3.234375l11.875 0l0 2.53125q-1.46875 1.453125 -2.984375 4.15625q-1.515625 2.703125 -2.328125 5.75q-0.796875 3.046875 -0.78125 5.453125l-3.34375 0q0.078125 -3.765625 1.546875 -7.671875q1.46875 -3.90625 3.921875 -6.984375l-7.90625 0zm14.133179 10.0l3.46875 -0.359375q0.140625 1.171875 0.875 1.859375q0.734375 0.6875 1.671875 0.6875q1.09375 0 1.84375 -0.875q0.765625 -0.890625 0.765625 -2.671875q0 -1.671875 -0.75 -2.5q-0.75 -0.84375 -1.953125 -0.84375q-1.5 0 -2.6875 1.328125l-2.8125 -0.421875l1.78125 -9.4375l9.1875 0l0 3.265625l-6.546875 0l-0.546875 3.078125q1.15625 -0.578125 2.375 -0.578125q2.3125 0 3.90625 1.6875q1.609375 1.671875 1.609375 4.359375q0 2.234375 -1.296875 3.984375q-1.765625 2.40625 -4.90625 2.40625q-2.515625 0 -4.09375 -1.34375q-1.578125 -1.359375 -1.890625 -3.625z" fill-rule="nonzero"/><path fill="#6fa8dc" d="m622.5748 284.97375l0 0c0 -26.509674 21.490295 -48.0 48.0 -48.0l0 0c12.730347 0 24.939331 5.057129 33.9411 14.058868c9.00177 9.0017395 14.058899 21.210724 14.058899 33.94113l0 0c0 26.509674 -21.490356 48.0 -48.0 48.0l0 0c-26.509705 0 -48.0 -21.490326 -48.0 -48.0z" fill-rule="evenodd"/><path stroke="#595959" stroke-width="1.0" stroke-linejoin="round" stroke-linecap="butt" d="m622.5748 284.97375l0 0c0 -26.509674 21.490295 -48.0 48.0 -48.0l0 0c12.730347 0 24.939331 5.057129 33.9411 14.058868c9.00177 9.0017395 14.058899 21.210724 14.058899 33.94113l0 0c0 26.509674 -21.490356 48.0 -48.0 48.0l0 0c-26.509705 0 -48.0 -21.490326 -48.0 -48.0z" fill-rule="evenodd"/><path fill="#000000" d="m647.5733 284.53314l-3.796875 4.453125l7.5 0l0 3.1875l-12.234375 0l0 -2.703125l4.109375 -4.9375l-3.46875 -4.03125l0 -2.65625l11.21875 0l0 3.1875l-6.34375 0l3.015625 3.5z" fill-rule="nonzero"/><path fill="#000000" d="m652.3302 284.20502l0 -2.515625l10.015625 0l0 2.515625l-10.015625 0zm0 4.328125l0 -2.515625l10.015625 0l0 2.515625l-10.015625 0zm18.726562 3.640625l-2.75 0l0 -10.34375q-1.5 1.40625 -3.546875 2.078125l0 -2.484375q1.078125 -0.359375 2.328125 -1.328125q1.265625 -0.984375 1.734375 -2.296875l2.234375 0l0 14.375zm4.685547 0l0 -2.75l2.75 0l0 2.75l-2.75 0zm9.603516 -14.375q2.078125 0 3.25 1.484375q1.40625 1.75 1.40625 5.828125q0 4.0625 -1.40625 5.84375q-1.171875 1.46875 -3.25 1.46875q-2.078125 0 -3.359375 -1.609375q-1.28125 -1.609375 -1.28125 -5.734375q0 -4.046875 1.40625 -5.8125q1.15625 -1.46875 3.234375 -1.46875zm0 2.28125q-0.5 0 -0.890625 0.3125q-0.390625 0.3125 -0.59375 1.140625q-0.28125 1.0625 -0.28125 3.578125q0 2.515625 0.25 3.46875q0.25 0.9375 0.625 1.25q0.390625 0.3125 0.890625 0.3125q0.5 0 0.890625 -0.3125q0.390625 -0.328125 0.609375 -1.140625q0.28125 -1.0625 0.28125 -3.578125q0 -2.515625 -0.25 -3.453125q-0.25 -0.953125 -0.640625 -1.265625q-0.390625 -0.3125 -0.890625 -0.3125zm15.763672 9.546875l0 2.546875l-9.625 0q0.15625 -1.453125 0.9375 -2.734375q0.78125 -1.296875 3.078125 -3.4375q1.859375 -1.734375 2.28125 -2.34375q0.5625 -0.84375 0.5625 -1.6875q0 -0.90625 -0.5 -1.390625q-0.484375 -0.5 -1.34375 -0.5q-0.859375 0 -1.375 0.515625q-0.5 0.515625 -0.578125 1.71875l-2.734375 -0.28125q0.234375 -2.265625 1.515625 -3.25q1.296875 -0.984375 3.234375 -0.984375q2.125 0 3.328125 1.140625q1.21875 1.140625 1.21875 2.84375q0 0.96875 -0.359375 1.84375q-0.34375 0.875 -1.09375 1.828125q-0.5 0.640625 -1.796875 1.828125q-1.296875 1.1875 -1.640625 1.578125q-0.34375 0.390625 -0.5625 0.765625l5.453125 0z" fill-rule="nonzero"/><path fill="#6fa8dc" d="m742.5748 84.6168l0 0c0 -26.50967 21.490295 -48.0 48.0 -48.0l0 0c12.730347 0 24.939331 5.057129 33.9411 14.058872c9.00177 9.001747 14.058899 21.210735 14.058899 33.941128l0 0c0 26.509666 -21.490356 47.999992 -48.0 47.999992l0 0c-26.509705 0 -48.0 -21.490326 -48.0 -47.999992z" fill-rule="evenodd"/><path stroke="#595959" stroke-width="1.0" stroke-linejoin="round" stroke-linecap="butt" d="m742.5748 84.6168l0 0c0 -26.50967 21.490295 -48.0 48.0 -48.0l0 0c12.730347 0 24.939331 5.057129 33.9411 14.058872c9.00177 9.001747 14.058899 21.210735 14.058899 33.941128l0 0c0 26.509666 -21.490356 47.999992 -48.0 47.999992l0 0c-26.509705 0 -48.0 -21.490326 -48.0 -47.999992z" fill-rule="evenodd"/><path fill="#000000" d="m771.23956 86.76492q0 0.890625 -0.3125 1.890625q-0.296875 0.984375 -0.921875 1.984375q-0.625 0.984375 -1.5 1.796875q-0.875 0.8125 -2.125 1.328125q-1.234375 0.5 -2.625 0.5q-2.203125 0 -3.609375 -1.359375q-1.390625 -1.375 -1.390625 -3.59375q0 -3.109375 2.40625 -5.609375q2.40625 -2.5 5.796875 -2.5q0.625 0 1.765625 0.125q1.140625 0.109375 1.75 0.109375q0.15625 0 0.421875 0.015625q0.28125 0 0.40625 0q0.484375 0 0.71875 -0.09375q0.234375 -0.109375 0.453125 -0.765625l1.75 0q-0.375 1.265625 -0.5 1.609375q-0.125 0.328125 -0.484375 0.921875q-0.34375 0.578125 -0.9375 0.90625q-0.59375 0.3125 -1.34375 0.3125q-1.015625 0 -2.34375 -0.6875q-1.328125 -0.6875 -1.96875 -0.6875q-0.75 0 -1.46875 0.765625q-0.71875 0.75 -1.1875 1.984375q-0.46875 1.234375 -0.734375 2.578125q-0.265625 1.34375 -0.265625 2.46875q0 0.859375 0.28125 1.28125q0.296875 0.421875 0.75 0.421875q1.203125 0 2.1875 -2.03125q0.984375 -2.03125 0.984375 -4.1875q0 -0.640625 -0.203125 -0.953125q-0.1875 -0.328125 -0.5 -0.328125q-0.484375 0 -1.359375 1.296875l-1.234375 -1.5625q1.4375 -1.875 3.4375 -1.875q1.515625 0 2.703125 1.140625q1.203125 1.125 1.203125 2.796875z" fill-rule="nonzero"/><path fill="#000000" d="m773.40924 83.84305l0 -3.1875l12.6875 0l0 3.1875l-12.6875 0zm0 5.5l0 -3.203125l12.6875 0l0 3.203125l-12.6875 0zm15.556824 4.59375l0 -3.46875l3.484375 0l0 3.46875l-3.484375 0zm18.068237 -13.6875l-3.359375 0.375q-0.125 -1.046875 -0.640625 -1.53125q-0.515625 -0.5 -1.34375 -0.5q-1.109375 0 -1.875 0.984375q-0.75 0.984375 -0.953125 4.125q1.296875 -1.546875 3.234375 -1.546875q2.171875 0 3.71875 1.671875q1.5625 1.65625 1.5625 4.265625q0 2.78125 -1.640625 4.46875q-1.625 1.6875 -4.1875 1.6875q-2.75 0 -4.515625 -2.125q-1.765625 -2.140625 -1.765625 -7.0q0 -4.984375 1.84375 -7.1875q1.84375 -2.203125 4.78125 -2.203125q2.0625 0 3.421875 1.15625q1.359375 1.15625 1.71875 3.359375zm-7.875 7.578125q0 1.6875 0.78125 2.609375q0.78125 0.921875 1.78125 0.921875q0.96875 0 1.609375 -0.75q0.640625 -0.75 0.640625 -2.46875q0 -1.765625 -0.703125 -2.59375q-0.6875 -0.828125 -1.71875 -0.828125q-1.0 0 -1.703125 0.796875q-0.6875 0.78125 -0.6875 2.3125zm13.180054 -3.671875q-1.359375 -0.5625 -1.96875 -1.5625q-0.609375 -1.0 -0.609375 -2.1875q0 -2.03125 1.40625 -3.34375q1.421875 -1.328125 4.03125 -1.328125q2.59375 0 4.015625 1.328125q1.4375 1.3125 1.4375 3.34375q0 1.265625 -0.65625 2.25q-0.65625 0.984375 -1.84375 1.5q1.5 0.609375 2.28125 1.78125q0.796875 1.15625 0.796875 2.671875q0 2.515625 -1.609375 4.09375q-1.59375 1.5625 -4.25 1.5625q-2.484375 0 -4.125 -1.3125q-1.9375 -1.53125 -1.9375 -4.203125q0 -1.46875 0.71875 -2.6875q0.734375 -1.234375 2.3125 -1.90625zm0.71875 -3.5q0 1.03125 0.578125 1.625q0.59375 0.578125 1.5625 0.578125q1.0 0 1.59375 -0.578125q0.59375 -0.59375 0.59375 -1.640625q0 -0.96875 -0.59375 -1.5625q-0.59375 -0.59375 -1.546875 -0.59375q-1.0 0 -1.59375 0.59375q-0.59375 0.59375 -0.59375 1.578125zm-0.328125 7.765625q0 1.4375 0.734375 2.25q0.734375 0.796875 1.84375 0.796875q1.0625 0 1.765625 -0.765625q0.71875 -0.78125 0.71875 -2.25q0 -1.265625 -0.71875 -2.03125q-0.71875 -0.78125 -1.828125 -0.78125q-1.265625 0 -1.890625 0.875q-0.625 0.875 -0.625 1.90625z" fill-rule="nonzero"/><path fill="#6fa8dc" d="m742.5748 284.97375l0 0c0 -26.509674 21.490295 -48.0 48.0 -48.0l0 0c12.730347 0 24.939331 5.057129 33.9411 14.058868c9.00177 9.0017395 14.058899 21.210724 14.058899 33.94113l0 0c0 26.509674 -21.490356 48.0 -48.0 48.0l0 0c-26.509705 0 -48.0 -21.490326 -48.0 -48.0z" fill-rule="evenodd"/><path stroke="#595959" stroke-width="1.0" stroke-linejoin="round" stroke-linecap="butt" d="m742.5748 284.97375l0 0c0 -26.509674 21.490295 -48.0 48.0 -48.0l0 0c12.730347 0 24.939331 5.057129 33.9411 14.058868c9.00177 9.0017395 14.058899 21.210724 14.058899 33.94113l0 0c0 26.509674 -21.490356 48.0 -48.0 48.0l0 0c-26.509705 0 -48.0 -21.490326 -48.0 -48.0z" fill-rule="evenodd"/><path fill="#000000" d="m771.23956 287.1219q0 0.890625 -0.3125 1.890625q-0.296875 0.984375 -0.921875 1.984375q-0.625 0.984375 -1.5 1.796875q-0.875 0.8125 -2.125 1.328125q-1.234375 0.5 -2.625 0.5q-2.203125 0 -3.609375 -1.359375q-1.390625 -1.375 -1.390625 -3.59375q0 -3.109375 2.40625 -5.609375q2.40625 -2.5 5.796875 -2.5q0.625 0 1.765625 0.125q1.140625 0.109375 1.75 0.109375q0.15625 0 0.421875 0.015625q0.28125 0 0.40625 0q0.484375 0 0.71875 -0.09375q0.234375 -0.109375 0.453125 -0.765625l1.75 0q-0.375 1.265625 -0.5 1.609375q-0.125 0.328125 -0.484375 0.921875q-0.34375 0.578125 -0.9375 0.90625q-0.59375 0.3125 -1.34375 0.3125q-1.015625 0 -2.34375 -0.6875q-1.328125 -0.6875 -1.96875 -0.6875q-0.75 0 -1.46875 0.765625q-0.71875 0.75 -1.1875 1.984375q-0.46875 1.234375 -0.734375 2.578125q-0.265625 1.34375 -0.265625 2.46875q0 0.859375 0.28125 1.28125q0.296875 0.421875 0.75 0.421875q1.203125 0 2.1875 -2.03125q0.984375 -2.03125 0.984375 -4.1875q0 -0.640625 -0.203125 -0.953125q-0.1875 -0.328125 -0.5 -0.328125q-0.484375 0 -1.359375 1.296875l-1.234375 -1.5625q1.4375 -1.875 3.4375 -1.875q1.515625 0 2.703125 1.140625q1.203125 1.125 1.203125 2.796875z" fill-rule="nonzero"/><path fill="#000000" d="m773.40924 284.2l0 -3.1875l12.6875 0l0 3.1875l-12.6875 0zm0 5.5l0 -3.203125l12.6875 0l0 3.203125l-12.6875 0zm15.556824 4.59375l0 -3.46875l3.484375 0l0 3.46875l-3.484375 0zm6.3026123 -14.65625l0 -3.234375l11.875 0l0 2.53125q-1.46875 1.453125 -2.984375 4.15625q-1.515625 2.703125 -2.328125 5.75q-0.796875 3.046875 -0.78125 5.453125l-3.34375 0q0.078125 -3.765625 1.546875 -7.671875q1.46875 -3.90625 3.921875 -6.984375l-7.90625 0zm20.898804 14.65625l0 -3.640625l-7.421875 0l0 -3.046875l7.859375 -11.515625l2.921875 0l0 11.5l2.25 0l0 3.0625l-2.25 0l0 3.640625l-3.359375 0zm0 -6.703125l0 -6.203125l-4.171875 6.203125l4.171875 0z" fill-rule="nonzero"/><path fill="#000000" fill-opacity="0.0" d="m718.5748 84.6168l24.0 0" fill-rule="evenodd"/><path stroke="#e06666" stroke-width="3.0" stroke-linejoin="round" stroke-linecap="butt" d="m718.5748 84.6168l6.0 0" fill-rule="evenodd"/><path fill="#e06666" stroke="#e06666" stroke-width="3.0" stroke-linecap="butt" d="m724.5748 89.572l13.614258 -4.9552l-13.614258 -4.9552z" fill-rule="evenodd"/><path fill="#000000" fill-opacity="0.0" d="m485.3832 51.598427l51.93698 0l0 42.015747l-51.93698 0z" fill-rule="evenodd"/><path fill="#000000" d="m496.0707 78.518425l0 -1.875l1.875 0l0 1.875l-1.875 0zm4.2770386 -3.53125l1.640625 -0.21875q0.28125 1.40625 0.953125 2.015625q0.6875 0.609375 1.65625 0.609375q1.15625 0 1.953125 -0.796875q0.796875 -0.796875 0.796875 -1.984375q0 -1.125 -0.734375 -1.859375q-0.734375 -0.734375 -1.875 -0.734375q-0.46875 0 -1.15625 0.171875l0.1875 -1.4375q0.15625 0.015625 0.265625 0.015625q1.046875 0 1.875 -0.546875q0.84375 -0.546875 0.84375 -1.671875q0 -0.90625 -0.609375 -1.5q-0.609375 -0.59375 -1.578125 -0.59375q-0.953125 0 -1.59375 0.609375q-0.640625 0.59375 -0.8125 1.796875l-1.640625 -0.296875q0.296875 -1.640625 1.359375 -2.546875q1.0625 -0.90625 2.65625 -0.90625q1.09375 0 2.0 0.46875q0.921875 0.46875 1.40625 1.28125q0.5 0.8125 0.5 1.71875q0 0.859375 -0.46875 1.578125q-0.46875 0.703125 -1.375 1.125q1.1875 0.28125 1.84375 1.140625q0.65625 0.859375 0.65625 2.15625q0 1.734375 -1.28125 2.953125q-1.265625 1.21875 -3.21875 1.21875q-1.765625 0 -2.921875 -1.046875q-1.15625 -1.046875 -1.328125 -2.71875zm10.375732 -3.0625q0 -2.359375 0.484375 -3.796875q0.484375 -1.453125 1.4374695 -2.234375q0.96875 -0.78125 2.421875 -0.78125q1.078125 0 1.890625 0.4375q0.8125 0.421875 1.328125 1.25q0.53125 0.8125 0.828125 1.984375q0.3125 1.15625 0.3125 3.140625q0 2.359375 -0.484375 3.8125q-0.484375 1.4375 -1.453125 2.234375q-0.953125 0.78125 -2.421875 0.78125q-1.921875 0 -3.03125 -1.390625q-1.3124695 -1.671875 -1.3124695 -5.4375zm1.6718445 0q0 3.296875 0.765625 4.390625q0.78125 1.078125 1.90625 1.078125q1.140625 0 1.90625 -1.09375q0.765625 -1.09375 0.765625 -4.375q0 -3.296875 -0.765625 -4.375q-0.765625 -1.078125 -1.921875 -1.078125q-1.125 0 -1.796875 0.953125q-0.859375 1.21875 -0.859375 4.5z" fill-rule="nonzero"/><path fill="#000000" fill-opacity="0.0" d="m485.3832 130.94095l51.93698 0l0 42.015747l-51.93698 0z" fill-rule="evenodd"/><path fill="#000000" d="m496.0707 157.86095l0 -1.875l1.875 0l0 1.875l-1.875 0zm4.2770386 -3.53125l1.640625 -0.21875q0.28125 1.40625 0.953125 2.015625q0.6875 0.609375 1.65625 0.609375q1.15625 0 1.953125 -0.796875q0.796875 -0.796875 0.796875 -1.984375q0 -1.125 -0.734375 -1.859375q-0.734375 -0.734375 -1.875 -0.734375q-0.46875 0 -1.15625 0.171875l0.1875 -1.4375q0.15625 0.015625 0.265625 0.015625q1.046875 0 1.875 -0.546875q0.84375 -0.546875 0.84375 -1.671875q0 -0.90625 -0.609375 -1.5q-0.609375 -0.59375 -1.578125 -0.59375q-0.953125 0 -1.59375 0.609375q-0.640625 0.59375 -0.8125 1.796875l-1.640625 -0.296875q0.296875 -1.640625 1.359375 -2.546875q1.0625 -0.90625 2.65625 -0.90625q1.09375 0 2.0 0.46875q0.921875 0.46875 1.40625 1.28125q0.5 0.8125 0.5 1.71875q0 0.859375 -0.46875 1.578125q-0.46875 0.703125 -1.375 1.125q1.1875 0.28125 1.84375 1.140625q0.65625 0.859375 0.65625 2.15625q0 1.734375 -1.28125 2.953125q-1.265625 1.21875 -3.21875 1.21875q-1.765625 0 -2.921875 -1.046875q-1.15625 -1.046875 -1.328125 -2.71875zm10.375732 0.03125l1.7187195 -0.140625q0.1875 1.25 0.875 1.890625q0.703125 0.625 1.6875 0.625q1.1875 0 2.0 -0.890625q0.828125 -0.890625 0.828125 -2.359375q0 -1.40625 -0.796875 -2.21875q-0.78125 -0.8125 -2.0625 -0.8125q-0.78125 0 -1.421875 0.359375q-0.640625 0.359375 -1.0 0.9375l-1.5468445 -0.203125l1.2968445 -6.859375l6.640625 0l0 1.5625l-5.328125 0l-0.71875 3.59375q1.203125 -0.84375 2.515625 -0.84375q1.75 0 2.953125 1.21875q1.203125 1.203125 1.203125 3.109375q0 1.8125 -1.046875 3.140625q-1.296875 1.625 -3.515625 1.625q-1.8125 0 -2.96875 -1.015625q-1.1562195 -1.03125 -1.3124695 -2.71875z" fill-rule="nonzero"/><path fill="#000000" fill-opacity="0.0" d="m485.3832 196.85564l51.93698 0l0 42.015747l-51.93698 0z" fill-rule="evenodd"/><path fill="#000000" d="m496.0707 223.77563l0 -1.875l1.875 0l0 1.875l-1.875 0zm4.2770386 -3.5l1.71875 -0.140625q0.1875 1.25 0.875 1.890625q0.703125 0.625 1.6875 0.625q1.1875 0 2.0 -0.890625q0.828125 -0.890625 0.828125 -2.359375q0 -1.40625 -0.796875 -2.21875q-0.78125 -0.8125 -2.0625 -0.8125q-0.78125 0 -1.421875 0.359375q-0.640625 0.359375 -1.0 0.9375l-1.546875 -0.203125l1.296875 -6.859375l6.640625 0l0 1.5625l-5.328125 0l-0.71875 3.59375q1.203125 -0.84375 2.515625 -0.84375q1.75 0 2.953125 1.21875q1.203125 1.203125 1.203125 3.109375q0 1.8125 -1.046875 3.140625q-1.296875 1.625 -3.515625 1.625q-1.8125 0 -2.96875 -1.015625q-1.15625 -1.03125 -1.3125 -2.71875zm10.375732 -3.09375q0 -2.359375 0.484375 -3.796875q0.484375 -1.453125 1.4374695 -2.234375q0.96875 -0.78125 2.421875 -0.78125q1.078125 0 1.890625 0.4375q0.8125 0.421875 1.328125 1.25q0.53125 0.8125 0.828125 1.984375q0.3125 1.15625 0.3125 3.140625q0 2.359375 -0.484375 3.8125q-0.484375 1.4375 -1.453125 2.234375q-0.953125 0.78125 -2.421875 0.78125q-1.921875 0 -3.03125 -1.390625q-1.3124695 -1.671875 -1.3124695 -5.4375zm1.6718445 0q0 3.296875 0.765625 4.390625q0.78125 1.078125 1.90625 1.078125q1.140625 0 1.90625 -1.09375q0.765625 -1.09375 0.765625 -4.375q0 -3.296875 -0.765625 -4.375q-0.765625 -1.078125 -1.921875 -1.078125q-1.125 0 -1.796875 0.953125q-0.859375 1.21875 -0.859375 4.5z" fill-rule="nonzero"/><path fill="#000000" fill-opacity="0.0" d="m485.3832 272.96063l51.93698 0l0 42.015747l-51.93698 0z" fill-rule="evenodd"/><path fill="#000000" d="m496.0707 299.8806l0 -1.875l1.875 0l0 1.875l-1.875 0zm4.2770386 -3.5l1.71875 -0.140625q0.1875 1.25 0.875 1.890625q0.703125 0.625 1.6875 0.625q1.1875 0 2.0 -0.890625q0.828125 -0.890625 0.828125 -2.359375q0 -1.40625 -0.796875 -2.21875q-0.78125 -0.8125 -2.0625 -0.8125q-0.78125 0 -1.421875 0.359375q-0.640625 0.359375 -1.0 0.9375l-1.546875 -0.203125l1.296875 -6.859375l6.640625 0l0 1.5625l-5.328125 0l-0.71875 3.59375q1.203125 -0.84375 2.515625 -0.84375q1.75 0 2.953125 1.21875q1.203125 1.203125 1.203125 3.109375q0 1.8125 -1.046875 3.140625q-1.296875 1.625 -3.515625 1.625q-1.8125 0 -2.96875 -1.015625q-1.15625 -1.03125 -1.3125 -2.71875zm10.375732 0l1.7187195 -0.140625q0.1875 1.25 0.875 1.890625q0.703125 0.625 1.6875 0.625q1.1875 0 2.0 -0.890625q0.828125 -0.890625 0.828125 -2.359375q0 -1.40625 -0.796875 -2.21875q-0.78125 -0.8125 -2.0625 -0.8125q-0.78125 0 -1.421875 0.359375q-0.640625 0.359375 -1.0 0.9375l-1.5468445 -0.203125l1.2968445 -6.859375l6.640625 0l0 1.5625l-5.328125 0l-0.71875 3.59375q1.203125 -0.84375 2.515625 -0.84375q1.75 0 2.953125 1.21875q1.203125 1.203125 1.203125 3.109375q0 1.8125 -1.046875 3.140625q-1.296875 1.625 -3.515625 1.625q-1.8125 0 -2.96875 -1.015625q-1.1562195 -1.03125 -1.3124695 -2.71875z" fill-rule="nonzero"/><path fill="#000000" fill-opacity="0.0" d="m481.33597 356.99213l51.93698 0l0 42.015747l-51.93698 0z" fill-rule="evenodd"/><path fill="#000000" d="m492.02347 383.9121l0 -1.875l1.875 0l0 1.875l-1.875 0zm4.2770386 -3.53125l1.640625 -0.21875q0.28125 1.40625 0.953125 2.015625q0.6875 0.609375 1.65625 0.609375q1.15625 0 1.953125 -0.796875q0.796875 -0.796875 0.796875 -1.984375q0 -1.125 -0.734375 -1.859375q-0.734375 -0.734375 -1.875 -0.734375q-0.46875 0 -1.15625 0.171875l0.1875 -1.4375q0.15625 0.015625 0.265625 0.015625q1.046875 0 1.875 -0.546875q0.84375 -0.546875 0.84375 -1.671875q0 -0.90625 -0.609375 -1.5q-0.609375 -0.59375 -1.578125 -0.59375q-0.953125 0 -1.59375 0.609375q-0.640625 0.59375 -0.8125 1.796875l-1.640625 -0.296875q0.296875 -1.640625 1.359375 -2.546875q1.0625 -0.90625 2.65625 -0.90625q1.09375 0 2.0 0.46875q0.921875 0.46875 1.40625 1.28125q0.5 0.8125 0.5 1.71875q0 0.859375 -0.46875 1.578125q-0.46875 0.703125 -1.375 1.125q1.1875 0.28125 1.84375 1.140625q0.65625 0.859375 0.65625 2.15625q0 1.734375 -1.28125 2.953125q-1.265625 1.21875 -3.21875 1.21875q-1.765625 0 -2.921875 -1.046875q-1.15625 -1.046875 -1.328125 -2.71875zm10.375732 0.03125l1.71875 -0.140625q0.1875 1.25 0.875 1.890625q0.703125 0.625 1.6875 0.625q1.1874695 0 1.9999695 -0.890625q0.828125 -0.890625 0.828125 -2.359375q0 -1.40625 -0.796875 -2.21875q-0.78125 -0.8125 -2.0624695 -0.8125q-0.78125 0 -1.421875 0.359375q-0.640625 0.359375 -1.0 0.9375l-1.546875 -0.203125l1.296875 -6.859375l6.6405945 0l0 1.5625l-5.3280945 0l-0.71875 3.59375q1.203125 -0.84375 2.515625 -0.84375q1.7499695 0 2.9530945 1.21875q1.203125 1.203125 1.203125 3.109375q0 1.8125 -1.046875 3.140625q-1.296875 1.625 -3.5155945 1.625q-1.8125 0 -2.96875 -1.015625q-1.15625 -1.03125 -1.3125 -2.71875z" fill-rule="nonzero"/><path fill="#000000" fill-opacity="0.0" d="m526.70605 386.97638l51.93701 0l0 42.015747l-51.93701 0z" fill-rule="evenodd"/><path fill="#000000" d="m537.39355 413.89636l0 -1.875l1.875 0l0 1.875l-1.875 0zm4.2770386 -3.53125l1.640625 -0.21875q0.28125 1.40625 0.953125 2.015625q0.6875 0.609375 1.65625 0.609375q1.15625 0 1.953125 -0.796875q0.796875 -0.796875 0.796875 -1.984375q0 -1.125 -0.734375 -1.859375q-0.734375 -0.734375 -1.875 -0.734375q-0.46875 0 -1.15625 0.171875l0.1875 -1.4375q0.15625 0.015625 0.265625 0.015625q1.046875 0 1.875 -0.546875q0.84375 -0.546875 0.84375 -1.671875q0 -0.90625 -0.609375 -1.5q-0.609375 -0.59375 -1.578125 -0.59375q-0.953125 0 -1.59375 0.609375q-0.640625 0.59375 -0.8125 1.796875l-1.640625 -0.296875q0.296875 -1.640625 1.359375 -2.546875q1.0625 -0.90625 2.65625 -0.90625q1.09375 0 2.0 0.46875q0.921875 0.46875 1.40625 1.28125q0.5 0.8125 0.5 1.71875q0 0.859375 -0.46875 1.578125q-0.46875 0.703125 -1.375 1.125q1.1875 0.28125 1.84375 1.140625q0.65625 0.859375 0.65625 2.15625q0 1.734375 -1.28125 2.953125q-1.265625 1.21875 -3.21875 1.21875q-1.765625 0 -2.921875 -1.046875q-1.15625 -1.046875 -1.328125 -2.71875zm10.375732 0.03125l1.71875 -0.140625q0.1875 1.25 0.875 1.890625q0.703125 0.625 1.6875 0.625q1.1875 0 2.0 -0.890625q0.828125 -0.890625 0.828125 -2.359375q0 -1.40625 -0.796875 -2.21875q-0.78125 -0.8125 -2.0625 -0.8125q-0.78125 0 -1.421875 0.359375q-0.640625 0.359375 -1.0 0.9375l-1.546875 -0.203125l1.296875 -6.859375l6.640625 0l0 1.5625l-5.328125 0l-0.71875 3.59375q1.203125 -0.84375 2.515625 -0.84375q1.75 0 2.953125 1.21875q1.203125 1.203125 1.203125 3.109375q0 1.8125 -1.046875 3.140625q-1.296875 1.625 -3.515625 1.625q-1.8125 0 -2.96875 -1.015625q-1.15625 -1.03125 -1.3125 -2.71875z" fill-rule="nonzero"/><path fill="#000000" fill-opacity="0.0" d="m718.5748 284.97375l24.0 0" fill-rule="evenodd"/><path stroke="#e06666" stroke-width="3.0" stroke-linejoin="round" stroke-linecap="butt" d="m718.5748 284.97375l6.0 0" fill-rule="evenodd"/><path fill="#e06666" stroke="#e06666" stroke-width="3.0" stroke-linecap="butt" d="m724.5748 289.92896l13.614258 -4.9552l-13.614258 -4.9552z" fill-rule="evenodd"/><path fill="#ffffff" d="m724.19684 8.0l132.75592 0l0 22.614174l-132.75592 0z" fill-rule="evenodd"/><path fill="#000000" d="m737.55286 19.419998q0 -3.328125 1.78125 -5.203125q1.78125 -1.890625 4.609375 -1.890625q1.84375 0 3.328125 0.890625q1.484375 0.875 2.265625 2.46875q0.78125 1.578125 0.78125 3.578125q0 2.03125 -0.828125 3.640625q-0.8125 1.59375 -2.3125 2.421875q-1.5 0.828125 -3.25 0.828125q-1.875 0 -3.359375 -0.90625q-1.484375 -0.921875 -2.25 -2.5q-0.765625 -1.578125 -0.765625 -3.328125zm1.8125 0.015625q0 2.421875 1.296875 3.8125q1.296875 1.390625 3.265625 1.390625q2.0 0 3.28125 -1.40625q1.28125 -1.40625 1.28125 -3.984375q0 -1.625 -0.546875 -2.84375q-0.546875 -1.21875 -1.609375 -1.875q-1.0625 -0.671875 -2.375 -0.671875q-1.890625 0 -3.25 1.296875q-1.34375 1.28125 -1.34375 4.28125zm19.355164 6.484375l0 -1.421875q-1.125 1.640625 -3.0625 1.640625q-0.859375 0 -1.609375 -0.328125q-0.734375 -0.328125 -1.09375 -0.828125q-0.359375 -0.5 -0.5 -1.21875q-0.109375 -0.46875 -0.109375 -1.53125l0 -5.984375l1.640625 0l0 5.359375q0 1.28125 0.109375 1.734375q0.15625 0.640625 0.65625 1.015625q0.5 0.375 1.234375 0.375q0.734375 0 1.375 -0.375q0.65625 -0.390625 0.921875 -1.03125q0.265625 -0.65625 0.265625 -1.890625l0 -5.1875l1.640625 0l0 9.671875l-1.46875 0zm7.6257324 -1.46875l0.234375 1.453125q-0.6875 0.140625 -1.234375 0.140625q-0.890625 0 -1.390625 -0.28125q-0.484375 -0.28125 -0.6875 -0.734375q-0.203125 -0.46875 -0.203125 -1.9375l0 -5.578125l-1.203125 0l0 -1.265625l1.203125 0l0 -2.390625l1.625 -0.984375l0 3.375l1.65625 0l0 1.265625l-1.65625 0l0 5.671875q0 0.6875 0.078125 0.890625q0.09375 0.203125 0.28125 0.328125q0.203125 0.109375 0.578125 0.109375q0.265625 0 0.71875 -0.0625zm1.6051636 5.171875l0 -13.375l1.484375 0l0 1.25q0.53125 -0.734375 1.1875 -1.09375q0.671875 -0.375 1.625 -0.375q1.234375 0 2.171875 0.640625q0.953125 0.625 1.4375 1.796875q0.484375 1.15625 0.484375 2.546875q0 1.484375 -0.53125 2.671875q-0.53125 1.1875 -1.546875 1.828125q-1.015625 0.625 -2.140625 0.625q-0.8125 0 -1.46875 -0.34375q-0.65625 -0.34375 -1.0625 -0.875l0 4.703125l-1.640625 0zm1.484375 -8.484375q0 1.859375 0.75 2.765625q0.765625 0.890625 1.828125 0.890625q1.09375 0 1.875 -0.921875q0.78125 -0.9375 0.78125 -2.875q0 -1.84375 -0.765625 -2.765625q-0.75 -0.921875 -1.8125 -0.921875q-1.046875 0 -1.859375 0.984375q-0.796875 0.96875 -0.796875 2.84375zm15.219482 4.78125l0 -1.421875q-1.125 1.640625 -3.0625 1.640625q-0.859375 0 -1.609375 -0.328125q-0.734375 -0.328125 -1.09375 -0.828125q-0.359375 -0.5 -0.5 -1.21875q-0.109375 -0.46875 -0.109375 -1.53125l0 -5.984375l1.640625 0l0 5.359375q0 1.28125 0.109375 1.734375q0.15625 0.640625 0.65625 1.015625q0.5 0.375 1.234375 0.375q0.734375 0 1.375 -0.375q0.65625 -0.390625 0.921875 -1.03125q0.265625 -0.65625 0.265625 -1.890625l0 -5.1875l1.640625 0l0 9.671875l-1.46875 0zm7.6256714 -1.46875l0.234375 1.453125q-0.6875 0.140625 -1.234375 0.140625q-0.890625 0 -1.390625 -0.28125q-0.484375 -0.28125 -0.6875 -0.734375q-0.203125 -0.46875 -0.203125 -1.9375l0 -5.578125l-1.203125 0l0 -1.265625l1.203125 0l0 -2.390625l1.625 -0.984375l0 3.375l1.65625 0l0 1.265625l-1.65625 0l0 5.671875q0 0.6875 0.078125 0.890625q0.09375 0.203125 0.28125 0.328125q0.203125 0.109375 0.578125 0.109375q0.265625 0 0.71875 -0.0625zm6.913513 1.46875l0 -13.359375l1.78125 0l0 11.78125l6.5625 0l0 1.578125l-8.34375 0zm16.563232 -1.1875q-0.921875 0.765625 -1.765625 1.09375q-0.828125 0.3125 -1.796875 0.3125q-1.59375 0 -2.453125 -0.78125q-0.859375 -0.78125 -0.859375 -1.984375q0 -0.71875 0.328125 -1.296875q0.328125 -0.59375 0.84375 -0.9375q0.53125 -0.359375 1.1875 -0.546875q0.46875 -0.125 1.453125 -0.25q1.984375 -0.234375 2.921875 -0.5625q0.015625 -0.34375 0.015625 -0.421875q0 -1.0 -0.46875 -1.421875q-0.625 -0.546875 -1.875 -0.546875q-1.15625 0 -1.703125 0.40625q-0.546875 0.40625 -0.8125 1.421875l-1.609375 -0.21875q0.21875 -1.015625 0.71875 -1.640625q0.5 -0.640625 1.453125 -0.984375q0.953125 -0.34375 2.1875 -0.34375q1.25 0 2.015625 0.296875q0.78125 0.28125 1.140625 0.734375q0.375 0.4375 0.515625 1.109375q0.078125 0.421875 0.078125 1.515625l0 2.1875q0 2.28125 0.109375 2.890625q0.109375 0.59375 0.40625 1.15625l-1.703125 0q-0.265625 -0.515625 -0.328125 -1.1875zm-0.140625 -3.671875q-0.890625 0.375 -2.671875 0.625q-1.015625 0.140625 -1.4375 0.328125q-0.421875 0.1875 -0.65625 0.53125q-0.21875 0.34375 -0.21875 0.78125q0 0.65625 0.5 1.09375q0.5 0.4375 1.453125 0.4375q0.9375 0 1.671875 -0.40625q0.75 -0.421875 1.09375 -1.140625q0.265625 -0.5625 0.265625 -1.640625l0 -0.609375zm4.1256714 8.578125l-0.1875 -1.53125q0.546875 0.140625 0.9375 0.140625q0.546875 0 0.875 -0.1875q0.328125 -0.171875 0.546875 -0.5q0.15625 -0.25 0.5 -1.21875q0.046875 -0.140625 0.140625 -0.40625l-3.671875 -9.6875l1.765625 0l2.015625 5.59375q0.390625 1.078125 0.703125 2.25q0.28125 -1.125 0.671875 -2.203125l2.078125 -5.640625l1.640625 0l-3.6875 9.828125q-0.59375 1.609375 -0.921875 2.203125q-0.4375 0.8125 -1.0 1.1875q-0.5625 0.375 -1.34375 0.375q-0.484375 0 -1.0625 -0.203125zm16.03125 -6.828125l1.6875 0.203125q-0.40625 1.484375 -1.484375 2.3125q-1.078125 0.8125 -2.765625 0.8125q-2.125 0 -3.375 -1.296875q-1.234375 -1.3125 -1.234375 -3.671875q0 -2.453125 1.25 -3.796875q1.265625 -1.34375 3.265625 -1.34375q1.9375 0 3.15625 1.328125q1.234375 1.3125 1.234375 3.703125q0 0.15625 0 0.4375l-7.21875 0q0.09375 1.59375 0.90625 2.453125q0.8125 0.84375 2.015625 0.84375q0.90625 0 1.546875 -0.46875q0.640625 -0.484375 1.015625 -1.515625zm-5.390625 -2.65625l5.40625 0q-0.109375 -1.21875 -0.625 -1.828125q-0.78125 -0.953125 -2.03125 -0.953125q-1.125 0 -1.90625 0.765625q-0.765625 0.75 -0.84375 2.015625zm9.125732 5.765625l0 -9.671875l1.46875 0l0 1.46875q0.5625 -1.03125 1.03125 -1.359375q0.484375 -0.328125 1.0625 -0.328125q0.828125 0 1.6875 0.53125l-0.5625 1.515625q-0.609375 -0.359375 -1.203125 -0.359375q-0.546875 0 -0.96875 0.328125q-0.421875 0.328125 -0.609375 0.890625q-0.28125 0.875 -0.28125 1.921875l0 5.0625l-1.625 0z" fill-rule="nonzero"/></g></svg>