<svg version="1.1" viewBox="0.0 0.0 960.0 540.0" fill="none" stroke="none" stroke-linecap="square" stroke-miterlimit="10" xmlns:xlink="http://www.w3.org/1999/xlink" xmlns="http://www.w3.org/2000/svg"><clipPath id="g7b43b767d3_0_268.0"><path d="m0 0l960.0 0l0 540.0l-960.0 0l0 -540.0z" clip-rule="nonzero"/></clipPath><g clip-path="url(#g7b43b767d3_0_268.0)"><path fill="#ffffff" d="m0 0l960.0 0l0 540.0l-960.0 0z" fill-rule="evenodd"/><path fill="#000000" fill-opacity="0.0" d="m249.86089 19.763779l236.18898 0l0 515.874l-236.18898 0z" fill-rule="evenodd"/><path stroke="#595959" stroke-width="1.0" stroke-linejoin="round" stroke-linecap="butt" stroke-dasharray="4.0,3.0" d="m249.86089 19.763779l236.18898 0l0 515.874l-236.18898 0z" fill-rule="evenodd"/><path fill="#9fc5e8" d="m17.335958 82.94226l0 0c0 -26.50967 21.490332 -48.000004 48.0 -48.000004l0 0c12.730392 0 24.939377 5.057129 33.941124 14.058876c9.001747 9.001743 14.058876 21.210735 14.058876 33.941128l0 0c0 26.509666 -21.490334 48.0 -48.0 48.0l0 0c-26.50967 0 -48.0 -21.490334 -48.0 -48.0z" fill-rule="evenodd"/><path stroke="#595959" stroke-width="1.0" stroke-linejoin="round" stroke-linecap="butt" d="m17.335958 82.94226l0 0c0 -26.50967 21.490332 -48.000004 48.0 -48.000004l0 0c12.730392 0 24.939377 5.057129 33.941124 14.058876c9.001747 9.001743 14.058876 21.210735 14.058876 33.941128l0 0c0 26.509666 -21.490334 48.0 -48.0 48.0l0 0c-26.50967 0 -48.0 -21.490334 -48.0 -48.0z" fill-rule="evenodd"/><path fill="#000000" d="m51.53127 97.342255l0 -5.484375l5.484375 0l0 5.484375l-5.484375 0zm23.988277 0l-5.5 0l0 -20.6875q-3.0 2.8125 -7.078121 4.15625l0 -4.96875q2.1406212 -0.703125 4.656246 -2.671875q2.53125 -1.96875 3.46875 -4.578125l4.453125 0l0 28.75z" fill-rule="nonzero"/><path fill="#9fc5e8" d="m17.335958 283.29922l0 0c0 -26.509674 21.490332 -48.000015 48.0 -48.000015l0 0c12.730392 0 24.939377 5.057129 33.941124 14.058884c9.001747 9.0017395 14.058876 21.210724 14.058876 33.94113l0 0c0 26.509644 -21.490334 48.0 -48.0 48.0l0 0c-26.50967 0 -48.0 -21.490356 -48.0 -48.0z" fill-rule="evenodd"/><path stroke="#595959" stroke-width="1.0" stroke-linejoin="round" stroke-linecap="butt" d="m17.335958 283.29922l0 0c0 -26.509674 21.490332 -48.000015 48.0 -48.000015l0 0c12.730392 0 24.939377 5.057129 33.941124 14.058884c9.001747 9.0017395 14.058876 21.210724 14.058876 33.94113l0 0c0 26.509644 -21.490334 48.0 -48.0 48.0l0 0c-26.50967 0 -48.0 -21.490356 -48.0 -48.0z" fill-rule="evenodd"/><path fill="#000000" d="m51.53127 297.69922l0 -5.484375l5.484375 0l0 5.484375l-5.484375 0zm28.472652 -5.09375l0 5.09375l-19.234371 0q0.3125 -2.890625 1.875 -5.46875q1.5624962 -2.59375 6.171871 -6.875q3.703125 -3.453125 4.546875 -4.6875q1.140625 -1.703125 1.140625 -3.359375q0 -1.84375 -1.0 -2.828125q-0.984375 -0.984375 -2.71875 -0.984375q-1.71875 0 -2.734375 1.046875q-1.015625 1.03125 -1.171875 3.421875l-5.468746 -0.546875q0.484375 -4.53125 3.0624962 -6.5q2.578125 -1.96875 6.453125 -1.96875q4.234375 0 6.65625 2.28125q2.421875 2.28125 2.421875 5.6875q0 1.9375 -0.703125 3.6875q-0.6875 1.734375 -2.1875 3.65625q-1.0 1.265625 -3.59375 3.65625q-2.59375 2.375 -3.296875 3.15625q-0.6875 0.78125 -1.109375 1.53125l10.890625 0z" fill-rule="nonzero"/><path fill="#9fc5e8" d="m17.335958 483.65616l0 0c0 -26.509644 21.490332 -48.0 48.0 -48.0l0 0c12.730392 0 24.939377 5.057129 33.941124 14.058899c9.001747 9.0017395 14.058876 21.210724 14.058876 33.9411l0 0c0 26.509674 -21.490334 48.00003 -48.0 48.00003l0 0c-26.50967 0 -48.0 -21.490356 -48.0 -48.00003z" fill-rule="evenodd"/><path stroke="#595959" stroke-width="1.0" stroke-linejoin="round" stroke-linecap="butt" d="m17.335958 483.65616l0 0c0 -26.509644 21.490332 -48.0 48.0 -48.0l0 0c12.730392 0 24.939377 5.057129 33.941124 14.058899c9.001747 9.0017395 14.058876 21.210724 14.058876 33.9411l0 0c0 26.509674 -21.490334 48.00003 -48.0 48.00003l0 0c-26.50967 0 -48.0 -21.490356 -48.0 -48.00003z" fill-rule="evenodd"/><path fill="#000000" d="m67.491844 490.57617l-2.5625 0l0 -9.640625q-1.4062462 1.3125 -3.3124962 1.9375l0 -2.328125q1.015625 -0.328125 2.1875 -1.234375q1.1718712 -0.921875 1.6093712 -2.140625l2.078125 0l0 13.40625z" fill-rule="nonzero"/><path fill="#000000" fill-opacity="0.0" d="m113.33596 82.94226l142.67715 0" fill-rule="evenodd"/><path stroke="#e06666" stroke-width="3.0" stroke-linejoin="round" stroke-linecap="butt" d="m113.33596 82.94226l124.67716 0" fill-rule="evenodd"/><path fill="#e06666" stroke="#e06666" stroke-width="3.0" stroke-linecap="butt" d="m238.01312 87.89745l13.614288 -4.9551926l-13.614288 -4.9552z" fill-rule="evenodd"/><path fill="#000000" fill-opacity="0.0" d="m113.33596 283.29922l142.67715 0" fill-rule="evenodd"/><path stroke="#e06666" stroke-width="3.0" stroke-linejoin="round" stroke-linecap="butt" d="m113.33596 283.29922l124.67716 0" fill-rule="evenodd"/><path fill="#e06666" stroke="#e06666" stroke-width="3.0" stroke-linecap="butt" d="m238.01312 288.25443l13.614288 -4.9552l-13.614288 -4.9552z" fill-rule="evenodd"/><path fill="#000000" fill-opacity="0.0" d="m113.33596 483.65616l142.67715 -200.34644" fill-rule="evenodd"/><path stroke="#e06666" stroke-width="3.0" stroke-linejoin="round" stroke-linecap="butt" d="m113.33596 483.65616l132.2356 -185.68445" fill-rule="evenodd"/><path fill="#e06666" stroke="#e06666" stroke-width="3.0" stroke-linecap="butt" d="m249.60783 300.84613l3.861206 -13.96402l-11.933762 8.215149z" fill-rule="evenodd"/><path fill="#6fa8dc" d="m256.0 82.94226l0 0c0 -26.50967 21.490326 -48.000004 48.0 -48.000004l0 0c12.730377 0 24.939392 5.057129 33.94113 14.058876c9.0017395 9.001743 14.058868 21.210735 14.058868 33.941128l0 0c0 26.509666 -21.490326 48.0 -48.0 48.0l0 0c-26.509674 0 -48.0 -21.490334 -48.0 -48.0z" fill-rule="evenodd"/><path stroke="#595959" stroke-width="1.0" stroke-linejoin="round" stroke-linecap="butt" d="m256.0 82.94226l0 0c0 -26.50967 21.490326 -48.000004 48.0 -48.000004l0 0c12.730377 0 24.939392 5.057129 33.94113 14.058876c9.0017395 9.001743 14.058868 21.210735 14.058868 33.941128l0 0c0 26.509666 -21.490326 48.0 -48.0 48.0l0 0c-26.509674 0 -48.0 -21.490334 -48.0 -48.0z" fill-rule="evenodd"/><path fill="#000000" d="m306.9384 82.57475l-4.8125 5.640625l9.484375 0l0 4.046875l-15.5 0l0 -3.4375l5.21875 -6.25l-4.40625 -5.109375l0 -3.359375l14.203125 0l0 4.046875l-8.03125 0l3.84375 4.421875z" fill-rule="nonzero"/><path fill="#6fa8dc" d="m256.0 283.29922l0 0c0 -26.509674 21.490326 -48.000015 48.0 -48.000015l0 0c12.730377 0 24.939392 5.057129 33.94113 14.058884c9.0017395 9.0017395 14.058868 21.210724 14.058868 33.94113l0 0c0 26.509644 -21.490326 48.0 -48.0 48.0l0 0c-26.509674 0 -48.0 -21.490356 -48.0 -48.0z" fill-rule="evenodd"/><path stroke="#595959" stroke-width="1.0" stroke-linejoin="round" stroke-linecap="butt" d="m256.0 283.29922l0 0c0 -26.509674 21.490326 -48.000015 48.0 -48.000015l0 0c12.730377 0 24.939392 5.057129 33.94113 14.058884c9.0017395 9.0017395 14.058868 21.210724 14.058868 33.94113l0 0c0 26.509644 -21.490326 48.0 -48.0 48.0l0 0c-26.509674 0 -48.0 -21.490356 -48.0 -48.0z" fill-rule="evenodd"/><path fill="#000000" d="m306.9384 282.9317l-4.8125 5.640625l9.484375 0l0 4.046875l-15.5 0l0 -3.4375l5.21875 -6.25l-4.40625 -5.109375l0 -3.359375l14.203125 0l0 4.046875l-8.03125 0l3.84375 4.421875z" fill-rule="nonzero"/><path fill="#6fa8dc" d="m856.95276 183.96588l0 0c0 -26.509674 21.490356 -48.0 48.0 -48.0l0 0c12.730408 0 24.939392 5.057129 33.9411 14.058868c9.00177 9.001755 14.058899 21.21074 14.058899 33.94113l0 0c0 26.509659 -21.490356 48.0 -48.0 48.0l0 0c-26.509644 0 -48.0 -21.490341 -48.0 -48.0z" fill-rule="evenodd"/><path stroke="#595959" stroke-width="1.0" stroke-linejoin="round" stroke-linecap="butt" d="m856.95276 183.96588l0 0c0 -26.509674 21.490356 -48.0 48.0 -48.0l0 0c12.730408 0 24.939392 5.057129 33.9411 14.058868c9.00177 9.001755 14.058899 21.21074 14.058899 33.94113l0 0c0 26.509659 -21.490356 48.0 -48.0 48.0l0 0c-26.509644 0 -48.0 -21.490341 -48.0 -48.0z" fill-rule="evenodd"/><path fill="#000000" d="m888.94727 179.60588l0 -10.3125l-3.671875 0l0 -2.09375l9.859375 0l0 2.09375l-3.671875 0l0 10.3125l-2.515625 0zm5.938843 -4.625q0 -1.171875 0.578125 -2.28125q0.59375 -1.109375 1.65625 -1.6875q1.078125 -0.59375 2.40625 -0.59375q2.03125 0 3.328125 1.328125q1.3125 1.3125 1.3125 3.34375q0 2.03125 -1.328125 3.375q-1.3125 1.34375 -3.296875 1.34375q-1.234375 0 -2.359375 -0.546875q-1.125 -0.5625 -1.71875 -1.640625q-0.578125 -1.09375 -0.578125 -2.640625zm2.4375 0.125q0 1.34375 0.640625 2.0625q0.640625 0.703125 1.5625 0.703125q0.9375 0 1.5625 -0.703125q0.625 -0.71875 0.625 -2.078125q0 -1.3125 -0.625 -2.015625q-0.625 -0.71875 -1.5625 -0.71875q-0.921875 0 -1.5625 0.71875q-0.640625 0.703125 -0.640625 2.03125zm12.819092 -4.484375l0 1.890625l-1.625 0l0 3.625q0 1.09375 0.046875 1.28125q0.046875 0.1875 0.203125 0.3125q0.171875 0.109375 0.421875 0.109375q0.328125 0 0.953125 -0.234375l0.203125 1.84375q-0.828125 0.359375 -1.875 0.359375q-0.65625 0 -1.171875 -0.21875q-0.515625 -0.21875 -0.765625 -0.546875q-0.234375 -0.34375 -0.3125 -0.9375q-0.078125 -0.40625 -0.078125 -1.671875l0 -3.921875l-1.09375 0l0 -1.890625l1.09375 0l0 -1.78125l2.375 -1.390625l0 3.171875l1.625 0zm3.4266968 2.734375l-2.15625 -0.390625q0.375 -1.296875 1.25 -1.921875q0.890625 -0.625 2.640625 -0.625q1.59375 0 2.375 0.375q0.78125 0.375 1.09375 0.953125q0.3125 0.578125 0.3125 2.125l-0.015625 2.78125q0 1.1875 0.109375 1.75q0.109375 0.5625 0.421875 1.203125l-2.34375 0q-0.09375 -0.234375 -0.234375 -0.703125q-0.0625 -0.203125 -0.078125 -0.28125q-0.609375 0.59375 -1.3125 0.890625q-0.6875 0.296875 -1.46875 0.296875q-1.390625 0 -2.1875 -0.75q-0.796875 -0.75 -0.796875 -1.90625q0 -0.765625 0.359375 -1.359375q0.359375 -0.59375 1.015625 -0.90625q0.65625 -0.328125 1.890625 -0.5625q1.671875 -0.3125 2.3125 -0.578125l0 -0.234375q0 -0.6875 -0.34375 -0.984375q-0.328125 -0.296875 -1.28125 -0.296875q-0.625 0 -0.984375 0.25q-0.359375 0.25 -0.578125 0.875zm3.1875 1.9375q-0.453125 0.15625 -1.453125 0.375q-0.984375 0.203125 -1.296875 0.40625q-0.453125 0.328125 -0.453125 0.828125q0 0.5 0.359375 0.875q0.375 0.359375 0.953125 0.359375q0.640625 0 1.234375 -0.421875q0.421875 -0.328125 0.5625 -0.796875q0.09375 -0.296875 0.09375 -1.15625l0 -0.46875zm4.68396 4.3125l0 -12.40625l2.375 0l0 12.40625l-2.375 0z" fill-rule="nonzero"/><path fill="#000000" d="m885.03204 200.60588l0 -12.40625l9.1875 0l0 2.09375l-6.6875 0l0 2.75l6.234375 0l0 2.09375l-6.234375 0l0 3.375l6.921875 0l0 2.09375l-9.421875 0zm13.807678 0l-2.375 0l0 -8.984375l2.203125 0l0 1.28125q0.578125 -0.90625 1.03125 -1.1875q0.453125 -0.296875 1.015625 -0.296875q0.8125 0 1.578125 0.453125l-0.734375 2.0625q-0.609375 -0.390625 -1.125 -0.390625q-0.5 0 -0.84375 0.28125q-0.34375 0.28125 -0.546875 1.0q-0.203125 0.71875 -0.203125 3.0l0 2.78125zm6.743469 0l-2.375 0l0 -8.984375l2.203125 0l0 1.28125q0.578125 -0.90625 1.03125 -1.1875q0.453125 -0.296875 1.015625 -0.296875q0.8125 0 1.578125 0.453125l-0.734375 2.0625q-0.609375 -0.390625 -1.125 -0.390625q-0.5 0 -0.84375 0.28125q-0.34375 0.28125 -0.546875 1.0q-0.203125 0.71875 -0.203125 3.0l0 2.78125zm3.9152832 -4.625q0 -1.171875 0.578125 -2.28125q0.59375 -1.109375 1.65625 -1.6875q1.078125 -0.59375 2.40625 -0.59375q2.03125 0 3.328125 1.328125q1.3125 1.3125 1.3125 3.34375q0 2.03125 -1.328125 3.375q-1.3125 1.34375 -3.296875 1.34375q-1.234375 0 -2.359375 -0.546875q-1.125 -0.5625 -1.71875 -1.640625q-0.578125 -1.09375 -0.578125 -2.640625zm2.4375 0.125q0 1.34375 0.640625 2.0625q0.640625 0.703125 1.5625 0.703125q0.9375 0 1.5625 -0.703125q0.625 -0.71875 0.625 -2.078125q0 -1.3125 -0.625 -2.015625q-0.625 -0.71875 -1.5625 -0.71875q-0.921875 0 -1.5625 0.71875q-0.640625 0.703125 -0.640625 2.03125zm10.975342 4.5l-2.375 0l0 -8.984375l2.203125 0l0 1.28125q0.578125 -0.90625 1.03125 -1.1875q0.453125 -0.296875 1.015625 -0.296875q0.8125 0 1.578125 0.453125l-0.734375 2.0625q-0.609375 -0.390625 -1.125 -0.390625q-0.5 0 -0.84375 0.28125q-0.34375 0.28125 -0.546875 1.0q-0.203125 0.71875 -0.203125 3.0l0 2.78125z" fill-rule="nonzero"/><path fill="#000000" fill-opacity="0.0" d="m113.33596 283.29922l142.67715 -200.34647" fill-rule="evenodd"/><path stroke="#e06666" stroke-width="3.0" stroke-linejoin="round" stroke-linecap="butt" d="m113.33596 283.29922l132.2356 -185.68448" fill-rule="evenodd"/><path fill="#e06666" stroke="#e06666" stroke-width="3.0" stroke-linecap="butt" d="m249.60783 100.48918l3.861206 -13.964027l-11.933762 8.215141z" fill-rule="evenodd"/><path fill="#000000" fill-opacity="0.0" d="m113.33596 483.65616l142.67715 -400.7244" fill-rule="evenodd"/><path stroke="#e06666" stroke-width="3.0" stroke-linejoin="round" stroke-linecap="butt" d="m113.33596 483.65616l136.63959 -383.76718" fill-rule="evenodd"/><path fill="#e06666" stroke="#e06666" stroke-width="3.0" stroke-linecap="butt" d="m254.64366 101.55106l-0.10159302 -14.487671l-9.234665 11.163513z" fill-rule="evenodd"/><path fill="#000000" fill-opacity="0.0" d="m113.33596 82.94226l142.67715 200.34647" fill-rule="evenodd"/><path stroke="#e06666" stroke-width="3.0" stroke-linejoin="round" stroke-linecap="butt" d="m113.33596 82.94226l132.2356 185.68445" fill-rule="evenodd"/><path fill="#e06666" stroke="#e06666" stroke-width="3.0" stroke-linecap="butt" d="m241.53528 271.5012l11.933762 8.215118l-3.861206 -13.96402z" fill-rule="evenodd"/><path fill="#000000" fill-opacity="0.0" d="m117.3832 43.598427l51.937004 0l0 42.015747l-51.937004 0z" fill-rule="evenodd"/><path fill="#000000" d="m129.39883 70.518425l-2.9687576 -9.671875l1.7031326 0l1.53125 5.578125l0.578125 2.078125q0.046875 -0.15625 0.5 -2.0l1.546875 -5.65625l1.6875 0l1.4375 5.609375l0.484375 1.84375l0.5625 -1.859375l1.65625 -5.59375l1.59375 0l-3.03125 9.671875l-1.703125 0l-1.53125 -5.796875l-0.375 -1.640625l-1.953125 7.4375l-1.71875 0z" fill-rule="nonzero"/><path fill="#000000" d="m144.49678 77.518425l-1.09375 0l0 -6.96875q-0.40625 0.375 -1.046875 0.75q-0.640625 0.375 -1.140625 0.578125l0 -1.0625q0.90625 -0.4375 1.59375 -1.046875q0.6875 -0.609375 0.96875 -1.1875l0.71875 0l0 8.9375z" fill-rule="nonzero"/><path fill="#000000" fill-opacity="0.0" d="m117.3832 130.94095l51.937004 0l0 42.015747l-51.937004 0z" fill-rule="evenodd"/><path fill="#000000" d="m129.39883 157.86095l-2.9687576 -9.671875l1.7031326 0l1.53125 5.578125l0.578125 2.078125q0.046875 -0.15625 0.5 -2.0l1.546875 -5.65625l1.6875 0l1.4375 5.609375l0.484375 1.84375l0.5625 -1.859375l1.65625 -5.59375l1.59375 0l-3.03125 9.671875l-1.703125 0l-1.53125 -5.796875l-0.375 -1.640625l-1.953125 7.4375l-1.71875 0z" fill-rule="nonzero"/><path fill="#000000" d="m140.37178 162.5172l1.09375 -0.15625q0.1875 0.9375 0.640625 1.34375q0.453125 0.40625 1.109375 0.40625q0.765625 0 1.296875 -0.53125q0.53125 -0.53125 0.53125 -1.328125q0 -0.75 -0.5 -1.234375q-0.484375 -0.5 -1.234375 -0.5q-0.3125 0 -0.78125 0.125l0.125 -0.953125q0.109375 0.015625 0.171875 0.015625q0.703125 0 1.265625 -0.359375q0.5625 -0.375 0.5625 -1.140625q0 -0.59375 -0.40625 -0.984375q-0.40625 -0.40625 -1.0625 -0.40625q-0.625 0 -1.0625 0.40625q-0.421875 0.40625 -0.546875 1.203125l-1.09375 -0.1875q0.203125 -1.109375 0.90625 -1.703125q0.71875 -0.609375 1.78125 -0.609375q0.71875 0 1.328125 0.3125q0.625 0.3125 0.953125 0.859375q0.328125 0.53125 0.328125 1.140625q0 0.578125 -0.3125 1.0625q-0.3125 0.46875 -0.921875 0.734375q0.796875 0.1875 1.234375 0.765625q0.4375 0.578125 0.4375 1.4375q0 1.15625 -0.859375 1.96875q-0.84375 0.8125 -2.140625 0.8125q-1.171875 0 -1.953125 -0.6875q-0.78125 -0.703125 -0.890625 -1.8125z" fill-rule="nonzero"/><path fill="#000000" fill-opacity="0.0" d="m117.3832 196.85564l51.937004 0l0 42.015747l-51.937004 0z" fill-rule="evenodd"/><path fill="#000000" d="m129.39883 223.77563l-2.9687576 -9.671875l1.7031326 0l1.53125 5.578125l0.578125 2.078125q0.046875 -0.15625 0.5 -2.0l1.546875 -5.65625l1.6875 0l1.4375 5.609375l0.484375 1.84375l0.5625 -1.859375l1.65625 -5.59375l1.59375 0l-3.03125 9.671875l-1.703125 0l-1.53125 -5.796875l-0.375 -1.640625l-1.953125 7.4375l-1.71875 0z" fill-rule="nonzero"/><path fill="#000000" d="m146.12178 229.72876l0 1.046875l-5.890625 0q-0.015625 -0.390625 0.125 -0.765625q0.234375 -0.59375 0.71875 -1.171875q0.5 -0.59375 1.4375 -1.359375q1.453125 -1.1875 1.953125 -1.875q0.515625 -0.703125 0.515625 -1.3125q0 -0.65625 -0.46875 -1.09375q-0.453125 -0.453125 -1.203125 -0.453125q-0.796875 0 -1.265625 0.46875q-0.46875 0.46875 -0.484375 1.3125l-1.125 -0.109375q0.125 -1.265625 0.875 -1.921875q0.75 -0.65625 2.015625 -0.65625q1.28125 0 2.03125 0.71875q0.75 0.703125 0.75 1.75q0 0.53125 -0.21875 1.046875q-0.21875 0.515625 -0.734375 1.09375q-0.5 0.5625 -1.671875 1.5625q-0.984375 0.828125 -1.265625 1.125q-0.28125 0.296875 -0.46875 0.59375l4.375 0z" fill-rule="nonzero"/><path fill="#000000" fill-opacity="0.0" d="m117.3832 272.96063l51.937004 0l0 42.015747l-51.937004 0z" fill-rule="evenodd"/><path fill="#000000" d="m129.39883 299.8806l-2.9687576 -9.671875l1.7031326 0l1.53125 5.578125l0.578125 2.078125q0.046875 -0.15625 0.5 -2.0l1.546875 -5.65625l1.6875 0l1.4375 5.609375l0.484375 1.84375l0.5625 -1.859375l1.65625 -5.59375l1.59375 0l-3.03125 9.671875l-1.703125 0l-1.53125 -5.796875l-0.375 -1.640625l-1.953125 7.4375l-1.71875 0z" fill-rule="nonzero"/><path fill="#000000" d="m143.87178 306.8806l0 -2.125l-3.859375 0l0 -1.015625l4.0625 -5.765625l0.890625 0l0 5.765625l1.203125 0l0 1.015625l-1.203125 0l0 2.125l-1.09375 0zm0 -3.140625l0 -4.0l-2.78125 4.0l2.78125 0z" fill-rule="nonzero"/><path fill="#000000" fill-opacity="0.0" d="m113.33596 356.99213l51.937004 0l0 42.015747l-51.937004 0z" fill-rule="evenodd"/><path fill="#000000" d="m125.070335 383.9121l-1.515625 0l0 -13.359375l1.640625 0l0 4.765625q1.046875 -1.296875 2.65625 -1.296875q0.8906174 0 1.6874924 0.359375q0.796875 0.359375 1.3125 1.015625q0.515625 0.640625 0.796875 1.5625q0.296875 0.921875 0.296875 1.96875q0 2.484375 -1.234375 3.84375q-1.21875 1.359375 -2.9531174 1.359375q-1.703125 0 -2.6875 -1.4375l0 1.21875zm-0.015625 -4.90625q0 1.734375 0.484375 2.515625q0.765625 1.265625 2.09375 1.265625q1.0781174 0 1.8593674 -0.9375q0.78125 -0.9375 0.78125 -2.78125q0 -1.890625 -0.75 -2.796875q-0.75 -0.90625 -1.8281174 -0.90625q-1.0625 0 -1.859375 0.9375q-0.78125 0.9375 -0.78125 2.703125z" fill-rule="nonzero"/><path fill="#000000" d="m137.3523 390.9121l-1.09375 0l0 -6.96875q-0.40625 0.375 -1.046875 0.75q-0.640625 0.375 -1.140625 0.578125l0 -1.0625q0.90625 -0.4375 1.59375 -1.046875q0.6875 -0.609375 0.96875 -1.1875l0.71875 0l0 8.9375z" fill-rule="nonzero"/><path fill="#000000" fill-opacity="0.0" d="m165.27296 386.97638l51.93701 0l0 42.015747l-51.93701 0z" fill-rule="evenodd"/><path fill="#000000" d="m177.00734 413.89636l-1.515625 0l0 -13.359375l1.640625 0l0 4.765625q1.046875 -1.296875 2.65625 -1.296875q0.890625 0 1.6875 0.359375q0.796875 0.359375 1.3125 1.015625q0.515625 0.640625 0.796875 1.5625q0.296875 0.921875 0.296875 1.96875q0 2.484375 -1.234375 3.84375q-1.21875 1.359375 -2.953125 1.359375q-1.703125 0 -2.6875 -1.4375l0 1.21875zm-0.015625 -4.90625q0 1.734375 0.484375 2.515625q0.765625 1.265625 2.09375 1.265625q1.078125 0 1.859375 -0.9375q0.78125 -0.9375 0.78125 -2.78125q0 -1.890625 -0.75 -2.796875q-0.75 -0.90625 -1.828125 -0.90625q-1.0625 0 -1.859375 0.9375q-0.78125 0.9375 -0.78125 2.703125z" fill-rule="nonzero"/><path fill="#000000" d="m189.2893 420.89636l-1.09375 0l0 -6.96875q-0.40625 0.375 -1.046875 0.75q-0.640625 0.375 -1.140625 0.578125l0 -1.0625q0.90625 -0.4375 1.59375 -1.046875q0.6875 -0.609375 0.96875 -1.1875l0.71875 0l0 8.9375z" fill-rule="nonzero"/><path fill="#000000" fill-opacity="0.0" d="m480.0 82.94226l142.5827 1.6692886" fill-rule="evenodd"/><path stroke="#e06666" stroke-width="3.0" stroke-linejoin="round" stroke-linecap="butt" d="m480.0 82.94226l124.58392 1.4585648" fill-rule="evenodd"/><path fill="#e06666" stroke="#e06666" stroke-width="3.0" stroke-linecap="butt" d="m604.5259 89.35568l13.671387 -4.795479l-13.555359 -5.114235z" fill-rule="evenodd"/><path fill="#000000" fill-opacity="0.0" d="m480.0 283.29922l142.5827 1.669281" fill-rule="evenodd"/><path stroke="#e06666" stroke-width="3.0" stroke-linejoin="round" stroke-linecap="butt" d="m480.0 283.29922l124.58392 1.4585571" fill-rule="evenodd"/><path fill="#e06666" stroke="#e06666" stroke-width="3.0" stroke-linecap="butt" d="m604.5259 289.71265l13.671387 -4.795471l-13.555359 -5.114258z" fill-rule="evenodd"/><path fill="#000000" fill-opacity="0.0" d="m480.0 483.65616l142.5827 -198.67715" fill-rule="evenodd"/><path stroke="#e06666" stroke-width="3.0" stroke-linejoin="round" stroke-linecap="butt" d="m480.0 483.65616l132.0877 -184.05331" fill-rule="evenodd"/><path fill="#e06666" stroke="#e06666" stroke-width="3.0" stroke-linecap="butt" d="m616.1135 302.49197l3.9120483 -13.94986l-11.963623 8.17157z" fill-rule="evenodd"/><path fill="#000000" fill-opacity="0.0" d="m480.0 283.29922l142.5827 -198.67719" fill-rule="evenodd"/><path stroke="#e06666" stroke-width="3.0" stroke-linejoin="round" stroke-linecap="butt" d="m480.0 283.29922l132.0877 -184.05336" fill-rule="evenodd"/><path fill="#e06666" stroke="#e06666" stroke-width="3.0" stroke-linecap="butt" d="m616.1135 102.13501l3.9120483 -13.94986l-11.963623 8.171585z" fill-rule="evenodd"/><path fill="#000000" fill-opacity="0.0" d="m480.0 483.65616l142.5827 -399.02362" fill-rule="evenodd"/><path stroke="#e06666" stroke-width="3.0" stroke-linejoin="round" stroke-linecap="butt" d="m480.0 483.65616l136.52582 -382.07324" fill-rule="evenodd"/><path fill="#e06666" stroke="#e06666" stroke-width="3.0" stroke-linecap="butt" d="m621.1921 103.25028l-0.08514404 -14.487778l-9.2473755 11.153015z" fill-rule="evenodd"/><path fill="#000000" fill-opacity="0.0" d="m480.0 82.94226l142.5827 202.04724" fill-rule="evenodd"/><path stroke="#e06666" stroke-width="3.0" stroke-linejoin="round" stroke-linecap="butt" d="m480.0 82.94226l132.20428 187.34048" fill-rule="evenodd"/><path fill="#e06666" stroke="#e06666" stroke-width="3.0" stroke-linecap="butt" d="m608.15564 273.1398l11.898315 8.266388l-3.8010864 -13.980499z" fill-rule="evenodd"/><path fill="#6fa8dc" d="m384.0 82.94226l0 0c0 -26.50967 21.490326 -48.000004 48.0 -48.000004l0 0c12.730377 0 24.939392 5.057129 33.94113 14.058876c9.0017395 9.001743 14.058868 21.210735 14.058868 33.941128l0 0c0 26.509666 -21.490326 48.0 -48.0 48.0l0 0c-26.509674 0 -48.0 -21.490334 -48.0 -48.0z" fill-rule="evenodd"/><path stroke="#595959" stroke-width="1.0" stroke-linejoin="round" stroke-linecap="butt" d="m384.0 82.94226l0 0c0 -26.50967 21.490326 -48.000004 48.0 -48.000004l0 0c12.730377 0 24.939392 5.057129 33.94113 14.058876c9.0017395 9.001743 14.058868 21.210735 14.058868 33.941128l0 0c0 26.509666 -21.490326 48.0 -48.0 48.0l0 0c-26.509674 0 -48.0 -21.490334 -48.0 -48.0z" fill-rule="evenodd"/><path fill="#000000" d="m437.66516 85.09038q0 0.890625 -0.3125 1.890625q-0.296875 0.984375 -0.921875 1.984375q-0.625 0.984375 -1.5 1.796875q-0.875 0.8125 -2.125 1.328125q-1.234375 0.5 -2.625 0.5q-2.203125 0 -3.609375 -1.359375q-1.390625 -1.375 -1.390625 -3.59375q0 -3.109375 2.40625 -5.609375q2.40625 -2.5 5.796875 -2.5q0.625 0 1.765625 0.125q1.140625 0.109375 1.75 0.109375q0.15625 0 0.421875 0.015625q0.28125 0 0.40625 0q0.484375 0 0.71875 -0.09375q0.234375 -0.109375 0.453125 -0.765625l1.75 0q-0.375 1.265625 -0.5 1.609375q-0.125 0.328125 -0.484375 0.921875q-0.34375 0.578125 -0.9375 0.90625q-0.59375 0.3125 -1.34375 0.3125q-1.015625 0 -2.34375 -0.6875q-1.328125 -0.6875 -1.96875 -0.6875q-0.75 0 -1.46875 0.765625q-0.71875 0.75 -1.1875 1.984375q-0.46875 1.234375 -0.734375 2.578125q-0.265625 1.34375 -0.265625 2.46875q0 0.859375 0.28125 1.28125q0.296875 0.421875 0.75 0.421875q1.203125 0 2.1875 -2.03125q0.984375 -2.03125 0.984375 -4.1875q0 -0.640625 -0.203125 -0.953125q-0.1875 -0.328125 -0.5 -0.328125q-0.484375 0 -1.359375 1.296875l-1.234375 -1.5625q1.4375 -1.875 3.4375 -1.875q1.515625 0 2.703125 1.140625q1.203125 1.125 1.203125 2.796875z" fill-rule="nonzero"/><path fill="#6fa8dc" d="m384.0 283.29922l0 0c0 -26.509674 21.490326 -48.000015 48.0 -48.000015l0 0c12.730377 0 24.939392 5.057129 33.94113 14.058884c9.0017395 9.0017395 14.058868 21.210724 14.058868 33.94113l0 0c0 26.509644 -21.490326 48.0 -48.0 48.0l0 0c-26.509674 0 -48.0 -21.490356 -48.0 -48.0z" fill-rule="evenodd"/><path stroke="#595959" stroke-width="1.0" stroke-linejoin="round" stroke-linecap="butt" d="m384.0 283.29922l0 0c0 -26.509674 21.490326 -48.000015 48.0 -48.000015l0 0c12.730377 0 24.939392 5.057129 33.94113 14.058884c9.0017395 9.0017395 14.058868 21.210724 14.058868 33.94113l0 0c0 26.509644 -21.490326 48.0 -48.0 48.0l0 0c-26.509674 0 -48.0 -21.490356 -48.0 -48.0z" fill-rule="evenodd"/><path fill="#000000" d="m437.66516 285.44733q0 0.890625 -0.3125 1.890625q-0.296875 0.984375 -0.921875 1.984375q-0.625 0.984375 -1.5 1.796875q-0.875 0.8125 -2.125 1.328125q-1.234375 0.5 -2.625 0.5q-2.203125 0 -3.609375 -1.359375q-1.390625 -1.375 -1.390625 -3.59375q0 -3.109375 2.40625 -5.609375q2.40625 -2.5 5.796875 -2.5q0.625 0 1.765625 0.125q1.140625 0.109375 1.75 0.109375q0.15625 0 0.421875 0.015625q0.28125 0 0.40625 0q0.484375 0 0.71875 -0.09375q0.234375 -0.109375 0.453125 -0.765625l1.75 0q-0.375 1.265625 -0.5 1.609375q-0.125 0.328125 -0.484375 0.921875q-0.34375 0.578125 -0.9375 0.90625q-0.59375 0.3125 -1.34375 0.3125q-1.015625 0 -2.34375 -0.6875q-1.328125 -0.6875 -1.96875 -0.6875q-0.75 0 -1.46875 0.765625q-0.71875 0.75 -1.1875 1.984375q-0.46875 1.234375 -0.734375 2.578125q-0.265625 1.34375 -0.265625 2.46875q0 0.859375 0.28125 1.28125q0.296875 0.421875 0.75 0.421875q1.203125 0 2.1875 -2.03125q0.984375 -2.03125 0.984375 -4.1875q0 -0.640625 -0.203125 -0.953125q-0.1875 -0.328125 -0.5 -0.328125q-0.484375 0 -1.359375 1.296875l-1.234375 -1.5625q1.4375 -1.875 3.4375 -1.875q1.515625 0 2.703125 1.140625q1.203125 1.125 1.203125 2.796875z" fill-rule="nonzero"/><path fill="#6fa8dc" d="m384.0 483.65616l0 0c0 -26.509644 21.490326 -48.0 48.0 -48.0l0 0c12.730377 0 24.939392 5.057129 33.94113 14.058899c9.0017395 9.0017395 14.058868 21.210724 14.058868 33.9411l0 0c0 26.509674 -21.490326 48.00003 -48.0 48.00003l0 0c-26.509674 0 -48.0 -21.490356 -48.0 -48.00003z" fill-rule="evenodd"/><path stroke="#595959" stroke-width="1.0" stroke-linejoin="round" stroke-linecap="butt" d="m384.0 483.65616l0 0c0 -26.509644 21.490326 -48.0 48.0 -48.0l0 0c12.730377 0 24.939392 5.057129 33.94113 14.058899c9.0017395 9.0017395 14.058868 21.210724 14.058868 33.9411l0 0c0 26.509674 -21.490326 48.00003 -48.0 48.00003l0 0c-26.509674 0 -48.0 -21.490356 -48.0 -48.00003z" fill-rule="evenodd"/><path fill="#000000" d="m434.15588 490.57617l-2.5625 0l0 -9.640625q-1.40625 1.3125 -3.3125 1.9375l0 -2.328125q1.015625 -0.328125 2.1875 -1.234375q1.171875 -0.921875 1.609375 -2.140625l2.078125 0l0 13.40625z" fill-rule="nonzero"/><path fill="#000000" fill-opacity="0.0" d="m352.0 82.94226l32.0 0" fill-rule="evenodd"/><path stroke="#e06666" stroke-width="3.0" stroke-linejoin="round" stroke-linecap="butt" d="m352.0 82.94226l14.0 0" fill-rule="evenodd"/><path fill="#e06666" stroke="#e06666" stroke-width="3.0" stroke-linecap="butt" d="m366.0 87.89745l13.614288 -4.9551926l-13.614288 -4.9552z" fill-rule="evenodd"/><path fill="#000000" fill-opacity="0.0" d="m352.0 283.29922l32.0 0" fill-rule="evenodd"/><path stroke="#e06666" stroke-width="3.0" stroke-linejoin="round" stroke-linecap="butt" d="m352.0 283.29922l14.0 0" fill-rule="evenodd"/><path fill="#e06666" stroke="#e06666" stroke-width="3.0" stroke-linecap="butt" d="m366.0 288.25443l13.614288 -4.9552l-13.614288 -4.9552z" fill-rule="evenodd"/><path fill="#000000" fill-opacity="0.0" d="m29.335958 0l72.0 0l0 42.015747l-72.0 0z" fill-rule="evenodd"/><path fill="#000000" d="m40.07033 26.919998l0 -13.359375l1.765625 0l0 13.359375l-1.765625 0zm4.683304 0l0 -9.671875l1.46875 0l0 1.375q1.0625 -1.59375 3.078125 -1.59375q0.875 0 1.609375 0.3125q0.734375 0.3125 1.09375 0.828125q0.375 0.5 0.515625 1.203125q0.09375 0.453125 0.09375 1.59375l0 5.953125l-1.640625 0l0 -5.890625q0 -1.0 -0.203125 -1.484375q-0.1875 -0.5 -0.671875 -0.796875q-0.484375 -0.296875 -1.140625 -0.296875q-1.046875 0 -1.8125 0.671875q-0.75 0.65625 -0.75 2.515625l0 5.28125l-1.640625 0zm10.375717 3.703125l0 -13.375l1.484375 0l0 1.25q0.53125 -0.734375 1.1875 -1.09375q0.671875 -0.375 1.625 -0.375q1.234375 0 2.171875 0.640625q0.953125 0.625 1.4375 1.796875q0.484375 1.15625 0.484375 2.546875q0 1.484375 -0.53125 2.671875q-0.53125 1.1875 -1.546875 1.828125q-1.015625 0.625 -2.140625 0.625q-0.8125 0 -1.46875 -0.34375q-0.65625 -0.34375 -1.0625 -0.875l0 4.703125l-1.640625 0zm1.484375 -8.484375q0 1.859375 0.75 2.765625q0.765625 0.890625 1.828125 0.890625q1.09375 0 1.875 -0.921875q0.78125 -0.9375 0.78125 -2.875q0 -1.84375 -0.765625 -2.765625q-0.75 -0.921875 -1.8125 -0.921875q-1.046875 0 -1.859375 0.984375q-0.796875 0.96875 -0.796875 2.84375zm15.219471 4.78125l0 -1.421875q-1.125 1.640625 -3.0625 1.640625q-0.859375 0 -1.609375 -0.328125q-0.734375 -0.328125 -1.09375 -0.828125q-0.359375 -0.5 -0.5 -1.21875q-0.109375 -0.46875 -0.109375 -1.53125l0 -5.984375l1.640625 0l0 5.359375q0 1.28125 0.109375 1.734375q0.15625 0.640625 0.65625 1.015625q0.5 0.375 1.234375 0.375q0.734375 0 1.375 -0.375q0.65625 -0.390625 0.921875 -1.03125q0.265625 -0.65625 0.265625 -1.890625l0 -5.1875l1.640625 0l0 9.671875l-1.46875 0zm7.625717 -1.46875l0.234375 1.453125q-0.6875 0.140625 -1.234375 0.140625q-0.890625 0 -1.390625 -0.28125q-0.484375 -0.28125 -0.6875 -0.734375q-0.203125 -0.46875 -0.203125 -1.9375l0 -5.578125l-1.203125 0l0 -1.265625l1.203125 0l0 -2.390625l1.625 -0.984375l0 3.375l1.65625 0l0 1.265625l-1.65625 0l0 5.671875q0 0.6875 0.078125 0.890625q0.09375 0.203125 0.28125 0.328125q0.203125 0.109375 0.578125 0.109375q0.265625 0 0.71875 -0.0625zm0.94892883 -1.421875l1.625 -0.25q0.125 0.96875 0.75 1.5q0.625 0.515625 1.75 0.515625q1.125 0 1.671875 -0.453125q0.546875 -0.46875 0.546875 -1.09375q0 -0.546875 -0.484375 -0.875q-0.328125 -0.21875 -1.671875 -0.546875q-1.8125 -0.46875 -2.515625 -0.796875q-0.6875 -0.328125 -1.046875 -0.90625q-0.359375 -0.59375 -0.359375 -1.3125q0 -0.640625 0.296875 -1.1875q0.296875 -0.5625 0.8125 -0.921875q0.375 -0.28125 1.03125 -0.46875q0.671875 -0.203125 1.421875 -0.203125q1.140625 0 2.0 0.328125q0.859375 0.328125 1.265625 0.890625q0.421875 0.5625 0.578125 1.5l-1.609375 0.21875q-0.109375 -0.75 -0.640625 -1.171875q-0.515625 -0.421875 -1.46875 -0.421875q-1.140625 0 -1.625 0.375q-0.46875 0.375 -0.46875 0.875q0 0.3125 0.1875 0.578125q0.203125 0.265625 0.640625 0.4375q0.234375 0.09375 1.4375 0.421875q1.75 0.453125 2.4375 0.75q0.6875 0.296875 1.078125 0.859375q0.390625 0.5625 0.390625 1.40625q0 0.828125 -0.484375 1.546875q-0.46875 0.71875 -1.375 1.125q-0.90625 0.390625 -2.046875 0.390625q-1.875 0 -2.875 -0.78125q-0.984375 -0.78125 -1.25 -2.328125z" fill-rule="nonzero"/><path fill="#ffffff" d="m301.62204 8.0l132.75592 0l0 22.614174l-132.75592 0z" fill-rule="evenodd"/><path fill="#000000" d="m314.01404 25.919998l0 -13.359375l1.765625 0l0 5.484375l6.9375 0l0 -5.484375l1.765625 0l0 13.359375l-1.765625 0l0 -6.296875l-6.9375 0l0 6.296875l-1.765625 0zm13.207336 -11.46875l0 -1.890625l1.640625 0l0 1.890625l-1.640625 0zm0 11.46875l0 -9.671875l1.640625 0l0 9.671875l-1.640625 0zm10.410431 0l0 -1.21875q-0.90625 1.4375 -2.703125 1.4375q-1.15625 0 -2.125 -0.640625q-0.96875 -0.640625 -1.5 -1.78125q-0.53125 -1.140625 -0.53125 -2.625q0 -1.453125 0.484375 -2.625q0.484375 -1.1875 1.4375 -1.8125q0.96875 -0.625 2.171875 -0.625q0.875 0 1.546875 0.375q0.6875 0.359375 1.109375 0.953125l0 -4.796875l1.640625 0l0 13.359375l-1.53125 0zm-5.171875 -4.828125q0 1.859375 0.78125 2.78125q0.78125 0.921875 1.84375 0.921875q1.078125 0 1.828125 -0.875q0.75 -0.890625 0.75 -2.6875q0 -1.984375 -0.765625 -2.90625q-0.765625 -0.9375 -1.890625 -0.9375q-1.078125 0 -1.8125 0.890625q-0.734375 0.890625 -0.734375 2.8125zm15.547607 4.828125l0 -1.21875q-0.90625 1.4375 -2.703125 1.4375q-1.15625 0 -2.125 -0.640625q-0.96875 -0.640625 -1.5 -1.78125q-0.53125 -1.140625 -0.53125 -2.625q0 -1.453125 0.484375 -2.625q0.484375 -1.1875 1.4375 -1.8125q0.96875 -0.625 2.171875 -0.625q0.875 0 1.546875 0.375q0.6875 0.359375 1.109375 0.953125l0 -4.796875l1.640625 0l0 13.359375l-1.53125 0zm-5.171875 -4.828125q0 1.859375 0.78125 2.78125q0.78125 0.921875 1.84375 0.921875q1.078125 0 1.828125 -0.875q0.75 -0.890625 0.75 -2.6875q0 -1.984375 -0.765625 -2.90625q-0.765625 -0.9375 -1.890625 -0.9375q-1.078125 0 -1.8125 0.890625q-0.734375 0.890625 -0.734375 2.8125zm15.906952 1.71875l1.6875 0.203125q-0.40625 1.484375 -1.484375 2.3125q-1.078125 0.8125 -2.765625 0.8125q-2.125 0 -3.375 -1.296875q-1.234375 -1.3125 -1.234375 -3.671875q0 -2.453125 1.25 -3.796875q1.265625 -1.34375 3.265625 -1.34375q1.9375 0 3.15625 1.328125q1.234375 1.3125 1.234375 3.703125q0 0.15625 0 0.4375l-7.21875 0q0.09375 1.59375 0.90625 2.453125q0.8125 0.84375 2.015625 0.84375q0.90625 0 1.546875 -0.46875q0.640625 -0.484375 1.015625 -1.515625zm-5.390625 -2.65625l5.40625 0q-0.109375 -1.21875 -0.625 -1.828125q-0.78125 -0.953125 -2.03125 -0.953125q-1.125 0 -1.90625 0.765625q-0.765625 0.75 -0.84375 2.015625zm9.141357 5.765625l0 -9.671875l1.46875 0l0 1.375q1.0625 -1.59375 3.078125 -1.59375q0.875 0 1.609375 0.3125q0.734375 0.3125 1.09375 0.828125q0.375 0.5 0.515625 1.203125q0.09375 0.453125 0.09375 1.59375l0 5.953125l-1.640625 0l0 -5.890625q0 -1.0 -0.203125 -1.484375q-0.1875 -0.5 -0.671875 -0.796875q-0.484375 -0.296875 -1.140625 -0.296875q-1.046875 0 -1.8125 0.671875q-0.75 0.65625 -0.75 2.515625l0 5.28125l-1.640625 0zm15.684021 0l0 -13.359375l1.78125 0l0 11.78125l6.5625 0l0 1.578125l-8.34375 0zm16.563202 -1.1875q-0.921875 0.765625 -1.765625 1.09375q-0.828125 0.3125 -1.796875 0.3125q-1.59375 0 -2.453125 -0.78125q-0.859375 -0.78125 -0.859375 -1.984375q0 -0.71875 0.328125 -1.296875q0.328125 -0.59375 0.84375 -0.9375q0.53125 -0.359375 1.1875 -0.546875q0.46875 -0.125 1.453125 -0.25q1.984375 -0.234375 2.921875 -0.5625q0.015625 -0.34375 0.015625 -0.421875q0 -1.0 -0.46875 -1.421875q-0.625 -0.546875 -1.875 -0.546875q-1.15625 0 -1.703125 0.40625q-0.546875 0.40625 -0.8125 1.421875l-1.609375 -0.21875q0.21875 -1.015625 0.71875 -1.640625q0.5 -0.640625 1.453125 -0.984375q0.953125 -0.34375 2.1875 -0.34375q1.25 0 2.015625 0.296875q0.78125 0.28125 1.140625 0.734375q0.375 0.4375 0.515625 1.109375q0.078125 0.421875 0.078125 1.515625l0 2.1875q0 2.28125 0.109375 2.890625q0.109375 0.59375 0.40625 1.15625l-1.703125 0q-0.265625 -0.515625 -0.328125 -1.1875zm-0.140625 -3.671875q-0.890625 0.375 -2.671875 0.625q-1.015625 0.140625 -1.4375 0.328125q-0.421875 0.1875 -0.65625 0.53125q-0.21875 0.34375 -0.21875 0.78125q0 0.65625 0.5 1.09375q0.5 0.4375 1.453125 0.4375q0.9375 0 1.671875 -0.40625q0.75 -0.421875 1.09375 -1.140625q0.265625 -0.5625 0.265625 -1.640625l0 -0.609375zm4.1257324 8.578125l-0.1875 -1.53125q0.546875 0.140625 0.9375 0.140625q0.546875 0 0.875 -0.1875q0.328125 -0.171875 0.546875 -0.5q0.15625 -0.25 0.5 -1.21875q0.046875 -0.140625 0.140625 -0.40625l-3.671875 -9.6875l1.765625 0l2.015625 5.59375q0.390625 1.078125 0.703125 2.25q0.28125 -1.125 0.671875 -2.203125l2.078125 -5.640625l1.640625 0l-3.6875 9.828125q-0.59375 1.609375 -0.921875 2.203125q-0.4375 0.8125 -1.0 1.1875q-0.5625 0.375 -1.34375 0.375q-0.484375 0 -1.0625 -0.203125zm16.03125 -6.828125l1.6875 0.203125q-0.40625 1.484375 -1.484375 2.3125q-1.078125 0.8125 -2.765625 0.8125q-2.125 0 -3.375 -1.296875q-1.234375 -1.3125 -1.234375 -3.671875q0 -2.453125 1.25 -3.796875q1.265625 -1.34375 3.265625 -1.34375q1.9375 0 3.15625 1.328125q1.234375 1.3125 1.234375 3.703125q0 0.15625 0 0.4375l-7.21875 0q0.09375 1.59375 0.90625 2.453125q0.8125 0.84375 2.015625 0.84375q0.90625 0 1.546875 -0.46875q0.640625 -0.484375 1.015625 -1.515625zm-5.390625 -2.65625l5.40625 0q-0.109375 -1.21875 -0.625 -1.828125q-0.78125 -0.953125 -2.03125 -0.953125q-1.125 0 -1.90625 0.765625q-0.765625 0.75 -0.84375 2.015625zm9.125702 5.765625l0 -9.671875l1.46875 0l0 1.46875q0.5625 -1.03125 1.03125 -1.359375q0.484375 -0.328125 1.0625 -0.328125q0.828125 0 1.6875 0.53125l-0.5625 1.515625q-0.609375 -0.359375 -1.203125 -0.359375q-0.546875 0 -0.96875 0.328125q-0.421875 0.328125 -0.609375 0.890625q-0.28125 0.875 -0.28125 1.921875l0 5.0625l-1.625 0z" fill-rule="nonzero"/><path fill="#000000" fill-opacity="0.0" d="m675.958 51.598427l51.93701 0l0 42.015747l-51.93701 0z" fill-rule="evenodd"/><path fill="#000000" d="m686.6455 78.518425l0 -1.875l1.875 0l0 1.875l-1.875 0zm4.2770386 -3.53125l1.640625 -0.21875q0.28125 1.40625 0.953125 2.015625q0.6875 0.609375 1.65625 0.609375q1.15625 0 1.953125 -0.796875q0.796875 -0.796875 0.796875 -1.984375q0 -1.125 -0.734375 -1.859375q-0.734375 -0.734375 -1.875 -0.734375q-0.46875 0 -1.15625 0.171875l0.1875 -1.4375q0.15625 0.015625 0.265625 0.015625q1.046875 0 1.875 -0.546875q0.84375 -0.546875 0.84375 -1.671875q0 -0.90625 -0.609375 -1.5q-0.609375 -0.59375 -1.578125 -0.59375q-0.953125 0 -1.59375 0.609375q-0.640625 0.59375 -0.8125 1.796875l-1.640625 -0.296875q0.296875 -1.640625 1.359375 -2.546875q1.0625 -0.90625 2.65625 -0.90625q1.09375 0 2.0 0.46875q0.921875 0.46875 1.40625 1.28125q0.5 0.8125 0.5 1.71875q0 0.859375 -0.46875 1.578125q-0.46875 0.703125 -1.375 1.125q1.1875 0.28125 1.84375 1.140625q0.65625 0.859375 0.65625 2.15625q0 1.734375 -1.28125 2.953125q-1.265625 1.21875 -3.21875 1.21875q-1.765625 0 -2.921875 -1.046875q-1.15625 -1.046875 -1.328125 -2.71875zm10.375732 -3.0625q0 -2.359375 0.484375 -3.796875q0.484375 -1.453125 1.4375 -2.234375q0.96875 -0.78125 2.421875 -0.78125q1.078125 0 1.890625 0.4375q0.8125 0.421875 1.328125 1.25q0.53125 0.8125 0.828125 1.984375q0.3125 1.15625 0.3125 3.140625q0 2.359375 -0.484375 3.8125q-0.484375 1.4375 -1.453125 2.234375q-0.953125 0.78125 -2.421875 0.78125q-1.921875 0 -3.03125 -1.390625q-1.3125 -1.671875 -1.3125 -5.4375zm1.671875 0q0 3.296875 0.765625 4.390625q0.78125 1.078125 1.90625 1.078125q1.140625 0 1.90625 -1.09375q0.765625 -1.09375 0.765625 -4.375q0 -3.296875 -0.765625 -4.375q-0.765625 -1.078125 -1.921875 -1.078125q-1.125 0 -1.796875 0.953125q-0.859375 1.21875 -0.859375 4.5z" fill-rule="nonzero"/><path fill="#000000" fill-opacity="0.0" d="m675.958 81.125984l51.93701 0l0 42.015747l-51.93701 0z" fill-rule="evenodd"/><path fill="#000000" d="m686.6455 108.04598l0 -1.875l1.875 0l0 1.875l-1.875 0zm4.2770386 -3.53125l1.640625 -0.21875q0.28125 1.40625 0.953125 2.015625q0.6875 0.609375 1.65625 0.609375q1.15625 0 1.953125 -0.796875q0.796875 -0.796875 0.796875 -1.984375q0 -1.125 -0.734375 -1.859375q-0.734375 -0.734375 -1.875 -0.734375q-0.46875 0 -1.15625 0.171875l0.1875 -1.4375q0.15625 0.015625 0.265625 0.015625q1.046875 0 1.875 -0.546875q0.84375 -0.546875 0.84375 -1.671875q0 -0.90625 -0.609375 -1.5q-0.609375 -0.59375 -1.578125 -0.59375q-0.953125 0 -1.59375 0.609375q-0.640625 0.59375 -0.8125 1.796875l-1.640625 -0.296875q0.296875 -1.640625 1.359375 -2.546875q1.0625 -0.90625 2.65625 -0.90625q1.09375 0 2.0 0.46875q0.921875 0.46875 1.40625 1.28125q0.5 0.8125 0.5 1.71875q0 0.859375 -0.46875 1.578125q-0.46875 0.703125 -1.375 1.125q1.1875 0.28125 1.84375 1.140625q0.65625 0.859375 0.65625 2.15625q0 1.734375 -1.28125 2.953125q-1.265625 1.21875 -3.21875 1.21875q-1.765625 0 -2.921875 -1.046875q-1.15625 -1.046875 -1.328125 -2.71875zm10.375732 0.03125l1.71875 -0.140625q0.1875 1.25 0.875 1.890625q0.703125 0.625 1.6875 0.625q1.1875 0 2.0 -0.890625q0.828125 -0.890625 0.828125 -2.359375q0 -1.40625 -0.796875 -2.21875q-0.78125 -0.8125 -2.0625 -0.8125q-0.78125 0 -1.421875 0.359375q-0.640625 0.359375 -1.0 0.9375l-1.546875 -0.203125l1.296875 -6.859375l6.640625 0l0 1.5625l-5.328125 0l-0.71875 3.59375q1.203125 -0.84375 2.515625 -0.84375q1.75 0 2.953125 1.21875q1.203125 1.203125 1.203125 3.109375q0 1.8125 -1.046875 3.140625q-1.296875 1.625 -3.515625 1.625q-1.8125 0 -2.96875 -1.015625q-1.15625 -1.03125 -1.3125 -2.71875z" fill-rule="nonzero"/><path fill="#000000" fill-opacity="0.0" d="m675.958 247.81102l51.93701 0l0 42.015762l-51.93701 0z" fill-rule="evenodd"/><path fill="#000000" d="m686.6455 274.73102l0 -1.875l1.875 0l0 1.875l-1.875 0zm4.2770386 -3.5l1.71875 -0.140625q0.1875 1.25 0.875 1.890625q0.703125 0.625 1.6875 0.625q1.1875 0 2.0 -0.890625q0.828125 -0.890625 0.828125 -2.359375q0 -1.40625 -0.796875 -2.21875q-0.78125 -0.8125 -2.0625 -0.8125q-0.78125 0 -1.421875 0.359375q-0.640625 0.359375 -1.0 0.9375l-1.546875 -0.203125l1.296875 -6.859375l6.640625 0l0 1.5625l-5.328125 0l-0.71875 3.59375q1.203125 -0.84375 2.515625 -0.84375q1.75 0 2.953125 1.21875q1.203125 1.203125 1.203125 3.109375q0 1.8125 -1.046875 3.140625q-1.296875 1.625 -3.515625 1.625q-1.8125 0 -2.96875 -1.015625q-1.15625 -1.03125 -1.3125 -2.71875zm10.375732 0l1.71875 -0.140625q0.1875 1.25 0.875 1.890625q0.703125 0.625 1.6875 0.625q1.1875 0 2.0 -0.890625q0.828125 -0.890625 0.828125 -2.359375q0 -1.40625 -0.796875 -2.21875q-0.78125 -0.8125 -2.0625 -0.8125q-0.78125 0 -1.421875 0.359375q-0.640625 0.359375 -1.0 0.9375l-1.546875 -0.203125l1.296875 -6.859375l6.640625 0l0 1.5625l-5.328125 0l-0.71875 3.59375q1.203125 -0.84375 2.515625 -0.84375q1.75 0 2.953125 1.21875q1.203125 1.203125 1.203125 3.109375q0 1.8125 -1.046875 3.140625q-1.296875 1.625 -3.515625 1.625q-1.8125 0 -2.96875 -1.015625q-1.15625 -1.03125 -1.3125 -2.71875z" fill-rule="nonzero"/><path fill="#6fa8dc" d="m622.5748 84.6168l0 0c0 -26.50967 21.490295 -48.0 48.0 -48.0l0 0c12.730347 0 24.939331 5.057129 33.9411 14.058872c9.00177 9.001747 14.058899 21.210735 14.058899 33.941128l0 0c0 26.509666 -21.490356 47.999992 -48.0 47.999992l0 0c-26.509705 0 -48.0 -21.490326 -48.0 -47.999992z" fill-rule="evenodd"/><path stroke="#595959" stroke-width="1.0" stroke-linejoin="round" stroke-linecap="butt" d="m622.5748 84.6168l0 0c0 -26.50967 21.490295 -48.0 48.0 -48.0l0 0c12.730347 0 24.939331 5.057129 33.9411 14.058872c9.00177 9.001747 14.058899 21.210735 14.058899 33.941128l0 0c0 26.509666 -21.490356 47.999992 -48.0 47.999992l0 0c-26.509705 0 -48.0 -21.490326 -48.0 -47.999992z" fill-rule="evenodd"/><path fill="#000000" d="m673.5132 70.7493l-4.8125 5.640625l9.484375 0l0 4.046875l-15.5 0l0 -3.4375l5.21875 -6.25l-4.40625 -5.109375l0 -3.359375l14.203125 0l0 4.046875l-8.03125 0l3.84375 4.421875z" fill-rule="nonzero"/><path fill="#000000" d="m644.416 112.64242l-2.140625 0q-1.6875 -2.546875 -2.578125 -5.296875q-0.875 -2.765625 -0.875 -5.34375q0 -3.203125 1.09375 -6.046875q0.953125 -2.484375 2.40625 -4.578125l2.125 0q-1.515625 3.359375 -2.09375 5.71875q-0.5625 2.34375 -0.5625 4.96875q0 1.8125 0.328125 3.71875q0.34375 1.90625 0.9375 3.625q0.390625 1.125 1.359375 3.234375zm13.075989 -4.765625l-3.109375 0l0 -6.0q0 -1.90625 -0.203125 -2.453125q-0.1875 -0.5625 -0.640625 -0.875q-0.453125 -0.3125 -1.078125 -0.3125q-0.8125 0 -1.453125 0.453125q-0.640625 0.4375 -0.875 1.171875q-0.234375 0.71875 -0.234375 2.6875l0 5.328125l-3.109375 0l0 -11.75l2.875 0l0 1.734375q1.546875 -2.0 3.875 -2.0q1.03125 0 1.875 0.375q0.859375 0.375 1.296875 0.953125q0.4375 0.5625 0.609375 1.296875q0.171875 0.734375 0.171875 2.09375l0 7.296875zm9.964355 -3.734375l3.09375 0.515625q-0.59375 1.703125 -1.890625 2.59375q-1.28125 0.890625 -3.21875 0.890625q-3.0625 0 -4.546875 -2.0q-1.15625 -1.609375 -1.15625 -4.046875q0 -2.921875 1.515625 -4.578125q1.53125 -1.65625 3.875 -1.65625q2.625 0 4.140625 1.734375q1.515625 1.734375 1.4375 5.296875l-7.78125 0q0.03125 1.390625 0.75 2.15625q0.71875 0.765625 1.796875 0.765625q0.71875 0 1.21875 -0.390625q0.5 -0.40625 0.765625 -1.28125zm0.171875 -3.140625q-0.03125 -1.359375 -0.703125 -2.0625q-0.65625 -0.703125 -1.609375 -0.703125q-1.015625 0 -1.6875 0.75q-0.65625 0.734375 -0.65625 2.015625l4.65625 0zm11.006531 -4.875l0 2.484375l-2.125 0l0 4.734375q0 1.4375 0.0625 1.671875q0.0625 0.234375 0.265625 0.390625q0.21875 0.15625 0.53125 0.15625q0.4375 0 1.25 -0.296875l0.265625 2.40625q-1.078125 0.46875 -2.453125 0.46875q-0.84375 0 -1.515625 -0.28125q-0.671875 -0.28125 -1.0 -0.71875q-0.3125 -0.453125 -0.421875 -1.21875q-0.109375 -0.546875 -0.109375 -2.203125l0 -5.109375l-1.421875 0l0 -2.484375l1.421875 0l0 -2.328125l3.125 -1.8125l0 4.140625l2.125 0z" fill-rule="nonzero"/><path fill="#000000" d="m683.3045 105.517426q1.578125 0 2.46875 1.125q1.046875 1.328125 1.046875 4.40625q0 3.0625 -1.0625 4.40625q-0.875 1.109375 -2.453125 1.109375q-1.578125 0 -2.546875 -1.21875q-0.953125 -1.21875 -0.953125 -4.328125q0 -3.046875 1.0625 -4.390625q0.875 -1.109375 2.4375 -1.109375zm0 1.71875q-0.375 0 -0.671875 0.25q-0.28125 0.234375 -0.453125 0.84375q-0.21875 0.8125 -0.21875 2.71875q0 1.890625 0.1875 2.609375q0.203125 0.71875 0.484375 0.953125q0.296875 0.234375 0.671875 0.234375q0.375 0 0.671875 -0.234375q0.296875 -0.25 0.46875 -0.875q0.203125 -0.796875 0.203125 -2.6875q0 -1.90625 -0.1875 -2.609375q-0.1875 -0.71875 -0.484375 -0.953125q-0.296875 -0.25 -0.671875 -0.25zm10.215637 9.140625l-2.078125 0l0 -7.8125q-1.140625 1.0625 -2.6875 1.578125l0 -1.890625q0.8125 -0.265625 1.765625 -1.0q0.953125 -0.75 1.3125 -1.734375l1.6875 0l0 10.859375z" fill-rule="nonzero"/><path fill="#000000" d="m696.7357 112.64242q0.921875 -1.96875 1.296875 -3.015625q0.375 -1.046875 0.6875 -2.421875q0.328125 -1.375 0.484375 -2.609375q0.15625 -1.234375 0.15625 -2.53125q0 -2.625 -0.578125 -4.96875q-0.5625 -2.359375 -2.078125 -5.71875l2.125 0q1.671875 2.390625 2.59375 5.0625q0.921875 2.65625 0.921875 5.390625q0 2.3125 -0.734375 4.96875q-0.828125 2.953125 -2.734375 5.84375l-2.140625 0z" fill-rule="nonzero"/><path fill="#6fa8dc" d="m622.5748 284.97375l0 0c0 -26.509674 21.490295 -48.0 48.0 -48.0l0 0c12.730347 0 24.939331 5.057129 33.9411 14.058868c9.00177 9.0017395 14.058899 21.210724 14.058899 33.94113l0 0c0 26.509674 -21.490356 48.0 -48.0 48.0l0 0c-26.509705 0 -48.0 -21.490326 -48.0 -48.0z" fill-rule="evenodd"/><path stroke="#595959" stroke-width="1.0" stroke-linejoin="round" stroke-linecap="butt" d="m622.5748 284.97375l0 0c0 -26.509674 21.490295 -48.0 48.0 -48.0l0 0c12.730347 0 24.939331 5.057129 33.9411 14.058868c9.00177 9.0017395 14.058899 21.210724 14.058899 33.94113l0 0c0 26.509674 -21.490356 48.0 -48.0 48.0l0 0c-26.509705 0 -48.0 -21.490326 -48.0 -48.0z" fill-rule="evenodd"/><path fill="#000000" d="m673.5132 284.60626l-4.8125 5.640625l9.484375 0l0 4.046875l-15.5 0l0 -3.4375l5.21875 -6.25l-4.40625 -5.109375l0 -3.359375l14.203125 0l0 4.046875l-8.03125 0l3.84375 4.421875z" fill-rule="nonzero"/><path fill="#6fa8dc" d="m742.5748 84.6168l0 0c0 -26.50967 21.490295 -48.0 48.0 -48.0l0 0c12.730347 0 24.939331 5.057129 33.9411 14.058872c9.00177 9.001747 14.058899 21.210735 14.058899 33.941128l0 0c0 26.509666 -21.490356 47.999992 -48.0 47.999992l0 0c-26.509705 0 -48.0 -21.490326 -48.0 -47.999992z" fill-rule="evenodd"/><path stroke="#595959" stroke-width="1.0" stroke-linejoin="round" stroke-linecap="butt" d="m742.5748 84.6168l0 0c0 -26.50967 21.490295 -48.0 48.0 -48.0l0 0c12.730347 0 24.939331 5.057129 33.9411 14.058872c9.00177 9.001747 14.058899 21.210735 14.058899 33.941128l0 0c0 26.509666 -21.490356 47.999992 -48.0 47.999992l0 0c-26.509705 0 -48.0 -21.490326 -48.0 -47.999992z" fill-rule="evenodd"/><path fill="#000000" d="m796.24 73.26492q0 0.890625 -0.3125 1.890625q-0.296875 0.984375 -0.921875 1.984375q-0.625 0.984375 -1.5 1.796875q-0.875 0.8125 -2.125 1.328125q-1.234375 0.5 -2.625 0.5q-2.203125 0 -3.609375 -1.359375q-1.390625 -1.375 -1.390625 -3.59375q0 -3.109375 2.40625 -5.609375q2.40625 -2.5 5.796875 -2.5q0.625 0 1.765625 0.125q1.140625 0.109375 1.75 0.109375q0.15625 0 0.421875 0.015625q0.28125 0 0.40625 0q0.484375 0 0.71875 -0.09375q0.234375 -0.109375 0.453125 -0.765625l1.75 0q-0.375 1.265625 -0.5 1.609375q-0.125 0.328125 -0.484375 0.921875q-0.34375 0.578125 -0.9375 0.90625q-0.59375 0.3125 -1.34375 0.3125q-1.015625 0 -2.34375 -0.6875q-1.328125 -0.6875 -1.96875 -0.6875q-0.75 0 -1.46875 0.765625q-0.71875 0.75 -1.1875 1.984375q-0.46875 1.234375 -0.734375 2.578125q-0.265625 1.34375 -0.265625 2.46875q0 0.859375 0.28125 1.28125q0.296875 0.421875 0.75 0.421875q1.203125 0 2.1875 -2.03125q0.984375 -2.03125 0.984375 -4.1875q0 -0.640625 -0.203125 -0.953125q-0.1875 -0.328125 -0.5 -0.328125q-0.484375 0 -1.359375 1.296875l-1.234375 -1.5625q1.4375 -1.875 3.4375 -1.875q1.515625 0 2.703125 1.140625q1.203125 1.125 1.203125 2.796875z" fill-rule="nonzero"/><path fill="#000000" d="m764.01764 112.64242l-2.140625 0q-1.6875 -2.546875 -2.578125 -5.296875q-0.875 -2.765625 -0.875 -5.34375q0 -3.203125 1.09375 -6.046875q0.953125 -2.484375 2.40625 -4.578125l2.125 0q-1.515625 3.359375 -2.09375 5.71875q-0.5625 2.34375 -0.5625 4.96875q0 1.8125 0.328125 3.71875q0.34375 1.90625 0.9375 3.625q0.390625 1.125 1.359375 3.234375zm1.6697388 -10.8125q0 -1.546875 0.765625 -2.984375q0.765625 -1.453125 2.15625 -2.21875q1.40625 -0.765625 3.125 -0.765625q2.671875 0 4.375 1.734375q1.703125 1.734375 1.703125 4.375q0 2.671875 -1.71875 4.421875q-1.71875 1.75 -4.328125 1.75q-1.625 0 -3.09375 -0.71875q-1.453125 -0.734375 -2.21875 -2.140625q-0.765625 -1.421875 -0.765625 -3.453125zm3.1875 0.171875q0 1.75 0.828125 2.6875q0.828125 0.921875 2.046875 0.921875q1.21875 0 2.03125 -0.921875q0.828125 -0.9375 0.828125 -2.703125q0 -1.734375 -0.828125 -2.65625q-0.8125 -0.9375 -2.03125 -0.9375q-1.21875 0 -2.046875 0.9375q-0.828125 0.921875 -0.828125 2.671875zm19.10498 5.875l0 -1.765625q-0.640625 0.953125 -1.6875 1.5q-1.046875 0.53125 -2.203125 0.53125q-1.1875 0 -2.125 -0.515625q-0.9375 -0.53125 -1.359375 -1.46875q-0.421875 -0.9375 -0.421875 -2.59375l0 -7.4375l3.109375 0l0 5.40625q0 2.46875 0.171875 3.03125q0.171875 0.5625 0.625 0.890625q0.453125 0.3125 1.140625 0.3125q0.796875 0 1.421875 -0.421875q0.640625 -0.4375 0.875 -1.078125q0.234375 -0.65625 0.234375 -3.1875l0 -4.953125l3.109375 0l0 11.75l-2.890625 0zm11.495544 -11.75l0 2.484375l-2.125 0l0 4.734375q0 1.4375 0.0625 1.671875q0.0625 0.234375 0.265625 0.390625q0.21875 0.15625 0.53125 0.15625q0.4375 0 1.25 -0.296875l0.265625 2.40625q-1.078125 0.46875 -2.453125 0.46875q-0.84375 0 -1.515625 -0.28125q-0.671875 -0.28125 -1.0 -0.71875q-0.3125 -0.453125 -0.421875 -1.21875q-0.109375 -0.546875 -0.109375 -2.203125l0 -5.109375l-1.421875 0l0 -2.484375l1.421875 0l0 -2.328125l3.125 -1.8125l0 4.140625l2.125 0z" fill-rule="nonzero"/><path fill="#000000" d="m804.14514 105.517426q1.578125 0 2.46875 1.125q1.046875 1.328125 1.046875 4.40625q0 3.0625 -1.0625 4.40625q-0.875 1.109375 -2.453125 1.109375q-1.578125 0 -2.546875 -1.21875q-0.953125 -1.21875 -0.953125 -4.328125q0 -3.046875 1.0625 -4.390625q0.875 -1.109375 2.4375 -1.109375zm0 1.71875q-0.375 0 -0.671875 0.25q-0.28125 0.234375 -0.453125 0.84375q-0.21875 0.8125 -0.21875 2.71875q0 1.890625 0.1875 2.609375q0.203125 0.71875 0.484375 0.953125q0.296875 0.234375 0.671875 0.234375q0.375 0 0.671875 -0.234375q0.296875 -0.25 0.46875 -0.875q0.203125 -0.796875 0.203125 -2.6875q0 -1.90625 -0.1875 -2.609375q-0.1875 -0.71875 -0.484375 -0.953125q-0.296875 -0.25 -0.671875 -0.25zm10.215637 9.140625l-2.078125 0l0 -7.8125q-1.140625 1.0625 -2.6875 1.578125l0 -1.890625q0.8125 -0.265625 1.765625 -1.0q0.953125 -0.75 1.3125 -1.734375l1.6875 0l0 10.859375z" fill-rule="nonzero"/><path fill="#000000" d="m817.5295 112.36117q0.859375 -1.84375 1.21875 -2.84375q0.359375 -0.984375 0.65625 -2.265625q0.296875 -1.296875 0.4375 -2.453125q0.15625 -1.171875 0.15625 -2.390625q0 -2.484375 -0.53125 -4.6875q-0.53125 -2.21875 -1.953125 -5.375l1.984375 0q1.578125 2.25 2.4375 4.765625q0.875 2.5 0.875 5.078125q0 2.171875 -0.6875 4.671875q-0.78125 2.78125 -2.578125 5.5l-2.015625 0z" fill-rule="nonzero"/><path fill="#6fa8dc" d="m742.5748 284.97375l0 0c0 -26.509674 21.490295 -48.0 48.0 -48.0l0 0c12.730347 0 24.939331 5.057129 33.9411 14.058868c9.00177 9.0017395 14.058899 21.210724 14.058899 33.94113l0 0c0 26.509674 -21.490356 48.0 -48.0 48.0l0 0c-26.509705 0 -48.0 -21.490326 -48.0 -48.0z" fill-rule="evenodd"/><path stroke="#595959" stroke-width="1.0" stroke-linejoin="round" stroke-linecap="butt" d="m742.5748 284.97375l0 0c0 -26.509674 21.490295 -48.0 48.0 -48.0l0 0c12.730347 0 24.939331 5.057129 33.9411 14.058868c9.00177 9.0017395 14.058899 21.210724 14.058899 33.94113l0 0c0 26.509674 -21.490356 48.0 -48.0 48.0l0 0c-26.509705 0 -48.0 -21.490326 -48.0 -48.0z" fill-rule="evenodd"/><path fill="#000000" d="m796.24 287.1219q0 0.890625 -0.3125 1.890625q-0.296875 0.984375 -0.921875 1.984375q-0.625 0.984375 -1.5 1.796875q-0.875 0.8125 -2.125 1.328125q-1.234375 0.5 -2.625 0.5q-2.203125 0 -3.609375 -1.359375q-1.390625 -1.375 -1.390625 -3.59375q0 -3.109375 2.40625 -5.609375q2.40625 -2.5 5.796875 -2.5q0.625 0 1.765625 0.125q1.140625 0.109375 1.75 0.109375q0.15625 0 0.421875 0.015625q0.28125 0 0.40625 0q0.484375 0 0.71875 -0.09375q0.234375 -0.109375 0.453125 -0.765625l1.75 0q-0.375 1.265625 -0.5 1.609375q-0.125 0.328125 -0.484375 0.921875q-0.34375 0.578125 -0.9375 0.90625q-0.59375 0.3125 -1.34375 0.3125q-1.015625 0 -2.34375 -0.6875q-1.328125 -0.6875 -1.96875 -0.6875q-0.75 0 -1.46875 0.765625q-0.71875 0.75 -1.1875 1.984375q-0.46875 1.234375 -0.734375 2.578125q-0.265625 1.34375 -0.265625 2.46875q0 0.859375 0.28125 1.28125q0.296875 0.421875 0.75 0.421875q1.203125 0 2.1875 -2.03125q0.984375 -2.03125 0.984375 -4.1875q0 -0.640625 -0.203125 -0.953125q-0.1875 -0.328125 -0.5 -0.328125q-0.484375 0 -1.359375 1.296875l-1.234375 -1.5625q1.4375 -1.875 3.4375 -1.875q1.515625 0 2.703125 1.140625q1.203125 1.125 1.203125 2.796875z" fill-rule="nonzero"/><path fill="#000000" fill-opacity="0.0" d="m718.5748 84.6168l24.0 0" fill-rule="evenodd"/><path stroke="#e06666" stroke-width="3.0" stroke-linejoin="round" stroke-linecap="butt" d="m718.5748 84.6168l6.0 0" fill-rule="evenodd"/><path fill="#e06666" stroke="#e06666" stroke-width="3.0" stroke-linecap="butt" d="m724.5748 89.572l13.614258 -4.9552l-13.614258 -4.9552z" fill-rule="evenodd"/><path fill="#000000" fill-opacity="0.0" d="m485.3832 43.598427l51.93698 0l0 42.015747l-51.93698 0z" fill-rule="evenodd"/><path fill="#000000" d="m497.39883 70.518425l-2.96875 -9.671875l1.703125 0l1.53125 5.578125l0.578125 2.078125q0.046875 -0.15625 0.5 -2.0l1.546875 -5.65625l1.6875 0l1.4375 5.609375l0.484375 1.84375l0.5625 -1.859375l1.65625 -5.59375l1.59375 0l-3.03125 9.671875l-1.703125 0l-1.53125 -5.796875l-0.375 -1.640625l-1.953125 7.4375l-1.71875 0z" fill-rule="nonzero"/><path fill="#000000" d="m508.37177 75.1903l1.140625 -0.09375q0.140625 0.828125 0.59375 1.25q0.46875 0.421875 1.125 0.421875q0.796875 0 1.34375 -0.59375q0.546875 -0.59375 0.546875 -1.578125q0 -0.9375 -0.53125 -1.46875q-0.53125 -0.546875 -1.375 -0.546875q-0.53125 0 -0.953125 0.25q-0.421875 0.234375 -0.671875 0.609375l-1.03125 -0.125l0.875 -4.578125l4.421875 0l0 1.046875l-3.546875 0l-0.484375 2.390625q0.796875 -0.5625 1.6875 -0.5625q1.15625 0 1.953125 0.8125q0.8125 0.8125 0.8125 2.078125q0 1.203125 -0.703125 2.09375q-0.859375 1.078125 -2.34375 1.078125q-1.21875 0 -1.984375 -0.671875q-0.765625 -0.6875 -0.875 -1.8125z" fill-rule="nonzero"/><path fill="#000000" fill-opacity="0.0" d="m485.3832 130.94095l51.93698 0l0 42.015747l-51.93698 0z" fill-rule="evenodd"/><path fill="#000000" d="m497.39883 157.86095l-2.96875 -9.671875l1.703125 0l1.53125 5.578125l0.578125 2.078125q0.046875 -0.15625 0.5 -2.0l1.546875 -5.65625l1.6875 0l1.4375 5.609375l0.484375 1.84375l0.5625 -1.859375l1.65625 -5.59375l1.59375 0l-3.03125 9.671875l-1.703125 0l-1.53125 -5.796875l-0.375 -1.640625l-1.953125 7.4375l-1.71875 0z" fill-rule="nonzero"/><path fill="#000000" d="m508.4499 157.12657l0 -1.046875l5.765625 0l0 0.84375q-0.859375 0.90625 -1.703125 2.40625q-0.828125 1.5 -1.28125 3.078125q-0.328125 1.125 -0.421875 2.453125l-1.125 0q0.03125 -1.046875 0.421875 -2.53125q0.390625 -1.5 1.125 -2.875q0.75 -1.390625 1.578125 -2.328125l-4.359375 0z" fill-rule="nonzero"/><path fill="#000000" fill-opacity="0.0" d="m485.3832 196.85564l51.93698 0l0 42.015747l-51.93698 0z" fill-rule="evenodd"/><path fill="#000000" d="m497.39883 223.77563l-2.96875 -9.671875l1.703125 0l1.53125 5.578125l0.578125 2.078125q0.046875 -0.15625 0.5 -2.0l1.546875 -5.65625l1.6875 0l1.4375 5.609375l0.484375 1.84375l0.5625 -1.859375l1.65625 -5.59375l1.59375 0l-3.03125 9.671875l-1.703125 0l-1.53125 -5.796875l-0.375 -1.640625l-1.953125 7.4375l-1.71875 0z" fill-rule="nonzero"/><path fill="#000000" d="m514.04364 224.05688l-1.09375 0.078125q-0.140625 -0.640625 -0.40625 -0.9375q-0.4375 -0.46875 -1.09375 -0.46875q-0.515625 0 -0.921875 0.296875q-0.515625 0.375 -0.8125 1.109375q-0.296875 0.71875 -0.296875 2.046875q0.390625 -0.59375 0.953125 -0.890625q0.578125 -0.296875 1.203125 -0.296875q1.09375 0 1.859375 0.8125q0.765625 0.796875 0.765625 2.078125q0 0.84375 -0.359375 1.5625q-0.359375 0.71875 -1.0 1.109375q-0.625 0.375 -1.421875 0.375q-1.375 0 -2.234375 -1.0q-0.859375 -1.015625 -0.859375 -3.328125q0 -2.578125 0.953125 -3.75q0.828125 -1.015625 2.234375 -1.015625q1.0625 0 1.734375 0.59375q0.671875 0.578125 0.796875 1.625zm-4.46875 3.828125q0 0.578125 0.234375 1.09375q0.25 0.515625 0.671875 0.78125q0.4375 0.265625 0.921875 0.265625q0.6875 0 1.1875 -0.546875q0.5 -0.5625 0.5 -1.53125q0 -0.921875 -0.5 -1.453125q-0.484375 -0.53125 -1.234375 -0.53125q-0.75 0 -1.265625 0.53125q-0.515625 0.53125 -0.515625 1.390625z" fill-rule="nonzero"/><path fill="#000000" fill-opacity="0.0" d="m485.3832 272.96063l51.93698 0l0 42.015747l-51.93698 0z" fill-rule="evenodd"/><path fill="#000000" d="m497.39883 299.8806l-2.96875 -9.671875l1.703125 0l1.53125 5.578125l0.578125 2.078125q0.046875 -0.15625 0.5 -2.0l1.546875 -5.65625l1.6875 0l1.4375 5.609375l0.484375 1.84375l0.5625 -1.859375l1.65625 -5.59375l1.59375 0l-3.03125 9.671875l-1.703125 0l-1.53125 -5.796875l-0.375 -1.640625l-1.953125 7.4375l-1.71875 0z" fill-rule="nonzero"/><path fill="#000000" d="m510.05927 302.0525q-0.6875 -0.25 -1.015625 -0.703125q-0.328125 -0.46875 -0.328125 -1.109375q0 -0.96875 0.703125 -1.625q0.703125 -0.671875 1.859375 -0.671875q1.15625 0 1.859375 0.6875q0.71875 0.671875 0.71875 1.640625q0 0.609375 -0.328125 1.078125q-0.3125 0.453125 -0.984375 0.703125q0.828125 0.265625 1.25 0.859375q0.4375 0.59375 0.4375 1.421875q0 1.140625 -0.8125 1.921875q-0.8125 0.78125 -2.125 0.78125q-1.3125 0 -2.125 -0.78125q-0.8125 -0.78125 -0.8125 -1.953125q0 -0.859375 0.4375 -1.4375q0.453125 -0.59375 1.265625 -0.8125zm-0.21875 -1.859375q0 0.640625 0.40625 1.046875q0.40625 0.390625 1.046875 0.390625q0.640625 0 1.03125 -0.390625q0.40625 -0.40625 0.40625 -0.984375q0 -0.59375 -0.421875 -1.0q-0.40625 -0.421875 -1.015625 -0.421875q-0.625 0 -1.046875 0.40625q-0.40625 0.40625 -0.40625 0.953125zm-0.359375 4.125q0 0.46875 0.21875 0.90625q0.234375 0.421875 0.671875 0.671875q0.4375 0.234375 0.9375 0.234375q0.78125 0 1.28125 -0.5q0.515625 -0.5 0.515625 -1.28125q0 -0.796875 -0.53125 -1.3125q-0.515625 -0.515625 -1.3125 -0.515625q-0.765625 0 -1.28125 0.515625q-0.5 0.515625 -0.5 1.28125z" fill-rule="nonzero"/><path fill="#000000" fill-opacity="0.0" d="m481.33597 356.99213l51.93698 0l0 42.015747l-51.93698 0z" fill-rule="evenodd"/><path fill="#000000" d="m493.07034 383.9121l-1.515625 0l0 -13.359375l1.640625 0l0 4.765625q1.046875 -1.296875 2.65625 -1.296875q0.890625 0 1.6875 0.359375q0.796875 0.359375 1.3125 1.015625q0.515625 0.640625 0.796875 1.5625q0.296875 0.921875 0.296875 1.96875q0 2.484375 -1.234375 3.84375q-1.21875 1.359375 -2.953125 1.359375q-1.703125 0 -2.6875 -1.4375l0 1.21875zm-0.015625 -4.90625q0 1.734375 0.484375 2.515625q0.765625 1.265625 2.09375 1.265625q1.078125 0 1.859375 -0.9375q0.78125 -0.9375 0.78125 -2.78125q0 -1.890625 -0.75 -2.796875q-0.75 -0.90625 -1.828125 -0.90625q-1.0625 0 -1.859375 0.9375q-0.78125 0.9375 -0.78125 2.703125z" fill-rule="nonzero"/><path fill="#000000" d="m506.9773 389.86523l0 1.046875l-5.890625 0q-0.015625 -0.390625 0.125 -0.765625q0.234375 -0.59375 0.71875 -1.171875q0.5 -0.59375 1.4375 -1.359375q1.453125 -1.1875 1.953125 -1.875q0.515625 -0.703125 0.515625 -1.3125q0 -0.65625 -0.46875 -1.09375q-0.453125 -0.453125 -1.203125 -0.453125q-0.796875 0 -1.265625 0.46875q-0.46875 0.46875 -0.484375 1.3125l-1.125 -0.109375q0.125 -1.265625 0.875 -1.921875q0.75 -0.65625 2.015625 -0.65625q1.28125 0 2.03125 0.71875q0.75 0.703125 0.75 1.75q0 0.53125 -0.21875 1.046875q-0.21875 0.515625 -0.734375 1.09375q-0.5 0.5625 -1.671875 1.5625q-0.984375 0.828125 -1.265625 1.125q-0.28125 0.296875 -0.46875 0.59375l4.375 0z" fill-rule="nonzero"/><path fill="#000000" fill-opacity="0.0" d="m529.6693 395.30972l51.93701 0l0 42.015747l-51.93701 0z" fill-rule="evenodd"/><path fill="#000000" d="m541.4037 422.2297l-1.515625 0l0 -13.359375l1.640625 0l0 4.765625q1.046875 -1.296875 2.65625 -1.296875q0.890625 0 1.6875 0.359375q0.796875 0.359375 1.3125 1.015625q0.515625 0.640625 0.796875 1.5625q0.296875 0.921875 0.296875 1.96875q0 2.484375 -1.234375 3.84375q-1.21875 1.359375 -2.953125 1.359375q-1.703125 0 -2.6875 -1.4375l0 1.21875zm-0.015625 -4.90625q0 1.734375 0.484375 2.515625q0.765625 1.265625 2.09375 1.265625q1.078125 0 1.859375 -0.9375q0.78125 -0.9375 0.78125 -2.78125q0 -1.890625 -0.75 -2.796875q-0.75 -0.90625 -1.828125 -0.90625q-1.0625 0 -1.859375 0.9375q-0.78125 0.9375 -0.78125 2.703125z" fill-rule="nonzero"/><path fill="#000000" d="m555.3106 428.18283l0 1.046875l-5.890625 0q-0.015625 -0.390625 0.125 -0.765625q0.234375 -0.59375 0.71875 -1.171875q0.5 -0.59375 1.4375 -1.359375q1.453125 -1.1875 1.953125 -1.875q0.515625 -0.703125 0.515625 -1.3125q0 -0.65625 -0.46875 -1.09375q-0.453125 -0.453125 -1.203125 -0.453125q-0.796875 0 -1.265625 0.46875q-0.46875 0.46875 -0.484375 1.3125l-1.125 -0.109375q0.125 -1.265625 0.875 -1.921875q0.75 -0.65625 2.015625 -0.65625q1.28125 0 2.03125 0.71875q0.75 0.703125 0.75 1.75q0 0.53125 -0.21875 1.046875q-0.21875 0.515625 -0.734375 1.09375q-0.5 0.5625 -1.671875 1.5625q-0.984375 0.828125 -1.265625 1.125q-0.28125 0.296875 -0.46875 0.59375l4.375 0z" fill-rule="nonzero"/><path fill="#000000" fill-opacity="0.0" d="m718.5748 284.97375l24.0 0" fill-rule="evenodd"/><path stroke="#e06666" stroke-width="3.0" stroke-linejoin="round" stroke-linecap="butt" d="m718.5748 284.97375l6.0 0" fill-rule="evenodd"/><path fill="#e06666" stroke="#e06666" stroke-width="3.0" stroke-linecap="butt" d="m724.5748 289.92896l13.614258 -4.9552l-13.614258 -4.9552z" fill-rule="evenodd"/><path fill="#ffffff" d="m724.19684 8.0l132.75592 0l0 22.614174l-132.75592 0z" fill-rule="evenodd"/><path fill="#000000" d="m737.55286 19.419998q0 -3.328125 1.78125 -5.203125q1.78125 -1.890625 4.609375 -1.890625q1.84375 0 3.328125 0.890625q1.484375 0.875 2.265625 2.46875q0.78125 1.578125 0.78125 3.578125q0 2.03125 -0.828125 3.640625q-0.8125 1.59375 -2.3125 2.421875q-1.5 0.828125 -3.25 0.828125q-1.875 0 -3.359375 -0.90625q-1.484375 -0.921875 -2.25 -2.5q-0.765625 -1.578125 -0.765625 -3.328125zm1.8125 0.015625q0 2.421875 1.296875 3.8125q1.296875 1.390625 3.265625 1.390625q2.0 0 3.28125 -1.40625q1.28125 -1.40625 1.28125 -3.984375q0 -1.625 -0.546875 -2.84375q-0.546875 -1.21875 -1.609375 -1.875q-1.0625 -0.671875 -2.375 -0.671875q-1.890625 0 -3.25 1.296875q-1.34375 1.28125 -1.34375 4.28125zm19.355164 6.484375l0 -1.421875q-1.125 1.640625 -3.0625 1.640625q-0.859375 0 -1.609375 -0.328125q-0.734375 -0.328125 -1.09375 -0.828125q-0.359375 -0.5 -0.5 -1.21875q-0.109375 -0.46875 -0.109375 -1.53125l0 -5.984375l1.640625 0l0 5.359375q0 1.28125 0.109375 1.734375q0.15625 0.640625 0.65625 1.015625q0.5 0.375 1.234375 0.375q0.734375 0 1.375 -0.375q0.65625 -0.390625 0.921875 -1.03125q0.265625 -0.65625 0.265625 -1.890625l0 -5.1875l1.640625 0l0 9.671875l-1.46875 0zm7.6257324 -1.46875l0.234375 1.453125q-0.6875 0.140625 -1.234375 0.140625q-0.890625 0 -1.390625 -0.28125q-0.484375 -0.28125 -0.6875 -0.734375q-0.203125 -0.46875 -0.203125 -1.9375l0 -5.578125l-1.203125 0l0 -1.265625l1.203125 0l0 -2.390625l1.625 -0.984375l0 3.375l1.65625 0l0 1.265625l-1.65625 0l0 5.671875q0 0.6875 0.078125 0.890625q0.09375 0.203125 0.28125 0.328125q0.203125 0.109375 0.578125 0.109375q0.265625 0 0.71875 -0.0625zm1.6051636 5.171875l0 -13.375l1.484375 0l0 1.25q0.53125 -0.734375 1.1875 -1.09375q0.671875 -0.375 1.625 -0.375q1.234375 0 2.171875 0.640625q0.953125 0.625 1.4375 1.796875q0.484375 1.15625 0.484375 2.546875q0 1.484375 -0.53125 2.671875q-0.53125 1.1875 -1.546875 1.828125q-1.015625 0.625 -2.140625 0.625q-0.8125 0 -1.46875 -0.34375q-0.65625 -0.34375 -1.0625 -0.875l0 4.703125l-1.640625 0zm1.484375 -8.484375q0 1.859375 0.75 2.765625q0.765625 0.890625 1.828125 0.890625q1.09375 0 1.875 -0.921875q0.78125 -0.9375 0.78125 -2.875q0 -1.84375 -0.765625 -2.765625q-0.75 -0.921875 -1.8125 -0.921875q-1.046875 0 -1.859375 0.984375q-0.796875 0.96875 -0.796875 2.84375zm15.219482 4.78125l0 -1.421875q-1.125 1.640625 -3.0625 1.640625q-0.859375 0 -1.609375 -0.328125q-0.734375 -0.328125 -1.09375 -0.828125q-0.359375 -0.5 -0.5 -1.21875q-0.109375 -0.46875 -0.109375 -1.53125l0 -5.984375l1.640625 0l0 5.359375q0 1.28125 0.109375 1.734375q0.15625 0.640625 0.65625 1.015625q0.5 0.375 1.234375 0.375q0.734375 0 1.375 -0.375q0.65625 -0.390625 0.921875 -1.03125q0.265625 -0.65625 0.265625 -1.890625l0 -5.1875l1.640625 0l0 9.671875l-1.46875 0zm7.6256714 -1.46875l0.234375 1.453125q-0.6875 0.140625 -1.234375 0.140625q-0.890625 0 -1.390625 -0.28125q-0.484375 -0.28125 -0.6875 -0.734375q-0.203125 -0.46875 -0.203125 -1.9375l0 -5.578125l-1.203125 0l0 -1.265625l1.203125 0l0 -2.390625l1.625 -0.984375l0 3.375l1.65625 0l0 1.265625l-1.65625 0l0 5.671875q0 0.6875 0.078125 0.890625q0.09375 0.203125 0.28125 0.328125q0.203125 0.109375 0.578125 0.109375q0.265625 0 0.71875 -0.0625zm6.913513 1.46875l0 -13.359375l1.78125 0l0 11.78125l6.5625 0l0 1.578125l-8.34375 0zm16.563232 -1.1875q-0.921875 0.765625 -1.765625 1.09375q-0.828125 0.3125 -1.796875 0.3125q-1.59375 0 -2.453125 -0.78125q-0.859375 -0.78125 -0.859375 -1.984375q0 -0.71875 0.328125 -1.296875q0.328125 -0.59375 0.84375 -0.9375q0.53125 -0.359375 1.1875 -0.546875q0.46875 -0.125 1.453125 -0.25q1.984375 -0.234375 2.921875 -0.5625q0.015625 -0.34375 0.015625 -0.421875q0 -1.0 -0.46875 -1.421875q-0.625 -0.546875 -1.875 -0.546875q-1.15625 0 -1.703125 0.40625q-0.546875 0.40625 -0.8125 1.421875l-1.609375 -0.21875q0.21875 -1.015625 0.71875 -1.640625q0.5 -0.640625 1.453125 -0.984375q0.953125 -0.34375 2.1875 -0.34375q1.25 0 2.015625 0.296875q0.78125 0.28125 1.140625 0.734375q0.375 0.4375 0.515625 1.109375q0.078125 0.421875 0.078125 1.515625l0 2.1875q0 2.28125 0.109375 2.890625q0.109375 0.59375 0.40625 1.15625l-1.703125 0q-0.265625 -0.515625 -0.328125 -1.1875zm-0.140625 -3.671875q-0.890625 0.375 -2.671875 0.625q-1.015625 0.140625 -1.4375 0.328125q-0.421875 0.1875 -0.65625 0.53125q-0.21875 0.34375 -0.21875 0.78125q0 0.65625 0.5 1.09375q0.5 0.4375 1.453125 0.4375q0.9375 0 1.671875 -0.40625q0.75 -0.421875 1.09375 -1.140625q0.265625 -0.5625 0.265625 -1.640625l0 -0.609375zm4.1256714 8.578125l-0.1875 -1.53125q0.546875 0.140625 0.9375 0.140625q0.546875 0 0.875 -0.1875q0.328125 -0.171875 0.546875 -0.5q0.15625 -0.25 0.5 -1.21875q0.046875 -0.140625 0.140625 -0.40625l-3.671875 -9.6875l1.765625 0l2.015625 5.59375q0.390625 1.078125 0.703125 2.25q0.28125 -1.125 0.671875 -2.203125l2.078125 -5.640625l1.640625 0l-3.6875 9.828125q-0.59375 1.609375 -0.921875 2.203125q-0.4375 0.8125 -1.0 1.1875q-0.5625 0.375 -1.34375 0.375q-0.484375 0 -1.0625 -0.203125zm16.03125 -6.828125l1.6875 0.203125q-0.40625 1.484375 -1.484375 2.3125q-1.078125 0.8125 -2.765625 0.8125q-2.125 0 -3.375 -1.296875q-1.234375 -1.3125 -1.234375 -3.671875q0 -2.453125 1.25 -3.796875q1.265625 -1.34375 3.265625 -1.34375q1.9375 0 3.15625 1.328125q1.234375 1.3125 1.234375 3.703125q0 0.15625 0 0.4375l-7.21875 0q0.09375 1.59375 0.90625 2.453125q0.8125 0.84375 2.015625 0.84375q0.90625 0 1.546875 -0.46875q0.640625 -0.484375 1.015625 -1.515625zm-5.390625 -2.65625l5.40625 0q-0.109375 -1.21875 -0.625 -1.828125q-0.78125 -0.953125 -2.03125 -0.953125q-1.125 0 -1.90625 0.765625q-0.765625 0.75 -0.84375 2.015625zm9.125732 5.765625l0 -9.671875l1.46875 0l0 1.46875q0.5625 -1.03125 1.03125 -1.359375q0.484375 -0.328125 1.0625 -0.328125q0.828125 0 1.6875 0.53125l-0.5625 1.515625q-0.609375 -0.359375 -1.203125 -0.359375q-0.546875 0 -0.96875 0.328125q-0.421875 0.328125 -0.609375 0.890625q-0.28125 0.875 -0.28125 1.921875l0 5.0625l-1.625 0z" fill-rule="nonzero"/><path fill="#eeeeee" d="m787.89404 139.43301l-22.929138 20.393692l0 0c-12.663391 11.263138 -32.060486 10.128647 -43.324524 -2.5339355l-19.446167 -21.860611l-6.5512085 5.826767l1.447876 -24.75505l24.756836 1.4479675l-6.5511475 5.826767l19.446167 21.860611l0 0c4.8274536 5.426819 13.140503 5.913025 18.567688 1.0859833l22.929077 -20.393707z" fill-rule="evenodd"/><path stroke="#595959" stroke-width="1.0" stroke-linejoin="round" stroke-linecap="butt" d="m787.89404 139.43301l-22.929138 20.393692l0 0c-12.663391 11.263138 -32.060486 10.128647 -43.324524 -2.5339355l-19.446167 -21.860611l-6.5512085 5.826767l1.447876 -24.75505l24.756836 1.4479675l-6.5511475 5.826767l19.446167 21.860611l0 0c4.8274536 5.426819 13.140503 5.913025 18.567688 1.0859833l22.929077 -20.393707z" fill-rule="evenodd"/><path fill="#000000" fill-opacity="0.0" d="m671.04987 149.41077l80.44092 0l0 49.606293l-80.44092 0z" fill-rule="evenodd"/><path fill="#000000" d="m683.09674 155.19814l-0.96875 -0.4375q0.5 -1.125 1.203125 -1.609375q0.703125 -0.484375 1.375 -0.484375q0.546875 0 0.984375 0.28125q0.4375 0.28125 0.671875 0.65625q0.328125 0.5625 0.484375 1.34375q0.171875 0.765625 0.171875 1.765625q0 2.0625 -0.625 3.671875q-0.625 1.59375 -1.671875 2.359375q-1.046875 0.765625 -2.0625 0.765625q-0.984375 0 -1.59375 -0.640625q-0.609375 -0.65625 -0.609375 -1.828125q0 -1.625 1.09375 -2.78125q1.40625 -1.484375 4.640625 -1.53125q-0.03125 -1.203125 -0.171875 -1.828125q-0.140625 -0.640625 -0.484375 -0.96875q-0.34375 -0.34375 -0.8125 -0.34375q-0.4375 0 -0.859375 0.359375q-0.421875 0.34375 -0.765625 1.25zm3.0625 2.4375q-1.75 0.109375 -2.5625 0.5q-0.8125 0.375 -1.34375 1.265625q-0.515625 0.875 -0.515625 1.765625q0 0.59375 0.359375 0.984375q0.375 0.390625 0.859375 0.390625q0.53125 0 1.140625 -0.390625q0.84375 -0.546875 1.359375 -1.671875q0.53125 -1.140625 0.703125 -2.84375zm1.6172485 1.90625q0 -2.109375 1.171875 -3.125q0.984375 -0.84375 2.390625 -0.84375q1.578125 0 2.5625 1.03125q1.0 1.015625 1.0 2.828125q0 1.46875 -0.4375 2.3125q-0.4375 0.828125 -1.28125 1.296875q-0.84375 0.46875 -1.84375 0.46875q-1.59375 0 -2.578125 -1.015625q-0.984375 -1.03125 -0.984375 -2.953125zm1.328125 0q0 1.453125 0.625 2.1875q0.640625 0.71875 1.609375 0.71875q0.96875 0 1.59375 -0.71875q0.640625 -0.734375 0.640625 -2.234375q0 -1.40625 -0.640625 -2.125q-0.640625 -0.734375 -1.59375 -0.734375q-0.96875 0 -1.609375 0.71875q-0.625 0.71875 -0.625 2.1875zm12.291748 3.796875l0 -1.109375q-0.890625 1.28125 -2.421875 1.28125q-0.671875 0 -1.25 -0.25q-0.578125 -0.265625 -0.875 -0.65625q-0.28125 -0.390625 -0.390625 -0.953125q-0.078125 -0.375 -0.078125 -1.203125l0 -4.703125l1.28125 0l0 4.203125q0 1.015625 0.078125 1.359375q0.125 0.515625 0.515625 0.8125q0.40625 0.28125 0.984375 0.28125q0.578125 0 1.078125 -0.296875q0.515625 -0.296875 0.71875 -0.8125q0.21875 -0.515625 0.21875 -1.484375l0 -4.0625l1.28125 0l0 7.59375l-1.140625 0zm5.979248 -1.15625l0.1875 1.140625q-0.546875 0.109375 -0.984375 0.109375q-0.6875 0 -1.078125 -0.21875q-0.390625 -0.21875 -0.546875 -0.578125q-0.15625 -0.359375 -0.15625 -1.515625l0 -4.375l-0.953125 0l0 -1.0l0.953125 0l0 -1.890625l1.28125 -0.765625l0 2.65625l1.296875 0l0 1.0l-1.296875 0l0 4.4375q0 0.546875 0.0625 0.71875q0.078125 0.15625 0.21875 0.25q0.15625 0.078125 0.453125 0.078125q0.203125 0 0.5625 -0.046875z" fill-rule="nonzero"/><path fill="#000000" d="m707.99445 166.30751q0 -1.40625 0.78125 -2.078125q0.65625 -0.5625 1.59375 -0.5625q1.046875 0 1.703125 0.6875q0.65625 0.671875 0.65625 1.875q0 0.984375 -0.296875 1.546875q-0.28125 0.5625 -0.84375 0.875q-0.5625 0.296875 -1.21875 0.296875q-1.0625 0 -1.71875 -0.671875q-0.65625 -0.6875 -0.65625 -1.96875zm0.875 0q0 0.96875 0.421875 1.453125q0.4375 0.484375 1.078125 0.484375q0.640625 0 1.0625 -0.484375q0.421875 -0.484375 0.421875 -1.484375q0 -0.9375 -0.4375 -1.421875q-0.421875 -0.484375 -1.046875 -0.484375q-0.640625 0 -1.078125 0.484375q-0.421875 0.484375 -0.421875 1.453125zm7.8685913 2.53125l-0.859375 0l0 -5.46875q-0.3125 0.296875 -0.8125 0.59375q-0.5 0.296875 -0.90625 0.4375l0 -0.828125q0.71875 -0.34375 1.25 -0.8125q0.546875 -0.484375 0.765625 -0.9375l0.5625 0l0 7.015625z" fill-rule="nonzero"/><path fill="#000000" d="m680.36237 172.90501l0 -0.875l2.640625 0l0 0.875l-2.640625 0zm3.2519531 0l0 -0.875l2.640625 0l0 0.875l-2.640625 0zm3.2520142 0l0 -0.875l2.640625 0l0 0.875l-2.640625 0zm3.2519531 0l0 -0.875l2.640625 0l0 0.875l-2.640625 0zm3.2519531 0l0 -0.875l2.640625 0l0 0.875l-2.640625 0zm3.2519531 0l0 -0.875l2.640625 0l0 0.875l-2.640625 0zm3.2520142 0l0 -0.875l2.640625 0l0 0.875l-2.640625 0zm3.2519531 0l0 -0.875l2.640625 0l0 0.875l-2.640625 0zm3.2519531 0l0 -0.875l2.640625 0l0 0.875l-2.640625 0zm3.2519531 0l0 -0.875l2.640625 0l0 0.875l-2.640625 0zm3.2520142 0l0 -0.875l2.640625 0l0 0.875l-2.640625 0zm3.2519531 0l0 -0.875l2.640625 0l0 0.875l-2.640625 0zm3.2519531 0l0 -0.875l2.640625 0l0 0.875l-2.640625 0zm3.2519531 0l0 -0.875l2.640625 0l0 0.875l-2.640625 0z" fill-rule="nonzero"/><path fill="#000000" d="m683.09674 176.67014l-0.96875 -0.4375q0.5 -1.125 1.203125 -1.609375q0.703125 -0.484375 1.375 -0.484375q0.546875 0 0.984375 0.28125q0.4375 0.28125 0.671875 0.65625q0.328125 0.5625 0.484375 1.34375q0.171875 0.765625 0.171875 1.765625q0 2.0625 -0.625 3.671875q-0.625 1.59375 -1.671875 2.359375q-1.046875 0.765625 -2.0625 0.765625q-0.984375 0 -1.59375 -0.640625q-0.609375 -0.65625 -0.609375 -1.828125q0 -1.625 1.09375 -2.78125q1.40625 -1.484375 4.640625 -1.53125q-0.03125 -1.203125 -0.171875 -1.828125q-0.140625 -0.640625 -0.484375 -0.96875q-0.34375 -0.34375 -0.8125 -0.34375q-0.4375 0 -0.859375 0.359375q-0.421875 0.34375 -0.765625 1.25zm3.0625 2.4375q-1.75 0.109375 -2.5625 0.5q-0.8125 0.375 -1.34375 1.265625q-0.515625 0.875 -0.515625 1.765625q0 0.59375 0.359375 0.984375q0.375 0.390625 0.859375 0.390625q0.53125 0 1.140625 -0.390625q0.84375 -0.546875 1.359375 -1.671875q0.53125 -1.140625 0.703125 -2.84375zm2.1016235 5.703125l0 -7.59375l1.15625 0l0 1.078125q0.84375 -1.25 2.421875 -1.25q0.6875 0 1.265625 0.25q0.578125 0.234375 0.859375 0.640625q0.28125 0.40625 0.40625 0.953125q0.0625 0.359375 0.0625 1.25l0 4.671875l-1.28125 0l0 -4.625q0 -0.78125 -0.15625 -1.171875q-0.15625 -0.390625 -0.546875 -0.625q-0.375 -0.234375 -0.890625 -0.234375q-0.8125 0 -1.421875 0.53125q-0.59375 0.515625 -0.59375 1.96875l0 4.15625l-1.28125 0zm13.354248 -2.453125l1.328125 0.171875q-0.3125 1.171875 -1.171875 1.8125q-0.84375 0.640625 -2.171875 0.640625q-1.671875 0 -2.65625 -1.015625q-0.96875 -1.03125 -0.96875 -2.890625q0 -1.921875 0.984375 -2.96875q1.0 -1.0625 2.578125 -1.0625q1.515625 0 2.484375 1.03125q0.96875 1.03125 0.96875 2.921875q0 0.109375 -0.015625 0.34375l-5.65625 0q0.0625 1.25 0.703125 1.921875q0.640625 0.65625 1.59375 0.65625q0.703125 0 1.203125 -0.359375q0.5 -0.375 0.796875 -1.203125zm-4.234375 -2.078125l4.25 0q-0.09375 -0.953125 -0.484375 -1.4375q-0.625 -0.75 -1.609375 -0.75q-0.875 0 -1.484375 0.59375q-0.609375 0.59375 -0.671875 1.59375zm9.994873 3.375l0.1875 1.140625q-0.546875 0.109375 -0.984375 0.109375q-0.6875 0 -1.078125 -0.21875q-0.390625 -0.21875 -0.546875 -0.578125q-0.15625 -0.359375 -0.15625 -1.515625l0 -4.375l-0.953125 0l0 -1.0l0.953125 0l0 -1.890625l1.28125 -0.765625l0 2.65625l1.296875 0l0 1.0l-1.296875 0l0 4.4375q0 0.546875 0.0625 0.71875q0.078125 0.15625 0.21875 0.25q0.15625 0.078125 0.453125 0.078125q0.203125 0 0.5625 -0.046875z" fill-rule="nonzero"/><path fill="#000000" d="m707.99445 187.77951q0 -1.40625 0.78125 -2.078125q0.65625 -0.5625 1.59375 -0.5625q1.046875 0 1.703125 0.6875q0.65625 0.671875 0.65625 1.875q0 0.984375 -0.296875 1.546875q-0.28125 0.5625 -0.84375 0.875q-0.5625 0.296875 -1.21875 0.296875q-1.0625 0 -1.71875 -0.671875q-0.65625 -0.6875 -0.65625 -1.96875zm0.875 0q0 0.96875 0.421875 1.453125q0.4375 0.484375 1.078125 0.484375q0.640625 0 1.0625 -0.484375q0.421875 -0.484375 0.421875 -1.484375q0 -0.9375 -0.4375 -1.421875q-0.421875 -0.484375 -1.046875 -0.484375q-0.640625 0 -1.078125 0.484375q-0.421875 0.484375 -0.421875 1.453125zm7.8685913 2.53125l-0.859375 0l0 -5.46875q-0.3125 0.296875 -0.8125 0.59375q-0.5 0.296875 -0.90625 0.4375l0 -0.828125q0.71875 -0.34375 1.25 -0.8125q0.546875 -0.484375 0.765625 -0.9375l0.5625 0l0 7.015625z" fill-rule="nonzero"/><path fill="#eeeeee" d="m868.33673 199.83464l-30.38385 4.3543243l0 0c-16.780518 2.404831 -32.333557 -9.248947 -34.738647 -26.02945l-4.1488647 -28.94696l-8.681091 1.2440948l14.873718 -19.850357l19.850647 14.873978l-8.681091 1.2440948l4.1488647 28.94696l0 0c1.0307617 7.191635 7.69635 12.186127 14.8880005 11.155472l30.38385 -4.3543243z" fill-rule="evenodd"/><path stroke="#595959" stroke-width="1.0" stroke-linejoin="round" stroke-linecap="butt" d="m868.33673 199.83464l-30.38385 4.3543243l0 0c-16.780518 2.404831 -32.333557 -9.248947 -34.738647 -26.02945l-4.1488647 -28.94696l-8.681091 1.2440948l14.873718 -19.850357l19.850647 14.873978l-8.681091 1.2440948l4.1488647 28.94696l0 0c1.0307617 7.191635 7.69635 12.186127 14.8880005 11.155472l30.38385 -4.3543243z" fill-rule="evenodd"/><path fill="#000000" fill-opacity="0.0" d="m752.51184 168.83727l80.44092 0l0 49.606308l-80.44092 0z" fill-rule="evenodd"/><path fill="#000000" d="m764.5587 174.62465l-0.96875 -0.4375q0.5 -1.125 1.203125 -1.609375q0.703125 -0.484375 1.375 -0.484375q0.546875 0 0.984375 0.28125q0.4375 0.28125 0.671875 0.65625q0.328125 0.5625 0.484375 1.34375q0.171875 0.765625 0.171875 1.765625q0 2.0625 -0.625 3.671875q-0.625 1.59375 -1.671875 2.359375q-1.046875 0.765625 -2.0625 0.765625q-0.984375 0 -1.59375 -0.640625q-0.609375 -0.65625 -0.609375 -1.828125q0 -1.625 1.09375 -2.78125q1.40625 -1.484375 4.640625 -1.53125q-0.03125 -1.203125 -0.171875 -1.828125q-0.140625 -0.640625 -0.484375 -0.96875q-0.34375 -0.34375 -0.8125 -0.34375q-0.4375 0 -0.859375 0.359375q-0.421875 0.34375 -0.765625 1.25zm3.0625 2.4375q-1.75 0.109375 -2.5625 0.5q-0.8125 0.375 -1.34375 1.265625q-0.515625 0.875 -0.515625 1.765625q0 0.59375 0.359375 0.984375q0.375 0.390625 0.859375 0.390625q0.53125 0 1.140625 -0.390625q0.84375 -0.546875 1.359375 -1.671875q0.53125 -1.140625 0.703125 -2.84375zm2.2891235 5.703125l0 -10.484375l7.59375 0l0 1.234375l-6.203125 0l0 3.203125l5.796875 0l0 1.234375l-5.796875 0l0 3.578125l6.4375 0l0 1.234375l-7.828125 0z" fill-rule="nonzero"/><path fill="#000000" d="m781.0453 187.49965l0.125 0.75q-0.359375 0.078125 -0.640625 0.078125q-0.46875 0 -0.734375 -0.140625q-0.25 -0.15625 -0.359375 -0.390625q-0.109375 -0.234375 -0.109375 -1.015625l0 -2.90625l-0.625 0l0 -0.671875l0.625 0l0 -1.25l0.859375 -0.515625l0 1.765625l0.859375 0l0 0.671875l-0.859375 0l0 2.953125q0 0.375 0.046875 0.484375q0.046875 0.09375 0.140625 0.15625q0.109375 0.0625 0.296875 0.0625q0.140625 0 0.375 -0.03125zm0.5256958 -1.765625q0 -1.40625 0.78125 -2.078125q0.65625 -0.5625 1.59375 -0.5625q1.046875 0 1.703125 0.6875q0.65625 0.671875 0.65625 1.875q0 0.984375 -0.296875 1.546875q-0.28125 0.5625 -0.84375 0.875q-0.5625 0.296875 -1.21875 0.296875q-1.0625 0 -1.71875 -0.671875q-0.65625 -0.6875 -0.65625 -1.96875zm0.875 0q0 0.96875 0.421875 1.453125q0.4375 0.484375 1.078125 0.484375q0.640625 0 1.0625 -0.484375q0.421875 -0.484375 0.421875 -1.484375q0 -0.9375 -0.4375 -1.421875q-0.421875 -0.484375 -1.046875 -0.484375q-0.640625 0 -1.078125 0.484375q-0.421875 0.484375 -0.421875 1.453125zm6.7435913 1.765625l0.125 0.75q-0.359375 0.078125 -0.640625 0.078125q-0.46875 0 -0.734375 -0.140625q-0.25 -0.15625 -0.359375 -0.390625q-0.109375 -0.234375 -0.109375 -1.015625l0 -2.90625l-0.625 0l0 -0.671875l0.625 0l0 -1.25l0.859375 -0.515625l0 1.765625l0.859375 0l0 0.671875l-0.859375 0l0 2.953125q0 0.375 0.046875 0.484375q0.046875 0.09375 0.140625 0.15625q0.109375 0.0625 0.296875 0.0625q0.140625 0 0.375 -0.03125zm4.150635 0.140625q-0.484375 0.40625 -0.921875 0.578125q-0.4375 0.15625 -0.953125 0.15625q-0.828125 0 -1.28125 -0.40625q-0.4375 -0.40625 -0.4375 -1.03125q0 -0.375 0.15625 -0.6875q0.171875 -0.3125 0.4375 -0.484375q0.28125 -0.1875 0.625 -0.296875q0.25 -0.0625 0.765625 -0.125q1.046875 -0.125 1.53125 -0.296875q0 -0.171875 0 -0.21875q0 -0.53125 -0.234375 -0.734375q-0.328125 -0.296875 -0.984375 -0.296875q-0.59375 0 -0.890625 0.21875q-0.28125 0.203125 -0.421875 0.75l-0.84375 -0.125q0.109375 -0.53125 0.375 -0.859375q0.265625 -0.34375 0.75 -0.515625q0.5 -0.171875 1.15625 -0.171875q0.65625 0 1.0625 0.15625q0.40625 0.140625 0.59375 0.375q0.1875 0.234375 0.265625 0.578125q0.046875 0.21875 0.046875 0.796875l0 1.140625q0 1.203125 0.046875 1.515625q0.0625 0.3125 0.21875 0.609375l-0.890625 0q-0.140625 -0.265625 -0.171875 -0.625zm-0.078125 -1.921875q-0.46875 0.203125 -1.40625 0.328125q-0.515625 0.078125 -0.75 0.171875q-0.21875 0.09375 -0.34375 0.28125q-0.109375 0.1875 -0.109375 0.40625q0 0.34375 0.25 0.578125q0.265625 0.21875 0.765625 0.21875q0.5 0 0.890625 -0.203125q0.390625 -0.21875 0.5625 -0.609375q0.140625 -0.28125 0.140625 -0.859375l0 -0.3125zm2.1810913 2.546875l0 -6.984375l0.859375 0l0 6.984375l-0.859375 0z" fill-rule="nonzero"/><path fill="#000000" d="m761.82434 192.33151l0 -0.875l2.640625 0l0 0.875l-2.640625 0zm3.2519531 0l0 -0.875l2.640625 0l0 0.875l-2.640625 0zm3.2519531 0l0 -0.875l2.640625 0l0 0.875l-2.640625 0zm3.2519531 0l0 -0.875l2.640625 0l0 0.875l-2.640625 0zm3.2520142 0l0 -0.875l2.640625 0l0 0.875l-2.640625 0zm3.2519531 0l0 -0.875l2.640625 0l0 0.875l-2.640625 0zm3.2519531 0l0 -0.875l2.640625 0l0 0.875l-2.640625 0zm3.2519531 0l0 -0.875l2.640625 0l0 0.875l-2.640625 0zm3.2520142 0l0 -0.875l2.640625 0l0 0.875l-2.640625 0zm3.2519531 0l0 -0.875l2.640625 0l0 0.875l-2.640625 0zm3.2519531 0l0 -0.875l2.640625 0l0 0.875l-2.640625 0zm3.2519531 0l0 -0.875l2.640625 0l0 0.875l-2.640625 0zm3.2520142 0l0 -0.875l2.640625 0l0 0.875l-2.640625 0zm3.2519531 0l0 -0.875l2.640625 0l0 0.875l-2.640625 0z" fill-rule="nonzero"/><path fill="#000000" d="m764.5587 196.09665l-0.96875 -0.4375q0.5 -1.125 1.203125 -1.609375q0.703125 -0.484375 1.375 -0.484375q0.546875 0 0.984375 0.28125q0.4375 0.28125 0.671875 0.65625q0.328125 0.5625 0.484375 1.34375q0.171875 0.765625 0.171875 1.765625q0 2.0625 -0.625 3.671875q-0.625 1.59375 -1.671875 2.359375q-1.046875 0.765625 -2.0625 0.765625q-0.984375 0 -1.59375 -0.640625q-0.609375 -0.65625 -0.609375 -1.828125q0 -1.625 1.09375 -2.78125q1.40625 -1.484375 4.640625 -1.53125q-0.03125 -1.203125 -0.171875 -1.828125q-0.140625 -0.640625 -0.484375 -0.96875q-0.34375 -0.34375 -0.8125 -0.34375q-0.4375 0 -0.859375 0.359375q-0.421875 0.34375 -0.765625 1.25zm3.0625 2.4375q-1.75 0.109375 -2.5625 0.5q-0.8125 0.375 -1.34375 1.265625q-0.515625 0.875 -0.515625 1.765625q0 0.59375 0.359375 0.984375q0.375 0.390625 0.859375 0.390625q0.53125 0 1.140625 -0.390625q0.84375 -0.546875 1.359375 -1.671875q0.53125 -1.140625 0.703125 -2.84375zm1.6172485 1.90625q0 -2.109375 1.171875 -3.125q0.984375 -0.84375 2.390625 -0.84375q1.578125 0 2.5625 1.03125q1.0 1.015625 1.0 2.828125q0 1.46875 -0.4375 2.3125q-0.4375 0.828125 -1.28125 1.296875q-0.84375 0.46875 -1.84375 0.46875q-1.59375 0 -2.578125 -1.015625q-0.984375 -1.03125 -0.984375 -2.953125zm1.328125 0q0 1.453125 0.625 2.1875q0.640625 0.71875 1.609375 0.71875q0.96875 0 1.59375 -0.71875q0.640625 -0.734375 0.640625 -2.234375q0 -1.40625 -0.640625 -2.125q-0.640625 -0.734375 -1.59375 -0.734375q-0.96875 0 -1.609375 0.71875q-0.625 0.71875 -0.625 2.1875zm12.291687 3.796875l0 -1.109375q-0.890625 1.28125 -2.421875 1.28125q-0.671875 0 -1.25 -0.25q-0.578125 -0.265625 -0.875 -0.65625q-0.28125 -0.390625 -0.390625 -0.953125q-0.078125 -0.375 -0.078125 -1.203125l0 -4.703125l1.28125 0l0 4.203125q0 1.015625 0.078125 1.359375q0.125 0.515625 0.515625 0.8125q0.40625 0.28125 0.984375 0.28125q0.578125 0 1.078125 -0.296875q0.515625 -0.296875 0.71875 -0.8125q0.21875 -0.515625 0.21875 -1.484375l0 -4.0625l1.28125 0l0 7.59375l-1.140625 0zm5.979248 -1.15625l0.1875 1.140625q-0.546875 0.109375 -0.984375 0.109375q-0.6875 0 -1.078125 -0.21875q-0.390625 -0.21875 -0.546875 -0.578125q-0.15625 -0.359375 -0.15625 -1.515625l0 -4.375l-0.953125 0l0 -1.0l0.953125 0l0 -1.890625l1.28125 -0.765625l0 2.65625l1.296875 0l0 1.0l-1.296875 0l0 4.4375q0 0.546875 0.0625 0.71875q0.078125 0.15625 0.21875 0.25q0.15625 0.078125 0.453125 0.078125q0.203125 0 0.5625 -0.046875z" fill-rule="nonzero"/><path fill="#000000" d="m789.45636 207.20602q0 -1.40625 0.78125 -2.078125q0.65625 -0.5625 1.59375 -0.5625q1.046875 0 1.703125 0.6875q0.65625 0.671875 0.65625 1.875q0 0.984375 -0.296875 1.546875q-0.28125 0.5625 -0.84375 0.875q-0.5625 0.296875 -1.21875 0.296875q-1.0625 0 -1.71875 -0.671875q-0.65625 -0.6875 -0.65625 -1.96875zm0.875 0q0 0.96875 0.421875 1.453125q0.4375 0.484375 1.078125 0.484375q0.640625 0 1.0625 -0.484375q0.421875 -0.484375 0.421875 -1.484375q0 -0.9375 -0.4375 -1.421875q-0.421875 -0.484375 -1.046875 -0.484375q-0.640625 0 -1.078125 0.484375q-0.421875 0.484375 -0.421875 1.453125zm7.8685913 2.53125l-0.859375 0l0 -5.46875q-0.3125 0.296875 -0.8125 0.59375q-0.5 0.296875 -0.90625 0.4375l0 -0.828125q0.71875 -0.34375 1.25 -0.8125q0.546875 -0.484375 0.765625 -0.9375l0.5625 0l0 7.015625z" fill-rule="nonzero"/><path fill="#eeeeee" d="m650.06824 131.46457l-15.986328 15.986359c-8.865906 8.865921 -23.240417 8.865921 -32.106323 0l-46.39569 -46.395668l-4.6533813 4.6533966l0.06677246 -18.413239l18.413269 -0.06678009l-4.6533813 4.6533966l46.39563 46.395676l0 0c3.7996826 3.7996674 9.960205 3.7996674 13.759888 0l15.986328 -15.986374z" fill-rule="evenodd"/><path stroke="#595959" stroke-width="1.0" stroke-linejoin="round" stroke-linecap="butt" d="m650.06824 131.46457l-15.986328 15.986359c-8.865906 8.865921 -23.240417 8.865921 -32.106323 0l-46.39569 -46.395668l-4.6533813 4.6533966l0.06677246 -18.413239l18.413269 -0.06678009l-4.6533813 4.6533966l46.39563 46.395676l0 0c3.7996826 3.7996674 9.960205 3.7996674 13.759888 0l15.986328 -15.986374z" fill-rule="evenodd"/><path fill="#000000" fill-opacity="0.0" d="m524.26245 108.99213l80.44098 0l0 49.606293l-80.44098 0z" fill-rule="evenodd"/><path fill="#000000" d="m536.3093 114.7795l-0.96875 -0.4375q0.5 -1.125 1.203125 -1.609375q0.703125 -0.484375 1.375 -0.484375q0.546875 0 0.984375 0.28125q0.4375 0.28125 0.671875 0.65625q0.328125 0.5625 0.484375 1.34375q0.171875 0.765625 0.171875 1.765625q0 2.0625 -0.625 3.671875q-0.625 1.59375 -1.671875 2.359375q-1.046875 0.765625 -2.0625 0.765625q-0.984375 0 -1.59375 -0.640625q-0.609375 -0.65625 -0.609375 -1.828125q0 -1.625 1.09375 -2.78125q1.40625 -1.484375 4.640625 -1.53125q-0.03125 -1.203125 -0.171875 -1.828125q-0.140625 -0.640625 -0.484375 -0.96875q-0.34375 -0.34375 -0.8125 -0.34375q-0.4375 0 -0.859375 0.359375q-0.421875 0.34375 -0.765625 1.25zm3.0625 2.4375q-1.75 0.109375 -2.5625 0.5q-0.8125 0.375 -1.34375 1.265625q-0.515625 0.875 -0.515625 1.765625q0 0.59375 0.359375 0.984375q0.375 0.390625 0.859375 0.390625q0.53125 0 1.140625 -0.390625q0.84375 -0.546875 1.359375 -1.671875q0.53125 -1.140625 0.703125 -2.84375zm2.1016235 5.703125l0 -7.59375l1.15625 0l0 1.078125q0.84375 -1.25 2.421875 -1.25q0.6875 0 1.265625 0.25q0.578125 0.234375 0.859375 0.640625q0.28125 0.40625 0.40625 0.953125q0.0625 0.359375 0.0625 1.25l0 4.671875l-1.28125 0l0 -4.625q0 -0.78125 -0.15625 -1.171875q-0.15625 -0.390625 -0.546875 -0.625q-0.375 -0.234375 -0.890625 -0.234375q-0.8125 0 -1.421875 0.53125q-0.59375 0.515625 -0.59375 1.96875l0 4.15625l-1.28125 0zm13.354248 -2.453125l1.328125 0.171875q-0.3125 1.171875 -1.171875 1.8125q-0.84375 0.640625 -2.171875 0.640625q-1.671875 0 -2.65625 -1.015625q-0.96875 -1.03125 -0.96875 -2.890625q0 -1.921875 0.984375 -2.96875q1.0 -1.0625 2.578125 -1.0625q1.515625 0 2.484375 1.03125q0.96875 1.03125 0.96875 2.921875q0 0.109375 -0.015625 0.34375l-5.65625 0q0.0625 1.25 0.703125 1.921875q0.640625 0.65625 1.59375 0.65625q0.703125 0 1.203125 -0.359375q0.5 -0.375 0.796875 -1.203125zm-4.234375 -2.078125l4.25 0q-0.09375 -0.953125 -0.484375 -1.4375q-0.625 -0.75 -1.609375 -0.75q-0.875 0 -1.484375 0.59375q-0.609375 0.59375 -0.671875 1.59375zm9.994873 3.375l0.1875 1.140625q-0.546875 0.109375 -0.984375 0.109375q-0.6875 0 -1.078125 -0.21875q-0.390625 -0.21875 -0.546875 -0.578125q-0.15625 -0.359375 -0.15625 -1.515625l0 -4.375l-0.953125 0l0 -1.0l0.953125 0l0 -1.890625l1.28125 -0.765625l0 2.65625l1.296875 0l0 1.0l-1.296875 0l0 4.4375q0 0.546875 0.0625 0.71875q0.078125 0.15625 0.21875 0.25q0.15625 0.078125 0.453125 0.078125q0.203125 0 0.5625 -0.046875z" fill-rule="nonzero"/><path fill="#000000" d="m561.28516 124.967q0 -1.234375 0.25 -1.984375q0.265625 -0.765625 0.765625 -1.171875q0.5 -0.40625 1.265625 -0.40625q0.5625 0 0.984375 0.234375q0.421875 0.21875 0.703125 0.640625q0.28125 0.421875 0.4375 1.046875q0.15625 0.609375 0.15625 1.640625q0 1.234375 -0.265625 2.0q-0.25 0.75 -0.75 1.1718674q-0.5 0.40625 -1.265625 0.40625q-1.015625 0 -1.59375 -0.7343674q-0.6875 -0.875 -0.6875 -2.84375zm0.875 0q0 1.734375 0.40625 2.296875q0.40625 0.5625 1.0 0.5625q0.59375 0 0.984375 -0.5625q0.40625 -0.578125 0.40625 -2.296875q0 -1.71875 -0.40625 -2.28125q-0.390625 -0.578125 -1.0 -0.578125q-0.59375 0 -0.9375 0.5q-0.453125 0.640625 -0.453125 2.359375zm7.7904663 3.4531174l-0.859375 0l0 -5.4687424q-0.3125 0.296875 -0.8125 0.59375q-0.5 0.296875 -0.90625 0.4375l0 -0.828125q0.71875 -0.34375 1.25 -0.8125q0.546875 -0.484375 0.765625 -0.9375l0.5625 0l0 7.0156174z" fill-rule="nonzero"/><path fill="#000000" d="m533.57495 132.48637l0 -0.875l2.640625 0l0 0.875l-2.640625 0zm3.2520142 0l0 -0.875l2.640625 0l0 0.875l-2.640625 0zm3.2519531 0l0 -0.875l2.640625 0l0 0.875l-2.640625 0zm3.2519531 0l0 -0.875l2.640625 0l0 0.875l-2.640625 0zm3.2519531 0l0 -0.875l2.640625 0l0 0.875l-2.640625 0zm3.2520142 0l0 -0.875l2.640625 0l0 0.875l-2.640625 0zm3.2519531 0l0 -0.875l2.640625 0l0 0.875l-2.640625 0zm3.2519531 0l0 -0.875l2.640625 0l0 0.875l-2.640625 0zm3.2519531 0l0 -0.875l2.640625 0l0 0.875l-2.640625 0zm3.2520142 0l0 -0.875l2.640625 0l0 0.875l-2.640625 0zm3.2519531 0l0 -0.875l2.640625 0l0 0.875l-2.640625 0zm3.2519531 0l0 -0.875l2.640625 0l0 0.875l-2.640625 0zm3.2519531 0l0 -0.875l2.640625 0l0 0.875l-2.640625 0zm3.2520142 0l0 -0.875l2.640625 0l0 0.875l-2.640625 0z" fill-rule="nonzero"/><path fill="#000000" d="m536.3093 136.2515l-0.96875 -0.4375q0.5 -1.125 1.203125 -1.609375q0.703125 -0.484375 1.375 -0.484375q0.546875 0 0.984375 0.28125q0.4375 0.28125 0.671875 0.65625q0.328125 0.5625 0.484375 1.34375q0.171875 0.765625 0.171875 1.765625q0 2.0625 -0.625 3.671875q-0.625 1.59375 -1.671875 2.359375q-1.046875 0.765625 -2.0625 0.765625q-0.984375 0 -1.59375 -0.640625q-0.609375 -0.65625 -0.609375 -1.828125q0 -1.625 1.09375 -2.78125q1.40625 -1.484375 4.640625 -1.53125q-0.03125 -1.203125 -0.171875 -1.828125q-0.140625 -0.640625 -0.484375 -0.96875q-0.34375 -0.34375 -0.8125 -0.34375q-0.4375 0 -0.859375 0.359375q-0.421875 0.34375 -0.765625 1.25zm3.0625 2.4375q-1.75 0.109375 -2.5625 0.5q-0.8125 0.375 -1.34375 1.265625q-0.515625 0.875 -0.515625 1.765625q0 0.59375 0.359375 0.984375q0.375 0.390625 0.859375 0.390625q0.53125 0 1.140625 -0.390625q0.84375 -0.546875 1.359375 -1.671875q0.53125 -1.140625 0.703125 -2.84375zm3.5078735 5.703125l-2.328125 -7.59375l1.328125 0l1.203125 4.375l0.453125 1.640625q0.03125 -0.125 0.390625 -1.578125l1.21875 -4.4375l1.328125 0l1.125 4.40625l0.390625 1.453125l0.4375 -1.46875l1.296875 -4.390625l1.25 0l-2.375 7.59375l-1.34375 0l-1.203125 -4.546875l-0.296875 -1.296875l-1.53125 5.84375l-1.34375 0z" fill-rule="nonzero"/><path fill="#000000" d="m551.49524 148.064l0.90625 -0.078125q0.09375 0.65625 0.453125 0.984375q0.375 0.328125 0.890625 0.328125q0.609375 0 1.03125 -0.453125q0.4375 -0.46875 0.4375 -1.25q0 -0.734375 -0.421875 -1.15625q-0.40625 -0.421875 -1.0625 -0.421875q-0.421875 0 -0.765625 0.1875q-0.328125 0.1875 -0.515625 0.484375l-0.796875 -0.09375l0.671875 -3.59375l3.484375 0l0 0.8125l-2.796875 0l-0.375 1.875q0.625 -0.4375 1.3125 -0.4375q0.921875 0 1.546875 0.640625q0.640625 0.640625 0.640625 1.625q0 0.953125 -0.5625 1.640625q-0.671875 0.859375 -1.828125 0.859375q-0.953125 0 -1.5625 -0.53125q-0.609375 -0.546875 -0.6875 -1.421875z" fill-rule="nonzero"/></g></svg>