<svg version="1.1" viewBox="0.0 0.0 960.0 720.0" fill="none" stroke="none" stroke-linecap="square" stroke-miterlimit="10" xmlns:xlink="http://www.w3.org/1999/xlink" xmlns="http://www.w3.org/2000/svg"><clipPath id="p.0"><path d="m0 0l960.0 0l0 720.0l-960.0 0l0 -720.0z" clip-rule="nonzero"/></clipPath><g clip-path="url(#p.0)"><path fill="#ffffff" d="m0 0l960.0 0l0 720.0l-960.0 0z" fill-rule="evenodd"/><path fill="#000000" fill-opacity="0.0" d="m253.62204 27.102354l452.7559 0l0 665.7953l-452.7559 0z" fill-rule="evenodd"/><path fill="#000000" d="m575.9599 548.10236l-34.375 0l-61.96875 -216.40625l-60.6875 216.40625l-34.375 0l-32.28125 -282.8125l-8.078125 0q-7.8125 0 -11.203125 -2.984375q-3.375 -3.0 -3.375 -7.953125q0 -4.9375 3.375 -7.9375q3.390625 -3.0 11.203125 -3.0l81.25 0q8.078125 0 11.453125 3.0q3.390625 3.0 3.390625 7.9375q0 4.953125 -3.390625 7.953125q-3.375 2.984375 -11.453125 2.984375l-51.046875 0l28.90625 257.8125l59.125 -212.23438l33.59375 0l60.671875 212.23438l28.390625 -257.8125l-51.3125 0q-7.8125 0 -11.203125 -2.984375q-3.375 -3.0 -3.375 -7.953125q0 -4.9375 3.375 -7.9375q3.390625 -3.0 11.203125 -3.0l80.734375 0q8.0625 0 11.453125 3.0q3.390625 3.0 3.390625 7.9375q0 4.953125 -3.390625 7.953125q-3.390625 2.984375 -11.453125 2.984375l-8.078125 0l-30.46875 282.8125z" fill-rule="nonzero"/><path fill="#000000" fill-opacity="0.0" d="m0.015748031 64.0l960.0 0l0 665.7953l-960.0 0z" fill-rule="evenodd"/><path fill="#000000" d="m479.74142 585.0q-8.53125 0 -14.671875 -6.125q-6.125 -6.140625 -6.125 -14.671875l0 -395.73438l41.609375 0l0 395.73438q0 8.53125 -5.875 14.671875q-5.859375 6.125 -14.9375 6.125zm-147.1875 -378.65625q-8.53125 0 -13.875 -5.328125q-5.328125 -5.34375 -5.328125 -13.34375q0 -8.53125 5.328125 -13.859375q5.34375 -5.34375 13.875 -5.34375l294.9219 0q8.53125 0 13.859375 5.34375q5.34375 5.328125 5.34375 13.859375q0 8.0 -5.34375 13.34375q-5.328125 5.328125 -13.859375 5.328125l-294.9219 0z" fill-rule="nonzero"/></g></svg>