<svg version="1.1" viewBox="0.0 0.0 960.0 540.0" fill="none" stroke="none" stroke-linecap="square" stroke-miterlimit="10" xmlns:xlink="http://www.w3.org/1999/xlink" xmlns="http://www.w3.org/2000/svg"><clipPath id="gdf3bbb0c3d_0_426.0"><path d="m0 0l960.0 0l0 540.0l-960.0 0l0 -540.0z" clip-rule="nonzero"/></clipPath><g clip-path="url(#gdf3bbb0c3d_0_426.0)"><path fill="#ffffff" d="m0 0l960.0 0l0 540.0l-960.0 0z" fill-rule="evenodd"/><path fill="#d9d9d9" d="m19.944881 240.35695l0 0c0 -11.932816 9.67347 -21.606293 21.6063 -21.606293l0 0c5.7303467 0 11.225994 2.2763672 15.277962 6.3283386c4.051964 4.0519714 6.3283386 9.547607 6.3283386 15.277954l0 0c0 11.932831 -9.673473 21.606308 -21.6063 21.606308l0 0c-11.932831 0 -21.6063 -9.673477 -21.6063 -21.606308z" fill-rule="evenodd"/><path stroke="#000000" stroke-width="3.0" stroke-linejoin="round" stroke-linecap="butt" d="m19.944881 240.35695l0 0c0 -11.932816 9.67347 -21.606293 21.6063 -21.606293l0 0c5.7303467 0 11.225994 2.2763672 15.277962 6.3283386c4.051964 4.0519714 6.3283386 9.547607 6.3283386 15.277954l0 0c0 11.932831 -9.673473 21.606308 -21.6063 21.606308l0 0c-11.932831 0 -21.6063 -9.673477 -21.6063 -21.606308z" fill-rule="evenodd"/><path fill="#d9d9d9" d="m63.157482 240.35695l0 0c0 -11.932816 9.673466 -21.606293 21.606297 -21.606293l0 0c5.7303467 0 11.225998 2.2763672 15.277962 6.3283386c4.051964 4.0519714 6.3283386 9.547607 6.3283386 15.277954l0 0c0 11.932831 -9.67347 21.606308 -21.6063 21.606308l0 0c-11.932831 0 -21.606297 -9.673477 -21.606297 -21.606308z" fill-rule="evenodd"/><path stroke="#000000" stroke-width="3.0" stroke-linejoin="round" stroke-linecap="butt" d="m63.157482 240.35695l0 0c0 -11.932816 9.673466 -21.606293 21.606297 -21.606293l0 0c5.7303467 0 11.225998 2.2763672 15.277962 6.3283386c4.051964 4.0519714 6.3283386 9.547607 6.3283386 15.277954l0 0c0 11.932831 -9.67347 21.606308 -21.6063 21.606308l0 0c-11.932831 0 -21.606297 -9.673477 -21.606297 -21.606308z" fill-rule="evenodd"/><path fill="#d9d9d9" d="m106.37008 240.35695l0 0c0 -11.932816 9.67347 -21.606293 21.6063 -21.606293l0 0c5.7303467 0 11.225998 2.2763672 15.277954 6.3283386c4.0519714 4.0519714 6.3283386 9.547607 6.3283386 15.277954l0 0c0 11.932831 -9.673462 21.606308 -21.606293 21.606308l0 0c-11.932831 0 -21.6063 -9.673477 -21.6063 -21.606308z" fill-rule="evenodd"/><path stroke="#000000" stroke-width="3.0" stroke-linejoin="round" stroke-linecap="butt" d="m106.37008 240.35695l0 0c0 -11.932816 9.67347 -21.606293 21.6063 -21.606293l0 0c5.7303467 0 11.225998 2.2763672 15.277954 6.3283386c4.0519714 4.0519714 6.3283386 9.547607 6.3283386 15.277954l0 0c0 11.932831 -9.673462 21.606308 -21.606293 21.606308l0 0c-11.932831 0 -21.6063 -9.673477 -21.6063 -21.606308z" fill-rule="evenodd"/><path fill="#d9d9d9" d="m151.00262 240.35695l0 0c0 -11.932816 9.673477 -21.606293 21.606293 -21.606293l0 0c5.7303467 0 11.225998 2.2763672 15.277969 6.3283386c4.0519714 4.0519714 6.3283386 9.547607 6.3283386 15.277954l0 0c0 11.932831 -9.673477 21.606308 -21.606308 21.606308l0 0c-11.932816 0 -21.606293 -9.673477 -21.606293 -21.606308z" fill-rule="evenodd"/><path stroke="#000000" stroke-width="3.0" stroke-linejoin="round" stroke-linecap="butt" d="m151.00262 240.35695l0 0c0 -11.932816 9.673477 -21.606293 21.606293 -21.606293l0 0c5.7303467 0 11.225998 2.2763672 15.277969 6.3283386c4.0519714 4.0519714 6.3283386 9.547607 6.3283386 15.277954l0 0c0 11.932831 -9.673477 21.606308 -21.606308 21.606308l0 0c-11.932816 0 -21.606293 -9.673477 -21.606293 -21.606308z" fill-rule="evenodd"/><path fill="#d9d9d9" d="m19.944881 284.31497l0 0c0 -11.932831 9.67347 -21.606323 21.6063 -21.606323l0 0c5.7303467 0 11.225994 2.2763977 15.277962 6.3283386c4.051964 4.0519714 6.3283386 9.547638 6.3283386 15.277985l0 0c0 11.932831 -9.673473 21.606293 -21.6063 21.606293l0 0c-11.932831 0 -21.6063 -9.673462 -21.6063 -21.606293z" fill-rule="evenodd"/><path stroke="#000000" stroke-width="3.0" stroke-linejoin="round" stroke-linecap="butt" d="m19.944881 284.31497l0 0c0 -11.932831 9.67347 -21.606323 21.6063 -21.606323l0 0c5.7303467 0 11.225994 2.2763977 15.277962 6.3283386c4.051964 4.0519714 6.3283386 9.547638 6.3283386 15.277985l0 0c0 11.932831 -9.673473 21.606293 -21.6063 21.606293l0 0c-11.932831 0 -21.6063 -9.673462 -21.6063 -21.606293z" fill-rule="evenodd"/><path fill="#d9d9d9" d="m63.157482 284.31497l0 0c0 -11.932831 9.673466 -21.606323 21.606297 -21.606323l0 0c5.7303467 0 11.225998 2.2763977 15.277962 6.3283386c4.051964 4.0519714 6.3283386 9.547638 6.3283386 15.277985l0 0c0 11.932831 -9.67347 21.606293 -21.6063 21.606293l0 0c-11.932831 0 -21.606297 -9.673462 -21.606297 -21.606293z" fill-rule="evenodd"/><path stroke="#000000" stroke-width="3.0" stroke-linejoin="round" stroke-linecap="butt" d="m63.157482 284.31497l0 0c0 -11.932831 9.673466 -21.606323 21.606297 -21.606323l0 0c5.7303467 0 11.225998 2.2763977 15.277962 6.3283386c4.051964 4.0519714 6.3283386 9.547638 6.3283386 15.277985l0 0c0 11.932831 -9.67347 21.606293 -21.6063 21.606293l0 0c-11.932831 0 -21.606297 -9.673462 -21.606297 -21.606293z" fill-rule="evenodd"/><path fill="#d9d9d9" d="m106.37008 284.31497l0 0c0 -11.932831 9.67347 -21.606323 21.6063 -21.606323l0 0c5.7303467 0 11.225998 2.2763977 15.277954 6.3283386c4.0519714 4.0519714 6.3283386 9.547638 6.3283386 15.277985l0 0c0 11.932831 -9.673462 21.606293 -21.606293 21.606293l0 0c-11.932831 0 -21.6063 -9.673462 -21.6063 -21.606293z" fill-rule="evenodd"/><path stroke="#000000" stroke-width="3.0" stroke-linejoin="round" stroke-linecap="butt" d="m106.37008 284.31497l0 0c0 -11.932831 9.67347 -21.606323 21.6063 -21.606323l0 0c5.7303467 0 11.225998 2.2763977 15.277954 6.3283386c4.0519714 4.0519714 6.3283386 9.547638 6.3283386 15.277985l0 0c0 11.932831 -9.673462 21.606293 -21.606293 21.606293l0 0c-11.932831 0 -21.6063 -9.673462 -21.6063 -21.606293z" fill-rule="evenodd"/><path fill="#d9d9d9" d="m151.00262 284.31497l0 0c0 -11.932831 9.673477 -21.606323 21.606293 -21.606323l0 0c5.7303467 0 11.225998 2.2763977 15.277969 6.3283386c4.0519714 4.0519714 6.3283386 9.547638 6.3283386 15.277985l0 0c0 11.932831 -9.673477 21.606293 -21.606308 21.606293l0 0c-11.932816 0 -21.606293 -9.673462 -21.606293 -21.606293z" fill-rule="evenodd"/><path stroke="#000000" stroke-width="3.0" stroke-linejoin="round" stroke-linecap="butt" d="m151.00262 284.31497l0 0c0 -11.932831 9.673477 -21.606323 21.606293 -21.606323l0 0c5.7303467 0 11.225998 2.2763977 15.277969 6.3283386c4.0519714 4.0519714 6.3283386 9.547638 6.3283386 15.277985l0 0c0 11.932831 -9.673477 21.606293 -21.606308 21.606293l0 0c-11.932816 0 -21.606293 -9.673462 -21.606293 -21.606293z" fill-rule="evenodd"/><path fill="#d9d9d9" d="m19.992126 328.27298l0 0c0 -11.932831 9.67347 -21.606323 21.6063 -21.606323l0 0c5.7303467 0 11.22599 2.2763672 15.277958 6.3283386c4.0519676 4.0519714 6.3283386 9.547638 6.3283386 15.277985l0 0c0 11.932831 -9.67347 21.606293 -21.606297 21.606293l0 0c-11.932831 0 -21.6063 -9.673462 -21.6063 -21.606293z" fill-rule="evenodd"/><path stroke="#000000" stroke-width="3.0" stroke-linejoin="round" stroke-linecap="butt" d="m19.992126 328.27298l0 0c0 -11.932831 9.67347 -21.606323 21.6063 -21.606323l0 0c5.7303467 0 11.22599 2.2763672 15.277958 6.3283386c4.0519676 4.0519714 6.3283386 9.547638 6.3283386 15.277985l0 0c0 11.932831 -9.67347 21.606293 -21.606297 21.606293l0 0c-11.932831 0 -21.6063 -9.673462 -21.6063 -21.606293z" fill-rule="evenodd"/><path fill="#d9d9d9" d="m63.157482 328.27298l0 0c0 -11.932831 9.673466 -21.606323 21.606297 -21.606323l0 0c5.7303467 0 11.225998 2.2763672 15.277962 6.3283386c4.051964 4.0519714 6.3283386 9.547638 6.3283386 15.277985l0 0c0 11.932831 -9.67347 21.606293 -21.6063 21.606293l0 0c-11.932831 0 -21.606297 -9.673462 -21.606297 -21.606293z" fill-rule="evenodd"/><path stroke="#000000" stroke-width="3.0" stroke-linejoin="round" stroke-linecap="butt" d="m63.157482 328.27298l0 0c0 -11.932831 9.673466 -21.606323 21.606297 -21.606323l0 0c5.7303467 0 11.225998 2.2763672 15.277962 6.3283386c4.051964 4.0519714 6.3283386 9.547638 6.3283386 15.277985l0 0c0 11.932831 -9.67347 21.606293 -21.6063 21.606293l0 0c-11.932831 0 -21.606297 -9.673462 -21.606297 -21.606293z" fill-rule="evenodd"/><path fill="#d9d9d9" d="m106.37008 326.75067l0 0c0 -11.932831 9.67347 -21.606323 21.6063 -21.606323l0 0c5.7303467 0 11.225998 2.2763672 15.277954 6.3283386c4.0519714 4.0519714 6.3283386 9.547607 6.3283386 15.277985l0 0c0 11.9328 -9.673462 21.606293 -21.606293 21.606293l0 0c-11.932831 0 -21.6063 -9.673492 -21.6063 -21.606293z" fill-rule="evenodd"/><path stroke="#000000" stroke-width="3.0" stroke-linejoin="round" stroke-linecap="butt" d="m106.37008 326.75067l0 0c0 -11.932831 9.67347 -21.606323 21.6063 -21.606323l0 0c5.7303467 0 11.225998 2.2763672 15.277954 6.3283386c4.0519714 4.0519714 6.3283386 9.547607 6.3283386 15.277985l0 0c0 11.9328 -9.673462 21.606293 -21.606293 21.606293l0 0c-11.932831 0 -21.6063 -9.673492 -21.6063 -21.606293z" fill-rule="evenodd"/><path fill="#d9d9d9" d="m151.00262 326.75067l0 0c0 -11.932831 9.673477 -21.606323 21.606293 -21.606323l0 0c5.7303467 0 11.225998 2.2763672 15.277969 6.3283386c4.0519714 4.0519714 6.3283386 9.547607 6.3283386 15.277985l0 0c0 11.9328 -9.673477 21.606293 -21.606308 21.606293l0 0c-11.932816 0 -21.606293 -9.673492 -21.606293 -21.606293z" fill-rule="evenodd"/><path stroke="#000000" stroke-width="3.0" stroke-linejoin="round" stroke-linecap="butt" d="m151.00262 326.75067l0 0c0 -11.932831 9.673477 -21.606323 21.606293 -21.606323l0 0c5.7303467 0 11.225998 2.2763672 15.277969 6.3283386c4.0519714 4.0519714 6.3283386 9.547607 6.3283386 15.277985l0 0c0 11.9328 -9.673477 21.606293 -21.606308 21.606293l0 0c-11.932816 0 -21.606293 -9.673492 -21.606293 -21.606293z" fill-rule="evenodd"/><path fill="#6fa8dc" d="m878.6693 285.4908l0 0c0 -13.254822 10.745117 -24.0 24.0 -24.0l0 0c6.3651733 0 12.469666 2.5285645 16.97052 7.0294495c4.5009155 4.5008545 7.02948 10.605347 7.02948 16.97055l0 0c0 13.254822 -10.745178 24.0 -24.0 24.0l0 0c-13.254883 0 -24.0 -10.745178 -24.0 -24.0z" fill-rule="evenodd"/><path stroke="#595959" stroke-width="1.0" stroke-linejoin="round" stroke-linecap="butt" d="m878.6693 285.4908l0 0c0 -13.254822 10.745117 -24.0 24.0 -24.0l0 0c6.3651733 0 12.469666 2.5285645 16.97052 7.0294495c4.5009155 4.5008545 7.02948 10.605347 7.02948 16.97055l0 0c0 13.254822 -10.745178 24.0 -24.0 24.0l0 0c-13.254883 0 -24.0 -10.745178 -24.0 -24.0z" fill-rule="evenodd"/><g filter="url(#shadowFilter-gdf3bbb0c3d_0_426.1)"><use xlink:href="#gdf3bbb0c3d_0_426.1" transform="matrix(1.0 0.0 0.0 1.0 0.0 2.0)"/></g><defs><filter id="shadowFilter-gdf3bbb0c3d_0_426.1" filterUnits="userSpaceOnUse"><feGaussianBlur in="SourceAlpha" stdDeviation="2.0" result="blur"/><feComponentTransfer in="blur" color-interpolation-filters="sRGB"><feFuncR type="linear" slope="0" intercept="0.0"/><feFuncG type="linear" slope="0" intercept="0.0"/><feFuncB type="linear" slope="0" intercept="0.0"/><feFuncA type="linear" slope="0.5" intercept="0"/></feComponentTransfer></filter></defs><g id="gdf3bbb0c3d_0_426.1"><path fill="#000000" fill-opacity="0.0" d="m238.84776 285.0761l144.37794 0" fill-rule="evenodd"/><path stroke="#595959" stroke-width="8.0" stroke-linejoin="round" stroke-linecap="butt" d="m238.84776 285.0761l96.377945 0" fill-rule="evenodd"/><path fill="#595959" stroke="#595959" stroke-width="8.0" stroke-linecap="butt" d="m335.22574 298.28998l36.30478 -13.213867l-36.30478 -13.213867z" fill-rule="evenodd"/></g><path fill="#000000" fill-opacity="0.0" d="m74.49606 131.89502l106.96063 0l0 42.015747l-106.96063 0z" fill-rule="evenodd"/><path fill="#000000" d="m95.50459 158.81502l0 -13.359375l1.765625 0l0 13.359375l-1.765625 0zm4.870804 0l0 -13.359375l1.8125 0l7.015625 10.484375l0 -10.484375l1.6875 0l0 13.359375l-1.8125 0l-7.015625 -10.5l0 10.5l-1.6875 0zm13.488571 0l0 -13.359375l5.046875 0q1.328125 0 2.03125 0.125q0.96875 0.171875 1.640625 0.640625q0.671875 0.453125 1.078125 1.28125q0.40625 0.828125 0.40625 1.828125q0 1.703125 -1.09375 2.890625q-1.078125 1.171875 -3.921875 1.171875l-3.421875 0l0 5.421875l-1.765625 0zm1.765625 -7.0l3.453125 0q1.71875 0 2.4375 -0.640625q0.71875 -0.640625 0.71875 -1.796875q0 -0.84375 -0.421875 -1.4375q-0.421875 -0.59375 -1.125 -0.78125q-0.4375 -0.125 -1.640625 -0.125l-3.421875 0l0 4.78125zm19.443573 -6.359375l1.765625 0l0 7.71875q0 2.015625 -0.453125 3.203125q-0.453125 1.1875 -1.640625 1.9375q-1.1875 0.734375 -3.125 0.734375q-1.875 0 -3.078125 -0.640625q-1.1875 -0.65625 -1.703125 -1.875q-0.5 -1.234375 -0.5 -3.359375l0 -7.71875l1.765625 0l0 7.71875q0 1.734375 0.3125 2.5625q0.328125 0.8125 1.109375 1.265625q0.796875 0.453125 1.9375 0.453125q1.953125 0 2.78125 -0.890625q0.828125 -0.890625 0.828125 -3.390625l0 -7.71875zm8.113571 13.359375l0 -11.78125l-4.40625 0l0 -1.578125l10.578125 0l0 1.578125l-4.40625 0l0 11.78125l-1.765625 0zm7.395981 -4.296875l1.65625 -0.140625q0.125 1.0 0.546875 1.640625q0.4375 0.640625 1.34375 1.046875q0.921875 0.390625 2.0625 0.390625q1.0 0 1.78125 -0.296875q0.78125 -0.296875 1.15625 -0.8125q0.375 -0.53125 0.375 -1.15625q0 -0.625 -0.375 -1.09375q-0.359375 -0.46875 -1.1875 -0.796875q-0.546875 -0.203125 -2.390625 -0.640625q-1.828125 -0.453125 -2.5625 -0.84375q-0.96875 -0.5 -1.4375 -1.234375q-0.46875 -0.75 -0.46875 -1.671875q0 -1.0 0.578125 -1.875q0.578125 -0.890625 1.671875 -1.34375q1.109375 -0.453125 2.453125 -0.453125q1.484375 0 2.609375 0.484375q1.140625 0.46875 1.75 1.40625q0.609375 0.921875 0.65625 2.09375l-1.6875 0.125q-0.140625 -1.265625 -0.9375 -1.90625q-0.78125 -0.65625 -2.3125 -0.65625q-1.609375 0 -2.34375 0.59375q-0.734375 0.59375 -0.734375 1.421875q0 0.71875 0.53125 1.171875q0.5 0.46875 2.65625 0.96875q2.15625 0.484375 2.953125 0.84375q1.171875 0.53125 1.71875 1.359375q0.5625 0.828125 0.5625 1.90625q0 1.0625 -0.609375 2.015625q-0.609375 0.9375 -1.75 1.46875q-1.140625 0.515625 -2.578125 0.515625q-1.8125 0 -3.046875 -0.53125q-1.21875 -0.53125 -1.921875 -1.59375q-0.6875 -1.0625 -0.71875 -2.40625z" fill-rule="nonzero"/><path fill="#000000" fill-opacity="0.0" d="m344.86484 52.32021l183.68503 0l0 64.62993l-183.68503 0z" fill-rule="evenodd"/><path fill="#000000" d="m367.85413 74.55271l1.765625 0.453125q-0.5625 2.171875 -2.0 3.328125q-1.4375 1.140625 -3.53125 1.140625q-2.15625 0 -3.515625 -0.875q-1.34375 -0.890625 -2.0625 -2.546875q-0.703125 -1.671875 -0.703125 -3.59375q0 -2.078125 0.796875 -3.625q0.796875 -1.5625 2.265625 -2.359375q1.484375 -0.8125 3.25 -0.8125q2.0 0 3.359375 1.015625q1.375 1.015625 1.90625 2.875l-1.734375 0.40625q-0.46875 -1.453125 -1.359375 -2.109375q-0.875 -0.671875 -2.203125 -0.671875q-1.546875 0 -2.578125 0.734375q-1.03125 0.734375 -1.453125 1.984375q-0.421875 1.234375 -0.421875 2.5625q0 1.703125 0.5 2.96875q0.5 1.265625 1.546875 1.90625q1.046875 0.625 2.265625 0.625q1.484375 0 2.515625 -0.859375q1.03125 -0.859375 1.390625 -2.546875zm3.4104614 -1.8125q0 -3.328125 1.78125 -5.203125q1.78125 -1.890625 4.609375 -1.890625q1.84375 0 3.328125 0.890625q1.484375 0.875 2.265625 2.46875q0.78125 1.578125 0.78125 3.578125q0 2.03125 -0.828125 3.640625q-0.8125 1.59375 -2.3125 2.421875q-1.5 0.828125 -3.25 0.828125q-1.875 0 -3.359375 -0.90625q-1.484375 -0.921875 -2.25 -2.5q-0.765625 -1.578125 -0.765625 -3.328125zm1.8125 0.015625q0 2.421875 1.296875 3.8125q1.296875 1.390625 3.265625 1.390625q2.0 0 3.28125 -1.40625q1.28125 -1.40625 1.28125 -3.984375q0 -1.625 -0.546875 -2.84375q-0.546875 -1.21875 -1.609375 -1.875q-1.0625 -0.671875 -2.375 -0.671875q-1.890625 0 -3.25 1.296875q-1.34375 1.28125 -1.34375 4.28125zm13.214539 6.484375l0 -13.359375l1.8125 0l7.015625 10.484375l0 -10.484375l1.6875 0l0 13.359375l-1.8125 0l-7.015625 -10.5l0 10.5l-1.6875 0zm17.301086 0l-5.171875 -13.359375l1.921875 0l3.46875 9.703125q0.421875 1.171875 0.703125 2.1875q0.3125 -1.09375 0.71875 -2.1875l3.609375 -9.703125l1.796875 0l-5.234375 13.359375l-1.8125 0zm8.099823 -6.5q0 -3.328125 1.78125 -5.203125q1.78125 -1.890625 4.609375 -1.890625q1.84375 0 3.328125 0.890625q1.484375 0.875 2.265625 2.46875q0.78125 1.578125 0.78125 3.578125q0 2.03125 -0.828125 3.640625q-0.8125 1.59375 -2.3125 2.421875q-1.5 0.828125 -3.25 0.828125q-1.875 0 -3.359375 -0.90625q-1.484375 -0.921875 -2.25 -2.5q-0.765625 -1.578125 -0.765625 -3.328125zm1.8125 0.015625q0 2.421875 1.296875 3.8125q1.296875 1.390625 3.265625 1.390625q2.0 0 3.28125 -1.40625q1.28125 -1.40625 1.28125 -3.984375q0 -1.625 -0.546875 -2.84375q-0.546875 -1.21875 -1.609375 -1.875q-1.0625 -0.671875 -2.375 -0.671875q-1.890625 0 -3.25 1.296875q-1.34375 1.28125 -1.34375 4.28125zm13.152039 6.484375l0 -13.359375l1.78125 0l0 11.78125l6.5625 0l0 1.578125l-8.34375 0zm19.219482 -13.359375l1.765625 0l0 7.71875q0 2.015625 -0.453125 3.203125q-0.453125 1.1875 -1.640625 1.9375q-1.1875 0.734375 -3.125 0.734375q-1.875 0 -3.078125 -0.640625q-1.1875 -0.65625 -1.703125 -1.875q-0.5 -1.234375 -0.5 -3.359375l0 -7.71875l1.765625 0l0 7.71875q0 1.734375 0.3125 2.5625q0.328125 0.8125 1.109375 1.265625q0.796875 0.453125 1.9375 0.453125q1.953125 0 2.78125 -0.890625q0.828125 -0.890625 0.828125 -3.390625l0 -7.71875zm8.113556 13.359375l0 -11.78125l-4.40625 0l0 -1.578125l10.578125 0l0 1.578125l-4.40625 0l0 11.78125l-1.765625 0zm8.286621 0l0 -13.359375l1.765625 0l0 13.359375l-1.765625 0zm4.3551636 -6.5q0 -3.328125 1.78125 -5.203125q1.78125 -1.890625 4.609375 -1.890625q1.84375 0 3.328125 0.890625q1.484375 0.875 2.265625 2.46875q0.78125 1.578125 0.78125 3.578125q0 2.03125 -0.828125 3.640625q-0.8125 1.59375 -2.3125 2.421875q-1.5 0.828125 -3.25 0.828125q-1.875 0 -3.359375 -0.90625q-1.484375 -0.921875 -2.25 -2.5q-0.765625 -1.578125 -0.765625 -3.328125zm1.8125 0.015625q0 2.421875 1.296875 3.8125q1.296875 1.390625 3.265625 1.390625q2.0 0 3.28125 -1.40625q1.28125 -1.40625 1.28125 -3.984375q0 -1.625 -0.546875 -2.84375q-0.546875 -1.21875 -1.609375 -1.875q-1.0625 -0.671875 -2.375 -0.671875q-1.890625 0 -3.25 1.296875q-1.34375 1.28125 -1.34375 4.28125zm13.214569 6.484375l0 -13.359375l1.8125 0l7.015625 10.484375l0 -10.484375l1.6875 0l0 13.359375l-1.8125 0l-7.015625 -10.5l0 10.5l-1.6875 0zm12.019806 0l5.125 -13.359375l1.90625 0l5.46875 13.359375l-2.015625 0l-1.546875 -4.046875l-5.59375 0l-1.46875 4.046875l-1.875 0zm3.859375 -5.484375l4.53125 0l-1.40625 -3.703125q-0.625 -1.6875 -0.9375 -2.765625q-0.265625 1.28125 -0.71875 2.546875l-1.46875 3.921875zm9.974823 5.484375l0 -13.359375l1.78125 0l0 11.78125l6.5625305 0l0 1.578125l-8.3437805 0z" fill-rule="nonzero"/><path fill="#000000" d="m401.94797 101.640205l0 -13.359375l1.78125 0l0 11.78125l6.5625 0l0 1.578125l-8.34375 0zm8.985077 0l5.125 -13.359375l1.90625 0l5.46875 13.359375l-2.015625 0l-1.546875 -4.046875l-5.59375 0l-1.46875 4.046875l-1.875 0zm3.859375 -5.484375l4.53125 0l-1.40625 -3.703125q-0.625 -1.6875 -0.9375 -2.765625q-0.265625 1.28125 -0.71875 2.546875l-1.46875 3.921875zm12.4331665 5.484375l0 -5.65625l-5.15625 -7.703125l2.15625 0l2.640625 4.03125q0.71875 1.125 1.34375 2.265625q0.609375 -1.046875 1.46875 -2.359375l2.578125 -3.9375l2.0625 0l-5.328125 7.703125l0 5.65625l-1.765625 0zm8.709198 0l0 -13.359375l9.65625 0l0 1.578125l-7.875 0l0 4.09375l7.375 0l0 1.5625l-7.375 0l0 4.546875l8.1875 0l0 1.578125l-9.96875 0zm12.443573 0l0 -13.359375l5.921875 0q1.78125 0 2.703125 0.359375q0.9375 0.359375 1.484375 1.28125q0.5625 0.90625 0.5625 2.015625q0 1.40625 -0.921875 2.390625q-0.921875 0.96875 -2.84375 1.234375q0.703125 0.34375 1.078125 0.671875q0.765625 0.703125 1.453125 1.765625l2.328125 3.640625l-2.21875 0l-1.765625 -2.78125q-0.78125 -1.203125 -1.28125 -1.828125q-0.5 -0.640625 -0.90625 -0.890625q-0.390625 -0.265625 -0.796875 -0.359375q-0.296875 -0.078125 -0.984375 -0.078125l-2.046875 0l0 5.9375l-1.765625 0zm1.765625 -7.453125l3.796875 0q1.21875 0 1.890625 -0.25q0.6875 -0.265625 1.046875 -0.8125q0.359375 -0.546875 0.359375 -1.1875q0 -0.953125 -0.6875 -1.5625q-0.6875 -0.609375 -2.1875 -0.609375l-4.21875 0l0 4.421875zm11.082306 3.15625l1.65625 -0.140625q0.125 1.0 0.546875 1.640625q0.4375 0.640625 1.34375 1.046875q0.921875 0.390625 2.0625 0.390625q1.0 0 1.78125 -0.296875q0.78125 -0.296875 1.15625 -0.8125q0.375 -0.53125 0.375 -1.15625q0 -0.625 -0.375 -1.09375q-0.359375 -0.46875 -1.1875 -0.796875q-0.546875 -0.203125 -2.390625 -0.640625q-1.828125 -0.453125 -2.5625 -0.84375q-0.96875 -0.5 -1.4375 -1.234375q-0.46875 -0.75 -0.46875 -1.671875q0 -1.0 0.578125 -1.875q0.578125 -0.890625 1.671875 -1.34375q1.109375 -0.453125 2.453125 -0.453125q1.484375 0 2.609375 0.484375q1.140625 0.46875 1.75 1.40625q0.609375 0.921875 0.65625 2.09375l-1.6875 0.125q-0.140625 -1.265625 -0.9375 -1.90625q-0.78125 -0.65625 -2.3125 -0.65625q-1.609375 0 -2.34375 0.59375q-0.734375 0.59375 -0.734375 1.421875q0 0.71875 0.53125 1.171875q0.5 0.46875 2.65625 0.96875q2.15625 0.484375 2.953125 0.84375q1.171875 0.53125 1.71875 1.359375q0.5625 0.828125 0.5625 1.90625q0 1.0625 -0.609375 2.015625q-0.609375 0.9375 -1.75 1.46875q-1.140625 0.515625 -2.578125 0.515625q-1.8125 0 -3.046875 -0.53125q-1.21875 -0.53125 -1.921875 -1.59375q-0.6875 -1.0625 -0.71875 -2.40625z" fill-rule="nonzero"/><path fill="#000000" fill-opacity="0.0" d="m854.6693 220.52493l91.84253 0l0 42.015747l-91.84253 0z" fill-rule="evenodd"/><path fill="#000000" d="m863.1504 240.94493q0 -3.328125 1.78125 -5.203125q1.78125 -1.890625 4.609375 -1.890625q1.84375 0 3.328125 0.890625q1.484375 0.875 2.265625 2.46875q0.78125 1.578125 0.78125 3.578125q0 2.03125 -0.828125 3.640625q-0.8125 1.59375 -2.3125 2.421875q-1.5 0.828125 -3.25 0.828125q-1.875 0 -3.359375 -0.90625q-1.484375 -0.921875 -2.25 -2.5q-0.765625 -1.578125 -0.765625 -3.328125zm1.8125 0.015625q0 2.421875 1.296875 3.8125q1.296875 1.390625 3.265625 1.390625q2.0 0 3.28125 -1.40625q1.28125 -1.40625 1.28125 -3.984375q0 -1.625 -0.546875 -2.84375q-0.546875 -1.21875 -1.609375 -1.875q-1.0625 -0.671875 -2.375 -0.671875q-1.890625 0 -3.25 1.296875q-1.34375 1.28125 -1.34375 4.28125zm21.995789 -6.875l1.765625 0l0 7.71875q0 2.015625 -0.453125 3.203125q-0.453125 1.1875 -1.640625 1.9375q-1.1875 0.734375 -3.125 0.734375q-1.875 0 -3.078125 -0.640625q-1.1875 -0.65625 -1.703125 -1.875q-0.5 -1.234375 -0.5 -3.359375l0 -7.71875l1.765625 0l0 7.71875q0 1.734375 0.3125 2.5625q0.328125 0.8125 1.109375 1.265625q0.796875 0.453125 1.9375 0.453125q1.953125 0 2.78125 -0.890625q0.828125 -0.890625 0.828125 -3.390625l0 -7.71875zm8.113586 13.359375l0 -11.78125l-4.40625 0l0 -1.578125l10.578125 0l0 1.578125l-4.40625 0l0 11.78125l-1.765625 0zm7.989685 0l0 -13.359375l5.046875 0q1.328125 0 2.03125 0.125q0.96875 0.171875 1.640625 0.640625q0.671875 0.453125 1.078125 1.28125q0.40625 0.828125 0.40625 1.828125q0 1.703125 -1.09375 2.890625q-1.078125 1.171875 -3.921875 1.171875l-3.421875 0l0 5.421875l-1.765625 0zm1.765625 -7.0l3.453125 0q1.71875 0 2.4375 -0.640625q0.71875 -0.640625 0.71875 -1.796875q0 -0.84375 -0.421875 -1.4375q-0.421875 -0.59375 -1.125 -0.78125q-0.4375 -0.125 -1.640625 -0.125l-3.421875 0l0 4.78125zm19.443604 -6.359375l1.765625 0l0 7.71875q0 2.015625 -0.453125 3.203125q-0.453125 1.1875 -1.640625 1.9375q-1.1875 0.734375 -3.125 0.734375q-1.875 0 -3.078125 -0.640625q-1.1875 -0.65625 -1.703125 -1.875q-0.5 -1.234375 -0.5 -3.359375l0 -7.71875l1.765625 0l0 7.71875q0 1.734375 0.3125 2.5625q0.328125 0.8125 1.109375 1.265625q0.796875 0.453125 1.9375 0.453125q1.953125 0 2.78125 -0.890625q0.828125 -0.890625 0.828125 -3.390625l0 -7.71875zm8.113586 13.359375l0 -11.78125l-4.40625 0l0 -1.578125l10.578125 0l0 1.578125l-4.40625 0l0 11.78125l-1.765625 0z" fill-rule="nonzero"/><path fill="#d9d9d9" d="m19.992126 372.29922l0 0c0 -11.932831 9.67347 -21.606323 21.6063 -21.606323l0 0c5.7303467 0 11.22599 2.2763977 15.277958 6.3283386c4.0519676 4.0519714 6.3283386 9.547638 6.3283386 15.277985l0 0c0 11.932831 -9.67347 21.606293 -21.606297 21.606293l0 0c-11.932831 0 -21.6063 -9.673462 -21.6063 -21.606293z" fill-rule="evenodd"/><path stroke="#000000" stroke-width="3.0" stroke-linejoin="round" stroke-linecap="butt" d="m19.992126 372.29922l0 0c0 -11.932831 9.67347 -21.606323 21.6063 -21.606323l0 0c5.7303467 0 11.22599 2.2763977 15.277958 6.3283386c4.0519676 4.0519714 6.3283386 9.547638 6.3283386 15.277985l0 0c0 11.932831 -9.67347 21.606293 -21.606297 21.606293l0 0c-11.932831 0 -21.6063 -9.673462 -21.6063 -21.606293z" fill-rule="evenodd"/><path fill="#d9d9d9" d="m63.157482 372.29922l0 0c0 -11.932831 9.673466 -21.606323 21.606297 -21.606323l0 0c5.7303467 0 11.225998 2.2763977 15.277962 6.3283386c4.051964 4.0519714 6.3283386 9.547638 6.3283386 15.277985l0 0c0 11.932831 -9.67347 21.606293 -21.6063 21.606293l0 0c-11.932831 0 -21.606297 -9.673462 -21.606297 -21.606293z" fill-rule="evenodd"/><path stroke="#000000" stroke-width="3.0" stroke-linejoin="round" stroke-linecap="butt" d="m63.157482 372.29922l0 0c0 -11.932831 9.673466 -21.606323 21.606297 -21.606323l0 0c5.7303467 0 11.225998 2.2763977 15.277962 6.3283386c4.051964 4.0519714 6.3283386 9.547638 6.3283386 15.277985l0 0c0 11.932831 -9.67347 21.606293 -21.6063 21.606293l0 0c-11.932831 0 -21.606297 -9.673462 -21.606297 -21.606293z" fill-rule="evenodd"/><path fill="#d9d9d9" d="m106.37008 370.77692l0 0c0 -11.932831 9.67347 -21.606323 21.6063 -21.606323l0 0c5.7303467 0 11.225998 2.2763672 15.277954 6.3283386c4.0519714 4.0519714 6.3283386 9.547638 6.3283386 15.277985l0 0c0 11.932831 -9.673462 21.606293 -21.606293 21.606293l0 0c-11.932831 0 -21.6063 -9.673462 -21.6063 -21.606293z" fill-rule="evenodd"/><path stroke="#000000" stroke-width="3.0" stroke-linejoin="round" stroke-linecap="butt" d="m106.37008 370.77692l0 0c0 -11.932831 9.67347 -21.606323 21.6063 -21.606323l0 0c5.7303467 0 11.225998 2.2763672 15.277954 6.3283386c4.0519714 4.0519714 6.3283386 9.547638 6.3283386 15.277985l0 0c0 11.932831 -9.673462 21.606293 -21.606293 21.606293l0 0c-11.932831 0 -21.6063 -9.673462 -21.6063 -21.606293z" fill-rule="evenodd"/><path fill="#d9d9d9" d="m151.00262 370.77692l0 0c0 -11.932831 9.673477 -21.606323 21.606293 -21.606323l0 0c5.7303467 0 11.225998 2.2763672 15.277969 6.3283386c4.0519714 4.0519714 6.3283386 9.547638 6.3283386 15.277985l0 0c0 11.932831 -9.673477 21.606293 -21.606308 21.606293l0 0c-11.932816 0 -21.606293 -9.673462 -21.606293 -21.606293z" fill-rule="evenodd"/><path stroke="#000000" stroke-width="3.0" stroke-linejoin="round" stroke-linecap="butt" d="m151.00262 370.77692l0 0c0 -11.932831 9.673477 -21.606323 21.606293 -21.606323l0 0c5.7303467 0 11.225998 2.2763672 15.277969 6.3283386c4.0519714 4.0519714 6.3283386 9.547638 6.3283386 15.277985l0 0c0 11.932831 -9.673477 21.606293 -21.606308 21.606293l0 0c-11.932816 0 -21.606293 -9.673462 -21.606293 -21.606293z" fill-rule="evenodd"/><path fill="#000000" fill-opacity="0.0" d="m589.31757 126.973755l183.68506 0l0 64.62991l-183.68506 0z" fill-rule="evenodd"/><path fill="#000000" d="m640.0927 153.89375l0 -13.359375l5.046875 0q1.328125 0 2.03125 0.125q0.96875 0.171875 1.640625 0.640625q0.671875 0.453125 1.078125 1.28125q0.40625 0.828125 0.40625 1.828125q0 1.703125 -1.09375 2.890625q-1.078125 1.171875 -3.921875 1.171875l-3.421875 0l0 5.421875l-1.765625 0zm1.765625 -7.0l3.453125 0q1.71875 0 2.4375 -0.640625q0.71875 -0.640625 0.71875 -1.796875q0 -0.84375 -0.421875 -1.4375q-0.421875 -0.59375 -1.125 -0.78125q-0.4375 -0.125 -1.640625 -0.125l-3.421875 0l0 4.78125zm10.1466675 0.5q0 -3.328125 1.78125 -5.203125q1.78125 -1.890625 4.609375 -1.890625q1.84375 0 3.328125 0.890625q1.484375 0.875 2.265625 2.46875q0.78125 1.578125 0.78125 3.578125q0 2.03125 -0.828125 3.640625q-0.8125 1.59375 -2.3125 2.421875q-1.5 0.828125 -3.25 0.828125q-1.875 0 -3.359375 -0.90625q-1.484375 -0.921875 -2.25 -2.5q-0.765625 -1.578125 -0.765625 -3.328125zm1.8125 0.015625q0 2.421875 1.296875 3.8125q1.296875 1.390625 3.265625 1.390625q2.0 0 3.28125 -1.40625q1.28125 -1.40625 1.28125 -3.984375q0 -1.625 -0.546875 -2.84375q-0.546875 -1.21875 -1.609375 -1.875q-1.0625 -0.671875 -2.375 -0.671875q-1.890625 0 -3.25 1.296875q-1.34375 1.28125 -1.34375 4.28125zm12.698914 -0.015625q0 -3.328125 1.78125 -5.203125q1.78125 -1.890625 4.609375 -1.890625q1.84375 0 3.328125 0.890625q1.484375 0.875 2.265625 2.46875q0.78125 1.578125 0.78125 3.578125q0 2.03125 -0.828125 3.640625q-0.8125 1.59375 -2.3125 2.421875q-1.5 0.828125 -3.25 0.828125q-1.875 0 -3.359375 -0.90625q-1.484375 -0.921875 -2.25 -2.5q-0.765625 -1.578125 -0.765625 -3.328125zm1.8125 0.015625q0 2.421875 1.296875 3.8125q1.296875 1.390625 3.265625 1.390625q2.0 0 3.28125 -1.40625q1.28125 -1.40625 1.28125 -3.984375q0 -1.625 -0.546875 -2.84375q-0.546875 -1.21875 -1.609375 -1.875q-1.0625 -0.671875 -2.375 -0.671875q-1.890625 0 -3.25 1.296875q-1.34375 1.28125 -1.34375 4.28125zm13.1521 6.484375l0 -13.359375l1.78125 0l0 11.78125l6.5625 0l0 1.578125l-8.34375 0zm10.750671 0l0 -13.359375l1.765625 0l0 13.359375l-1.765625 0zm4.8708496 0l0 -13.359375l1.8125 0l7.015625 10.484375l0 -10.484375l1.6875 0l0 13.359375l-1.8125 0l-7.015625 -10.5l0 10.5l-1.6875 0zm19.738525 -5.234375l0 -1.578125l5.65625 0l0 4.953125q-1.296875 1.046875 -2.6875 1.578125q-1.375 0.515625 -2.84375 0.515625q-1.96875 0 -3.578125 -0.84375q-1.609375 -0.84375 -2.421875 -2.4375q-0.8125 -1.59375 -0.8125 -3.5625q0 -1.953125 0.8125 -3.640625q0.8125 -1.6875 2.34375 -2.5q1.53125 -0.828125 3.515625 -0.828125q1.453125 0 2.625 0.46875q1.171875 0.46875 1.828125 1.3125q0.671875 0.828125 1.015625 2.171875l-1.59375 0.4375q-0.296875 -1.015625 -0.75 -1.59375q-0.4375 -0.59375 -1.265625 -0.9375q-0.828125 -0.34375 -1.84375 -0.34375q-1.203125 0 -2.09375 0.375q-0.890625 0.359375 -1.4375 0.96875q-0.53125 0.59375 -0.828125 1.3125q-0.515625 1.234375 -0.515625 2.6875q0 1.78125 0.609375 2.984375q0.625 1.203125 1.796875 1.796875q1.171875 0.578125 2.5 0.578125q1.140625 0 2.234375 -0.4375q1.09375 -0.453125 1.65625 -0.953125l0 -2.484375l-3.921875 0z" fill-rule="nonzero"/><path fill="#000000" d="m652.6225 176.29375l0 -13.359375l1.78125 0l0 11.78125l6.5625 0l0 1.578125l-8.34375 0zm8.985107 0l5.125 -13.359375l1.90625 0l5.46875 13.359375l-2.015625 0l-1.546875 -4.046875l-5.59375 0l-1.46875 4.046875l-1.875 0zm3.859375 -5.484375l4.53125 0l-1.40625 -3.703125q-0.625 -1.6875 -0.9375 -2.765625q-0.265625 1.28125 -0.71875 2.546875l-1.46875 3.921875zm12.4331665 5.484375l0 -5.65625l-5.15625 -7.703125l2.15625 0l2.640625 4.03125q0.71875 1.125 1.34375 2.265625q0.609375 -1.046875 1.46875 -2.359375l2.578125 -3.9375l2.0625 0l-5.328125 7.703125l0 5.65625l-1.765625 0zm8.7091675 0l0 -13.359375l9.65625 0l0 1.578125l-7.875 0l0 4.09375l7.375 0l0 1.5625l-7.375 0l0 4.546875l8.1875 0l0 1.578125l-9.96875 0zm12.4436035 0l0 -13.359375l5.921875 0q1.78125 0 2.703125 0.359375q0.9375 0.359375 1.484375 1.28125q0.5625 0.90625 0.5625 2.015625q0 1.40625 -0.921875 2.390625q-0.921875 0.96875 -2.84375 1.234375q0.703125 0.34375 1.078125 0.671875q0.765625 0.703125 1.453125 1.765625l2.328125 3.640625l-2.21875 0l-1.765625 -2.78125q-0.78125 -1.203125 -1.28125 -1.828125q-0.5 -0.640625 -0.90625 -0.890625q-0.390625 -0.265625 -0.796875 -0.359375q-0.296875 -0.078125 -0.984375 -0.078125l-2.046875 0l0 5.9375l-1.765625 0zm1.765625 -7.453125l3.796875 0q1.21875 0 1.890625 -0.25q0.6875 -0.265625 1.046875 -0.8125q0.359375 -0.546875 0.359375 -1.1875q0 -0.953125 -0.6875 -1.5625q-0.6875 -0.609375 -2.1875 -0.609375l-4.21875 0l0 4.421875z" fill-rule="nonzero"/><path fill="#eeeeee" d="m383.22833 112.76378l106.96063 0l0 111.71654l-106.96063 0z" fill-rule="evenodd"/><path stroke="#d5a6bd" stroke-width="1.0" stroke-linejoin="round" stroke-linecap="butt" d="m383.22833 112.76378l106.96063 0l0 111.71654l-106.96063 0z" fill-rule="evenodd"/><path fill="#d9d9d9" d="m412.8399 156.63518l0 0c0 -6.627426 5.3725586 -12.0 12.0 -12.0l0 0c3.1825867 0 6.234833 1.2642822 8.48526 3.5147095c2.2504578 2.2504425 3.51474 5.3026886 3.51474 8.485291l0 0c0 6.627411 -5.372589 12.0 -12.0 12.0l0 0c-6.6274414 0 -12.0 -5.372589 -12.0 -12.0z" fill-rule="evenodd"/><path stroke="#d5a6bd" stroke-width="3.0" stroke-linejoin="round" stroke-linecap="butt" d="m412.8399 156.63518l0 0c0 -6.627426 5.3725586 -12.0 12.0 -12.0l0 0c3.1825867 0 6.234833 1.2642822 8.48526 3.5147095c2.2504578 2.2504425 3.51474 5.3026886 3.51474 8.485291l0 0c0 6.627411 -5.372589 12.0 -12.0 12.0l0 0c-6.6274414 0 -12.0 -5.372589 -12.0 -12.0z" fill-rule="evenodd"/><path fill="#d9d9d9" d="m412.8399 182.47769l0 0c0 -6.627411 5.3725586 -12.0 12.0 -12.0l0 0c3.1825867 0 6.234833 1.2642822 8.48526 3.5147247c2.2504578 2.2504272 3.51474 5.3026733 3.51474 8.485275l0 0c0 6.627411 -5.372589 12.0 -12.0 12.0l0 0c-6.6274414 0 -12.0 -5.372589 -12.0 -12.0z" fill-rule="evenodd"/><path stroke="#d5a6bd" stroke-width="3.0" stroke-linejoin="round" stroke-linecap="butt" d="m412.8399 182.47769l0 0c0 -6.627411 5.3725586 -12.0 12.0 -12.0l0 0c3.1825867 0 6.234833 1.2642822 8.48526 3.5147247c2.2504578 2.2504272 3.51474 5.3026733 3.51474 8.485275l0 0c0 6.627411 -5.372589 12.0 -12.0 12.0l0 0c-6.6274414 0 -12.0 -5.372589 -12.0 -12.0z" fill-rule="evenodd"/><path fill="#d9d9d9" d="m19.944881 196.3307l0 0c0 -11.932831 9.67347 -21.606293 21.6063 -21.606293l0 0c5.7303467 0 11.225994 2.2763672 15.277962 6.3283386c4.051964 4.0519714 6.3283386 9.547607 6.3283386 15.277954l0 0c0 11.932831 -9.673473 21.606308 -21.6063 21.606308l0 0c-11.932831 0 -21.6063 -9.673477 -21.6063 -21.606308z" fill-rule="evenodd"/><path stroke="#000000" stroke-width="3.0" stroke-linejoin="round" stroke-linecap="butt" d="m19.944881 196.3307l0 0c0 -11.932831 9.67347 -21.606293 21.6063 -21.606293l0 0c5.7303467 0 11.225994 2.2763672 15.277962 6.3283386c4.051964 4.0519714 6.3283386 9.547607 6.3283386 15.277954l0 0c0 11.932831 -9.673473 21.606308 -21.6063 21.606308l0 0c-11.932831 0 -21.6063 -9.673477 -21.6063 -21.606308z" fill-rule="evenodd"/><path fill="#d9d9d9" d="m63.157482 196.3307l0 0c0 -11.932831 9.673466 -21.606293 21.606297 -21.606293l0 0c5.7303467 0 11.225998 2.2763672 15.277962 6.3283386c4.051964 4.0519714 6.3283386 9.547607 6.3283386 15.277954l0 0c0 11.932831 -9.67347 21.606308 -21.6063 21.606308l0 0c-11.932831 0 -21.606297 -9.673477 -21.606297 -21.606308z" fill-rule="evenodd"/><path stroke="#000000" stroke-width="3.0" stroke-linejoin="round" stroke-linecap="butt" d="m63.157482 196.3307l0 0c0 -11.932831 9.673466 -21.606293 21.606297 -21.606293l0 0c5.7303467 0 11.225998 2.2763672 15.277962 6.3283386c4.051964 4.0519714 6.3283386 9.547607 6.3283386 15.277954l0 0c0 11.932831 -9.67347 21.606308 -21.6063 21.606308l0 0c-11.932831 0 -21.606297 -9.673477 -21.606297 -21.606308z" fill-rule="evenodd"/><path fill="#d9d9d9" d="m106.37008 196.3307l0 0c0 -11.932831 9.67347 -21.606293 21.6063 -21.606293l0 0c5.7303467 0 11.225998 2.2763672 15.277954 6.3283386c4.0519714 4.0519714 6.3283386 9.547607 6.3283386 15.277954l0 0c0 11.932831 -9.673462 21.606308 -21.606293 21.606308l0 0c-11.932831 0 -21.6063 -9.673477 -21.6063 -21.606308z" fill-rule="evenodd"/><path stroke="#000000" stroke-width="3.0" stroke-linejoin="round" stroke-linecap="butt" d="m106.37008 196.3307l0 0c0 -11.932831 9.67347 -21.606293 21.6063 -21.606293l0 0c5.7303467 0 11.225998 2.2763672 15.277954 6.3283386c4.0519714 4.0519714 6.3283386 9.547607 6.3283386 15.277954l0 0c0 11.932831 -9.673462 21.606308 -21.606293 21.606308l0 0c-11.932831 0 -21.6063 -9.673477 -21.6063 -21.606308z" fill-rule="evenodd"/><path fill="#d9d9d9" d="m151.00262 196.3307l0 0c0 -11.932831 9.673477 -21.606293 21.606293 -21.606293l0 0c5.7303467 0 11.225998 2.2763672 15.277969 6.3283386c4.0519714 4.0519714 6.3283386 9.547607 6.3283386 15.277954l0 0c0 11.932831 -9.673477 21.606308 -21.606308 21.606308l0 0c-11.932816 0 -21.606293 -9.673477 -21.606293 -21.606308z" fill-rule="evenodd"/><path stroke="#000000" stroke-width="3.0" stroke-linejoin="round" stroke-linecap="butt" d="m151.00262 196.3307l0 0c0 -11.932831 9.673477 -21.606293 21.606293 -21.606293l0 0c5.7303467 0 11.225998 2.2763672 15.277969 6.3283386c4.0519714 4.0519714 6.3283386 9.547607 6.3283386 15.277954l0 0c0 11.932831 -9.673477 21.606308 -21.606308 21.606308l0 0c-11.932816 0 -21.606293 -9.673477 -21.606293 -21.606308z" fill-rule="evenodd"/><path fill="#d9d9d9" d="m195.63518 241.1181l0 0c0 -11.932816 9.673462 -21.606293 21.606293 -21.606293l0 0c5.7303467 0 11.225998 2.2763672 15.277954 6.3283386c4.0519714 4.0519714 6.3283386 9.547607 6.3283386 15.277954l0 0c0 11.932831 -9.673462 21.606293 -21.606293 21.606293l0 0c-11.932831 0 -21.606293 -9.673462 -21.606293 -21.606293z" fill-rule="evenodd"/><path stroke="#000000" stroke-width="3.0" stroke-linejoin="round" stroke-linecap="butt" d="m195.63518 241.1181l0 0c0 -11.932816 9.673462 -21.606293 21.606293 -21.606293l0 0c5.7303467 0 11.225998 2.2763672 15.277954 6.3283386c4.0519714 4.0519714 6.3283386 9.547607 6.3283386 15.277954l0 0c0 11.932831 -9.673462 21.606293 -21.606293 21.606293l0 0c-11.932831 0 -21.606293 -9.673462 -21.606293 -21.606293z" fill-rule="evenodd"/><path fill="#d9d9d9" d="m195.63518 285.0761l0 0c0 -11.932831 9.673462 -21.606293 21.606293 -21.606293l0 0c5.7303467 0 11.225998 2.2763672 15.277954 6.3283386c4.0519714 4.0519714 6.3283386 9.547607 6.3283386 15.277954l0 0c0 11.932831 -9.673462 21.606293 -21.606293 21.606293l0 0c-11.932831 0 -21.606293 -9.673462 -21.606293 -21.606293z" fill-rule="evenodd"/><path stroke="#000000" stroke-width="3.0" stroke-linejoin="round" stroke-linecap="butt" d="m195.63518 285.0761l0 0c0 -11.932831 9.673462 -21.606293 21.606293 -21.606293l0 0c5.7303467 0 11.225998 2.2763672 15.277954 6.3283386c4.0519714 4.0519714 6.3283386 9.547607 6.3283386 15.277954l0 0c0 11.932831 -9.673462 21.606293 -21.606293 21.606293l0 0c-11.932831 0 -21.606293 -9.673462 -21.606293 -21.606293z" fill-rule="evenodd"/><path fill="#d9d9d9" d="m195.63518 327.5118l0 0c0 -11.932831 9.673462 -21.606293 21.606293 -21.606293l0 0c5.7303467 0 11.225998 2.2763672 15.277954 6.3283386c4.0519714 4.0519714 6.3283386 9.547607 6.3283386 15.277954l0 0c0 11.932831 -9.673462 21.606293 -21.606293 21.606293l0 0c-11.932831 0 -21.606293 -9.673462 -21.606293 -21.606293z" fill-rule="evenodd"/><path stroke="#000000" stroke-width="3.0" stroke-linejoin="round" stroke-linecap="butt" d="m195.63518 327.5118l0 0c0 -11.932831 9.673462 -21.606293 21.606293 -21.606293l0 0c5.7303467 0 11.225998 2.2763672 15.277954 6.3283386c4.0519714 4.0519714 6.3283386 9.547607 6.3283386 15.277954l0 0c0 11.932831 -9.673462 21.606293 -21.606293 21.606293l0 0c-11.932831 0 -21.606293 -9.673462 -21.606293 -21.606293z" fill-rule="evenodd"/><path fill="#d9d9d9" d="m195.63518 371.53806l0 0c0 -11.932831 9.673462 -21.606293 21.606293 -21.606293l0 0c5.7303467 0 11.225998 2.2763672 15.277954 6.3283386c4.0519714 4.0519714 6.3283386 9.547607 6.3283386 15.277954l0 0c0 11.932831 -9.673462 21.606293 -21.606293 21.606293l0 0c-11.932831 0 -21.606293 -9.673462 -21.606293 -21.606293z" fill-rule="evenodd"/><path stroke="#000000" stroke-width="3.0" stroke-linejoin="round" stroke-linecap="butt" d="m195.63518 371.53806l0 0c0 -11.932831 9.673462 -21.606293 21.606293 -21.606293l0 0c5.7303467 0 11.225998 2.2763672 15.277954 6.3283386c4.0519714 4.0519714 6.3283386 9.547607 6.3283386 15.277954l0 0c0 11.932831 -9.673462 21.606293 -21.606293 21.606293l0 0c-11.932831 0 -21.606293 -9.673462 -21.606293 -21.606293z" fill-rule="evenodd"/><path fill="#d9d9d9" d="m195.63518 197.09186l0 0c0 -11.932831 9.673462 -21.606293 21.606293 -21.606293l0 0c5.7303467 0 11.225998 2.2763672 15.277954 6.3283386c4.0519714 4.0519714 6.3283386 9.547607 6.3283386 15.277954l0 0c0 11.932831 -9.673462 21.606308 -21.606293 21.606308l0 0c-11.932831 0 -21.606293 -9.673477 -21.606293 -21.606308z" fill-rule="evenodd"/><path stroke="#000000" stroke-width="3.0" stroke-linejoin="round" stroke-linecap="butt" d="m195.63518 197.09186l0 0c0 -11.932831 9.673462 -21.606293 21.606293 -21.606293l0 0c5.7303467 0 11.225998 2.2763672 15.277954 6.3283386c4.0519714 4.0519714 6.3283386 9.547607 6.3283386 15.277954l0 0c0 11.932831 -9.673462 21.606308 -21.606293 21.606308l0 0c-11.932831 0 -21.606293 -9.673477 -21.606293 -21.606308z" fill-rule="evenodd"/><path fill="#d9d9d9" d="m412.8399 206.01312l0 0c0 -6.627411 5.3725586 -12.0 12.0 -12.0l0 0c3.1825867 0 6.234833 1.2642822 8.48526 3.5147247c2.2504578 2.2504272 3.51474 5.3026733 3.51474 8.485275l0 0c0 6.627411 -5.372589 12.0 -12.0 12.0l0 0c-6.6274414 0 -12.0 -5.372589 -12.0 -12.0z" fill-rule="evenodd"/><path stroke="#d5a6bd" stroke-width="3.0" stroke-linejoin="round" stroke-linecap="butt" d="m412.8399 206.01312l0 0c0 -6.627411 5.3725586 -12.0 12.0 -12.0l0 0c3.1825867 0 6.234833 1.2642822 8.48526 3.5147247c2.2504578 2.2504272 3.51474 5.3026733 3.51474 8.485275l0 0c0 6.627411 -5.372589 12.0 -12.0 12.0l0 0c-6.6274414 0 -12.0 -5.372589 -12.0 -12.0z" fill-rule="evenodd"/><path fill="#d9d9d9" d="m436.8399 156.63518l0 0c0 -6.627426 5.3725586 -12.0 12.0 -12.0l0 0c3.1825867 0 6.234833 1.2642822 8.48526 3.5147095c2.2504578 2.2504425 3.51474 5.3026886 3.51474 8.485291l0 0c0 6.627411 -5.372589 12.0 -12.0 12.0l0 0c-6.6274414 0 -12.0 -5.372589 -12.0 -12.0z" fill-rule="evenodd"/><path stroke="#d5a6bd" stroke-width="3.0" stroke-linejoin="round" stroke-linecap="butt" d="m436.8399 156.63518l0 0c0 -6.627426 5.3725586 -12.0 12.0 -12.0l0 0c3.1825867 0 6.234833 1.2642822 8.48526 3.5147095c2.2504578 2.2504425 3.51474 5.3026886 3.51474 8.485291l0 0c0 6.627411 -5.372589 12.0 -12.0 12.0l0 0c-6.6274414 0 -12.0 -5.372589 -12.0 -12.0z" fill-rule="evenodd"/><path fill="#d9d9d9" d="m436.8399 182.47769l0 0c0 -6.627411 5.3725586 -12.0 12.0 -12.0l0 0c3.1825867 0 6.234833 1.2642822 8.48526 3.5147247c2.2504578 2.2504272 3.51474 5.3026733 3.51474 8.485275l0 0c0 6.627411 -5.372589 12.0 -12.0 12.0l0 0c-6.6274414 0 -12.0 -5.372589 -12.0 -12.0z" fill-rule="evenodd"/><path stroke="#d5a6bd" stroke-width="3.0" stroke-linejoin="round" stroke-linecap="butt" d="m436.8399 182.47769l0 0c0 -6.627411 5.3725586 -12.0 12.0 -12.0l0 0c3.1825867 0 6.234833 1.2642822 8.48526 3.5147247c2.2504578 2.2504272 3.51474 5.3026733 3.51474 8.485275l0 0c0 6.627411 -5.372589 12.0 -12.0 12.0l0 0c-6.6274414 0 -12.0 -5.372589 -12.0 -12.0z" fill-rule="evenodd"/><path fill="#d9d9d9" d="m436.8399 206.01312l0 0c0 -6.627411 5.3725586 -12.0 12.0 -12.0l0 0c3.1825867 0 6.234833 1.2642822 8.48526 3.5147247c2.2504578 2.2504272 3.51474 5.3026733 3.51474 8.485275l0 0c0 6.627411 -5.372589 12.0 -12.0 12.0l0 0c-6.6274414 0 -12.0 -5.372589 -12.0 -12.0z" fill-rule="evenodd"/><path stroke="#d5a6bd" stroke-width="3.0" stroke-linejoin="round" stroke-linecap="butt" d="m436.8399 206.01312l0 0c0 -6.627411 5.3725586 -12.0 12.0 -12.0l0 0c3.1825867 0 6.234833 1.2642822 8.48526 3.5147247c2.2504578 2.2504272 3.51474 5.3026733 3.51474 8.485275l0 0c0 6.627411 -5.372589 12.0 -12.0 12.0l0 0c-6.6274414 0 -12.0 -5.372589 -12.0 -12.0z" fill-rule="evenodd"/><path fill="#d9d9d9" d="m460.8399 156.63518l0 0c0 -6.627426 5.3725586 -12.0 12.0 -12.0l0 0c3.1825867 0 6.234833 1.2642822 8.48526 3.5147095c2.2504578 2.2504425 3.51474 5.3026886 3.51474 8.485291l0 0c0 6.627411 -5.372589 12.0 -12.0 12.0l0 0c-6.6274414 0 -12.0 -5.372589 -12.0 -12.0z" fill-rule="evenodd"/><path stroke="#d5a6bd" stroke-width="3.0" stroke-linejoin="round" stroke-linecap="butt" d="m460.8399 156.63518l0 0c0 -6.627426 5.3725586 -12.0 12.0 -12.0l0 0c3.1825867 0 6.234833 1.2642822 8.48526 3.5147095c2.2504578 2.2504425 3.51474 5.3026886 3.51474 8.485291l0 0c0 6.627411 -5.372589 12.0 -12.0 12.0l0 0c-6.6274414 0 -12.0 -5.372589 -12.0 -12.0z" fill-rule="evenodd"/><path fill="#d9d9d9" d="m460.8399 182.47769l0 0c0 -6.627411 5.3725586 -12.0 12.0 -12.0l0 0c3.1825867 0 6.234833 1.2642822 8.48526 3.5147247c2.2504578 2.2504272 3.51474 5.3026733 3.51474 8.485275l0 0c0 6.627411 -5.372589 12.0 -12.0 12.0l0 0c-6.6274414 0 -12.0 -5.372589 -12.0 -12.0z" fill-rule="evenodd"/><path stroke="#d5a6bd" stroke-width="3.0" stroke-linejoin="round" stroke-linecap="butt" d="m460.8399 182.47769l0 0c0 -6.627411 5.3725586 -12.0 12.0 -12.0l0 0c3.1825867 0 6.234833 1.2642822 8.48526 3.5147247c2.2504578 2.2504272 3.51474 5.3026733 3.51474 8.485275l0 0c0 6.627411 -5.372589 12.0 -12.0 12.0l0 0c-6.6274414 0 -12.0 -5.372589 -12.0 -12.0z" fill-rule="evenodd"/><path fill="#d9d9d9" d="m460.8399 206.01312l0 0c0 -6.627411 5.3725586 -12.0 12.0 -12.0l0 0c3.1825867 0 6.234833 1.2642822 8.48526 3.5147247c2.2504578 2.2504272 3.51474 5.3026733 3.51474 8.485275l0 0c0 6.627411 -5.372589 12.0 -12.0 12.0l0 0c-6.6274414 0 -12.0 -5.372589 -12.0 -12.0z" fill-rule="evenodd"/><path stroke="#d5a6bd" stroke-width="3.0" stroke-linejoin="round" stroke-linecap="butt" d="m460.8399 206.01312l0 0c0 -6.627411 5.3725586 -12.0 12.0 -12.0l0 0c3.1825867 0 6.234833 1.2642822 8.48526 3.5147247c2.2504578 2.2504272 3.51474 5.3026733 3.51474 8.485275l0 0c0 6.627411 -5.372589 12.0 -12.0 12.0l0 0c-6.6274414 0 -12.0 -5.372589 -12.0 -12.0z" fill-rule="evenodd"/><path fill="#d9d9d9" d="m388.26773 156.63518l0 0c0 -6.627426 5.3725586 -12.0 12.0 -12.0l0 0c3.1825867 0 6.234833 1.2642822 8.48526 3.5147095c2.2504578 2.2504425 3.51474 5.3026886 3.51474 8.485291l0 0c0 6.627411 -5.372589 12.0 -12.0 12.0l0 0c-6.6274414 0 -12.0 -5.372589 -12.0 -12.0z" fill-rule="evenodd"/><path stroke="#d5a6bd" stroke-width="3.0" stroke-linejoin="round" stroke-linecap="butt" d="m388.26773 156.63518l0 0c0 -6.627426 5.3725586 -12.0 12.0 -12.0l0 0c3.1825867 0 6.234833 1.2642822 8.48526 3.5147095c2.2504578 2.2504425 3.51474 5.3026886 3.51474 8.485291l0 0c0 6.627411 -5.372589 12.0 -12.0 12.0l0 0c-6.6274414 0 -12.0 -5.372589 -12.0 -12.0z" fill-rule="evenodd"/><path fill="#d9d9d9" d="m388.26773 182.47769l0 0c0 -6.627411 5.3725586 -12.0 12.0 -12.0l0 0c3.1825867 0 6.234833 1.2642822 8.48526 3.5147247c2.2504578 2.2504272 3.51474 5.3026733 3.51474 8.485275l0 0c0 6.627411 -5.372589 12.0 -12.0 12.0l0 0c-6.6274414 0 -12.0 -5.372589 -12.0 -12.0z" fill-rule="evenodd"/><path stroke="#d5a6bd" stroke-width="3.0" stroke-linejoin="round" stroke-linecap="butt" d="m388.26773 182.47769l0 0c0 -6.627411 5.3725586 -12.0 12.0 -12.0l0 0c3.1825867 0 6.234833 1.2642822 8.48526 3.5147247c2.2504578 2.2504272 3.51474 5.3026733 3.51474 8.485275l0 0c0 6.627411 -5.372589 12.0 -12.0 12.0l0 0c-6.6274414 0 -12.0 -5.372589 -12.0 -12.0z" fill-rule="evenodd"/><path fill="#d9d9d9" d="m388.26773 206.01312l0 0c0 -6.627411 5.3725586 -12.0 12.0 -12.0l0 0c3.1825867 0 6.234833 1.2642822 8.48526 3.5147247c2.2504578 2.2504272 3.51474 5.3026733 3.51474 8.485275l0 0c0 6.627411 -5.372589 12.0 -12.0 12.0l0 0c-6.6274414 0 -12.0 -5.372589 -12.0 -12.0z" fill-rule="evenodd"/><path stroke="#d5a6bd" stroke-width="3.0" stroke-linejoin="round" stroke-linecap="butt" d="m388.26773 206.01312l0 0c0 -6.627411 5.3725586 -12.0 12.0 -12.0l0 0c3.1825867 0 6.234833 1.2642822 8.48526 3.5147247c2.2504578 2.2504272 3.51474 5.3026733 3.51474 8.485275l0 0c0 6.627411 -5.372589 12.0 -12.0 12.0l0 0c-6.6274414 0 -12.0 -5.372589 -12.0 -12.0z" fill-rule="evenodd"/><path fill="#d9d9d9" d="m412.8399 130.79265l0 0c0 -6.627411 5.3725586 -12.0 12.0 -12.0l0 0c3.1825867 0 6.234833 1.2642822 8.48526 3.5147247c2.2504578 2.2504349 3.51474 5.302681 3.51474 8.485275l0 0c0 6.627426 -5.372589 12.0 -12.0 12.0l0 0c-6.6274414 0 -12.0 -5.372574 -12.0 -12.0z" fill-rule="evenodd"/><path stroke="#d5a6bd" stroke-width="3.0" stroke-linejoin="round" stroke-linecap="butt" d="m412.8399 130.79265l0 0c0 -6.627411 5.3725586 -12.0 12.0 -12.0l0 0c3.1825867 0 6.234833 1.2642822 8.48526 3.5147247c2.2504578 2.2504349 3.51474 5.302681 3.51474 8.485275l0 0c0 6.627426 -5.372589 12.0 -12.0 12.0l0 0c-6.6274414 0 -12.0 -5.372574 -12.0 -12.0z" fill-rule="evenodd"/><path fill="#d9d9d9" d="m436.8399 130.79265l0 0c0 -6.627411 5.3725586 -12.0 12.0 -12.0l0 0c3.1825867 0 6.234833 1.2642822 8.48526 3.5147247c2.2504578 2.2504349 3.51474 5.302681 3.51474 8.485275l0 0c0 6.627426 -5.372589 12.0 -12.0 12.0l0 0c-6.6274414 0 -12.0 -5.372574 -12.0 -12.0z" fill-rule="evenodd"/><path stroke="#d5a6bd" stroke-width="3.0" stroke-linejoin="round" stroke-linecap="butt" d="m436.8399 130.79265l0 0c0 -6.627411 5.3725586 -12.0 12.0 -12.0l0 0c3.1825867 0 6.234833 1.2642822 8.48526 3.5147247c2.2504578 2.2504349 3.51474 5.302681 3.51474 8.485275l0 0c0 6.627426 -5.372589 12.0 -12.0 12.0l0 0c-6.6274414 0 -12.0 -5.372574 -12.0 -12.0z" fill-rule="evenodd"/><path fill="#d9d9d9" d="m460.8399 130.79265l0 0c0 -6.627411 5.3725586 -12.0 12.0 -12.0l0 0c3.1825867 0 6.234833 1.2642822 8.48526 3.5147247c2.2504578 2.2504349 3.51474 5.302681 3.51474 8.485275l0 0c0 6.627426 -5.372589 12.0 -12.0 12.0l0 0c-6.6274414 0 -12.0 -5.372574 -12.0 -12.0z" fill-rule="evenodd"/><path stroke="#d5a6bd" stroke-width="3.0" stroke-linejoin="round" stroke-linecap="butt" d="m460.8399 130.79265l0 0c0 -6.627411 5.3725586 -12.0 12.0 -12.0l0 0c3.1825867 0 6.234833 1.2642822 8.48526 3.5147247c2.2504578 2.2504349 3.51474 5.302681 3.51474 8.485275l0 0c0 6.627426 -5.372589 12.0 -12.0 12.0l0 0c-6.6274414 0 -12.0 -5.372574 -12.0 -12.0z" fill-rule="evenodd"/><path fill="#d9d9d9" d="m388.26773 130.79265l0 0c0 -6.627411 5.3725586 -12.0 12.0 -12.0l0 0c3.1825867 0 6.234833 1.2642822 8.48526 3.5147247c2.2504578 2.2504349 3.51474 5.302681 3.51474 8.485275l0 0c0 6.627426 -5.372589 12.0 -12.0 12.0l0 0c-6.6274414 0 -12.0 -5.372574 -12.0 -12.0z" fill-rule="evenodd"/><path stroke="#d5a6bd" stroke-width="3.0" stroke-linejoin="round" stroke-linecap="butt" d="m388.26773 130.79265l0 0c0 -6.627411 5.3725586 -12.0 12.0 -12.0l0 0c3.1825867 0 6.234833 1.2642822 8.48526 3.5147247c2.2504578 2.2504349 3.51474 5.302681 3.51474 8.485275l0 0c0 6.627426 -5.372589 12.0 -12.0 12.0l0 0c-6.6274414 0 -12.0 -5.372574 -12.0 -12.0z" fill-rule="evenodd"/><path fill="#eeeeee" d="m383.22833 229.21785l106.96063 0l0 111.71654l-106.96063 0z" fill-rule="evenodd"/><path stroke="#b6d7a8" stroke-width="1.0" stroke-linejoin="round" stroke-linecap="butt" d="m383.22833 229.21785l106.96063 0l0 111.71654l-106.96063 0z" fill-rule="evenodd"/><path fill="#d9d9d9" d="m412.8399 273.08923l0 0c0 -6.627411 5.3725586 -12.0 12.0 -12.0l0 0c3.1825867 0 6.234833 1.2642822 8.48526 3.5147095c2.2504578 2.2504578 3.51474 5.302704 3.51474 8.485291l0 0c0 6.627411 -5.372589 12.0 -12.0 12.0l0 0c-6.6274414 0 -12.0 -5.372589 -12.0 -12.0z" fill-rule="evenodd"/><path stroke="#b6d7a8" stroke-width="3.0" stroke-linejoin="round" stroke-linecap="butt" d="m412.8399 273.08923l0 0c0 -6.627411 5.3725586 -12.0 12.0 -12.0l0 0c3.1825867 0 6.234833 1.2642822 8.48526 3.5147095c2.2504578 2.2504578 3.51474 5.302704 3.51474 8.485291l0 0c0 6.627411 -5.372589 12.0 -12.0 12.0l0 0c-6.6274414 0 -12.0 -5.372589 -12.0 -12.0z" fill-rule="evenodd"/><path fill="#d9d9d9" d="m412.8399 298.93176l0 0c0 -6.627411 5.3725586 -12.0 12.0 -12.0l0 0c3.1825867 0 6.234833 1.2642822 8.48526 3.5147095c2.2504578 2.2504272 3.51474 5.3026733 3.51474 8.485291l0 0c0 6.627411 -5.372589 12.0 -12.0 12.0l0 0c-6.6274414 0 -12.0 -5.372589 -12.0 -12.0z" fill-rule="evenodd"/><path stroke="#b6d7a8" stroke-width="3.0" stroke-linejoin="round" stroke-linecap="butt" d="m412.8399 298.93176l0 0c0 -6.627411 5.3725586 -12.0 12.0 -12.0l0 0c3.1825867 0 6.234833 1.2642822 8.48526 3.5147095c2.2504578 2.2504272 3.51474 5.3026733 3.51474 8.485291l0 0c0 6.627411 -5.372589 12.0 -12.0 12.0l0 0c-6.6274414 0 -12.0 -5.372589 -12.0 -12.0z" fill-rule="evenodd"/><path fill="#d9d9d9" d="m412.8399 322.4672l0 0c0 -6.627411 5.3725586 -12.0 12.0 -12.0l0 0c3.1825867 0 6.234833 1.2642822 8.48526 3.5147095c2.2504578 2.2504578 3.51474 5.302704 3.51474 8.485291l0 0c0 6.627411 -5.372589 12.0 -12.0 12.0l0 0c-6.6274414 0 -12.0 -5.372589 -12.0 -12.0z" fill-rule="evenodd"/><path stroke="#b6d7a8" stroke-width="3.0" stroke-linejoin="round" stroke-linecap="butt" d="m412.8399 322.4672l0 0c0 -6.627411 5.3725586 -12.0 12.0 -12.0l0 0c3.1825867 0 6.234833 1.2642822 8.48526 3.5147095c2.2504578 2.2504578 3.51474 5.302704 3.51474 8.485291l0 0c0 6.627411 -5.372589 12.0 -12.0 12.0l0 0c-6.6274414 0 -12.0 -5.372589 -12.0 -12.0z" fill-rule="evenodd"/><path fill="#d9d9d9" d="m436.8399 273.08923l0 0c0 -6.627411 5.3725586 -12.0 12.0 -12.0l0 0c3.1825867 0 6.234833 1.2642822 8.48526 3.5147095c2.2504578 2.2504578 3.51474 5.302704 3.51474 8.485291l0 0c0 6.627411 -5.372589 12.0 -12.0 12.0l0 0c-6.6274414 0 -12.0 -5.372589 -12.0 -12.0z" fill-rule="evenodd"/><path stroke="#b6d7a8" stroke-width="3.0" stroke-linejoin="round" stroke-linecap="butt" d="m436.8399 273.08923l0 0c0 -6.627411 5.3725586 -12.0 12.0 -12.0l0 0c3.1825867 0 6.234833 1.2642822 8.48526 3.5147095c2.2504578 2.2504578 3.51474 5.302704 3.51474 8.485291l0 0c0 6.627411 -5.372589 12.0 -12.0 12.0l0 0c-6.6274414 0 -12.0 -5.372589 -12.0 -12.0z" fill-rule="evenodd"/><path fill="#d9d9d9" d="m436.8399 298.93176l0 0c0 -6.627411 5.3725586 -12.0 12.0 -12.0l0 0c3.1825867 0 6.234833 1.2642822 8.48526 3.5147095c2.2504578 2.2504272 3.51474 5.3026733 3.51474 8.485291l0 0c0 6.627411 -5.372589 12.0 -12.0 12.0l0 0c-6.6274414 0 -12.0 -5.372589 -12.0 -12.0z" fill-rule="evenodd"/><path stroke="#b6d7a8" stroke-width="3.0" stroke-linejoin="round" stroke-linecap="butt" d="m436.8399 298.93176l0 0c0 -6.627411 5.3725586 -12.0 12.0 -12.0l0 0c3.1825867 0 6.234833 1.2642822 8.48526 3.5147095c2.2504578 2.2504272 3.51474 5.3026733 3.51474 8.485291l0 0c0 6.627411 -5.372589 12.0 -12.0 12.0l0 0c-6.6274414 0 -12.0 -5.372589 -12.0 -12.0z" fill-rule="evenodd"/><path fill="#d9d9d9" d="m436.8399 322.4672l0 0c0 -6.627411 5.3725586 -12.0 12.0 -12.0l0 0c3.1825867 0 6.234833 1.2642822 8.48526 3.5147095c2.2504578 2.2504578 3.51474 5.302704 3.51474 8.485291l0 0c0 6.627411 -5.372589 12.0 -12.0 12.0l0 0c-6.6274414 0 -12.0 -5.372589 -12.0 -12.0z" fill-rule="evenodd"/><path stroke="#b6d7a8" stroke-width="3.0" stroke-linejoin="round" stroke-linecap="butt" d="m436.8399 322.4672l0 0c0 -6.627411 5.3725586 -12.0 12.0 -12.0l0 0c3.1825867 0 6.234833 1.2642822 8.48526 3.5147095c2.2504578 2.2504578 3.51474 5.302704 3.51474 8.485291l0 0c0 6.627411 -5.372589 12.0 -12.0 12.0l0 0c-6.6274414 0 -12.0 -5.372589 -12.0 -12.0z" fill-rule="evenodd"/><path fill="#d9d9d9" d="m460.8399 273.08923l0 0c0 -6.627411 5.3725586 -12.0 12.0 -12.0l0 0c3.1825867 0 6.234833 1.2642822 8.48526 3.5147095c2.2504578 2.2504578 3.51474 5.302704 3.51474 8.485291l0 0c0 6.627411 -5.372589 12.0 -12.0 12.0l0 0c-6.6274414 0 -12.0 -5.372589 -12.0 -12.0z" fill-rule="evenodd"/><path stroke="#b6d7a8" stroke-width="3.0" stroke-linejoin="round" stroke-linecap="butt" d="m460.8399 273.08923l0 0c0 -6.627411 5.3725586 -12.0 12.0 -12.0l0 0c3.1825867 0 6.234833 1.2642822 8.48526 3.5147095c2.2504578 2.2504578 3.51474 5.302704 3.51474 8.485291l0 0c0 6.627411 -5.372589 12.0 -12.0 12.0l0 0c-6.6274414 0 -12.0 -5.372589 -12.0 -12.0z" fill-rule="evenodd"/><path fill="#d9d9d9" d="m460.8399 298.93176l0 0c0 -6.627411 5.3725586 -12.0 12.0 -12.0l0 0c3.1825867 0 6.234833 1.2642822 8.48526 3.5147095c2.2504578 2.2504272 3.51474 5.3026733 3.51474 8.485291l0 0c0 6.627411 -5.372589 12.0 -12.0 12.0l0 0c-6.6274414 0 -12.0 -5.372589 -12.0 -12.0z" fill-rule="evenodd"/><path stroke="#b6d7a8" stroke-width="3.0" stroke-linejoin="round" stroke-linecap="butt" d="m460.8399 298.93176l0 0c0 -6.627411 5.3725586 -12.0 12.0 -12.0l0 0c3.1825867 0 6.234833 1.2642822 8.48526 3.5147095c2.2504578 2.2504272 3.51474 5.3026733 3.51474 8.485291l0 0c0 6.627411 -5.372589 12.0 -12.0 12.0l0 0c-6.6274414 0 -12.0 -5.372589 -12.0 -12.0z" fill-rule="evenodd"/><path fill="#d9d9d9" d="m460.8399 322.4672l0 0c0 -6.627411 5.3725586 -12.0 12.0 -12.0l0 0c3.1825867 0 6.234833 1.2642822 8.48526 3.5147095c2.2504578 2.2504578 3.51474 5.302704 3.51474 8.485291l0 0c0 6.627411 -5.372589 12.0 -12.0 12.0l0 0c-6.6274414 0 -12.0 -5.372589 -12.0 -12.0z" fill-rule="evenodd"/><path stroke="#b6d7a8" stroke-width="3.0" stroke-linejoin="round" stroke-linecap="butt" d="m460.8399 322.4672l0 0c0 -6.627411 5.3725586 -12.0 12.0 -12.0l0 0c3.1825867 0 6.234833 1.2642822 8.48526 3.5147095c2.2504578 2.2504578 3.51474 5.302704 3.51474 8.485291l0 0c0 6.627411 -5.372589 12.0 -12.0 12.0l0 0c-6.6274414 0 -12.0 -5.372589 -12.0 -12.0z" fill-rule="evenodd"/><path fill="#d9d9d9" d="m388.26773 273.08923l0 0c0 -6.627411 5.3725586 -12.0 12.0 -12.0l0 0c3.1825867 0 6.234833 1.2642822 8.48526 3.5147095c2.2504578 2.2504578 3.51474 5.302704 3.51474 8.485291l0 0c0 6.627411 -5.372589 12.0 -12.0 12.0l0 0c-6.6274414 0 -12.0 -5.372589 -12.0 -12.0z" fill-rule="evenodd"/><path stroke="#b6d7a8" stroke-width="3.0" stroke-linejoin="round" stroke-linecap="butt" d="m388.26773 273.08923l0 0c0 -6.627411 5.3725586 -12.0 12.0 -12.0l0 0c3.1825867 0 6.234833 1.2642822 8.48526 3.5147095c2.2504578 2.2504578 3.51474 5.302704 3.51474 8.485291l0 0c0 6.627411 -5.372589 12.0 -12.0 12.0l0 0c-6.6274414 0 -12.0 -5.372589 -12.0 -12.0z" fill-rule="evenodd"/><path fill="#d9d9d9" d="m388.26773 298.93176l0 0c0 -6.627411 5.3725586 -12.0 12.0 -12.0l0 0c3.1825867 0 6.234833 1.2642822 8.48526 3.5147095c2.2504578 2.2504272 3.51474 5.3026733 3.51474 8.485291l0 0c0 6.627411 -5.372589 12.0 -12.0 12.0l0 0c-6.6274414 0 -12.0 -5.372589 -12.0 -12.0z" fill-rule="evenodd"/><path stroke="#b6d7a8" stroke-width="3.0" stroke-linejoin="round" stroke-linecap="butt" d="m388.26773 298.93176l0 0c0 -6.627411 5.3725586 -12.0 12.0 -12.0l0 0c3.1825867 0 6.234833 1.2642822 8.48526 3.5147095c2.2504578 2.2504272 3.51474 5.3026733 3.51474 8.485291l0 0c0 6.627411 -5.372589 12.0 -12.0 12.0l0 0c-6.6274414 0 -12.0 -5.372589 -12.0 -12.0z" fill-rule="evenodd"/><path fill="#d9d9d9" d="m388.26773 322.4672l0 0c0 -6.627411 5.3725586 -12.0 12.0 -12.0l0 0c3.1825867 0 6.234833 1.2642822 8.48526 3.5147095c2.2504578 2.2504578 3.51474 5.302704 3.51474 8.485291l0 0c0 6.627411 -5.372589 12.0 -12.0 12.0l0 0c-6.6274414 0 -12.0 -5.372589 -12.0 -12.0z" fill-rule="evenodd"/><path stroke="#b6d7a8" stroke-width="3.0" stroke-linejoin="round" stroke-linecap="butt" d="m388.26773 322.4672l0 0c0 -6.627411 5.3725586 -12.0 12.0 -12.0l0 0c3.1825867 0 6.234833 1.2642822 8.48526 3.5147095c2.2504578 2.2504578 3.51474 5.302704 3.51474 8.485291l0 0c0 6.627411 -5.372589 12.0 -12.0 12.0l0 0c-6.6274414 0 -12.0 -5.372589 -12.0 -12.0z" fill-rule="evenodd"/><path fill="#d9d9d9" d="m412.8399 247.24672l0 0c0 -6.627411 5.3725586 -12.0 12.0 -12.0l0 0c3.1825867 0 6.234833 1.2642822 8.48526 3.5147247c2.2504578 2.2504272 3.51474 5.3026733 3.51474 8.485275l0 0c0 6.627411 -5.372589 11.999985 -12.0 11.999985l0 0c-6.6274414 0 -12.0 -5.372574 -12.0 -11.999985z" fill-rule="evenodd"/><path stroke="#b6d7a8" stroke-width="3.0" stroke-linejoin="round" stroke-linecap="butt" d="m412.8399 247.24672l0 0c0 -6.627411 5.3725586 -12.0 12.0 -12.0l0 0c3.1825867 0 6.234833 1.2642822 8.48526 3.5147247c2.2504578 2.2504272 3.51474 5.3026733 3.51474 8.485275l0 0c0 6.627411 -5.372589 11.999985 -12.0 11.999985l0 0c-6.6274414 0 -12.0 -5.372574 -12.0 -11.999985z" fill-rule="evenodd"/><path fill="#d9d9d9" d="m436.8399 247.24672l0 0c0 -6.627411 5.3725586 -12.0 12.0 -12.0l0 0c3.1825867 0 6.234833 1.2642822 8.48526 3.5147247c2.2504578 2.2504272 3.51474 5.3026733 3.51474 8.485275l0 0c0 6.627411 -5.372589 11.999985 -12.0 11.999985l0 0c-6.6274414 0 -12.0 -5.372574 -12.0 -11.999985z" fill-rule="evenodd"/><path stroke="#b6d7a8" stroke-width="3.0" stroke-linejoin="round" stroke-linecap="butt" d="m436.8399 247.24672l0 0c0 -6.627411 5.3725586 -12.0 12.0 -12.0l0 0c3.1825867 0 6.234833 1.2642822 8.48526 3.5147247c2.2504578 2.2504272 3.51474 5.3026733 3.51474 8.485275l0 0c0 6.627411 -5.372589 11.999985 -12.0 11.999985l0 0c-6.6274414 0 -12.0 -5.372574 -12.0 -11.999985z" fill-rule="evenodd"/><path fill="#d9d9d9" d="m460.8399 247.24672l0 0c0 -6.627411 5.3725586 -12.0 12.0 -12.0l0 0c3.1825867 0 6.234833 1.2642822 8.48526 3.5147247c2.2504578 2.2504272 3.51474 5.3026733 3.51474 8.485275l0 0c0 6.627411 -5.372589 11.999985 -12.0 11.999985l0 0c-6.6274414 0 -12.0 -5.372574 -12.0 -11.999985z" fill-rule="evenodd"/><path stroke="#b6d7a8" stroke-width="3.0" stroke-linejoin="round" stroke-linecap="butt" d="m460.8399 247.24672l0 0c0 -6.627411 5.3725586 -12.0 12.0 -12.0l0 0c3.1825867 0 6.234833 1.2642822 8.48526 3.5147247c2.2504578 2.2504272 3.51474 5.3026733 3.51474 8.485275l0 0c0 6.627411 -5.372589 11.999985 -12.0 11.999985l0 0c-6.6274414 0 -12.0 -5.372574 -12.0 -11.999985z" fill-rule="evenodd"/><path fill="#d9d9d9" d="m388.26773 247.24672l0 0c0 -6.627411 5.3725586 -12.0 12.0 -12.0l0 0c3.1825867 0 6.234833 1.2642822 8.48526 3.5147247c2.2504578 2.2504272 3.51474 5.3026733 3.51474 8.485275l0 0c0 6.627411 -5.372589 11.999985 -12.0 11.999985l0 0c-6.6274414 0 -12.0 -5.372574 -12.0 -11.999985z" fill-rule="evenodd"/><path stroke="#b6d7a8" stroke-width="3.0" stroke-linejoin="round" stroke-linecap="butt" d="m388.26773 247.24672l0 0c0 -6.627411 5.3725586 -12.0 12.0 -12.0l0 0c3.1825867 0 6.234833 1.2642822 8.48526 3.5147247c2.2504578 2.2504272 3.51474 5.3026733 3.51474 8.485275l0 0c0 6.627411 -5.372589 11.999985 -12.0 11.999985l0 0c-6.6274414 0 -12.0 -5.372574 -12.0 -11.999985z" fill-rule="evenodd"/><path fill="#eeeeee" d="m383.22833 345.6719l106.96063 0l0 111.71655l-106.96063 0z" fill-rule="evenodd"/><path stroke="#a4c2f4" stroke-width="1.0" stroke-linejoin="round" stroke-linecap="butt" d="m383.22833 345.6719l106.96063 0l0 111.71655l-106.96063 0z" fill-rule="evenodd"/><path fill="#d9d9d9" d="m412.8399 389.5433l0 0c0 -6.627411 5.3725586 -12.0 12.0 -12.0l0 0c3.1825867 0 6.234833 1.2642822 8.48526 3.5147095c2.2504578 2.2504578 3.51474 5.302704 3.51474 8.485291l0 0c0 6.627411 -5.372589 12.0 -12.0 12.0l0 0c-6.6274414 0 -12.0 -5.372589 -12.0 -12.0z" fill-rule="evenodd"/><path stroke="#a4c2f4" stroke-width="3.0" stroke-linejoin="round" stroke-linecap="butt" d="m412.8399 389.5433l0 0c0 -6.627411 5.3725586 -12.0 12.0 -12.0l0 0c3.1825867 0 6.234833 1.2642822 8.48526 3.5147095c2.2504578 2.2504578 3.51474 5.302704 3.51474 8.485291l0 0c0 6.627411 -5.372589 12.0 -12.0 12.0l0 0c-6.6274414 0 -12.0 -5.372589 -12.0 -12.0z" fill-rule="evenodd"/><path fill="#d9d9d9" d="m412.8399 415.38583l0 0c0 -6.627411 5.3725586 -12.0 12.0 -12.0l0 0c3.1825867 0 6.234833 1.2642822 8.48526 3.5147095c2.2504578 2.2504272 3.51474 5.3026733 3.51474 8.485291l0 0c0 6.627411 -5.372589 12.0 -12.0 12.0l0 0c-6.6274414 0 -12.0 -5.372589 -12.0 -12.0z" fill-rule="evenodd"/><path stroke="#a4c2f4" stroke-width="3.0" stroke-linejoin="round" stroke-linecap="butt" d="m412.8399 415.38583l0 0c0 -6.627411 5.3725586 -12.0 12.0 -12.0l0 0c3.1825867 0 6.234833 1.2642822 8.48526 3.5147095c2.2504578 2.2504272 3.51474 5.3026733 3.51474 8.485291l0 0c0 6.627411 -5.372589 12.0 -12.0 12.0l0 0c-6.6274414 0 -12.0 -5.372589 -12.0 -12.0z" fill-rule="evenodd"/><path fill="#d9d9d9" d="m412.8399 438.92126l0 0c0 -6.627411 5.3725586 -12.0 12.0 -12.0l0 0c3.1825867 0 6.234833 1.2642822 8.48526 3.5147095c2.2504578 2.2504272 3.51474 5.3026733 3.51474 8.485291l0 0c0 6.627411 -5.372589 12.0 -12.0 12.0l0 0c-6.6274414 0 -12.0 -5.372589 -12.0 -12.0z" fill-rule="evenodd"/><path stroke="#a4c2f4" stroke-width="3.0" stroke-linejoin="round" stroke-linecap="butt" d="m412.8399 438.92126l0 0c0 -6.627411 5.3725586 -12.0 12.0 -12.0l0 0c3.1825867 0 6.234833 1.2642822 8.48526 3.5147095c2.2504578 2.2504272 3.51474 5.3026733 3.51474 8.485291l0 0c0 6.627411 -5.372589 12.0 -12.0 12.0l0 0c-6.6274414 0 -12.0 -5.372589 -12.0 -12.0z" fill-rule="evenodd"/><path fill="#d9d9d9" d="m436.8399 389.5433l0 0c0 -6.627411 5.3725586 -12.0 12.0 -12.0l0 0c3.1825867 0 6.234833 1.2642822 8.48526 3.5147095c2.2504578 2.2504578 3.51474 5.302704 3.51474 8.485291l0 0c0 6.627411 -5.372589 12.0 -12.0 12.0l0 0c-6.6274414 0 -12.0 -5.372589 -12.0 -12.0z" fill-rule="evenodd"/><path stroke="#a4c2f4" stroke-width="3.0" stroke-linejoin="round" stroke-linecap="butt" d="m436.8399 389.5433l0 0c0 -6.627411 5.3725586 -12.0 12.0 -12.0l0 0c3.1825867 0 6.234833 1.2642822 8.48526 3.5147095c2.2504578 2.2504578 3.51474 5.302704 3.51474 8.485291l0 0c0 6.627411 -5.372589 12.0 -12.0 12.0l0 0c-6.6274414 0 -12.0 -5.372589 -12.0 -12.0z" fill-rule="evenodd"/><path fill="#d9d9d9" d="m436.8399 415.38583l0 0c0 -6.627411 5.3725586 -12.0 12.0 -12.0l0 0c3.1825867 0 6.234833 1.2642822 8.48526 3.5147095c2.2504578 2.2504272 3.51474 5.3026733 3.51474 8.485291l0 0c0 6.627411 -5.372589 12.0 -12.0 12.0l0 0c-6.6274414 0 -12.0 -5.372589 -12.0 -12.0z" fill-rule="evenodd"/><path stroke="#a4c2f4" stroke-width="3.0" stroke-linejoin="round" stroke-linecap="butt" d="m436.8399 415.38583l0 0c0 -6.627411 5.3725586 -12.0 12.0 -12.0l0 0c3.1825867 0 6.234833 1.2642822 8.48526 3.5147095c2.2504578 2.2504272 3.51474 5.3026733 3.51474 8.485291l0 0c0 6.627411 -5.372589 12.0 -12.0 12.0l0 0c-6.6274414 0 -12.0 -5.372589 -12.0 -12.0z" fill-rule="evenodd"/><path fill="#d9d9d9" d="m436.8399 438.92126l0 0c0 -6.627411 5.3725586 -12.0 12.0 -12.0l0 0c3.1825867 0 6.234833 1.2642822 8.48526 3.5147095c2.2504578 2.2504272 3.51474 5.3026733 3.51474 8.485291l0 0c0 6.627411 -5.372589 12.0 -12.0 12.0l0 0c-6.6274414 0 -12.0 -5.372589 -12.0 -12.0z" fill-rule="evenodd"/><path stroke="#a4c2f4" stroke-width="3.0" stroke-linejoin="round" stroke-linecap="butt" d="m436.8399 438.92126l0 0c0 -6.627411 5.3725586 -12.0 12.0 -12.0l0 0c3.1825867 0 6.234833 1.2642822 8.48526 3.5147095c2.2504578 2.2504272 3.51474 5.3026733 3.51474 8.485291l0 0c0 6.627411 -5.372589 12.0 -12.0 12.0l0 0c-6.6274414 0 -12.0 -5.372589 -12.0 -12.0z" fill-rule="evenodd"/><path fill="#d9d9d9" d="m460.8399 389.5433l0 0c0 -6.627411 5.3725586 -12.0 12.0 -12.0l0 0c3.1825867 0 6.234833 1.2642822 8.48526 3.5147095c2.2504578 2.2504578 3.51474 5.302704 3.51474 8.485291l0 0c0 6.627411 -5.372589 12.0 -12.0 12.0l0 0c-6.6274414 0 -12.0 -5.372589 -12.0 -12.0z" fill-rule="evenodd"/><path stroke="#a4c2f4" stroke-width="3.0" stroke-linejoin="round" stroke-linecap="butt" d="m460.8399 389.5433l0 0c0 -6.627411 5.3725586 -12.0 12.0 -12.0l0 0c3.1825867 0 6.234833 1.2642822 8.48526 3.5147095c2.2504578 2.2504578 3.51474 5.302704 3.51474 8.485291l0 0c0 6.627411 -5.372589 12.0 -12.0 12.0l0 0c-6.6274414 0 -12.0 -5.372589 -12.0 -12.0z" fill-rule="evenodd"/><path fill="#d9d9d9" d="m460.8399 415.38583l0 0c0 -6.627411 5.3725586 -12.0 12.0 -12.0l0 0c3.1825867 0 6.234833 1.2642822 8.48526 3.5147095c2.2504578 2.2504272 3.51474 5.3026733 3.51474 8.485291l0 0c0 6.627411 -5.372589 12.0 -12.0 12.0l0 0c-6.6274414 0 -12.0 -5.372589 -12.0 -12.0z" fill-rule="evenodd"/><path stroke="#a4c2f4" stroke-width="3.0" stroke-linejoin="round" stroke-linecap="butt" d="m460.8399 415.38583l0 0c0 -6.627411 5.3725586 -12.0 12.0 -12.0l0 0c3.1825867 0 6.234833 1.2642822 8.48526 3.5147095c2.2504578 2.2504272 3.51474 5.3026733 3.51474 8.485291l0 0c0 6.627411 -5.372589 12.0 -12.0 12.0l0 0c-6.6274414 0 -12.0 -5.372589 -12.0 -12.0z" fill-rule="evenodd"/><path fill="#d9d9d9" d="m460.8399 438.92126l0 0c0 -6.627411 5.3725586 -12.0 12.0 -12.0l0 0c3.1825867 0 6.234833 1.2642822 8.48526 3.5147095c2.2504578 2.2504272 3.51474 5.3026733 3.51474 8.485291l0 0c0 6.627411 -5.372589 12.0 -12.0 12.0l0 0c-6.6274414 0 -12.0 -5.372589 -12.0 -12.0z" fill-rule="evenodd"/><path stroke="#a4c2f4" stroke-width="3.0" stroke-linejoin="round" stroke-linecap="butt" d="m460.8399 438.92126l0 0c0 -6.627411 5.3725586 -12.0 12.0 -12.0l0 0c3.1825867 0 6.234833 1.2642822 8.48526 3.5147095c2.2504578 2.2504272 3.51474 5.3026733 3.51474 8.485291l0 0c0 6.627411 -5.372589 12.0 -12.0 12.0l0 0c-6.6274414 0 -12.0 -5.372589 -12.0 -12.0z" fill-rule="evenodd"/><path fill="#d9d9d9" d="m388.26773 389.5433l0 0c0 -6.627411 5.3725586 -12.0 12.0 -12.0l0 0c3.1825867 0 6.234833 1.2642822 8.48526 3.5147095c2.2504578 2.2504578 3.51474 5.302704 3.51474 8.485291l0 0c0 6.627411 -5.372589 12.0 -12.0 12.0l0 0c-6.6274414 0 -12.0 -5.372589 -12.0 -12.0z" fill-rule="evenodd"/><path stroke="#a4c2f4" stroke-width="3.0" stroke-linejoin="round" stroke-linecap="butt" d="m388.26773 389.5433l0 0c0 -6.627411 5.3725586 -12.0 12.0 -12.0l0 0c3.1825867 0 6.234833 1.2642822 8.48526 3.5147095c2.2504578 2.2504578 3.51474 5.302704 3.51474 8.485291l0 0c0 6.627411 -5.372589 12.0 -12.0 12.0l0 0c-6.6274414 0 -12.0 -5.372589 -12.0 -12.0z" fill-rule="evenodd"/><path fill="#d9d9d9" d="m388.26773 415.38583l0 0c0 -6.627411 5.3725586 -12.0 12.0 -12.0l0 0c3.1825867 0 6.234833 1.2642822 8.48526 3.5147095c2.2504578 2.2504272 3.51474 5.3026733 3.51474 8.485291l0 0c0 6.627411 -5.372589 12.0 -12.0 12.0l0 0c-6.6274414 0 -12.0 -5.372589 -12.0 -12.0z" fill-rule="evenodd"/><path stroke="#a4c2f4" stroke-width="3.0" stroke-linejoin="round" stroke-linecap="butt" d="m388.26773 415.38583l0 0c0 -6.627411 5.3725586 -12.0 12.0 -12.0l0 0c3.1825867 0 6.234833 1.2642822 8.48526 3.5147095c2.2504578 2.2504272 3.51474 5.3026733 3.51474 8.485291l0 0c0 6.627411 -5.372589 12.0 -12.0 12.0l0 0c-6.6274414 0 -12.0 -5.372589 -12.0 -12.0z" fill-rule="evenodd"/><path fill="#d9d9d9" d="m388.26773 438.92126l0 0c0 -6.627411 5.3725586 -12.0 12.0 -12.0l0 0c3.1825867 0 6.234833 1.2642822 8.48526 3.5147095c2.2504578 2.2504272 3.51474 5.3026733 3.51474 8.485291l0 0c0 6.627411 -5.372589 12.0 -12.0 12.0l0 0c-6.6274414 0 -12.0 -5.372589 -12.0 -12.0z" fill-rule="evenodd"/><path stroke="#a4c2f4" stroke-width="3.0" stroke-linejoin="round" stroke-linecap="butt" d="m388.26773 438.92126l0 0c0 -6.627411 5.3725586 -12.0 12.0 -12.0l0 0c3.1825867 0 6.234833 1.2642822 8.48526 3.5147095c2.2504578 2.2504272 3.51474 5.3026733 3.51474 8.485291l0 0c0 6.627411 -5.372589 12.0 -12.0 12.0l0 0c-6.6274414 0 -12.0 -5.372589 -12.0 -12.0z" fill-rule="evenodd"/><path fill="#d9d9d9" d="m412.8399 363.70078l0 0c0 -6.627411 5.3725586 -12.0 12.0 -12.0l0 0c3.1825867 0 6.234833 1.2642822 8.48526 3.51474c2.2504578 2.2504272 3.51474 5.3026733 3.51474 8.48526l0 0c0 6.6274414 -5.372589 12.0 -12.0 12.0l0 0c-6.6274414 0 -12.0 -5.3725586 -12.0 -12.0z" fill-rule="evenodd"/><path stroke="#a4c2f4" stroke-width="3.0" stroke-linejoin="round" stroke-linecap="butt" d="m412.8399 363.70078l0 0c0 -6.627411 5.3725586 -12.0 12.0 -12.0l0 0c3.1825867 0 6.234833 1.2642822 8.48526 3.51474c2.2504578 2.2504272 3.51474 5.3026733 3.51474 8.48526l0 0c0 6.6274414 -5.372589 12.0 -12.0 12.0l0 0c-6.6274414 0 -12.0 -5.3725586 -12.0 -12.0z" fill-rule="evenodd"/><path fill="#d9d9d9" d="m436.8399 363.70078l0 0c0 -6.627411 5.3725586 -12.0 12.0 -12.0l0 0c3.1825867 0 6.234833 1.2642822 8.48526 3.51474c2.2504578 2.2504272 3.51474 5.3026733 3.51474 8.48526l0 0c0 6.6274414 -5.372589 12.0 -12.0 12.0l0 0c-6.6274414 0 -12.0 -5.3725586 -12.0 -12.0z" fill-rule="evenodd"/><path stroke="#a4c2f4" stroke-width="3.0" stroke-linejoin="round" stroke-linecap="butt" d="m436.8399 363.70078l0 0c0 -6.627411 5.3725586 -12.0 12.0 -12.0l0 0c3.1825867 0 6.234833 1.2642822 8.48526 3.51474c2.2504578 2.2504272 3.51474 5.3026733 3.51474 8.48526l0 0c0 6.6274414 -5.372589 12.0 -12.0 12.0l0 0c-6.6274414 0 -12.0 -5.3725586 -12.0 -12.0z" fill-rule="evenodd"/><path fill="#d9d9d9" d="m460.8399 363.70078l0 0c0 -6.627411 5.3725586 -12.0 12.0 -12.0l0 0c3.1825867 0 6.234833 1.2642822 8.48526 3.51474c2.2504578 2.2504272 3.51474 5.3026733 3.51474 8.48526l0 0c0 6.6274414 -5.372589 12.0 -12.0 12.0l0 0c-6.6274414 0 -12.0 -5.3725586 -12.0 -12.0z" fill-rule="evenodd"/><path stroke="#a4c2f4" stroke-width="3.0" stroke-linejoin="round" stroke-linecap="butt" d="m460.8399 363.70078l0 0c0 -6.627411 5.3725586 -12.0 12.0 -12.0l0 0c3.1825867 0 6.234833 1.2642822 8.48526 3.51474c2.2504578 2.2504272 3.51474 5.3026733 3.51474 8.48526l0 0c0 6.6274414 -5.372589 12.0 -12.0 12.0l0 0c-6.6274414 0 -12.0 -5.3725586 -12.0 -12.0z" fill-rule="evenodd"/><path fill="#d9d9d9" d="m388.26773 363.70078l0 0c0 -6.627411 5.3725586 -12.0 12.0 -12.0l0 0c3.1825867 0 6.234833 1.2642822 8.48526 3.51474c2.2504578 2.2504272 3.51474 5.3026733 3.51474 8.48526l0 0c0 6.6274414 -5.372589 12.0 -12.0 12.0l0 0c-6.6274414 0 -12.0 -5.3725586 -12.0 -12.0z" fill-rule="evenodd"/><path stroke="#a4c2f4" stroke-width="3.0" stroke-linejoin="round" stroke-linecap="butt" d="m388.26773 363.70078l0 0c0 -6.627411 5.3725586 -12.0 12.0 -12.0l0 0c3.1825867 0 6.234833 1.2642822 8.48526 3.51474c2.2504578 2.2504272 3.51474 5.3026733 3.51474 8.48526l0 0c0 6.6274414 -5.372589 12.0 -12.0 12.0l0 0c-6.6274414 0 -12.0 -5.3725586 -12.0 -12.0z" fill-rule="evenodd"/><path fill="#eeeeee" d="m651.52234 188.69029l59.275574 0l0 60.0l-59.275574 0z" fill-rule="evenodd"/><path stroke="#d5a6bd" stroke-width="1.0" stroke-linejoin="round" stroke-linecap="butt" d="m651.52234 188.69029l59.275574 0l0 60.0l-59.275574 0z" fill-rule="evenodd"/><path fill="#d9d9d9" d="m681.13257 232.56168l0 0c0 -6.627411 5.3725586 -12.0 12.0 -12.0l0 0c3.1825562 0 6.2348022 1.2642822 8.4852295 3.5147247c2.2504883 2.2504272 3.5147705 5.3026886 3.5147705 8.485275l0 0c0 6.627426 -5.3726196 12.0 -12.0 12.0l0 0c-6.6274414 0 -12.0 -5.372574 -12.0 -12.0z" fill-rule="evenodd"/><path stroke="#741b47" stroke-width="3.0" stroke-linejoin="round" stroke-linecap="butt" d="m681.13257 232.56168l0 0c0 -6.627411 5.3725586 -12.0 12.0 -12.0l0 0c3.1825562 0 6.2348022 1.2642822 8.4852295 3.5147247c2.2504883 2.2504272 3.5147705 5.3026886 3.5147705 8.485275l0 0c0 6.627426 -5.3726196 12.0 -12.0 12.0l0 0c-6.6274414 0 -12.0 -5.372574 -12.0 -12.0z" fill-rule="evenodd"/><path fill="#d9d9d9" d="m656.56036 232.56168l0 0c0 -6.627411 5.3725586 -12.0 12.0 -12.0l0 0c3.1826172 0 6.2348633 1.2642822 8.485291 3.5147247c2.2504272 2.2504272 3.5147095 5.3026886 3.5147095 8.485275l0 0c0 6.627426 -5.3725586 12.0 -12.0 12.0l0 0c-6.6274414 0 -12.0 -5.372574 -12.0 -12.0z" fill-rule="evenodd"/><path stroke="#c27ba0" stroke-width="3.0" stroke-linejoin="round" stroke-linecap="butt" d="m656.56036 232.56168l0 0c0 -6.627411 5.3725586 -12.0 12.0 -12.0l0 0c3.1826172 0 6.2348633 1.2642822 8.485291 3.5147247c2.2504272 2.2504272 3.5147095 5.3026886 3.5147095 8.485275l0 0c0 6.627426 -5.3725586 12.0 -12.0 12.0l0 0c-6.6274414 0 -12.0 -5.372574 -12.0 -12.0z" fill-rule="evenodd"/><path fill="#d9d9d9" d="m681.13257 206.71916l0 0c0 -6.627426 5.3725586 -12.0 12.0 -12.0l0 0c3.1825562 0 6.2348022 1.2642822 8.4852295 3.5147095c2.2504883 2.2504425 3.5147705 5.3026886 3.5147705 8.485291l0 0c0 6.627411 -5.3726196 12.0 -12.0 12.0l0 0c-6.6274414 0 -12.0 -5.372589 -12.0 -12.0z" fill-rule="evenodd"/><path stroke="#d5a6bd" stroke-width="3.0" stroke-linejoin="round" stroke-linecap="butt" d="m681.13257 206.71916l0 0c0 -6.627426 5.3725586 -12.0 12.0 -12.0l0 0c3.1825562 0 6.2348022 1.2642822 8.4852295 3.5147095c2.2504883 2.2504425 3.5147705 5.3026886 3.5147705 8.485291l0 0c0 6.627411 -5.3726196 12.0 -12.0 12.0l0 0c-6.6274414 0 -12.0 -5.372589 -12.0 -12.0z" fill-rule="evenodd"/><path fill="#d9d9d9" d="m656.56036 206.71916l0 0c0 -6.627426 5.3725586 -12.0 12.0 -12.0l0 0c3.1826172 0 6.2348633 1.2642822 8.485291 3.5147095c2.2504272 2.2504425 3.5147095 5.3026886 3.5147095 8.485291l0 0c0 6.627411 -5.3725586 12.0 -12.0 12.0l0 0c-6.6274414 0 -12.0 -5.372589 -12.0 -12.0z" fill-rule="evenodd"/><path stroke="#ead1dc" stroke-width="3.0" stroke-linejoin="round" stroke-linecap="butt" d="m656.56036 206.71916l0 0c0 -6.627426 5.3725586 -12.0 12.0 -12.0l0 0c3.1826172 0 6.2348633 1.2642822 8.485291 3.5147095c2.2504272 2.2504425 3.5147095 5.3026886 3.5147095 8.485291l0 0c0 6.627411 -5.3725586 12.0 -12.0 12.0l0 0c-6.6274414 0 -12.0 -5.372589 -12.0 -12.0z" fill-rule="evenodd"/><path fill="#eeeeee" d="m651.52234 255.49081l59.275574 0l0 60.0l-59.275574 0z" fill-rule="evenodd"/><path stroke="#b6d7a8" stroke-width="1.0" stroke-linejoin="round" stroke-linecap="butt" d="m651.52234 255.49081l59.275574 0l0 60.0l-59.275574 0z" fill-rule="evenodd"/><path fill="#d9d9d9" d="m681.13257 299.3622l0 0c0 -6.627411 5.3725586 -12.0 12.0 -12.0l0 0c3.1825562 0 6.2348022 1.2642822 8.4852295 3.5147095c2.2504883 2.2504272 3.5147705 5.3026733 3.5147705 8.485291l0 0c0 6.627411 -5.3726196 12.0 -12.0 12.0l0 0c-6.6274414 0 -12.0 -5.372589 -12.0 -12.0z" fill-rule="evenodd"/><path stroke="#38761d" stroke-width="3.0" stroke-linejoin="round" stroke-linecap="butt" d="m681.13257 299.3622l0 0c0 -6.627411 5.3725586 -12.0 12.0 -12.0l0 0c3.1825562 0 6.2348022 1.2642822 8.4852295 3.5147095c2.2504883 2.2504272 3.5147705 5.3026733 3.5147705 8.485291l0 0c0 6.627411 -5.3726196 12.0 -12.0 12.0l0 0c-6.6274414 0 -12.0 -5.372589 -12.0 -12.0z" fill-rule="evenodd"/><path fill="#d9d9d9" d="m656.56036 299.3622l0 0c0 -6.627411 5.3725586 -12.0 12.0 -12.0l0 0c3.1826172 0 6.2348633 1.2642822 8.485291 3.5147095c2.2504272 2.2504272 3.5147095 5.3026733 3.5147095 8.485291l0 0c0 6.627411 -5.3725586 12.0 -12.0 12.0l0 0c-6.6274414 0 -12.0 -5.372589 -12.0 -12.0z" fill-rule="evenodd"/><path stroke="#6aa84f" stroke-width="3.0" stroke-linejoin="round" stroke-linecap="butt" d="m656.56036 299.3622l0 0c0 -6.627411 5.3725586 -12.0 12.0 -12.0l0 0c3.1826172 0 6.2348633 1.2642822 8.485291 3.5147095c2.2504272 2.2504272 3.5147095 5.3026733 3.5147095 8.485291l0 0c0 6.627411 -5.3725586 12.0 -12.0 12.0l0 0c-6.6274414 0 -12.0 -5.372589 -12.0 -12.0z" fill-rule="evenodd"/><path fill="#d9d9d9" d="m681.13257 273.51968l0 0c0 -6.627411 5.3725586 -12.0 12.0 -12.0l0 0c3.1825562 0 6.2348022 1.2642822 8.4852295 3.5147095c2.2504883 2.2504578 3.5147705 5.302704 3.5147705 8.485291l0 0c0 6.627411 -5.3726196 12.0 -12.0 12.0l0 0c-6.6274414 0 -12.0 -5.372589 -12.0 -12.0z" fill-rule="evenodd"/><path stroke="#93c47d" stroke-width="3.0" stroke-linejoin="round" stroke-linecap="butt" d="m681.13257 273.51968l0 0c0 -6.627411 5.3725586 -12.0 12.0 -12.0l0 0c3.1825562 0 6.2348022 1.2642822 8.4852295 3.5147095c2.2504883 2.2504578 3.5147705 5.302704 3.5147705 8.485291l0 0c0 6.627411 -5.3726196 12.0 -12.0 12.0l0 0c-6.6274414 0 -12.0 -5.372589 -12.0 -12.0z" fill-rule="evenodd"/><path fill="#d9d9d9" d="m656.56036 273.51968l0 0c0 -6.627411 5.3725586 -12.0 12.0 -12.0l0 0c3.1826172 0 6.2348633 1.2642822 8.485291 3.5147095c2.2504272 2.2504578 3.5147095 5.302704 3.5147095 8.485291l0 0c0 6.627411 -5.3725586 12.0 -12.0 12.0l0 0c-6.6274414 0 -12.0 -5.372589 -12.0 -12.0z" fill-rule="evenodd"/><path stroke="#d9ead3" stroke-width="3.0" stroke-linejoin="round" stroke-linecap="butt" d="m656.56036 273.51968l0 0c0 -6.627411 5.3725586 -12.0 12.0 -12.0l0 0c3.1826172 0 6.2348633 1.2642822 8.485291 3.5147095c2.2504272 2.2504578 3.5147095 5.302704 3.5147095 8.485291l0 0c0 6.627411 -5.3725586 12.0 -12.0 12.0l0 0c-6.6274414 0 -12.0 -5.372589 -12.0 -12.0z" fill-rule="evenodd"/><path fill="#eeeeee" d="m652.7087 322.29135l59.275574 0l0 60.0l-59.275574 0z" fill-rule="evenodd"/><path stroke="#a4c2f4" stroke-width="1.0" stroke-linejoin="round" stroke-linecap="butt" d="m652.7087 322.29135l59.275574 0l0 60.0l-59.275574 0z" fill-rule="evenodd"/><path fill="#d9d9d9" d="m682.3189 366.16272l0 0c0 -6.627411 5.3725586 -12.0 12.0 -12.0l0 0c3.1826172 0 6.2348633 1.2642822 8.485291 3.51474c2.2504272 2.2504272 3.5147095 5.3026733 3.5147095 8.48526l0 0c0 6.6274414 -5.3726196 12.0 -12.0 12.0l0 0c-6.6274414 0 -12.0 -5.3725586 -12.0 -12.0z" fill-rule="evenodd"/><path stroke="#1155cc" stroke-width="3.0" stroke-linejoin="round" stroke-linecap="butt" d="m682.3189 366.16272l0 0c0 -6.627411 5.3725586 -12.0 12.0 -12.0l0 0c3.1826172 0 6.2348633 1.2642822 8.485291 3.51474c2.2504272 2.2504272 3.5147095 5.3026733 3.5147095 8.48526l0 0c0 6.6274414 -5.3726196 12.0 -12.0 12.0l0 0c-6.6274414 0 -12.0 -5.3725586 -12.0 -12.0z" fill-rule="evenodd"/><path fill="#d9d9d9" d="m657.7467 366.16272l0 0c0 -6.627411 5.3726196 -12.0 12.0 -12.0l0 0c3.1826172 0 6.2348633 1.2642822 8.485291 3.51474c2.2504272 2.2504272 3.5147095 5.3026733 3.5147095 8.48526l0 0c0 6.6274414 -5.3725586 12.0 -12.0 12.0l0 0c-6.6273804 0 -12.0 -5.3725586 -12.0 -12.0z" fill-rule="evenodd"/><path stroke="#3c78d8" stroke-width="3.0" stroke-linejoin="round" stroke-linecap="butt" d="m657.7467 366.16272l0 0c0 -6.627411 5.3726196 -12.0 12.0 -12.0l0 0c3.1826172 0 6.2348633 1.2642822 8.485291 3.51474c2.2504272 2.2504272 3.5147095 5.3026733 3.5147095 8.48526l0 0c0 6.6274414 -5.3725586 12.0 -12.0 12.0l0 0c-6.6273804 0 -12.0 -5.3725586 -12.0 -12.0z" fill-rule="evenodd"/><path fill="#d9d9d9" d="m682.3189 340.32022l0 0c0 -6.6274414 5.3725586 -12.0 12.0 -12.0l0 0c3.1826172 0 6.2348633 1.2642822 8.485291 3.5147095c2.2504272 2.2504272 3.5147095 5.3026733 3.5147095 8.485291l0 0c0 6.627411 -5.3726196 12.0 -12.0 12.0l0 0c-6.6274414 0 -12.0 -5.372589 -12.0 -12.0z" fill-rule="evenodd"/><path stroke="#6d9eeb" stroke-width="3.0" stroke-linejoin="round" stroke-linecap="butt" d="m682.3189 340.32022l0 0c0 -6.6274414 5.3725586 -12.0 12.0 -12.0l0 0c3.1826172 0 6.2348633 1.2642822 8.485291 3.5147095c2.2504272 2.2504272 3.5147095 5.3026733 3.5147095 8.485291l0 0c0 6.627411 -5.3726196 12.0 -12.0 12.0l0 0c-6.6274414 0 -12.0 -5.372589 -12.0 -12.0z" fill-rule="evenodd"/><path fill="#d9d9d9" d="m657.7467 340.32022l0 0c0 -6.6274414 5.3726196 -12.0 12.0 -12.0l0 0c3.1826172 0 6.2348633 1.2642822 8.485291 3.5147095c2.2504272 2.2504272 3.5147095 5.3026733 3.5147095 8.485291l0 0c0 6.627411 -5.3725586 12.0 -12.0 12.0l0 0c-6.6273804 0 -12.0 -5.372589 -12.0 -12.0z" fill-rule="evenodd"/><path stroke="#c9daf8" stroke-width="3.0" stroke-linejoin="round" stroke-linecap="butt" d="m657.7467 340.32022l0 0c0 -6.6274414 5.3726196 -12.0 12.0 -12.0l0 0c3.1826172 0 6.2348633 1.2642822 8.485291 3.5147095c2.2504272 2.2504272 3.5147095 5.3026733 3.5147095 8.485291l0 0c0 6.627411 -5.3725586 12.0 -12.0 12.0l0 0c-6.6273804 0 -12.0 -5.372589 -12.0 -12.0z" fill-rule="evenodd"/><path fill="#000000" fill-opacity="0.0" d="m680.56036 206.71916l198.11023 78.77165" fill-rule="evenodd"/><path stroke="#595959" stroke-width="1.0" stroke-linejoin="round" stroke-linecap="butt" d="m680.56036 206.71916l198.11023 78.77165" fill-rule="evenodd"/><path fill="#000000" fill-opacity="0.0" d="m705.13257 206.71916l173.54327 78.77165" fill-rule="evenodd"/><path stroke="#595959" stroke-width="1.0" stroke-linejoin="round" stroke-linecap="butt" d="m705.13257 206.71916l173.54327 78.77165" fill-rule="evenodd"/><path fill="#000000" fill-opacity="0.0" d="m680.56036 232.56168l198.11023 52.944885" fill-rule="evenodd"/><path stroke="#595959" stroke-width="1.0" stroke-linejoin="round" stroke-linecap="butt" d="m680.56036 232.56168l198.11023 52.944885" fill-rule="evenodd"/><path fill="#000000" fill-opacity="0.0" d="m705.13257 232.56168l173.54327 52.944885" fill-rule="evenodd"/><path stroke="#595959" stroke-width="1.0" stroke-linejoin="round" stroke-linecap="butt" d="m705.13257 232.56168l173.54327 52.944885" fill-rule="evenodd"/><path fill="#000000" fill-opacity="0.0" d="m680.56036 273.51968l198.11023 11.968506" fill-rule="evenodd"/><path stroke="#595959" stroke-width="1.0" stroke-linejoin="round" stroke-linecap="butt" d="m680.56036 273.51968l198.11023 11.968506" fill-rule="evenodd"/><path fill="#000000" fill-opacity="0.0" d="m705.13257 273.51968l173.54327 11.968506" fill-rule="evenodd"/><path stroke="#595959" stroke-width="1.0" stroke-linejoin="round" stroke-linecap="butt" d="m705.13257 273.51968l173.54327 11.968506" fill-rule="evenodd"/><path fill="#000000" fill-opacity="0.0" d="m680.56036 299.3622l198.11023 -13.858276" fill-rule="evenodd"/><path stroke="#595959" stroke-width="1.0" stroke-linejoin="round" stroke-linecap="butt" d="m680.56036 299.3622l198.11023 -13.858276" fill-rule="evenodd"/><path fill="#000000" fill-opacity="0.0" d="m705.13257 299.3622l173.54327 -13.858276" fill-rule="evenodd"/><path stroke="#595959" stroke-width="1.0" stroke-linejoin="round" stroke-linecap="butt" d="m705.13257 299.3622l173.54327 -13.858276" fill-rule="evenodd"/><path fill="#000000" fill-opacity="0.0" d="m681.7467 340.32022l196.91339 -54.834656" fill-rule="evenodd"/><path stroke="#595959" stroke-width="1.0" stroke-linejoin="round" stroke-linecap="butt" d="m681.7467 340.32022l196.91339 -54.834656" fill-rule="evenodd"/><path fill="#000000" fill-opacity="0.0" d="m706.3189 340.32022l172.34644 -54.834656" fill-rule="evenodd"/><path stroke="#595959" stroke-width="1.0" stroke-linejoin="round" stroke-linecap="butt" d="m706.3189 340.32022l172.34644 -54.834656" fill-rule="evenodd"/><path fill="#000000" fill-opacity="0.0" d="m681.7467 366.16272l196.91339 -80.66141" fill-rule="evenodd"/><path stroke="#595959" stroke-width="1.0" stroke-linejoin="round" stroke-linecap="butt" d="m681.7467 366.16272l196.91339 -80.66141" fill-rule="evenodd"/><path fill="#000000" fill-opacity="0.0" d="m706.3189 366.16272l172.34644 -80.66141" fill-rule="evenodd"/><path stroke="#595959" stroke-width="1.0" stroke-linejoin="round" stroke-linecap="butt" d="m706.3189 366.16272l172.34644 -80.66141" fill-rule="evenodd"/><path fill="#000000" fill-opacity="0.0" d="m388.38846 119.09974l48.0 0l0 49.22834l-48.0 0z" fill-rule="evenodd"/><path stroke="#ead1dc" stroke-width="3.0" stroke-linejoin="round" stroke-linecap="butt" d="m388.38846 119.09974l48.0 0l0 49.22834l-48.0 0z" fill-rule="evenodd"/><path fill="#000000" fill-opacity="0.0" d="m436.38846 119.40682l48.0 0l0 49.228355l-48.0 0z" fill-rule="evenodd"/><path stroke="#c27ba0" stroke-width="3.0" stroke-linejoin="round" stroke-linecap="butt" d="m436.38846 119.40682l48.0 0l0 49.228355l-48.0 0z" fill-rule="evenodd"/><path fill="#000000" fill-opacity="0.0" d="m388.38846 169.2231l48.0 0l0 49.228348l-48.0 0z" fill-rule="evenodd"/><path stroke="#a64d79" stroke-width="3.0" stroke-linejoin="round" stroke-linecap="butt" d="m388.38846 169.2231l48.0 0l0 49.228348l-48.0 0z" fill-rule="evenodd"/><path fill="#000000" fill-opacity="0.0" d="m435.7034 169.22179l48.0 0l0 49.228348l-48.0 0z" fill-rule="evenodd"/><path stroke="#741b47" stroke-width="3.0" stroke-linejoin="round" stroke-linecap="butt" d="m435.7034 169.22179l48.0 0l0 49.228348l-48.0 0z" fill-rule="evenodd"/><path fill="#000000" fill-opacity="0.0" d="m388.70734 235.40027l48.0 0l0 49.228333l-48.0 0z" fill-rule="evenodd"/><path stroke="#d9ead3" stroke-width="3.0" stroke-linejoin="round" stroke-linecap="butt" d="m388.70734 235.40027l48.0 0l0 49.228333l-48.0 0z" fill-rule="evenodd"/><path fill="#000000" fill-opacity="0.0" d="m436.70734 235.70735l48.0 0l0 49.228348l-48.0 0z" fill-rule="evenodd"/><path stroke="#93c47d" stroke-width="3.0" stroke-linejoin="round" stroke-linecap="butt" d="m436.70734 235.70735l48.0 0l0 49.228348l-48.0 0z" fill-rule="evenodd"/><path fill="#000000" fill-opacity="0.0" d="m388.70734 285.52362l48.0 0l0 49.228363l-48.0 0z" fill-rule="evenodd"/><path stroke="#6aa84f" stroke-width="3.0" stroke-linejoin="round" stroke-linecap="butt" d="m388.70734 285.52362l48.0 0l0 49.228363l-48.0 0z" fill-rule="evenodd"/><path fill="#000000" fill-opacity="0.0" d="m436.0223 285.5223l48.0 0l0 49.228363l-48.0 0z" fill-rule="evenodd"/><path stroke="#38761d" stroke-width="3.0" stroke-linejoin="round" stroke-linecap="butt" d="m436.0223 285.5223l48.0 0l0 49.228363l-48.0 0z" fill-rule="evenodd"/><path fill="#000000" fill-opacity="0.0" d="m389.1483 351.69946l48.0 0l0 49.228363l-48.0 0z" fill-rule="evenodd"/><path stroke="#cfe2f3" stroke-width="3.0" stroke-linejoin="round" stroke-linecap="butt" d="m389.1483 351.69946l48.0 0l0 49.228363l-48.0 0z" fill-rule="evenodd"/><path fill="#000000" fill-opacity="0.0" d="m437.1483 352.00656l48.0 0l0 49.228333l-48.0 0z" fill-rule="evenodd"/><path stroke="#6fa8dc" stroke-width="3.0" stroke-linejoin="round" stroke-linecap="butt" d="m437.1483 352.00656l48.0 0l0 49.228333l-48.0 0z" fill-rule="evenodd"/><path fill="#000000" fill-opacity="0.0" d="m389.1483 401.82285l48.0 0l0 49.228333l-48.0 0z" fill-rule="evenodd"/><path stroke="#3d85c6" stroke-width="3.0" stroke-linejoin="round" stroke-linecap="butt" d="m389.1483 401.82285l48.0 0l0 49.228333l-48.0 0z" fill-rule="evenodd"/><path fill="#000000" fill-opacity="0.0" d="m436.46326 401.82153l48.0 0l0 49.228333l-48.0 0z" fill-rule="evenodd"/><path stroke="#0b5394" stroke-width="3.0" stroke-linejoin="round" stroke-linecap="butt" d="m436.46326 401.82153l48.0 0l0 49.228333l-48.0 0z" fill-rule="evenodd"/><path fill="#000000" fill-opacity="0.0" d="m436.38846 144.021l220.1575 62.708664" fill-rule="evenodd"/><path stroke="#ead1dc" stroke-width="1.0" stroke-linejoin="round" stroke-linecap="butt" d="m436.38846 144.021l220.1575 62.708664" fill-rule="evenodd"/><path fill="#000000" fill-opacity="0.0" d="m484.38846 144.021l217.22836 71.18111" fill-rule="evenodd"/><path stroke="#c27ba0" stroke-width="1.0" stroke-linejoin="round" stroke-linecap="butt" d="m484.38846 144.021l217.22836 71.18111" fill-rule="evenodd"/><path fill="#000000" fill-opacity="0.0" d="m436.4029 193.82152l220.15747 38.740158" fill-rule="evenodd"/><path stroke="#a64d79" stroke-width="1.0" stroke-linejoin="round" stroke-linecap="butt" d="m436.4029 193.82152l220.15747 38.740158" fill-rule="evenodd"/><path fill="#000000" fill-opacity="0.0" d="m483.7034 193.83595l196.85043 38.740158" fill-rule="evenodd"/><path stroke="#741b47" stroke-width="1.0" stroke-linejoin="round" stroke-linecap="butt" d="m483.7034 193.83595l196.85043 38.740158" fill-rule="evenodd"/><path fill="#000000" fill-opacity="0.0" d="m436.71783 260.00787l219.84253 13.51181" fill-rule="evenodd"/><path stroke="#d9ead3" stroke-width="1.0" stroke-linejoin="round" stroke-linecap="butt" d="m436.71783 260.00787l219.84253 13.51181" fill-rule="evenodd"/><path fill="#000000" fill-opacity="0.0" d="m484.71783 260.32285l195.84253 13.196838" fill-rule="evenodd"/><path stroke="#93c47d" stroke-width="1.0" stroke-linejoin="round" stroke-linecap="butt" d="m484.71783 260.32285l195.84253 13.196838" fill-rule="evenodd"/><path fill="#000000" fill-opacity="0.0" d="m436.71783 310.13385l219.84253 -10.771637" fill-rule="evenodd"/><path stroke="#6aa84f" stroke-width="1.0" stroke-linejoin="round" stroke-linecap="butt" d="m436.71783 310.13385l219.84253 -10.771637" fill-rule="evenodd"/><path fill="#000000" fill-opacity="0.0" d="m484.0223 310.13647l196.53543 -10.771637" fill-rule="evenodd"/><path stroke="#38761d" stroke-width="1.0" stroke-linejoin="round" stroke-linecap="butt" d="m484.0223 310.13647l196.53543 -10.771637" fill-rule="evenodd"/><path fill="#000000" fill-opacity="0.0" d="m437.1483 376.32022l220.59842 -36.0" fill-rule="evenodd"/><path stroke="#c9daf8" stroke-width="1.0" stroke-linejoin="round" stroke-linecap="butt" d="m437.1483 376.32022l220.59842 -36.0" fill-rule="evenodd"/><path fill="#000000" fill-opacity="0.0" d="m485.1483 376.62073l196.59842 -36.31494" fill-rule="evenodd"/><path stroke="#6d9eeb" stroke-width="1.0" stroke-linejoin="round" stroke-linecap="butt" d="m485.1483 376.62073l196.59842 -36.31494" fill-rule="evenodd"/><path fill="#000000" fill-opacity="0.0" d="m437.1483 426.4462l220.59842 -60.283478" fill-rule="evenodd"/><path stroke="#3c78d8" stroke-width="1.0" stroke-linejoin="round" stroke-linecap="butt" d="m437.1483 426.4462l220.59842 -60.283478" fill-rule="evenodd"/><path fill="#000000" fill-opacity="0.0" d="m484.46326 426.4357l197.29132 -60.283478" fill-rule="evenodd"/><path stroke="#1155cc" stroke-width="1.0" stroke-linejoin="round" stroke-linecap="butt" d="m484.46326 426.4357l197.29132 -60.283478" fill-rule="evenodd"/></g></svg>